<svg xmlns="http://www.w3.org/2000/svg" height="0" width="768.0" version="1.1" y="0" x="0" preserveAspectRatio="none" xmlns:xlink="http://www.w3.org/1999/xlink" viewBox="0 -30 819.2 0"  >
<g  >
<line y1="60" x2="778.0" style="stroke:grey; stroke-width:2; " x1="10" y2="60"  />
</g>
<g id="a41_000"  >
<polygon style="stroke:black; stroke-width:1; fill:grey; " points="10,65 13,60 10,55 10,65 "  />
</g>
<g id="a41_001"  >
<polygon style="stroke:black; stroke-width:1; fill:grey; " points="14,60 14,55 14,65 14,60 "  />
</g>
<g id="a41_002"  >
<polygon style="stroke:black; stroke-width:1; fill:grey; " points="18,60 20,55 20,65 18,60 "  />
</g>
<g id="a41_003"  >
<polygon style="stroke:black; stroke-width:1; fill:grey; " points="18,60 21,55 21,65 18,60 "  />
</g>
<g id="a41_004"  >
<polygon style="stroke:black; stroke-width:1; fill:grey; " points="36,65 37,65 42,60 37,55 36,55 36,65 "  />
</g>
<g id="a41_005"  >
<polygon style="stroke:black; stroke-width:1; fill:grey; " points="47,60 48,55 48,65 47,60 "  />
</g>
<g id="a41_006"  >
<polygon style="stroke:black; stroke-width:1; fill:grey; " points="47,60 48,55 48,65 47,60 "  />
</g>
<g id="a41_007"  >
<polygon style="stroke:black; stroke-width:1; fill:grey; " points="56,65 58,60 56,55 56,65 "  />
</g>
<g id="a41_008"  >
<polygon style="stroke:black; stroke-width:1; fill:grey; " points="60,65 63,60 60,55 60,65 "  />
</g>
<g id="a41_009"  >
<polygon style="stroke:black; stroke-width:1; fill:grey; " points="68,65 71,60 68,55 68,65 "  />
</g>
<g id="a41_0010"  >
<polygon style="stroke:black; stroke-width:1; fill:grey; " points="75,65 75,60 75,55 75,65 "  />
</g>
<g id="a41_0011"  >
<polygon style="stroke:black; stroke-width:1; fill:grey; " points="77,65 77,60 77,55 77,65 "  />
</g>
<g id="a41_0012"  >
<polygon style="stroke:black; stroke-width:1; fill:grey; " points="83,65 84,60 83,55 83,65 "  />
</g>
<g id="a41_0013"  >
<polygon style="stroke:black; stroke-width:1; fill:grey; " points="88,65 91,60 88,55 88,65 "  />
</g>
<g id="a41_0014"  >
<polygon style="stroke:black; stroke-width:1; fill:grey; " points="93,65 93,65 98,60 93,55 93,55 93,65 "  />
</g>
<g id="a41_0015"  >
<polygon style="stroke:black; stroke-width:1; fill:grey; " points="99,60 100,55 100,65 99,60 "  />
</g>
<g id="a41_0016"  >
<polygon style="stroke:black; stroke-width:1; fill:grey; " points="104,65 106,60 104,55 104,65 "  />
</g>
<g id="a41_0017"  >
<polygon style="stroke:black; stroke-width:1; fill:grey; " points="108,65 110,60 108,55 108,65 "  />
</g>
<g id="a41_0018"  >
<polygon style="stroke:black; stroke-width:1; fill:grey; " points="120,65 123,60 120,55 120,65 "  />
</g>
<g id="a41_0019"  >
<polygon style="stroke:black; stroke-width:1; fill:grey; " points="126,60 128,55 128,65 126,60 "  />
</g>
<g id="a41_0020"  >
<polygon style="stroke:black; stroke-width:1; fill:grey; " points="129,60 132,55 132,65 129,60 "  />
</g>
<g id="a41_0021"  >
<polygon style="stroke:black; stroke-width:1; fill:grey; " points="134,60 138,55 138,65 134,60 "  />
</g>
<g id="a41_0022"  >
<polygon style="stroke:black; stroke-width:1; fill:grey; " points="145,65 148,60 145,55 145,65 "  />
</g>
<g id="a41_0023"  >
<polygon style="stroke:black; stroke-width:1; fill:grey; " points="151,60 155,55 155,65 151,60 "  />
</g>
<g id="a41_0024"  >
<polygon style="stroke:black; stroke-width:1; fill:grey; " points="151,60 155,55 155,65 151,60 "  />
</g>
<g id="a41_0025"  >
<polygon style="stroke:black; stroke-width:1; fill:grey; " points="151,60 155,55 155,65 151,60 "  />
</g>
<g id="a41_0026"  >
<polygon style="stroke:black; stroke-width:1; fill:grey; " points="151,60 155,55 155,65 151,60 "  />
</g>
<g id="a41_0027"  >
<polygon style="stroke:black; stroke-width:1; fill:grey; " points="156,65 160,60 156,55 156,65 "  />
</g>
<g id="a41_0028"  >
<polygon style="stroke:black; stroke-width:1; fill:grey; " points="162,60 163,55 163,65 162,60 "  />
</g>
<g id="a41_0029"  >
<polygon style="stroke:black; stroke-width:1; fill:grey; " points="165,65 165,60 165,55 165,65 "  />
</g>
<g id="a41_0030"  >
<polygon style="stroke:black; stroke-width:1; fill:grey; " points="168,60 171,55 171,65 168,60 "  />
</g>
<g id="a41_0031"  >
<polygon style="stroke:black; stroke-width:1; fill:grey; " points="175,60 175,55 175,65 175,60 "  />
</g>
<g id="a41_0032"  >
<polygon style="stroke:black; stroke-width:1; fill:grey; " points="175,60 175,55 175,65 175,60 "  />
</g>
<g id="a41_0033"  >
<polygon style="stroke:black; stroke-width:1; fill:grey; " points="176,60 178,55 178,65 176,60 "  />
</g>
<g id="a41_0034"  >
<polygon style="stroke:black; stroke-width:1; fill:grey; " points="176,60 178,55 178,65 176,60 "  />
</g>
<g id="a41_0035"  >
<polygon style="stroke:black; stroke-width:1; fill:grey; " points="176,60 178,55 178,65 176,60 "  />
</g>
<g id="a41_0036"  >
<polygon style="stroke:black; stroke-width:1; fill:grey; " points="183,60 184,55 184,65 183,60 "  />
</g>
<g id="a41_0037"  >
<polygon style="stroke:black; stroke-width:1; fill:grey; " points="186,60 188,55 188,65 186,60 "  />
</g>
<g id="a41_0038"  >
<polygon style="stroke:black; stroke-width:1; fill:grey; " points="202,65 206,60 202,55 202,65 "  />
</g>
<g id="a41_0039"  >
<polygon style="stroke:black; stroke-width:1; fill:grey; " points="202,65 206,60 202,55 202,65 "  />
</g>
<g id="a41_0040"  >
<polygon style="stroke:black; stroke-width:1; fill:grey; " points="213,60 215,55 215,65 213,60 "  />
</g>
<g id="a41_0041"  >
<polygon style="stroke:black; stroke-width:1; fill:grey; " points="263,60 267,55 267,65 263,60 "  />
</g>
<g id="a41_0042"  >
<polygon style="stroke:black; stroke-width:1; fill:grey; " points="303,60 305,55 305,65 303,60 "  />
</g>
<g id="a41_0043"  >
<polygon style="stroke:black; stroke-width:1; fill:grey; " points="303,60 305,55 305,65 303,60 "  />
</g>
<g id="a41_0044"  >
<polygon style="stroke:black; stroke-width:1; fill:grey; " points="303,60 305,55 305,65 303,60 "  />
</g>
<g id="a41_0045"  >
<polygon style="stroke:black; stroke-width:1; fill:grey; " points="355,60 356,55 356,65 355,60 "  />
</g>
<g id="a41_0046"  >
<polygon style="stroke:black; stroke-width:1; fill:#810E15; " points="370,65 370,60 370,55 370,65 "  />
</g>
<g id="a41_0047"  >
<polygon style="stroke:black; stroke-width:1; fill:grey; " points="392,60 393,55 393,65 392,60 "  />
</g>
<g id="a41_0048"  >
<polygon style="stroke:black; stroke-width:1; fill:grey; " points="405,60 407,55 407,65 405,60 "  />
</g>
<g id="a41_0049"  >
<polygon style="stroke:black; stroke-width:1; fill:#810E15; " points="409,65 409,60 409,55 409,65 "  />
</g>
<g id="a41_0050"  >
<polygon style="stroke:black; stroke-width:1; fill:grey; " points="421,65 422,60 421,55 421,65 "  />
</g>
<g id="a41_0051"  >
<polygon style="stroke:black; stroke-width:1; fill:grey; " points="446,65 447,60 446,55 446,65 "  />
</g>
<g id="a41_0052"  >
<polygon style="stroke:black; stroke-width:1; fill:grey; " points="454,65 456,60 454,55 454,65 "  />
</g>
<g id="a41_0053"  >
<polygon style="stroke:black; stroke-width:1; fill:grey; " points="456,65 456,60 456,55 456,65 "  />
</g>
<g id="a41_0054"  >
<polygon style="stroke:black; stroke-width:1; fill:grey; " points="480,60 482,55 482,65 480,60 "  />
</g>
<g id="a41_0055"  >
<polygon style="stroke:black; stroke-width:1; fill:grey; " points="485,60 487,55 487,65 485,60 "  />
</g>
<g id="a41_0056"  >
<polygon style="stroke:black; stroke-width:1; fill:grey; " points="493,65 494,60 493,55 493,65 "  />
</g>
<g id="a41_0057"  >
<polygon style="stroke:black; stroke-width:1; fill:grey; " points="493,65 494,60 493,55 493,65 "  />
</g>
<g id="a41_0058"  >
<polygon style="stroke:black; stroke-width:1; fill:grey; " points="497,60 500,55 500,65 497,60 "  />
</g>
<g id="a41_0059"  >
<polygon style="stroke:black; stroke-width:1; fill:grey; " points="515,65 520,65 525,60 520,55 515,55 515,65 "  />
</g>
<g id="a41_0060"  >
<polygon style="stroke:black; stroke-width:1; fill:grey; " points="527,60 528,55 528,65 527,60 "  />
</g>
<g id="a41_0061"  >
<polygon style="stroke:black; stroke-width:1; fill:grey; " points="578,60 581,55 581,65 578,60 "  />
</g>
<g id="a41_0062"  >
<polygon style="stroke:black; stroke-width:1; fill:grey; " points="591,65 594,60 591,55 591,65 "  />
</g>
<g id="a41_0063"  >
<polygon style="stroke:black; stroke-width:1; fill:grey; " points="594,65 598,60 594,55 594,65 "  />
</g>
<g id="a41_0064"  >
<polygon style="stroke:black; stroke-width:1; fill:grey; " points="599,60 601,55 601,65 599,60 "  />
</g>
<g id="a41_0065"  >
<polygon style="stroke:black; stroke-width:1; fill:grey; " points="606,65 606,60 606,55 606,65 "  />
</g>
<g id="a41_0066"  >
<polygon style="stroke:black; stroke-width:1; fill:grey; " points="611,65 613,60 611,55 611,65 "  />
</g>
<g id="a41_0067"  >
<polygon style="stroke:black; stroke-width:1; fill:grey; " points="635,65 637,60 635,55 635,65 "  />
</g>
<g id="a41_0068"  >
<polygon style="stroke:black; stroke-width:1; fill:grey; " points="638,60 639,55 639,65 638,60 "  />
</g>
<g id="a41_0069"  >
<polygon style="stroke:black; stroke-width:1; fill:grey; " points="669,65 670,60 669,55 669,65 "  />
</g>
<g id="a41_0070"  >
<polygon style="stroke:black; stroke-width:1; fill:grey; " points="681,65 681,60 681,55 681,65 "  />
</g>
<g id="a41_0071"  >
<polygon style="stroke:black; stroke-width:1; fill:#810E15; " points="687,60 687,55 687,65 687,60 "  />
</g>
<g id="a41_0072"  >
<polygon style="stroke:black; stroke-width:1; fill:#810E15; " points="687,60 687,55 687,65 687,60 "  />
</g>
<g id="a41_0073"  >
<polygon style="stroke:black; stroke-width:1; fill:grey; " points="691,65 692,60 691,55 691,65 "  />
</g>
<g id="a41_0074"  >
<polygon style="stroke:black; stroke-width:1; fill:#810E15; " points="693,60 694,55 694,65 693,60 "  />
</g>
<g id="a41_0075"  >
<polygon style="stroke:black; stroke-width:1; fill:#810E15; " points="693,60 694,55 694,65 693,60 "  />
</g>
<g id="a41_0076"  >
<polygon style="stroke:black; stroke-width:1; fill:grey; " points="697,65 698,60 697,55 697,65 "  />
</g>
<g id="a41_0077"  >
<polygon style="stroke:black; stroke-width:1; fill:grey; " points="715,65 717,60 715,55 715,65 "  />
</g>
<g id="a41_0078"  >
<polygon style="stroke:black; stroke-width:1; fill:grey; " points="725,65 725,60 725,55 725,65 "  />
</g>
<g id="a41_0079"  >
<polygon style="stroke:black; stroke-width:1; fill:grey; " points="731,65 732,60 731,55 731,65 "  />
</g>
<g id="a41_0080"  >
<polygon style="stroke:black; stroke-width:1; fill:grey; " points="748,65 751,60 748,55 748,65 "  />
</g>
<g id="a41_0081"  >
<polygon style="stroke:black; stroke-width:1; fill:grey; " points="753,60 755,55 755,65 753,60 "  />
</g>
<g id="a41_0082"  >
<polygon style="stroke:black; stroke-width:1; fill:grey; " points="759,60 759,55 759,65 759,60 "  />
</g>
<g id="a41_0083"  >
<polygon style="stroke:black; stroke-width:1; fill:grey; " points="760,65 763,60 760,55 760,65 "  />
</g>
<g id="a41_0084"  >
<polygon style="stroke:black; stroke-width:1; fill:grey; " points="765,65 769,60 765,55 765,65 "  />
</g>
<g id="a41_0085"  >
<polygon style="stroke:black; stroke-width:1; fill:grey; " points="770,60 773,55 773,65 770,60 "  />
</g>
<g id="a41_0086"  >
<polygon style="stroke:black; stroke-width:1; fill:grey; " points="775,60 778,55 778,65 775,60 "  />
</g>
<g id="a41_0087"  >
<polygon style="stroke:black; stroke-width:1; fill:grey; " points="775,60 778,55 778,65 775,60 "  />
</g>
</svg>
