<svg xmlns="http://www.w3.org/2000/svg" height="0" width="768.0" version="1.1" y="0" x="0" preserveAspectRatio="none" xmlns:xlink="http://www.w3.org/1999/xlink" viewBox="0 -30 819.2 0"  >
<g  >
<line y1="60" x2="778.0" style="stroke:grey; stroke-width:2; " x1="10" y2="60"  />
</g>
<g id="a34_000"  >
<polygon style="stroke:black; stroke-width:1; fill:grey; " points="10,65 61,65 66,60 61,55 10,55 10,65 "  />
</g>
<g id="a34_001"  >
<polygon style="stroke:black; stroke-width:1; fill:grey; " points="10,65 61,65 66,60 61,55 10,55 10,65 "  />
</g>
<g id="a34_002"  >
<polygon style="stroke:black; stroke-width:1; fill:#810E15; " points="126,60 131,55 224,55 224,65 131,65 126,60 "  />
</g>
<g id="a34_003"  >
<polygon style="stroke:black; stroke-width:1; fill:grey; " points="281,65 332,65 337,60 332,55 281,55 281,65 "  />
</g>
<g id="a34_004"  >
<polygon style="stroke:black; stroke-width:1; fill:grey; " points="349,65 378,65 383,60 378,55 349,55 349,65 "  />
</g>
<g id="a34_005"  >
<polygon style="stroke:black; stroke-width:1; fill:#810E15; " points="449,65 488,65 493,60 488,55 449,55 449,65 "  />
</g>
<g id="a34_006"  >
<polygon style="stroke:black; stroke-width:1; fill:grey; " points="513,65 553,65 558,60 553,55 513,55 513,65 "  />
</g>
<g id="a34_007"  >
<polygon style="stroke:black; stroke-width:1; fill:grey; " points="581,65 634,65 639,60 634,55 581,55 581,65 "  />
</g>
<g id="a34_008"  >
<polygon style="stroke:black; stroke-width:1; fill:grey; " points="686,65 687,65 692,60 687,55 686,55 686,65 "  />
</g>
<g id="a34_009"  >
<polygon style="stroke:black; stroke-width:1; fill:#810E15; " points="726,65 743,65 748,60 743,55 726,55 726,65 "  />
</g>
<g id="a34_0010"  >
<polygon style="stroke:black; stroke-width:1; fill:#810E15; " points="769,65 773,65 778,60 773,55 769,55 769,65 "  />
</g>
</svg>
