<svg xmlns="http://www.w3.org/2000/svg" height="0" width="768.0" version="1.1" y="0" x="0" preserveAspectRatio="none" xmlns:xlink="http://www.w3.org/1999/xlink" viewBox="0 -30 819.2 0"  >
<g  >
<line y1="60" x2="778.0" style="stroke:grey; stroke-width:2; " x1="10" y2="60"  />
</g>
<g id="a53_000"  >
<polygon style="stroke:black; stroke-width:1; fill:grey; " points="10,65 94,65 99,60 94,55 10,55 10,65 "  />
</g>
<g id="a53_001"  >
<polygon style="stroke:black; stroke-width:1; fill:grey; " points="12,65 94,65 99,60 94,55 12,55 12,65 "  />
</g>
<g id="a53_002"  >
<polygon style="stroke:black; stroke-width:1; fill:#810E15; " points="105,65 108,65 113,60 108,55 105,55 105,65 "  />
</g>
<g id="a53_003"  >
<polygon style="stroke:black; stroke-width:1; fill:#810E15; " points="143,65 145,65 150,60 145,55 143,55 143,65 "  />
</g>
<g id="a53_004"  >
<polygon style="stroke:black; stroke-width:1; fill:#810E15; " points="161,65 164,65 169,60 164,55 161,55 161,65 "  />
</g>
<g id="a53_005"  >
<polygon style="stroke:black; stroke-width:1; fill:#810E15; " points="177,65 178,65 183,60 178,55 177,55 177,65 "  />
</g>
<g id="a53_006"  >
<polygon style="stroke:black; stroke-width:1; fill:#810E15; " points="227,65 232,65 237,60 232,55 227,55 227,65 "  />
</g>
<g id="a53_007"  >
<polygon style="stroke:black; stroke-width:1; fill:#810E15; " points="250,65 252,65 257,60 252,55 250,55 250,65 "  />
</g>
<g id="a53_008"  >
<polygon style="stroke:black; stroke-width:1; fill:#810E15; " points="261,65 263,65 268,60 263,55 261,55 261,65 "  />
</g>
<g id="a53_009"  >
<polygon style="stroke:black; stroke-width:1; fill:#810E15; " points="289,65 292,60 289,55 289,65 "  />
</g>
<g id="a53_0010"  >
<polygon style="stroke:black; stroke-width:1; fill:#810E15; " points="400,65 403,65 408,60 403,55 400,55 400,65 "  />
</g>
<g id="a53_0011"  >
<polygon style="stroke:black; stroke-width:1; fill:#810E15; " points="475,65 477,65 482,60 477,55 475,55 475,65 "  />
</g>
<g id="a53_0012"  >
<polygon style="stroke:black; stroke-width:1; fill:grey; " points="498,60 503,55 509,55 509,65 503,65 498,60 "  />
</g>
<g id="a53_0013"  >
<polygon style="stroke:black; stroke-width:1; fill:grey; " points="516,60 521,55 543,55 543,65 521,65 516,60 "  />
</g>
<g id="a53_0014"  >
<polygon style="stroke:black; stroke-width:1; fill:grey; " points="583,60 588,55 615,55 615,65 588,65 583,60 "  />
</g>
<g id="a53_0015"  >
<polygon style="stroke:black; stroke-width:1; fill:#810E15; " points="624,60 629,55 640,55 640,65 629,65 624,60 "  />
</g>
<g id="a53_0016"  >
<polygon style="stroke:black; stroke-width:1; fill:#810E15; " points="684,60 689,55 697,55 697,65 689,65 684,60 "  />
</g>
<g id="a53_0017"  >
<polygon style="stroke:black; stroke-width:1; fill:#810E15; " points="702,60 707,55 718,55 718,65 707,65 702,60 "  />
</g>
<g id="a53_0018"  >
<polygon style="stroke:black; stroke-width:1; fill:#810E15; " points="736,60 741,55 743,55 743,65 741,65 736,60 "  />
</g>
<g id="a53_0019"  >
<polygon style="stroke:black; stroke-width:1; fill:grey; " points="769,60 774,55 778,55 778,65 774,65 769,60 "  />
</g>
</svg>
