<svg xmlns="http://www.w3.org/2000/svg" height="0" width="768.0" version="1.1" y="0" x="0" preserveAspectRatio="none" xmlns:xlink="http://www.w3.org/1999/xlink" viewBox="0 -30 819.2 0"  >
<g  >
<line y1="60" x2="778.0" style="stroke:grey; stroke-width:2; " x1="10" y2="60"  />
</g>
<g id="a61_000"  >
<polygon style="stroke:black; stroke-width:1; fill:#810E15; " points="10,65 49,65 54,60 49,55 10,55 10,65 "  />
</g>
<g id="a61_001"  >
<polygon style="stroke:black; stroke-width:1; fill:grey; " points="66,60 71,55 107,55 107,65 71,65 66,60 "  />
</g>
<g id="a61_002"  >
<polygon style="stroke:black; stroke-width:1; fill:grey; " points="66,60 71,55 107,55 107,65 71,65 66,60 "  />
</g>
<g id="a61_003"  >
<polygon style="stroke:black; stroke-width:1; fill:grey; " points="66,60 71,55 107,55 107,65 71,65 66,60 "  />
</g>
<g id="a61_004"  >
<polygon style="stroke:black; stroke-width:1; fill:grey; " points="141,60 146,55 148,55 148,65 146,65 141,60 "  />
</g>
<g id="a61_005"  >
<polygon style="stroke:black; stroke-width:1; fill:grey; " points="142,60 147,55 148,55 148,65 147,65 142,60 "  />
</g>
<g id="a61_006"  >
<polygon style="stroke:black; stroke-width:1; fill:grey; " points="142,60 147,55 148,55 148,65 147,65 142,60 "  />
</g>
<g id="a61_007"  >
<polygon style="stroke:black; stroke-width:1; fill:grey; " points="142,60 147,55 148,55 148,65 147,65 142,60 "  />
</g>
<g id="a61_008"  >
<polygon style="stroke:black; stroke-width:1; fill:grey; " points="242,65 249,65 254,60 249,55 242,55 242,65 "  />
</g>
<g id="a61_009"  >
<polygon style="stroke:black; stroke-width:1; fill:grey; " points="420,65 660,65 665,60 660,55 420,55 420,65 "  />
</g>
<g id="a61_0010"  >
<polygon style="stroke:black; stroke-width:1; fill:grey; " points="763,60 768,55 778,55 778,65 768,65 763,60 "  />
</g>
</svg>
