<svg xmlns="http://www.w3.org/2000/svg" height="0" width="768.0" version="1.1" y="0" x="0" preserveAspectRatio="none" xmlns:xlink="http://www.w3.org/1999/xlink" viewBox="0 -30 819.2 0"  >
<g  >
<line y1="60" x2="778.0" style="stroke:grey; stroke-width:2; " x1="10" y2="60"  />
</g>
<g id="a44_000"  >
<polygon style="stroke:black; stroke-width:1; fill:#810E15; " points="10,60 15,55 27,55 27,65 15,65 10,60 "  />
</g>
<g id="a44_001"  >
<polygon style="stroke:black; stroke-width:1; fill:#810E15; " points="53,60 58,55 74,55 74,65 58,65 53,60 "  />
</g>
<g id="a44_002"  >
<polygon style="stroke:black; stroke-width:1; fill:grey; " points="88,60 92,55 92,65 88,60 "  />
</g>
<g id="a44_003"  >
<polygon style="stroke:black; stroke-width:1; fill:#810E15; " points="147,60 151,55 151,65 147,60 "  />
</g>
<g id="a44_004"  >
<polygon style="stroke:black; stroke-width:1; fill:grey; " points="224,60 229,55 241,55 241,65 229,65 224,60 "  />
</g>
<g id="a44_005"  >
<polygon style="stroke:black; stroke-width:1; fill:#810E15; " points="287,60 291,55 291,65 287,60 "  />
</g>
<g id="a44_006"  >
<polygon style="stroke:black; stroke-width:1; fill:#810E15; " points="445,60 448,55 448,65 445,60 "  />
</g>
<g id="a44_007"  >
<polygon style="stroke:black; stroke-width:1; fill:grey; " points="449,65 476,65 481,60 476,55 449,55 449,65 "  />
</g>
<g id="a44_008"  >
<polygon style="stroke:black; stroke-width:1; fill:#810E15; " points="776,60 778,55 778,65 776,60 "  />
</g>
</svg>
