<svg xmlns="http://www.w3.org/2000/svg" height="0" width="768.0" version="1.1" y="0" x="0" preserveAspectRatio="none" xmlns:xlink="http://www.w3.org/1999/xlink" viewBox="0 -30 819.2 0"  >
<g  >
<line y1="60" x2="778.0" style="stroke:grey; stroke-width:2; " x1="10" y2="60"  />
</g>
<g id="a26_000"  >
<polygon style="stroke:black; stroke-width:1; fill:#810E15; " points="10,60 13,55 13,65 10,60 "  />
</g>
<g id="a26_001"  >
<polygon style="stroke:black; stroke-width:1; fill:#810E15; " points="10,60 13,55 13,65 10,60 "  />
</g>
<g id="a26_002"  >
<polygon style="stroke:black; stroke-width:1; fill:#810E15; " points="10,60 13,55 13,65 10,60 "  />
</g>
<g id="a26_003"  >
<polygon style="stroke:black; stroke-width:1; fill:#810E15; " points="45,65 48,60 45,55 45,65 "  />
</g>
<g id="a26_004"  >
<polygon style="stroke:black; stroke-width:1; fill:#810E15; " points="60,65 62,60 60,55 60,65 "  />
</g>
<g id="a26_005"  >
<polygon style="stroke:black; stroke-width:1; fill:grey; " points="73,65 74,60 73,55 73,65 "  />
</g>
<g id="a26_006"  >
<polygon style="stroke:black; stroke-width:1; fill:#810E15; " points="91,65 94,60 91,55 91,65 "  />
</g>
<g id="a26_007"  >
<polygon style="stroke:black; stroke-width:1; fill:#810E15; " points="146,65 150,60 146,55 146,65 "  />
</g>
<g id="a26_008"  >
<polygon style="stroke:black; stroke-width:1; fill:#810E15; " points="177,65 180,60 177,55 177,65 "  />
</g>
<g id="a26_009"  >
<polygon style="stroke:black; stroke-width:1; fill:#810E15; " points="198,65 199,60 198,55 198,65 "  />
</g>
<g id="a26_0010"  >
<polygon style="stroke:black; stroke-width:1; fill:#810E15; " points="213,65 214,60 213,55 213,65 "  />
</g>
<g id="a26_0011"  >
<polygon style="stroke:black; stroke-width:1; fill:#810E15; " points="216,65 217,60 216,55 216,65 "  />
</g>
<g id="a26_0012"  >
<polygon style="stroke:black; stroke-width:1; fill:grey; " points="265,65 269,65 274,60 269,55 265,55 265,65 "  />
</g>
<g id="a26_0013"  >
<polygon style="stroke:black; stroke-width:1; fill:#810E15; " points="368,65 372,60 368,55 368,65 "  />
</g>
<g id="a26_0014"  >
<polygon style="stroke:black; stroke-width:1; fill:#810E15; " points="449,65 453,60 449,55 449,65 "  />
</g>
<g id="a26_0015"  >
<polygon style="stroke:black; stroke-width:1; fill:#810E15; " points="449,65 453,60 449,55 449,65 "  />
</g>
<g id="a26_0016"  >
<polygon style="stroke:black; stroke-width:1; fill:#810E15; " points="464,65 490,65 495,60 490,55 464,55 464,65 "  />
</g>
<g id="a26_0017"  >
<polygon style="stroke:black; stroke-width:1; fill:#810E15; " points="532,65 535,60 532,55 532,65 "  />
</g>
<g id="a26_0018"  >
<polygon style="stroke:black; stroke-width:1; fill:#810E15; " points="586,65 588,60 586,55 586,65 "  />
</g>
<g id="a26_0019"  >
<polygon style="stroke:black; stroke-width:1; fill:#810E15; " points="593,65 596,60 593,55 593,65 "  />
</g>
<g id="a26_0020"  >
<polygon style="stroke:black; stroke-width:1; fill:#810E15; " points="603,65 605,60 603,55 603,65 "  />
</g>
<g id="a26_0021"  >
<polygon style="stroke:black; stroke-width:1; fill:#810E15; " points="611,60 611,55 611,65 611,60 "  />
</g>
<g id="a26_0022"  >
<polygon style="stroke:black; stroke-width:1; fill:#810E15; " points="617,65 620,60 617,55 617,65 "  />
</g>
<g id="a26_0023"  >
<polygon style="stroke:black; stroke-width:1; fill:#810E15; " points="645,65 646,60 645,55 645,65 "  />
</g>
<g id="a26_0024"  >
<polygon style="stroke:black; stroke-width:1; fill:#810E15; " points="687,65 690,65 695,60 690,55 687,55 687,65 "  />
</g>
<g id="a26_0025"  >
<polygon style="stroke:black; stroke-width:1; fill:#810E15; " points="698,65 699,60 698,55 698,65 "  />
</g>
<g id="a26_0026"  >
<polygon style="stroke:black; stroke-width:1; fill:#810E15; " points="709,65 709,65 714,60 709,55 709,55 709,65 "  />
</g>
<g id="a26_0027"  >
<polygon style="stroke:black; stroke-width:1; fill:grey; " points="727,60 729,55 729,65 727,60 "  />
</g>
<g id="a26_0028"  >
<polygon style="stroke:black; stroke-width:1; fill:#810E15; " points="774,65 778,60 774,55 774,65 "  />
</g>
</svg>
