<svg xmlns="http://www.w3.org/2000/svg" height="0" width="768.0" version="1.1" y="0" x="0" preserveAspectRatio="none" xmlns:xlink="http://www.w3.org/1999/xlink" viewBox="0 -30 819.2 0"  >
<g  >
<line y1="60" x2="778.0" style="stroke:grey; stroke-width:2; " x1="10" y2="60"  />
</g>
<g id="a5_000"  >
<polygon style="stroke:black; stroke-width:1; fill:grey; " points="10,65 14,60 10,55 10,65 "  />
</g>
<g id="a5_001"  >
<polygon style="stroke:black; stroke-width:1; fill:grey; " points="32,65 35,60 32,55 32,65 "  />
</g>
<g id="a5_002"  >
<polygon style="stroke:black; stroke-width:1; fill:#810E15; " points="39,60 44,55 122,55 122,65 44,65 39,60 "  />
</g>
<g id="a5_003"  >
<polygon style="stroke:black; stroke-width:1; fill:#810E15; " points="122,60 125,55 125,65 122,60 "  />
</g>
<g id="a5_004"  >
<polygon style="stroke:black; stroke-width:1; fill:grey; " points="137,65 139,60 137,55 137,65 "  />
</g>
<g id="a5_005"  >
<polygon style="stroke:black; stroke-width:1; fill:grey; " points="185,60 190,55 214,55 214,65 190,65 185,60 "  />
</g>
<g id="a5_006"  >
<polygon style="stroke:black; stroke-width:1; fill:grey; " points="285,60 290,55 291,55 291,65 290,65 285,60 "  />
</g>
<g id="a5_007"  >
<polygon style="stroke:black; stroke-width:1; fill:#810E15; " points="402,65 419,65 424,60 419,55 402,55 402,65 "  />
</g>
<g id="a5_008"  >
<polygon style="stroke:black; stroke-width:1; fill:grey; " points="482,65 485,60 482,55 482,65 "  />
</g>
<g id="a5_009"  >
<polygon style="stroke:black; stroke-width:1; fill:grey; " points="585,65 588,60 585,55 585,65 "  />
</g>
<g id="a5_0010"  >
<polygon style="stroke:black; stroke-width:1; fill:grey; " points="665,65 681,65 686,60 681,55 665,55 665,65 "  />
</g>
<g id="a5_0011"  >
<polygon style="stroke:black; stroke-width:1; fill:grey; " points="690,60 695,55 705,55 705,65 695,65 690,60 "  />
</g>
<g id="a5_0012"  >
<polygon style="stroke:black; stroke-width:1; fill:#810E15; " points="690,60 695,55 716,55 716,65 695,65 690,60 "  />
</g>
<g id="a5_0013"  >
<polygon style="stroke:black; stroke-width:1; fill:grey; " points="721,65 724,65 729,60 724,55 721,55 721,65 "  />
</g>
<g id="a5_0014"  >
<polygon style="stroke:black; stroke-width:1; fill:grey; " points="731,65 732,65 737,60 732,55 731,55 731,65 "  />
</g>
<g id="a5_0015"  >
<polygon style="stroke:black; stroke-width:1; fill:grey; " points="745,65 761,65 766,60 761,55 745,55 745,65 "  />
</g>
<g id="a5_0016"  >
<polygon style="stroke:black; stroke-width:1; fill:grey; " points="770,60 775,55 778,55 778,65 775,65 770,60 "  />
</g>
<g id="a5_0017"  >
<polygon style="stroke:black; stroke-width:1; fill:grey; " points="770,60 775,55 778,55 778,65 775,65 770,60 "  />
</g>
</svg>
