<svg xmlns="http://www.w3.org/2000/svg" height="0" width="768.0" version="1.1" y="0" x="0" preserveAspectRatio="none" xmlns:xlink="http://www.w3.org/1999/xlink" viewBox="0 -30 819.2 0"  >
<g  >
<line y1="60" x2="778.0" style="stroke:grey; stroke-width:2; " x1="10" y2="60"  />
</g>
<g id="a25_000"  >
<polygon style="stroke:black; stroke-width:1; fill:grey; " points="10,65 17,65 22,60 17,55 10,55 10,65 "  />
</g>
<g id="a25_001"  >
<polygon style="stroke:black; stroke-width:1; fill:grey; " points="10,65 17,65 22,60 17,55 10,55 10,65 "  />
</g>
<g id="a25_002"  >
<polygon style="stroke:black; stroke-width:1; fill:grey; " points="10,65 17,65 22,60 17,55 10,55 10,65 "  />
</g>
<g id="a25_003"  >
<polygon style="stroke:black; stroke-width:1; fill:grey; " points="10,65 17,65 22,60 17,55 10,55 10,65 "  />
</g>
<g id="a25_004"  >
<polygon style="stroke:black; stroke-width:1; fill:grey; " points="10,65 17,65 22,60 17,55 10,55 10,65 "  />
</g>
<g id="a25_005"  >
<polygon style="stroke:black; stroke-width:1; fill:grey; " points="10,65 17,65 22,60 17,55 10,55 10,65 "  />
</g>
<g id="a25_006"  >
<polygon style="stroke:black; stroke-width:1; fill:grey; " points="10,65 17,65 22,60 17,55 10,55 10,65 "  />
</g>
<g id="a25_007"  >
<polygon style="stroke:black; stroke-width:1; fill:grey; " points="10,65 17,65 22,60 17,55 10,55 10,65 "  />
</g>
<g id="a25_008"  >
<polygon style="stroke:black; stroke-width:1; fill:grey; " points="10,65 17,65 22,60 17,55 10,55 10,65 "  />
</g>
<g id="a25_009"  >
<polygon style="stroke:black; stroke-width:1; fill:grey; " points="40,65 44,60 40,55 40,65 "  />
</g>
<g id="a25_0010"  >
<polygon style="stroke:black; stroke-width:1; fill:grey; " points="45,60 47,55 47,65 45,60 "  />
</g>
<g id="a25_0011"  >
<polygon style="stroke:black; stroke-width:1; fill:grey; " points="49,65 52,60 49,55 49,65 "  />
</g>
<g id="a25_0012"  >
<polygon style="stroke:black; stroke-width:1; fill:grey; " points="60,60 65,55 65,55 65,65 65,65 60,60 "  />
</g>
<g id="a25_0013"  >
<polygon style="stroke:black; stroke-width:1; fill:grey; " points="68,65 71,60 68,55 68,65 "  />
</g>
<g id="a25_0014"  >
<polygon style="stroke:black; stroke-width:1; fill:grey; " points="85,65 88,60 85,55 85,65 "  />
</g>
<g id="a25_0015"  >
<polygon style="stroke:black; stroke-width:1; fill:grey; " points="99,65 100,60 99,55 99,65 "  />
</g>
<g id="a25_0016"  >
<polygon style="stroke:black; stroke-width:1; fill:grey; " points="99,65 100,60 99,55 99,65 "  />
</g>
<g id="a25_0017"  >
<polygon style="stroke:black; stroke-width:1; fill:grey; " points="108,65 140,65 145,60 140,55 108,55 108,65 "  />
</g>
<g id="a25_0018"  >
<polygon style="stroke:black; stroke-width:1; fill:grey; " points="176,65 179,60 176,55 176,65 "  />
</g>
<g id="a25_0019"  >
<polygon style="stroke:black; stroke-width:1; fill:grey; " points="191,65 192,60 191,55 191,65 "  />
</g>
<g id="a25_0020"  >
<polygon style="stroke:black; stroke-width:1; fill:grey; " points="201,60 206,55 209,55 209,65 206,65 201,60 "  />
</g>
<g id="a25_0021"  >
<polygon style="stroke:black; stroke-width:1; fill:grey; " points="212,60 217,55 217,55 217,65 217,65 212,60 "  />
</g>
<g id="a25_0022"  >
<polygon style="stroke:black; stroke-width:1; fill:grey; " points="212,60 217,55 217,55 217,65 217,65 212,60 "  />
</g>
<g id="a25_0023"  >
<polygon style="stroke:black; stroke-width:1; fill:grey; " points="212,60 217,55 217,55 217,65 217,65 212,60 "  />
</g>
<g id="a25_0024"  >
<polygon style="stroke:black; stroke-width:1; fill:grey; " points="232,65 234,60 232,55 232,65 "  />
</g>
<g id="a25_0025"  >
<polygon style="stroke:black; stroke-width:1; fill:grey; " points="249,65 254,65 259,60 254,55 249,55 249,65 "  />
</g>
<g id="a25_0026"  >
<polygon style="stroke:black; stroke-width:1; fill:grey; " points="265,60 266,55 266,65 265,60 "  />
</g>
<g id="a25_0027"  >
<polygon style="stroke:black; stroke-width:1; fill:grey; " points="272,60 276,55 276,65 272,60 "  />
</g>
<g id="a25_0028"  >
<polygon style="stroke:black; stroke-width:1; fill:grey; " points="276,65 280,60 276,55 276,65 "  />
</g>
<g id="a25_0029"  >
<polygon style="stroke:black; stroke-width:1; fill:grey; " points="282,60 285,55 285,65 282,60 "  />
</g>
<g id="a25_0030"  >
<polygon style="stroke:black; stroke-width:1; fill:grey; " points="305,60 310,55 310,55 310,65 310,65 305,60 "  />
</g>
<g id="a25_0031"  >
<polygon style="stroke:black; stroke-width:1; fill:grey; " points="305,60 310,55 310,55 310,65 310,65 305,60 "  />
</g>
<g id="a25_0032"  >
<polygon style="stroke:black; stroke-width:1; fill:grey; " points="320,65 323,60 320,55 320,65 "  />
</g>
<g id="a25_0033"  >
<polygon style="stroke:black; stroke-width:1; fill:grey; " points="344,60 348,55 348,65 344,60 "  />
</g>
<g id="a25_0034"  >
<polygon style="stroke:black; stroke-width:1; fill:grey; " points="351,60 356,55 357,55 357,65 356,65 351,60 "  />
</g>
<g id="a25_0035"  >
<polygon style="stroke:black; stroke-width:1; fill:grey; " points="351,60 356,55 357,55 357,65 356,65 351,60 "  />
</g>
<g id="a25_0036"  >
<polygon style="stroke:black; stroke-width:1; fill:grey; " points="351,60 356,55 357,55 357,65 356,65 351,60 "  />
</g>
<g id="a25_0037"  >
<polygon style="stroke:black; stroke-width:1; fill:grey; " points="360,60 365,55 365,55 365,65 365,65 360,60 "  />
</g>
<g id="a25_0038"  >
<polygon style="stroke:black; stroke-width:1; fill:#810E15; " points="393,65 395,60 393,55 393,65 "  />
</g>
<g id="a25_0039"  >
<polygon style="stroke:black; stroke-width:1; fill:#810E15; " points="399,65 402,60 399,55 399,65 "  />
</g>
<g id="a25_0040"  >
<polygon style="stroke:black; stroke-width:1; fill:grey; " points="478,60 483,55 487,55 487,65 483,65 478,60 "  />
</g>
<g id="a25_0041"  >
<polygon style="stroke:black; stroke-width:1; fill:grey; " points="494,65 497,60 494,55 494,65 "  />
</g>
<g id="a25_0042"  >
<polygon style="stroke:black; stroke-width:1; fill:grey; " points="494,65 497,60 494,55 494,65 "  />
</g>
<g id="a25_0043"  >
<polygon style="stroke:black; stroke-width:1; fill:grey; " points="499,60 501,55 501,65 499,60 "  />
</g>
<g id="a25_0044"  >
<polygon style="stroke:black; stroke-width:1; fill:grey; " points="502,60 506,55 506,65 502,60 "  />
</g>
<g id="a25_0045"  >
<polygon style="stroke:black; stroke-width:1; fill:grey; " points="508,60 510,55 510,65 508,60 "  />
</g>
<g id="a25_0046"  >
<polygon style="stroke:black; stroke-width:1; fill:grey; " points="518,65 522,60 518,55 518,65 "  />
</g>
<g id="a25_0047"  >
<polygon style="stroke:black; stroke-width:1; fill:grey; " points="525,60 530,55 530,55 530,65 530,65 525,60 "  />
</g>
<g id="a25_0048"  >
<polygon style="stroke:black; stroke-width:1; fill:grey; " points="531,65 537,65 542,60 537,55 531,55 531,65 "  />
</g>
<g id="a25_0049"  >
<polygon style="stroke:black; stroke-width:1; fill:grey; " points="546,60 551,55 552,55 552,65 551,65 546,60 "  />
</g>
<g id="a25_0050"  >
<polygon style="stroke:black; stroke-width:1; fill:grey; " points="563,65 563,65 568,60 563,55 563,55 563,65 "  />
</g>
<g id="a25_0051"  >
<polygon style="stroke:black; stroke-width:1; fill:grey; " points="574,60 578,55 578,65 574,60 "  />
</g>
<g id="a25_0052"  >
<polygon style="stroke:black; stroke-width:1; fill:grey; " points="585,65 586,65 591,60 586,55 585,55 585,65 "  />
</g>
<g id="a25_0053"  >
<polygon style="stroke:black; stroke-width:1; fill:grey; " points="592,60 597,55 598,55 598,65 597,65 592,60 "  />
</g>
<g id="a25_0054"  >
<polygon style="stroke:black; stroke-width:1; fill:grey; " points="602,65 602,65 607,60 602,55 602,55 602,65 "  />
</g>
<g id="a25_0055"  >
<polygon style="stroke:black; stroke-width:1; fill:grey; " points="608,65 612,60 608,55 608,65 "  />
</g>
<g id="a25_0056"  >
<polygon style="stroke:black; stroke-width:1; fill:grey; " points="617,65 618,65 623,60 618,55 617,55 617,65 "  />
</g>
<g id="a25_0057"  >
<polygon style="stroke:black; stroke-width:1; fill:grey; " points="633,60 638,55 639,55 639,65 638,65 633,60 "  />
</g>
<g id="a25_0058"  >
<polygon style="stroke:black; stroke-width:1; fill:grey; " points="645,60 650,55 650,55 650,65 650,65 645,60 "  />
</g>
<g id="a25_0059"  >
<polygon style="stroke:black; stroke-width:1; fill:grey; " points="652,60 652,55 652,65 652,60 "  />
</g>
<g id="a25_0060"  >
<polygon style="stroke:black; stroke-width:1; fill:grey; " points="665,60 666,55 666,65 665,60 "  />
</g>
<g id="a25_0061"  >
<polygon style="stroke:black; stroke-width:1; fill:grey; " points="666,65 667,65 672,60 667,55 666,55 666,65 "  />
</g>
<g id="a25_0062"  >
<polygon style="stroke:black; stroke-width:1; fill:grey; " points="674,65 675,60 674,55 674,65 "  />
</g>
<g id="a25_0063"  >
<polygon style="stroke:black; stroke-width:1; fill:grey; " points="701,65 701,65 706,60 701,55 701,55 701,65 "  />
</g>
<g id="a25_0064"  >
<polygon style="stroke:black; stroke-width:1; fill:grey; " points="707,65 710,60 707,55 707,65 "  />
</g>
<g id="a25_0065"  >
<polygon style="stroke:black; stroke-width:1; fill:grey; " points="711,60 714,55 714,65 711,60 "  />
</g>
<g id="a25_0066"  >
<polygon style="stroke:black; stroke-width:1; fill:grey; " points="718,65 721,60 718,55 718,65 "  />
</g>
<g id="a25_0067"  >
<polygon style="stroke:black; stroke-width:1; fill:grey; " points="724,65 726,60 724,55 724,65 "  />
</g>
<g id="a25_0068"  >
<polygon style="stroke:black; stroke-width:1; fill:grey; " points="726,65 727,60 726,55 726,65 "  />
</g>
<g id="a25_0069"  >
<polygon style="stroke:black; stroke-width:1; fill:grey; " points="730,60 731,55 731,65 730,60 "  />
</g>
<g id="a25_0070"  >
<polygon style="stroke:black; stroke-width:1; fill:grey; " points="743,60 748,55 751,55 751,65 748,65 743,60 "  />
</g>
<g id="a25_0071"  >
<polygon style="stroke:black; stroke-width:1; fill:grey; " points="743,60 748,55 751,55 751,65 748,65 743,60 "  />
</g>
<g id="a25_0072"  >
<polygon style="stroke:black; stroke-width:1; fill:grey; " points="771,65 773,65 778,60 773,55 771,55 771,65 "  />
</g>
</svg>
