<svg xmlns="http://www.w3.org/2000/svg" height="0" width="768.0" version="1.1" y="0" x="0" preserveAspectRatio="none" xmlns:xlink="http://www.w3.org/1999/xlink" viewBox="0 -30 819.2 0"  >
<g  >
<line y1="60" x2="778.0" style="stroke:grey; stroke-width:2; " x1="10" y2="60"  />
</g>
<g id="a6_000"  >
<polygon style="stroke:black; stroke-width:1; fill:grey; " points="10,65 19,65 24,60 19,55 10,55 10,65 "  />
</g>
<g id="a6_001"  >
<polygon style="stroke:black; stroke-width:1; fill:grey; " points="71,65 75,60 71,55 71,65 "  />
</g>
<g id="a6_002"  >
<polygon style="stroke:black; stroke-width:1; fill:grey; " points="71,65 75,60 71,55 71,65 "  />
</g>
<g id="a6_003"  >
<polygon style="stroke:black; stroke-width:1; fill:grey; " points="77,65 79,60 77,55 77,65 "  />
</g>
<g id="a6_004"  >
<polygon style="stroke:black; stroke-width:1; fill:grey; " points="95,65 97,60 95,55 95,65 "  />
</g>
<g id="a6_005"  >
<polygon style="stroke:black; stroke-width:1; fill:grey; " points="120,65 123,65 128,60 123,55 120,55 120,65 "  />
</g>
<g id="a6_006"  >
<polygon style="stroke:black; stroke-width:1; fill:grey; " points="129,65 133,60 129,55 129,65 "  />
</g>
<g id="a6_007"  >
<polygon style="stroke:black; stroke-width:1; fill:grey; " points="141,60 145,55 145,65 141,60 "  />
</g>
<g id="a6_008"  >
<polygon style="stroke:black; stroke-width:1; fill:grey; " points="141,60 146,55 146,55 146,65 146,65 141,60 "  />
</g>
<g id="a6_009"  >
<polygon style="stroke:black; stroke-width:1; fill:grey; " points="153,65 155,60 153,55 153,65 "  />
</g>
<g id="a6_0010"  >
<polygon style="stroke:black; stroke-width:1; fill:grey; " points="157,65 160,60 157,55 157,65 "  />
</g>
<g id="a6_0011"  >
<polygon style="stroke:black; stroke-width:1; fill:grey; " points="162,65 162,65 167,60 162,55 162,55 162,65 "  />
</g>
<g id="a6_0012"  >
<polygon style="stroke:black; stroke-width:1; fill:grey; " points="169,60 172,55 172,65 169,60 "  />
</g>
<g id="a6_0013"  >
<polygon style="stroke:black; stroke-width:1; fill:grey; " points="176,60 176,55 176,65 176,60 "  />
</g>
<g id="a6_0014"  >
<polygon style="stroke:black; stroke-width:1; fill:grey; " points="178,60 181,55 181,65 178,60 "  />
</g>
<g id="a6_0015"  >
<polygon style="stroke:black; stroke-width:1; fill:grey; " points="186,60 189,55 189,65 186,60 "  />
</g>
<g id="a6_0016"  >
<polygon style="stroke:black; stroke-width:1; fill:grey; " points="193,60 194,55 194,65 193,60 "  />
</g>
<g id="a6_0017"  >
<polygon style="stroke:black; stroke-width:1; fill:grey; " points="195,60 200,55 213,55 213,65 200,65 195,60 "  />
</g>
<g id="a6_0018"  >
<polygon style="stroke:black; stroke-width:1; fill:grey; " points="241,65 244,60 241,55 241,65 "  />
</g>
<g id="a6_0019"  >
<polygon style="stroke:black; stroke-width:1; fill:grey; " points="241,65 245,60 241,55 241,65 "  />
</g>
<g id="a6_0020"  >
<polygon style="stroke:black; stroke-width:1; fill:grey; " points="248,60 253,55 258,55 258,65 253,65 248,60 "  />
</g>
<g id="a6_0021"  >
<polygon style="stroke:black; stroke-width:1; fill:grey; " points="271,60 273,55 273,65 271,60 "  />
</g>
<g id="a6_0022"  >
<polygon style="stroke:black; stroke-width:1; fill:grey; " points="271,60 273,55 273,65 271,60 "  />
</g>
<g id="a6_0023"  >
<polygon style="stroke:black; stroke-width:1; fill:grey; " points="282,60 284,55 284,65 282,60 "  />
</g>
<g id="a6_0024"  >
<polygon style="stroke:black; stroke-width:1; fill:grey; " points="286,65 288,60 286,55 286,65 "  />
</g>
<g id="a6_0025"  >
<polygon style="stroke:black; stroke-width:1; fill:grey; " points="289,60 294,55 295,55 295,65 294,65 289,60 "  />
</g>
<g id="a6_0026"  >
<polygon style="stroke:black; stroke-width:1; fill:grey; " points="297,65 301,65 306,60 301,55 297,55 297,65 "  />
</g>
<g id="a6_0027"  >
<polygon style="stroke:black; stroke-width:1; fill:grey; " points="297,65 301,65 306,60 301,55 297,55 297,65 "  />
</g>
<g id="a6_0028"  >
<polygon style="stroke:black; stroke-width:1; fill:grey; " points="298,65 301,65 306,60 301,55 298,55 298,65 "  />
</g>
<g id="a6_0029"  >
<polygon style="stroke:black; stroke-width:1; fill:grey; " points="298,65 301,65 306,60 301,55 298,55 298,65 "  />
</g>
<g id="a6_0030"  >
<polygon style="stroke:black; stroke-width:1; fill:grey; " points="313,65 316,60 313,55 313,65 "  />
</g>
<g id="a6_0031"  >
<polygon style="stroke:black; stroke-width:1; fill:grey; " points="321,60 321,55 321,65 321,60 "  />
</g>
<g id="a6_0032"  >
<polygon style="stroke:black; stroke-width:1; fill:#810E15; " points="348,65 350,60 348,55 348,65 "  />
</g>
<g id="a6_0033"  >
<polygon style="stroke:black; stroke-width:1; fill:grey; " points="364,60 365,55 365,65 364,60 "  />
</g>
<g id="a6_0034"  >
<polygon style="stroke:black; stroke-width:1; fill:grey; " points="382,60 383,55 383,65 382,60 "  />
</g>
<g id="a6_0035"  >
<polygon style="stroke:black; stroke-width:1; fill:grey; " points="388,65 388,65 393,60 388,55 388,55 388,65 "  />
</g>
<g id="a6_0036"  >
<polygon style="stroke:black; stroke-width:1; fill:#810E15; " points="412,60 413,55 413,65 412,60 "  />
</g>
<g id="a6_0037"  >
<polygon style="stroke:black; stroke-width:1; fill:#810E15; " points="426,60 431,55 431,55 431,65 431,65 426,60 "  />
</g>
<g id="a6_0038"  >
<polygon style="stroke:black; stroke-width:1; fill:#810E15; " points="446,60 450,55 450,65 446,60 "  />
</g>
<g id="a6_0039"  >
<polygon style="stroke:black; stroke-width:1; fill:#810E15; " points="460,60 461,55 461,65 460,60 "  />
</g>
<g id="a6_0040"  >
<polygon style="stroke:black; stroke-width:1; fill:grey; " points="463,65 479,65 484,60 479,55 463,55 463,65 "  />
</g>
<g id="a6_0041"  >
<polygon style="stroke:black; stroke-width:1; fill:grey; " points="494,65 511,65 516,60 511,55 494,55 494,65 "  />
</g>
<g id="a6_0042"  >
<polygon style="stroke:black; stroke-width:1; fill:grey; " points="494,65 511,65 516,60 511,55 494,55 494,65 "  />
</g>
<g id="a6_0043"  >
<polygon style="stroke:black; stroke-width:1; fill:grey; " points="519,65 524,65 529,60 524,55 519,55 519,65 "  />
</g>
<g id="a6_0044"  >
<polygon style="stroke:black; stroke-width:1; fill:grey; " points="531,65 533,65 538,60 533,55 531,55 531,65 "  />
</g>
<g id="a6_0045"  >
<polygon style="stroke:black; stroke-width:1; fill:grey; " points="531,65 533,65 538,60 533,55 531,55 531,65 "  />
</g>
<g id="a6_0046"  >
<polygon style="stroke:black; stroke-width:1; fill:grey; " points="531,65 533,65 538,60 533,55 531,55 531,65 "  />
</g>
<g id="a6_0047"  >
<polygon style="stroke:black; stroke-width:1; fill:grey; " points="531,65 533,65 538,60 533,55 531,55 531,65 "  />
</g>
<g id="a6_0048"  >
<polygon style="stroke:black; stroke-width:1; fill:grey; " points="540,65 542,60 540,55 540,65 "  />
</g>
<g id="a6_0049"  >
<polygon style="stroke:black; stroke-width:1; fill:grey; " points="544,60 549,55 553,55 553,65 549,65 544,60 "  />
</g>
<g id="a6_0050"  >
<polygon style="stroke:black; stroke-width:1; fill:grey; " points="569,60 571,55 571,65 569,60 "  />
</g>
<g id="a6_0051"  >
<polygon style="stroke:black; stroke-width:1; fill:grey; " points="579,60 584,55 588,55 588,65 584,65 579,60 "  />
</g>
<g id="a6_0052"  >
<polygon style="stroke:black; stroke-width:1; fill:grey; " points="579,60 584,55 588,55 588,65 584,65 579,60 "  />
</g>
<g id="a6_0053"  >
<polygon style="stroke:black; stroke-width:1; fill:grey; " points="656,60 658,55 658,65 656,60 "  />
</g>
<g id="a6_0054"  >
<polygon style="stroke:black; stroke-width:1; fill:grey; " points="656,60 658,55 658,65 656,60 "  />
</g>
<g id="a6_0055"  >
<polygon style="stroke:black; stroke-width:1; fill:grey; " points="663,60 668,55 668,55 668,65 668,65 663,60 "  />
</g>
<g id="a6_0056"  >
<polygon style="stroke:black; stroke-width:1; fill:grey; " points="669,65 671,65 676,60 671,55 669,55 669,65 "  />
</g>
<g id="a6_0057"  >
<polygon style="stroke:black; stroke-width:1; fill:grey; " points="679,60 680,55 680,65 679,60 "  />
</g>
<g id="a6_0058"  >
<polygon style="stroke:black; stroke-width:1; fill:grey; " points="681,65 681,65 686,60 681,55 681,55 681,65 "  />
</g>
<g id="a6_0059"  >
<polygon style="stroke:black; stroke-width:1; fill:grey; " points="693,60 695,55 695,65 693,60 "  />
</g>
<g id="a6_0060"  >
<polygon style="stroke:black; stroke-width:1; fill:grey; " points="704,60 709,55 715,55 715,65 709,65 704,60 "  />
</g>
<g id="a6_0061"  >
<polygon style="stroke:black; stroke-width:1; fill:grey; " points="725,60 730,55 734,55 734,65 730,65 725,60 "  />
</g>
<g id="a6_0062"  >
<polygon style="stroke:black; stroke-width:1; fill:grey; " points="725,60 730,55 734,55 734,65 730,65 725,60 "  />
</g>
<g id="a6_0063"  >
<polygon style="stroke:black; stroke-width:1; fill:grey; " points="752,60 757,55 757,55 757,65 757,65 752,60 "  />
</g>
<g id="a6_0064"  >
<polygon style="stroke:black; stroke-width:1; fill:grey; " points="770,65 773,65 778,60 773,55 770,55 770,65 "  />
</g>
</svg>
