<svg xmlns="http://www.w3.org/2000/svg" height="0" width="768.0" version="1.1" y="0" x="0" preserveAspectRatio="none" xmlns:xlink="http://www.w3.org/1999/xlink" viewBox="0 -30 819.2 0"  >
<g  >
<line y1="60" x2="778.0" style="stroke:grey; stroke-width:2; " x1="10" y2="60"  />
</g>
<g id="a52_000"  >
<polygon style="stroke:black; stroke-width:1; fill:#810E15; " points="10,65 46,65 51,60 46,55 10,55 10,65 "  />
</g>
<g id="a52_001"  >
<polygon style="stroke:black; stroke-width:1; fill:#810E15; " points="112,65 119,65 124,60 119,55 112,55 112,65 "  />
</g>
<g id="a52_002"  >
<polygon style="stroke:black; stroke-width:1; fill:grey; " points="250,65 268,65 273,60 268,55 250,55 250,65 "  />
</g>
<g id="a52_003"  >
<polygon style="stroke:black; stroke-width:1; fill:#810E15; " points="286,60 291,55 323,55 323,65 291,65 286,60 "  />
</g>
<g id="a52_004"  >
<polygon style="stroke:black; stroke-width:1; fill:grey; " points="357,60 362,55 398,55 398,65 362,65 357,60 "  />
</g>
<g id="a52_005"  >
<polygon style="stroke:black; stroke-width:1; fill:#810E15; " points="357,60 362,55 398,55 398,65 362,65 357,60 "  />
</g>
<g id="a52_006"  >
<polygon style="stroke:black; stroke-width:1; fill:grey; " points="411,60 416,55 419,55 419,65 416,65 411,60 "  />
</g>
<g id="a52_007"  >
<polygon style="stroke:black; stroke-width:1; fill:#810E15; " points="438,60 443,55 489,55 489,65 443,65 438,60 "  />
</g>
<g id="a52_008"  >
<polygon style="stroke:black; stroke-width:1; fill:#810E15; " points="568,60 573,55 615,55 615,65 573,65 568,60 "  />
</g>
<g id="a52_009"  >
<polygon style="stroke:black; stroke-width:1; fill:grey; " points="664,65 667,60 664,55 664,65 "  />
</g>
<g id="a52_0010"  >
<polygon style="stroke:black; stroke-width:1; fill:grey; " points="713,65 773,65 778,60 773,55 713,55 713,65 "  />
</g>
</svg>
