<svg xmlns="http://www.w3.org/2000/svg" height="0" width="768.0" version="1.1" y="0" x="0" preserveAspectRatio="none" xmlns:xlink="http://www.w3.org/1999/xlink" viewBox="0 -30 819.2 0"  >
<g  >
<line y1="60" x2="778.0" style="stroke:grey; stroke-width:2; " x1="10" y2="60"  />
</g>
<g id="a23_000"  >
<polygon style="stroke:black; stroke-width:1; fill:grey; " points="10,65 33,65 38,60 33,55 10,55 10,65 "  />
</g>
<g id="a23_001"  >
<polygon style="stroke:black; stroke-width:1; fill:#810E15; " points="49,60 54,55 87,55 87,65 54,65 49,60 "  />
</g>
<g id="a23_002"  >
<polygon style="stroke:black; stroke-width:1; fill:#810E15; " points="112,60 117,55 150,55 150,65 117,65 112,60 "  />
</g>
<g id="a23_003"  >
<polygon style="stroke:black; stroke-width:1; fill:#810E15; " points="186,60 191,55 237,55 237,65 191,65 186,60 "  />
</g>
<g id="a23_004"  >
<polygon style="stroke:black; stroke-width:1; fill:#810E15; " points="255,60 260,55 296,55 296,65 260,65 255,60 "  />
</g>
<g id="a23_005"  >
<polygon style="stroke:black; stroke-width:1; fill:#810E15; " points="314,60 319,55 356,55 356,65 319,65 314,60 "  />
</g>
<g id="a23_006"  >
<polygon style="stroke:black; stroke-width:1; fill:#810E15; " points="439,60 444,55 469,55 469,65 444,65 439,60 "  />
</g>
<g id="a23_007"  >
<polygon style="stroke:black; stroke-width:1; fill:#810E15; " points="520,65 520,65 525,60 520,55 520,55 520,65 "  />
</g>
<g id="a23_008"  >
<polygon style="stroke:black; stroke-width:1; fill:grey; " points="545,60 550,55 568,55 568,65 550,65 545,60 "  />
</g>
<g id="a23_009"  >
<polygon style="stroke:black; stroke-width:1; fill:grey; " points="632,60 637,55 641,55 641,65 637,65 632,60 "  />
</g>
<g id="a23_0010"  >
<polygon style="stroke:black; stroke-width:1; fill:grey; " points="632,60 637,55 641,55 641,65 637,65 632,60 "  />
</g>
<g id="a23_0011"  >
<polygon style="stroke:black; stroke-width:1; fill:#810E15; " points="651,60 656,55 712,55 712,65 656,65 651,60 "  />
</g>
<g id="a23_0012"  >
<polygon style="stroke:black; stroke-width:1; fill:grey; " points="734,65 773,65 778,60 773,55 734,55 734,65 "  />
</g>
</svg>
