<svg xmlns="http://www.w3.org/2000/svg" height="0" width="768.0" version="1.1" y="0" x="0" preserveAspectRatio="none" xmlns:xlink="http://www.w3.org/1999/xlink" viewBox="0 -30 819.2 0"  >
<g  >
<line y1="60" x2="778.0" style="stroke:grey; stroke-width:2; " x1="10" y2="60"  />
</g>
<g id="a43_000"  >
<polygon style="stroke:black; stroke-width:1; fill:grey; " points="10,65 13,65 18,60 13,55 10,55 10,65 "  />
</g>
<g id="a43_001"  >
<polygon style="stroke:black; stroke-width:1; fill:grey; " points="10,65 14,65 19,60 14,55 10,55 10,65 "  />
</g>
<g id="a43_002"  >
<polygon style="stroke:black; stroke-width:1; fill:grey; " points="42,65 68,65 73,60 68,55 42,55 42,65 "  />
</g>
<g id="a43_003"  >
<polygon style="stroke:black; stroke-width:1; fill:#810E15; " points="87,65 89,60 87,55 87,65 "  />
</g>
<g id="a43_004"  >
<polygon style="stroke:black; stroke-width:1; fill:#810E15; " points="105,65 107,60 105,55 105,65 "  />
</g>
<g id="a43_005"  >
<polygon style="stroke:black; stroke-width:1; fill:grey; " points="139,65 148,65 153,60 148,55 139,55 139,65 "  />
</g>
<g id="a43_006"  >
<polygon style="stroke:black; stroke-width:1; fill:grey; " points="164,65 173,65 178,60 173,55 164,55 164,65 "  />
</g>
<g id="a43_007"  >
<polygon style="stroke:black; stroke-width:1; fill:#810E15; " points="404,65 465,65 470,60 465,55 404,55 404,65 "  />
</g>
<g id="a43_008"  >
<polygon style="stroke:black; stroke-width:1; fill:#810E15; " points="703,65 757,65 762,60 757,55 703,55 703,65 "  />
</g>
<g id="a43_009"  >
<polygon style="stroke:black; stroke-width:1; fill:grey; " points="703,65 757,65 762,60 757,55 703,55 703,65 "  />
</g>
<g id="a43_0010"  >
<polygon style="stroke:black; stroke-width:1; fill:grey; " points="745,60 748,55 748,65 745,60 "  />
</g>
<g id="a43_0011"  >
<polygon style="stroke:black; stroke-width:1; fill:#810E15; " points="772,65 773,65 778,60 773,55 772,55 772,65 "  />
</g>
</svg>
