<svg xmlns="http://www.w3.org/2000/svg" height="0" width="768.0" version="1.1" y="0" x="0" preserveAspectRatio="none" xmlns:xlink="http://www.w3.org/1999/xlink" viewBox="0 -30 819.2 0"  >
<g  >
<line y1="60" x2="778.0" style="stroke:grey; stroke-width:2; " x1="10" y2="60"  />
</g>
<g id="a13_000"  >
<polygon style="stroke:black; stroke-width:1; fill:grey; " points="10,65 11,65 16,60 11,55 10,55 10,65 "  />
</g>
<g id="a13_001"  >
<polygon style="stroke:black; stroke-width:1; fill:#810E15; " points="47,65 50,60 47,55 47,65 "  />
</g>
<g id="a13_002"  >
<polygon style="stroke:black; stroke-width:1; fill:#810E15; " points="67,60 72,55 100,55 100,65 72,65 67,60 "  />
</g>
<g id="a13_003"  >
<polygon style="stroke:black; stroke-width:1; fill:#810E15; " points="67,60 72,55 100,55 100,65 72,65 67,60 "  />
</g>
<g id="a13_004"  >
<polygon style="stroke:black; stroke-width:1; fill:#810E15; " points="181,65 186,65 191,60 186,55 181,55 181,65 "  />
</g>
<g id="a13_005"  >
<polygon style="stroke:black; stroke-width:1; fill:#810E15; " points="235,65 240,65 245,60 240,55 235,55 235,65 "  />
</g>
<g id="a13_006"  >
<polygon style="stroke:black; stroke-width:1; fill:#810E15; " points="278,65 283,65 288,60 283,55 278,55 278,65 "  />
</g>
<g id="a13_007"  >
<polygon style="stroke:black; stroke-width:1; fill:#810E15; " points="327,65 332,65 337,60 332,55 327,55 327,65 "  />
</g>
<g id="a13_008"  >
<polygon style="stroke:black; stroke-width:1; fill:#810E15; " points="389,65 392,65 397,60 392,55 389,55 389,65 "  />
</g>
<g id="a13_009"  >
<polygon style="stroke:black; stroke-width:1; fill:#810E15; " points="502,65 507,65 512,60 507,55 502,55 502,65 "  />
</g>
<g id="a13_0010"  >
<polygon style="stroke:black; stroke-width:1; fill:#810E15; " points="519,65 524,65 529,60 524,55 519,55 519,65 "  />
</g>
<g id="a13_0011"  >
<polygon style="stroke:black; stroke-width:1; fill:#810E15; " points="691,65 697,65 702,60 697,55 691,55 691,65 "  />
</g>
<g id="a13_0012"  >
<polygon style="stroke:black; stroke-width:1; fill:#810E15; " points="724,65 729,65 734,60 729,55 724,55 724,65 "  />
</g>
<g id="a13_0013"  >
<polygon style="stroke:black; stroke-width:1; fill:grey; " points="744,60 749,55 765,55 765,65 749,65 744,60 "  />
</g>
<g id="a13_0014"  >
<polygon style="stroke:black; stroke-width:1; fill:grey; " points="744,60 749,55 778,55 778,65 749,65 744,60 "  />
</g>
</svg>
