<svg xmlns="http://www.w3.org/2000/svg" height="0" width="768.0" version="1.1" y="0" x="0" preserveAspectRatio="none" xmlns:xlink="http://www.w3.org/1999/xlink" viewBox="0 -30 819.2 0"  >
<g  >
<line y1="60" x2="778.0" style="stroke:grey; stroke-width:2; " x1="10" y2="60"  />
</g>
<g id="a19_000"  >
<polygon style="stroke:black; stroke-width:1; fill:#810E15; " points="10,60 15,55 20,55 20,65 15,65 10,60 "  />
</g>
<g id="a19_001"  >
<polygon style="stroke:black; stroke-width:1; fill:#810E15; " points="165,60 170,55 171,55 171,65 170,65 165,60 "  />
</g>
<g id="a19_002"  >
<polygon style="stroke:black; stroke-width:1; fill:grey; " points="180,60 185,55 188,55 188,65 185,65 180,60 "  />
</g>
<g id="a19_003"  >
<polygon style="stroke:black; stroke-width:1; fill:grey; " points="180,60 185,55 188,55 188,65 185,65 180,60 "  />
</g>
<g id="a19_004"  >
<polygon style="stroke:black; stroke-width:1; fill:grey; " points="180,60 185,55 191,55 191,65 185,65 180,60 "  />
</g>
<g id="a19_005"  >
<polygon style="stroke:black; stroke-width:1; fill:grey; " points="180,60 185,55 191,55 191,65 185,65 180,60 "  />
</g>
<g id="a19_006"  >
<polygon style="stroke:black; stroke-width:1; fill:grey; " points="180,60 185,55 191,55 191,65 185,65 180,60 "  />
</g>
<g id="a19_007"  >
<polygon style="stroke:black; stroke-width:1; fill:grey; " points="180,60 185,55 191,55 191,65 185,65 180,60 "  />
</g>
<g id="a19_008"  >
<polygon style="stroke:black; stroke-width:1; fill:grey; " points="180,60 185,55 191,55 191,65 185,65 180,60 "  />
</g>
<g id="a19_009"  >
<polygon style="stroke:black; stroke-width:1; fill:grey; " points="199,60 199,55 199,65 199,60 "  />
</g>
<g id="a19_0010"  >
<polygon style="stroke:black; stroke-width:1; fill:grey; " points="213,65 215,60 213,55 213,65 "  />
</g>
<g id="a19_0011"  >
<polygon style="stroke:black; stroke-width:1; fill:grey; " points="219,65 222,65 227,60 222,55 219,55 219,65 "  />
</g>
<g id="a19_0012"  >
<polygon style="stroke:black; stroke-width:1; fill:grey; " points="240,65 242,65 247,60 242,55 240,55 240,65 "  />
</g>
<g id="a19_0013"  >
<polygon style="stroke:black; stroke-width:1; fill:grey; " points="254,60 257,55 257,65 254,60 "  />
</g>
<g id="a19_0014"  >
<polygon style="stroke:black; stroke-width:1; fill:grey; " points="322,65 331,65 336,60 331,55 322,55 322,65 "  />
</g>
<g id="a19_0015"  >
<polygon style="stroke:black; stroke-width:1; fill:grey; " points="322,65 331,65 336,60 331,55 322,55 322,65 "  />
</g>
<g id="a19_0016"  >
<polygon style="stroke:black; stroke-width:1; fill:#810E15; " points="365,60 370,55 374,55 374,65 370,65 365,60 "  />
</g>
<g id="a19_0017"  >
<polygon style="stroke:black; stroke-width:1; fill:grey; " points="444,60 449,55 456,55 456,65 449,65 444,60 "  />
</g>
<g id="a19_0018"  >
<polygon style="stroke:black; stroke-width:1; fill:grey; " points="516,65 520,60 516,55 516,65 "  />
</g>
<g id="a19_0019"  >
<polygon style="stroke:black; stroke-width:1; fill:#810E15; " points="528,60 533,55 541,55 541,65 533,65 528,60 "  />
</g>
<g id="a19_0020"  >
<polygon style="stroke:black; stroke-width:1; fill:grey; " points="602,65 602,65 607,60 602,55 602,55 602,65 "  />
</g>
<g id="a19_0021"  >
<polygon style="stroke:black; stroke-width:1; fill:grey; " points="602,65 602,65 607,60 602,55 602,55 602,65 "  />
</g>
<g id="a19_0022"  >
<polygon style="stroke:black; stroke-width:1; fill:grey; " points="609,60 612,55 612,65 609,60 "  />
</g>
<g id="a19_0023"  >
<polygon style="stroke:black; stroke-width:1; fill:#810E15; " points="614,60 619,55 627,55 627,65 619,65 614,60 "  />
</g>
<g id="a19_0024"  >
<polygon style="stroke:black; stroke-width:1; fill:grey; " points="648,60 652,55 652,65 648,60 "  />
</g>
<g id="a19_0025"  >
<polygon style="stroke:black; stroke-width:1; fill:grey; " points="664,60 669,55 713,55 713,65 669,65 664,60 "  />
</g>
<g id="a19_0026"  >
<polygon style="stroke:black; stroke-width:1; fill:#810E15; " points="724,60 727,55 727,65 724,60 "  />
</g>
<g id="a19_0027"  >
<polygon style="stroke:black; stroke-width:1; fill:grey; " points="736,65 737,65 742,60 737,55 736,55 736,65 "  />
</g>
<g id="a19_0028"  >
<polygon style="stroke:black; stroke-width:1; fill:grey; " points="743,60 748,55 748,55 748,65 748,65 743,60 "  />
</g>
<g id="a19_0029"  >
<polygon style="stroke:black; stroke-width:1; fill:grey; " points="757,65 759,65 764,60 759,55 757,55 757,65 "  />
</g>
<g id="a19_0030"  >
<polygon style="stroke:black; stroke-width:1; fill:grey; " points="767,65 773,65 778,60 773,55 767,55 767,65 "  />
</g>
</svg>
