<svg xmlns="http://www.w3.org/2000/svg" height="0" width="768.0" version="1.1" y="0" x="0" preserveAspectRatio="none" xmlns:xlink="http://www.w3.org/1999/xlink" viewBox="0 -30 819.2 0"  >
<g  >
<line y1="60" x2="778.0" style="stroke:grey; stroke-width:2; " x1="10" y2="60"  />
</g>
<g id="a10_000"  >
<polygon style="stroke:black; stroke-width:1; fill:grey; " points="10,60 15,55 15,55 15,65 15,65 10,60 "  />
</g>
<g id="a10_001"  >
<polygon style="stroke:black; stroke-width:1; fill:#810E15; " points="57,60 62,55 62,55 62,65 62,65 57,60 "  />
</g>
<g id="a10_002"  >
<polygon style="stroke:black; stroke-width:1; fill:#810E15; " points="77,60 82,55 82,55 82,65 82,65 77,60 "  />
</g>
<g id="a10_003"  >
<polygon style="stroke:black; stroke-width:1; fill:#810E15; " points="88,60 91,55 91,65 88,60 "  />
</g>
<g id="a10_004"  >
<polygon style="stroke:black; stroke-width:1; fill:#810E15; " points="94,60 99,55 99,55 99,65 99,65 94,60 "  />
</g>
<g id="a10_005"  >
<polygon style="stroke:black; stroke-width:1; fill:#810E15; " points="192,60 197,55 197,55 197,65 197,65 192,60 "  />
</g>
<g id="a10_006"  >
<polygon style="stroke:black; stroke-width:1; fill:#810E15; " points="261,60 265,55 265,65 261,60 "  />
</g>
<g id="a10_007"  >
<polygon style="stroke:black; stroke-width:1; fill:grey; " points="272,60 277,55 295,55 295,65 277,65 272,60 "  />
</g>
<g id="a10_008"  >
<polygon style="stroke:black; stroke-width:1; fill:grey; " points="299,65 321,65 326,60 321,55 299,55 299,65 "  />
</g>
<g id="a10_009"  >
<polygon style="stroke:black; stroke-width:1; fill:#810E15; " points="331,60 336,55 341,55 341,65 336,65 331,60 "  />
</g>
<g id="a10_0010"  >
<polygon style="stroke:black; stroke-width:1; fill:#810E15; " points="381,60 386,55 388,55 388,65 386,65 381,60 "  />
</g>
<g id="a10_0011"  >
<polygon style="stroke:black; stroke-width:1; fill:#810E15; " points="381,60 386,55 388,55 388,65 386,65 381,60 "  />
</g>
<g id="a10_0012"  >
<polygon style="stroke:black; stroke-width:1; fill:#810E15; " points="381,60 386,55 388,55 388,65 386,65 381,60 "  />
</g>
<g id="a10_0013"  >
<polygon style="stroke:black; stroke-width:1; fill:#810E15; " points="418,60 423,55 424,55 424,65 423,65 418,60 "  />
</g>
<g id="a10_0014"  >
<polygon style="stroke:black; stroke-width:1; fill:#810E15; " points="495,60 500,55 511,55 511,65 500,65 495,60 "  />
</g>
<g id="a10_0015"  >
<polygon style="stroke:black; stroke-width:1; fill:grey; " points="495,60 500,55 511,55 511,65 500,65 495,60 "  />
</g>
<g id="a10_0016"  >
<polygon style="stroke:black; stroke-width:1; fill:grey; " points="596,60 601,55 611,55 611,65 601,65 596,60 "  />
</g>
<g id="a10_0017"  >
<polygon style="stroke:black; stroke-width:1; fill:grey; " points="626,65 630,65 635,60 630,55 626,55 626,65 "  />
</g>
<g id="a10_0018"  >
<polygon style="stroke:black; stroke-width:1; fill:grey; " points="645,65 645,65 650,60 645,55 645,55 645,65 "  />
</g>
<g id="a10_0019"  >
<polygon style="stroke:black; stroke-width:1; fill:grey; " points="645,65 645,65 650,60 645,55 645,55 645,65 "  />
</g>
<g id="a10_0020"  >
<polygon style="stroke:black; stroke-width:1; fill:#810E15; " points="645,65 645,65 650,60 645,55 645,55 645,65 "  />
</g>
<g id="a10_0021"  >
<polygon style="stroke:black; stroke-width:1; fill:#810E15; " points="668,65 668,65 673,60 668,55 668,55 668,65 "  />
</g>
<g id="a10_0022"  >
<polygon style="stroke:black; stroke-width:1; fill:#810E15; " points="683,65 683,65 688,60 683,55 683,55 683,65 "  />
</g>
<g id="a10_0023"  >
<polygon style="stroke:black; stroke-width:1; fill:grey; " points="713,65 714,65 719,60 714,55 713,55 713,65 "  />
</g>
<g id="a10_0024"  >
<polygon style="stroke:black; stroke-width:1; fill:grey; " points="727,65 773,65 778,60 773,55 727,55 727,65 "  />
</g>
<g id="a10_0025"  >
<polygon style="stroke:black; stroke-width:1; fill:grey; " points="727,65 773,65 778,60 773,55 727,55 727,65 "  />
</g>
</svg>
