<svg xmlns="http://www.w3.org/2000/svg" height="0" width="768.0" version="1.1" y="0" x="0" preserveAspectRatio="none" xmlns:xlink="http://www.w3.org/1999/xlink" viewBox="0 -30 819.2 0"  >
<g  >
<line y1="60" x2="778.0" style="stroke:grey; stroke-width:2; " x1="10" y2="60"  />
</g>
<g id="a51_000"  >
<polygon style="stroke:black; stroke-width:1; fill:#810E15; " points="10,65 21,65 26,60 21,55 10,55 10,65 "  />
</g>
<g id="a51_001"  >
<polygon style="stroke:black; stroke-width:1; fill:grey; " points="28,60 33,55 48,55 48,65 33,65 28,60 "  />
</g>
<g id="a51_002"  >
<polygon style="stroke:black; stroke-width:1; fill:grey; " points="58,60 63,55 79,55 79,65 63,65 58,60 "  />
</g>
<g id="a51_003"  >
<polygon style="stroke:black; stroke-width:1; fill:grey; " points="85,60 90,55 121,55 121,65 90,65 85,60 "  />
</g>
<g id="a51_004"  >
<polygon style="stroke:black; stroke-width:1; fill:#810E15; " points="110,60 115,55 117,55 117,65 115,65 110,60 "  />
</g>
<g id="a51_005"  >
<polygon style="stroke:black; stroke-width:1; fill:grey; " points="128,60 133,55 155,55 155,65 133,65 128,60 "  />
</g>
<g id="a51_006"  >
<polygon style="stroke:black; stroke-width:1; fill:grey; " points="218,65 239,65 244,60 239,55 218,55 218,65 "  />
</g>
<g id="a51_007"  >
<polygon style="stroke:black; stroke-width:1; fill:grey; " points="218,65 239,65 244,60 239,55 218,55 218,65 "  />
</g>
<g id="a51_008"  >
<polygon style="stroke:black; stroke-width:1; fill:#810E15; " points="249,60 254,55 258,55 258,65 254,65 249,60 "  />
</g>
<g id="a51_009"  >
<polygon style="stroke:black; stroke-width:1; fill:grey; " points="276,65 297,65 302,60 297,55 276,55 276,65 "  />
</g>
<g id="a51_0010"  >
<polygon style="stroke:black; stroke-width:1; fill:grey; " points="309,65 310,65 315,60 310,55 309,55 309,65 "  />
</g>
<g id="a51_0011"  >
<polygon style="stroke:black; stroke-width:1; fill:grey; " points="346,60 351,55 354,55 354,65 351,65 346,60 "  />
</g>
<g id="a51_0012"  >
<polygon style="stroke:black; stroke-width:1; fill:grey; " points="346,60 351,55 357,55 357,65 351,65 346,60 "  />
</g>
<g id="a51_0013"  >
<polygon style="stroke:black; stroke-width:1; fill:#810E15; " points="410,60 415,55 446,55 446,65 415,65 410,60 "  />
</g>
<g id="a51_0014"  >
<polygon style="stroke:black; stroke-width:1; fill:#810E15; " points="466,60 471,55 476,55 476,65 471,65 466,60 "  />
</g>
<g id="a51_0015"  >
<polygon style="stroke:black; stroke-width:1; fill:grey; " points="487,60 491,55 491,65 487,60 "  />
</g>
<g id="a51_0016"  >
<polygon style="stroke:black; stroke-width:1; fill:grey; " points="492,60 497,55 502,55 502,65 497,65 492,60 "  />
</g>
<g id="a51_0017"  >
<polygon style="stroke:black; stroke-width:1; fill:grey; " points="509,60 512,55 512,65 509,60 "  />
</g>
<g id="a51_0018"  >
<polygon style="stroke:black; stroke-width:1; fill:#810E15; " points="535,60 540,55 543,55 543,65 540,65 535,60 "  />
</g>
<g id="a51_0019"  >
<polygon style="stroke:black; stroke-width:1; fill:grey; " points="535,60 540,55 543,55 543,65 540,65 535,60 "  />
</g>
<g id="a51_0020"  >
<polygon style="stroke:black; stroke-width:1; fill:#810E15; " points="643,60 648,55 650,55 650,65 648,65 643,60 "  />
</g>
<g id="a51_0021"  >
<polygon style="stroke:black; stroke-width:1; fill:#810E15; " points="703,60 708,55 710,55 710,65 708,65 703,60 "  />
</g>
<g id="a51_0022"  >
<polygon style="stroke:black; stroke-width:1; fill:grey; " points="724,65 728,65 733,60 728,55 724,55 724,65 "  />
</g>
<g id="a51_0023"  >
<polygon style="stroke:black; stroke-width:1; fill:grey; " points="736,60 741,55 743,55 743,65 741,65 736,60 "  />
</g>
<g id="a51_0024"  >
<polygon style="stroke:black; stroke-width:1; fill:grey; " points="747,65 750,60 747,55 747,65 "  />
</g>
<g id="a51_0025"  >
<polygon style="stroke:black; stroke-width:1; fill:grey; " points="753,60 758,55 778,55 778,65 758,65 753,60 "  />
</g>
</svg>
