<svg xmlns="http://www.w3.org/2000/svg" height="0" width="768.0" version="1.1" y="0" x="0" preserveAspectRatio="none" xmlns:xlink="http://www.w3.org/1999/xlink" viewBox="0 -30 819.2 0"  >
<g  >
<line y1="60" x2="778.0" style="stroke:grey; stroke-width:2; " x1="10" y2="60"  />
</g>
<g id="a42_000"  >
<polygon style="stroke:black; stroke-width:1; fill:grey; " points="10,65 12,60 10,55 10,65 "  />
</g>
<g id="a42_001"  >
<polygon style="stroke:black; stroke-width:1; fill:grey; " points="10,65 12,60 10,55 10,65 "  />
</g>
<g id="a42_002"  >
<polygon style="stroke:black; stroke-width:1; fill:grey; " points="16,60 21,55 23,55 23,65 21,65 16,60 "  />
</g>
<g id="a42_003"  >
<polygon style="stroke:black; stroke-width:1; fill:grey; " points="52,65 67,65 72,60 67,55 52,55 52,65 "  />
</g>
<g id="a42_004"  >
<polygon style="stroke:black; stroke-width:1; fill:grey; " points="74,60 77,55 77,65 74,60 "  />
</g>
<g id="a42_005"  >
<polygon style="stroke:black; stroke-width:1; fill:grey; " points="173,60 178,55 180,55 180,65 178,65 173,60 "  />
</g>
<g id="a42_006"  >
<polygon style="stroke:black; stroke-width:1; fill:grey; " points="199,65 203,60 199,55 199,65 "  />
</g>
<g id="a42_007"  >
<polygon style="stroke:black; stroke-width:1; fill:grey; " points="205,65 206,65 211,60 206,55 205,55 205,65 "  />
</g>
<g id="a42_008"  >
<polygon style="stroke:black; stroke-width:1; fill:grey; " points="213,60 217,55 217,65 213,60 "  />
</g>
<g id="a42_009"  >
<polygon style="stroke:black; stroke-width:1; fill:grey; " points="227,65 228,60 227,55 227,65 "  />
</g>
<g id="a42_0010"  >
<polygon style="stroke:black; stroke-width:1; fill:grey; " points="236,65 240,60 236,55 236,65 "  />
</g>
<g id="a42_0011"  >
<polygon style="stroke:black; stroke-width:1; fill:grey; " points="283,65 287,60 283,55 283,65 "  />
</g>
<g id="a42_0012"  >
<polygon style="stroke:black; stroke-width:1; fill:grey; " points="289,60 291,55 291,65 289,60 "  />
</g>
<g id="a42_0013"  >
<polygon style="stroke:black; stroke-width:1; fill:grey; " points="349,65 350,60 349,55 349,65 "  />
</g>
<g id="a42_0014"  >
<polygon style="stroke:black; stroke-width:1; fill:grey; " points="371,65 372,60 371,55 371,65 "  />
</g>
<g id="a42_0015"  >
<polygon style="stroke:black; stroke-width:1; fill:#810E15; " points="382,60 384,55 384,65 382,60 "  />
</g>
<g id="a42_0016"  >
<polygon style="stroke:black; stroke-width:1; fill:#810E15; " points="382,60 384,55 384,65 382,60 "  />
</g>
<g id="a42_0017"  >
<polygon style="stroke:black; stroke-width:1; fill:grey; " points="392,65 392,60 392,55 392,65 "  />
</g>
<g id="a42_0018"  >
<polygon style="stroke:black; stroke-width:1; fill:#810E15; " points="394,60 396,55 396,65 394,60 "  />
</g>
<g id="a42_0019"  >
<polygon style="stroke:black; stroke-width:1; fill:#810E15; " points="394,60 396,55 396,65 394,60 "  />
</g>
<g id="a42_0020"  >
<polygon style="stroke:black; stroke-width:1; fill:grey; " points="402,65 403,60 402,55 402,65 "  />
</g>
<g id="a42_0021"  >
<polygon style="stroke:black; stroke-width:1; fill:grey; " points="438,65 440,60 438,55 438,65 "  />
</g>
<g id="a42_0022"  >
<polygon style="stroke:black; stroke-width:1; fill:grey; " points="456,65 457,60 456,55 456,65 "  />
</g>
<g id="a42_0023"  >
<polygon style="stroke:black; stroke-width:1; fill:grey; " points="468,65 470,60 468,55 468,65 "  />
</g>
<g id="a42_0024"  >
<polygon style="stroke:black; stroke-width:1; fill:grey; " points="501,65 501,65 506,60 501,55 501,55 501,65 "  />
</g>
<g id="a42_0025"  >
<polygon style="stroke:black; stroke-width:1; fill:grey; " points="510,60 514,55 514,65 510,60 "  />
</g>
<g id="a42_0026"  >
<polygon style="stroke:black; stroke-width:1; fill:grey; " points="521,60 521,55 521,65 521,60 "  />
</g>
<g id="a42_0027"  >
<polygon style="stroke:black; stroke-width:1; fill:grey; " points="525,65 529,60 525,55 525,65 "  />
</g>
<g id="a42_0028"  >
<polygon style="stroke:black; stroke-width:1; fill:grey; " points="533,65 536,65 541,60 536,55 533,55 533,65 "  />
</g>
<g id="a42_0029"  >
<polygon style="stroke:black; stroke-width:1; fill:grey; " points="542,60 547,55 548,55 548,65 547,65 542,60 "  />
</g>
<g id="a42_0030"  >
<polygon style="stroke:black; stroke-width:1; fill:grey; " points="552,60 557,55 557,55 557,65 557,65 552,60 "  />
</g>
<g id="a42_0031"  >
<polygon style="stroke:black; stroke-width:1; fill:grey; " points="552,60 557,55 557,55 557,65 557,65 552,60 "  />
</g>
<g id="a42_0032"  >
<polygon style="stroke:black; stroke-width:1; fill:grey; " points="565,60 570,55 572,55 572,65 570,65 565,60 "  />
</g>
<g id="a42_0033"  >
<polygon style="stroke:black; stroke-width:1; fill:grey; " points="576,60 580,55 580,65 576,60 "  />
</g>
<g id="a42_0034"  >
<polygon style="stroke:black; stroke-width:1; fill:grey; " points="583,60 588,55 588,55 588,65 588,65 583,60 "  />
</g>
<g id="a42_0035"  >
<polygon style="stroke:black; stroke-width:1; fill:grey; " points="590,60 595,55 598,55 598,65 595,65 590,60 "  />
</g>
<g id="a42_0036"  >
<polygon style="stroke:black; stroke-width:1; fill:grey; " points="591,60 596,55 598,55 598,65 596,65 591,60 "  />
</g>
<g id="a42_0037"  >
<polygon style="stroke:black; stroke-width:1; fill:grey; " points="591,60 596,55 598,55 598,65 596,65 591,60 "  />
</g>
<g id="a42_0038"  >
<polygon style="stroke:black; stroke-width:1; fill:grey; " points="595,60 598,55 598,65 595,60 "  />
</g>
<g id="a42_0039"  >
<polygon style="stroke:black; stroke-width:1; fill:grey; " points="596,60 598,55 598,65 596,60 "  />
</g>
<g id="a42_0040"  >
<polygon style="stroke:black; stroke-width:1; fill:grey; " points="596,60 598,55 598,65 596,60 "  />
</g>
<g id="a42_0041"  >
<polygon style="stroke:black; stroke-width:1; fill:grey; " points="600,65 604,60 600,55 600,65 "  />
</g>
<g id="a42_0042"  >
<polygon style="stroke:black; stroke-width:1; fill:grey; " points="613,60 615,55 615,65 613,60 "  />
</g>
<g id="a42_0043"  >
<polygon style="stroke:black; stroke-width:1; fill:grey; " points="613,60 615,55 615,65 613,60 "  />
</g>
<g id="a42_0044"  >
<polygon style="stroke:black; stroke-width:1; fill:grey; " points="613,60 615,55 615,65 613,60 "  />
</g>
<g id="a42_0045"  >
<polygon style="stroke:black; stroke-width:1; fill:grey; " points="613,60 615,55 615,65 613,60 "  />
</g>
<g id="a42_0046"  >
<polygon style="stroke:black; stroke-width:1; fill:grey; " points="618,60 619,55 619,65 618,60 "  />
</g>
<g id="a42_0047"  >
<polygon style="stroke:black; stroke-width:1; fill:grey; " points="626,65 629,60 626,55 626,65 "  />
</g>
<g id="a42_0048"  >
<polygon style="stroke:black; stroke-width:1; fill:grey; " points="631,65 632,60 631,55 631,65 "  />
</g>
<g id="a42_0049"  >
<polygon style="stroke:black; stroke-width:1; fill:grey; " points="632,65 633,65 638,60 633,55 632,55 632,65 "  />
</g>
<g id="a42_0050"  >
<polygon style="stroke:black; stroke-width:1; fill:grey; " points="648,60 652,55 652,65 648,60 "  />
</g>
<g id="a42_0051"  >
<polygon style="stroke:black; stroke-width:1; fill:grey; " points="654,60 658,55 658,65 654,60 "  />
</g>
<g id="a42_0052"  >
<polygon style="stroke:black; stroke-width:1; fill:grey; " points="677,60 679,55 679,65 677,60 "  />
</g>
<g id="a42_0053"  >
<polygon style="stroke:black; stroke-width:1; fill:grey; " points="681,60 686,55 693,55 693,65 686,65 681,60 "  />
</g>
<g id="a42_0054"  >
<polygon style="stroke:black; stroke-width:1; fill:grey; " points="681,60 686,55 693,55 693,65 686,65 681,60 "  />
</g>
<g id="a42_0055"  >
<polygon style="stroke:black; stroke-width:1; fill:grey; " points="681,60 686,55 693,55 693,65 686,65 681,60 "  />
</g>
<g id="a42_0056"  >
<polygon style="stroke:black; stroke-width:1; fill:grey; " points="681,60 686,55 693,55 693,65 686,65 681,60 "  />
</g>
<g id="a42_0057"  >
<polygon style="stroke:black; stroke-width:1; fill:grey; " points="681,60 686,55 693,55 693,65 686,65 681,60 "  />
</g>
<g id="a42_0058"  >
<polygon style="stroke:black; stroke-width:1; fill:grey; " points="696,60 697,55 697,65 696,60 "  />
</g>
<g id="a42_0059"  >
<polygon style="stroke:black; stroke-width:1; fill:grey; " points="699,60 700,55 700,65 699,60 "  />
</g>
<g id="a42_0060"  >
<polygon style="stroke:black; stroke-width:1; fill:grey; " points="705,65 705,65 710,60 705,55 705,55 705,65 "  />
</g>
<g id="a42_0061"  >
<polygon style="stroke:black; stroke-width:1; fill:grey; " points="712,60 713,55 713,65 712,60 "  />
</g>
<g id="a42_0062"  >
<polygon style="stroke:black; stroke-width:1; fill:grey; " points="721,60 725,55 725,65 721,60 "  />
</g>
<g id="a42_0063"  >
<polygon style="stroke:black; stroke-width:1; fill:grey; " points="732,60 734,55 734,65 732,60 "  />
</g>
<g id="a42_0064"  >
<polygon style="stroke:black; stroke-width:1; fill:grey; " points="738,65 738,65 743,60 738,55 738,55 738,65 "  />
</g>
<g id="a42_0065"  >
<polygon style="stroke:black; stroke-width:1; fill:grey; " points="747,65 750,60 747,55 747,65 "  />
</g>
<g id="a42_0066"  >
<polygon style="stroke:black; stroke-width:1; fill:grey; " points="758,65 773,65 778,60 773,55 758,55 758,65 "  />
</g>
</svg>
