<svg xmlns="http://www.w3.org/2000/svg" height="0" width="768.0" version="1.1" y="0" x="0" preserveAspectRatio="none" xmlns:xlink="http://www.w3.org/1999/xlink" viewBox="0 -30 819.2 0"  >
<g  >
<line y1="60" x2="778.0" style="stroke:grey; stroke-width:2; " x1="10" y2="60"  />
</g>
<g id="a57_000"  >
<polygon style="stroke:black; stroke-width:1; fill:grey; " points="10,65 12,60 10,55 10,65 "  />
</g>
<g id="a57_001"  >
<polygon style="stroke:black; stroke-width:1; fill:grey; " points="84,65 88,60 84,55 84,65 "  />
</g>
<g id="a57_002"  >
<polygon style="stroke:black; stroke-width:1; fill:grey; " points="91,65 91,65 96,60 91,55 91,55 91,65 "  />
</g>
<g id="a57_003"  >
<polygon style="stroke:black; stroke-width:1; fill:grey; " points="305,65 308,60 305,55 305,65 "  />
</g>
<g id="a57_004"  >
<polygon style="stroke:black; stroke-width:1; fill:grey; " points="425,65 431,65 436,60 431,55 425,55 425,65 "  />
</g>
<g id="a57_005"  >
<polygon style="stroke:black; stroke-width:1; fill:grey; " points="521,65 523,60 521,55 521,65 "  />
</g>
<g id="a57_006"  >
<polygon style="stroke:black; stroke-width:1; fill:#810E15; " points="773,60 778,55 778,55 778,65 778,65 773,60 "  />
</g>
</svg>
