<svg xmlns="http://www.w3.org/2000/svg" height="0" width="768.0" version="1.1" y="0" x="0" preserveAspectRatio="none" xmlns:xlink="http://www.w3.org/1999/xlink" viewBox="0 -30 819.2 0"  >
<g  >
<line y1="60" x2="778.0" style="stroke:grey; stroke-width:2; " x1="10" y2="60"  />
</g>
<g id="a15_000"  >
<polygon style="stroke:black; stroke-width:1; fill:#810E15; " points="10,60 15,55 15,55 15,65 15,65 10,60 "  />
</g>
<g id="a15_001"  >
<polygon style="stroke:black; stroke-width:1; fill:#810E15; " points="57,60 62,55 64,55 64,65 62,65 57,60 "  />
</g>
<g id="a15_002"  >
<polygon style="stroke:black; stroke-width:1; fill:grey; " points="85,65 118,65 123,60 118,55 85,55 85,65 "  />
</g>
<g id="a15_003"  >
<polygon style="stroke:black; stroke-width:1; fill:grey; " points="132,65 135,60 132,55 132,65 "  />
</g>
<g id="a15_004"  >
<polygon style="stroke:black; stroke-width:1; fill:grey; " points="147,60 150,55 150,65 147,60 "  />
</g>
<g id="a15_005"  >
<polygon style="stroke:black; stroke-width:1; fill:grey; " points="147,60 150,55 150,65 147,60 "  />
</g>
<g id="a15_006"  >
<polygon style="stroke:black; stroke-width:1; fill:grey; " points="151,60 154,55 154,65 151,60 "  />
</g>
<g id="a15_007"  >
<polygon style="stroke:black; stroke-width:1; fill:grey; " points="158,60 163,55 168,55 168,65 163,65 158,60 "  />
</g>
<g id="a15_008"  >
<polygon style="stroke:black; stroke-width:1; fill:#810E15; " points="231,60 234,55 234,65 231,60 "  />
</g>
<g id="a15_009"  >
<polygon style="stroke:black; stroke-width:1; fill:#810E15; " points="329,60 333,55 333,65 329,60 "  />
</g>
<g id="a15_0010"  >
<polygon style="stroke:black; stroke-width:1; fill:grey; " points="404,65 405,60 404,55 404,65 "  />
</g>
<g id="a15_0011"  >
<polygon style="stroke:black; stroke-width:1; fill:#810E15; " points="594,60 598,55 598,65 594,60 "  />
</g>
<g id="a15_0012"  >
<polygon style="stroke:black; stroke-width:1; fill:#810E15; " points="650,60 654,55 654,65 650,60 "  />
</g>
<g id="a15_0013"  >
<polygon style="stroke:black; stroke-width:1; fill:#810E15; " points="694,60 699,55 707,55 707,65 699,65 694,60 "  />
</g>
<g id="a15_0014"  >
<polygon style="stroke:black; stroke-width:1; fill:grey; " points="768,65 773,65 778,60 773,55 768,55 768,65 "  />
</g>
</svg>
