<svg xmlns="http://www.w3.org/2000/svg" height="0" width="768.0" version="1.1" y="0" x="0" preserveAspectRatio="none" xmlns:xlink="http://www.w3.org/1999/xlink" viewBox="0 -30 819.2 0"  >
<g  >
<line y1="60" x2="778.0" style="stroke:grey; stroke-width:2; " x1="10" y2="60"  />
</g>
<g id="a27_000"  >
<polygon style="stroke:black; stroke-width:1; fill:grey; " points="10,60 13,55 13,65 10,60 "  />
</g>
<g id="a27_001"  >
<polygon style="stroke:black; stroke-width:1; fill:#810E15; " points="126,65 128,60 126,55 126,65 "  />
</g>
<g id="a27_002"  >
<polygon style="stroke:black; stroke-width:1; fill:#810E15; " points="306,65 309,60 306,55 306,65 "  />
</g>
<g id="a27_003"  >
<polygon style="stroke:black; stroke-width:1; fill:#810E15; " points="543,65 546,60 543,55 543,65 "  />
</g>
<g id="a27_004"  >
<polygon style="stroke:black; stroke-width:1; fill:grey; " points="593,65 596,60 593,55 593,65 "  />
</g>
<g id="a27_005"  >
<polygon style="stroke:black; stroke-width:1; fill:#810E15; " points="671,60 674,55 674,65 671,60 "  />
</g>
<g id="a27_006"  >
<polygon style="stroke:black; stroke-width:1; fill:#810E15; " points="774,60 778,55 778,65 774,60 "  />
</g>
</svg>
