<svg xmlns="http://www.w3.org/2000/svg" height="0" width="768.0" version="1.1" y="0" x="0" preserveAspectRatio="none" xmlns:xlink="http://www.w3.org/1999/xlink" viewBox="0 -30 819.2 0"  >
<g  >
<line y1="60" x2="778.0" style="stroke:grey; stroke-width:2; " x1="10" y2="60"  />
</g>
<g id="a47_000"  >
<polygon style="stroke:black; stroke-width:1; fill:grey; " points="10,60 15,55 16,55 16,65 15,65 10,60 "  />
</g>
<g id="a47_001"  >
<polygon style="stroke:black; stroke-width:1; fill:grey; " points="46,60 50,55 50,65 46,60 "  />
</g>
<g id="a47_002"  >
<polygon style="stroke:black; stroke-width:1; fill:grey; " points="57,60 59,55 59,65 57,60 "  />
</g>
<g id="a47_003"  >
<polygon style="stroke:black; stroke-width:1; fill:grey; " points="64,65 66,60 64,55 64,65 "  />
</g>
<g id="a47_004"  >
<polygon style="stroke:black; stroke-width:1; fill:grey; " points="69,65 69,65 74,60 69,55 69,55 69,65 "  />
</g>
<g id="a47_005"  >
<polygon style="stroke:black; stroke-width:1; fill:grey; " points="76,60 81,55 83,55 83,65 81,65 76,60 "  />
</g>
<g id="a47_006"  >
<polygon style="stroke:black; stroke-width:1; fill:grey; " points="94,65 97,60 94,55 94,65 "  />
</g>
<g id="a47_007"  >
<polygon style="stroke:black; stroke-width:1; fill:grey; " points="94,65 97,60 94,55 94,65 "  />
</g>
<g id="a47_008"  >
<polygon style="stroke:black; stroke-width:1; fill:grey; " points="100,60 105,55 112,55 112,65 105,65 100,60 "  />
</g>
<g id="a47_009"  >
<polygon style="stroke:black; stroke-width:1; fill:grey; " points="100,60 105,55 112,55 112,65 105,65 100,60 "  />
</g>
<g id="a47_0010"  >
<polygon style="stroke:black; stroke-width:1; fill:grey; " points="100,60 105,55 112,55 112,65 105,65 100,60 "  />
</g>
<g id="a47_0011"  >
<polygon style="stroke:black; stroke-width:1; fill:grey; " points="100,60 105,55 112,55 112,65 105,65 100,60 "  />
</g>
<g id="a47_0012"  >
<polygon style="stroke:black; stroke-width:1; fill:grey; " points="101,60 106,55 112,55 112,65 106,65 101,60 "  />
</g>
<g id="a47_0013"  >
<polygon style="stroke:black; stroke-width:1; fill:grey; " points="124,65 125,65 130,60 125,55 124,55 124,65 "  />
</g>
<g id="a47_0014"  >
<polygon style="stroke:black; stroke-width:1; fill:grey; " points="124,65 125,65 130,60 125,55 124,55 124,65 "  />
</g>
<g id="a47_0015"  >
<polygon style="stroke:black; stroke-width:1; fill:grey; " points="124,65 125,65 130,60 125,55 124,55 124,65 "  />
</g>
<g id="a47_0016"  >
<polygon style="stroke:black; stroke-width:1; fill:grey; " points="138,60 142,55 142,65 138,60 "  />
</g>
<g id="a47_0017"  >
<polygon style="stroke:black; stroke-width:1; fill:grey; " points="138,60 143,55 143,55 143,65 143,65 138,60 "  />
</g>
<g id="a47_0018"  >
<polygon style="stroke:black; stroke-width:1; fill:grey; " points="138,60 143,55 143,55 143,65 143,65 138,60 "  />
</g>
<g id="a47_0019"  >
<polygon style="stroke:black; stroke-width:1; fill:grey; " points="138,60 143,55 143,55 143,65 143,65 138,60 "  />
</g>
<g id="a47_0020"  >
<polygon style="stroke:black; stroke-width:1; fill:grey; " points="162,65 175,65 180,60 175,55 162,55 162,65 "  />
</g>
<g id="a47_0021"  >
<polygon style="stroke:black; stroke-width:1; fill:grey; " points="165,65 175,65 180,60 175,55 165,55 165,65 "  />
</g>
<g id="a47_0022"  >
<polygon style="stroke:black; stroke-width:1; fill:grey; " points="187,65 188,60 187,55 187,65 "  />
</g>
<g id="a47_0023"  >
<polygon style="stroke:black; stroke-width:1; fill:grey; " points="208,60 212,55 212,65 208,60 "  />
</g>
<g id="a47_0024"  >
<polygon style="stroke:black; stroke-width:1; fill:grey; " points="218,65 222,60 218,55 218,65 "  />
</g>
<g id="a47_0025"  >
<polygon style="stroke:black; stroke-width:1; fill:grey; " points="265,60 270,55 276,55 276,65 270,65 265,60 "  />
</g>
<g id="a47_0026"  >
<polygon style="stroke:black; stroke-width:1; fill:grey; " points="280,60 285,55 290,55 290,65 285,65 280,60 "  />
</g>
<g id="a47_0027"  >
<polygon style="stroke:black; stroke-width:1; fill:grey; " points="294,60 299,55 302,55 302,65 299,65 294,60 "  />
</g>
<g id="a47_0028"  >
<polygon style="stroke:black; stroke-width:1; fill:grey; " points="307,60 312,55 313,55 313,65 312,65 307,60 "  />
</g>
<g id="a47_0029"  >
<polygon style="stroke:black; stroke-width:1; fill:grey; " points="360,65 364,60 360,55 360,65 "  />
</g>
<g id="a47_0030"  >
<polygon style="stroke:black; stroke-width:1; fill:grey; " points="370,60 374,55 374,65 370,60 "  />
</g>
<g id="a47_0031"  >
<polygon style="stroke:black; stroke-width:1; fill:grey; " points="370,60 374,55 374,65 370,60 "  />
</g>
<g id="a47_0032"  >
<polygon style="stroke:black; stroke-width:1; fill:grey; " points="378,60 381,55 381,65 378,60 "  />
</g>
<g id="a47_0033"  >
<polygon style="stroke:black; stroke-width:1; fill:#810E15; " points="394,60 395,55 395,65 394,60 "  />
</g>
<g id="a47_0034"  >
<polygon style="stroke:black; stroke-width:1; fill:grey; " points="435,65 435,65 440,60 435,55 435,55 435,65 "  />
</g>
<g id="a47_0035"  >
<polygon style="stroke:black; stroke-width:1; fill:grey; " points="435,65 435,65 440,60 435,55 435,55 435,65 "  />
</g>
<g id="a47_0036"  >
<polygon style="stroke:black; stroke-width:1; fill:grey; " points="435,65 435,65 440,60 435,55 435,55 435,65 "  />
</g>
<g id="a47_0037"  >
<polygon style="stroke:black; stroke-width:1; fill:grey; " points="446,65 448,65 453,60 448,55 446,55 446,65 "  />
</g>
<g id="a47_0038"  >
<polygon style="stroke:black; stroke-width:1; fill:grey; " points="467,60 471,55 471,65 467,60 "  />
</g>
<g id="a47_0039"  >
<polygon style="stroke:black; stroke-width:1; fill:grey; " points="468,60 471,55 471,65 468,60 "  />
</g>
<g id="a47_0040"  >
<polygon style="stroke:black; stroke-width:1; fill:grey; " points="478,65 493,65 498,60 493,55 478,55 478,65 "  />
</g>
<g id="a47_0041"  >
<polygon style="stroke:black; stroke-width:1; fill:grey; " points="510,60 512,55 512,65 510,60 "  />
</g>
<g id="a47_0042"  >
<polygon style="stroke:black; stroke-width:1; fill:grey; " points="542,65 551,65 556,60 551,55 542,55 542,65 "  />
</g>
<g id="a47_0043"  >
<polygon style="stroke:black; stroke-width:1; fill:grey; " points="560,60 564,55 564,65 560,60 "  />
</g>
<g id="a47_0044"  >
<polygon style="stroke:black; stroke-width:1; fill:grey; " points="595,65 596,60 595,55 595,65 "  />
</g>
<g id="a47_0045"  >
<polygon style="stroke:black; stroke-width:1; fill:grey; " points="613,65 615,65 620,60 615,55 613,55 613,65 "  />
</g>
<g id="a47_0046"  >
<polygon style="stroke:black; stroke-width:1; fill:grey; " points="631,65 634,65 639,60 634,55 631,55 631,65 "  />
</g>
<g id="a47_0047"  >
<polygon style="stroke:black; stroke-width:1; fill:grey; " points="631,65 634,65 639,60 634,55 631,55 631,65 "  />
</g>
<g id="a47_0048"  >
<polygon style="stroke:black; stroke-width:1; fill:grey; " points="701,65 704,60 701,55 701,65 "  />
</g>
<g id="a47_0049"  >
<polygon style="stroke:black; stroke-width:1; fill:grey; " points="752,65 756,60 752,55 752,65 "  />
</g>
<g id="a47_0050"  >
<polygon style="stroke:black; stroke-width:1; fill:grey; " points="759,60 763,55 763,65 759,60 "  />
</g>
<g id="a47_0051"  >
<polygon style="stroke:black; stroke-width:1; fill:grey; " points="774,60 778,55 778,65 774,60 "  />
</g>
</svg>
