<svg xmlns="http://www.w3.org/2000/svg" height="0" width="768.0" version="1.1" y="0" x="0" preserveAspectRatio="none" xmlns:xlink="http://www.w3.org/1999/xlink" viewBox="0 -30 819.2 0"  >
<g  >
<line y1="60" x2="778.0" style="stroke:grey; stroke-width:2; " x1="10" y2="60"  />
</g>
<g id="a33_000"  >
<polygon style="stroke:black; stroke-width:1; fill:grey; " points="10,60 15,55 18,55 18,65 15,65 10,60 "  />
</g>
<g id="a33_001"  >
<polygon style="stroke:black; stroke-width:1; fill:grey; " points="18,60 21,55 21,65 18,60 "  />
</g>
<g id="a33_002"  >
<polygon style="stroke:black; stroke-width:1; fill:grey; " points="30,65 31,65 36,60 31,55 30,55 30,65 "  />
</g>
<g id="a33_003"  >
<polygon style="stroke:black; stroke-width:1; fill:grey; " points="40,60 44,55 44,65 40,60 "  />
</g>
<g id="a33_004"  >
<polygon style="stroke:black; stroke-width:1; fill:grey; " points="50,60 51,55 51,65 50,60 "  />
</g>
<g id="a33_005"  >
<polygon style="stroke:black; stroke-width:1; fill:grey; " points="57,60 62,55 73,55 73,65 62,65 57,60 "  />
</g>
<g id="a33_006"  >
<polygon style="stroke:black; stroke-width:1; fill:grey; " points="97,65 97,60 97,55 97,65 "  />
</g>
<g id="a33_007"  >
<polygon style="stroke:black; stroke-width:1; fill:grey; " points="98,65 102,60 98,55 98,65 "  />
</g>
<g id="a33_008"  >
<polygon style="stroke:black; stroke-width:1; fill:grey; " points="108,65 110,60 108,55 108,65 "  />
</g>
<g id="a33_009"  >
<polygon style="stroke:black; stroke-width:1; fill:grey; " points="111,65 114,65 119,60 114,55 111,55 111,65 "  />
</g>
<g id="a33_0010"  >
<polygon style="stroke:black; stroke-width:1; fill:grey; " points="121,65 124,65 129,60 124,55 121,55 121,65 "  />
</g>
<g id="a33_0011"  >
<polygon style="stroke:black; stroke-width:1; fill:grey; " points="132,60 137,55 146,55 146,65 137,65 132,60 "  />
</g>
<g id="a33_0012"  >
<polygon style="stroke:black; stroke-width:1; fill:grey; " points="153,60 154,55 154,65 153,60 "  />
</g>
<g id="a33_0013"  >
<polygon style="stroke:black; stroke-width:1; fill:grey; " points="157,60 162,55 167,55 167,65 162,65 157,60 "  />
</g>
<g id="a33_0014"  >
<polygon style="stroke:black; stroke-width:1; fill:grey; " points="170,60 175,55 175,55 175,65 175,65 170,60 "  />
</g>
<g id="a33_0015"  >
<polygon style="stroke:black; stroke-width:1; fill:grey; " points="181,60 186,55 189,55 189,65 186,65 181,60 "  />
</g>
<g id="a33_0016"  >
<polygon style="stroke:black; stroke-width:1; fill:grey; " points="181,60 186,55 189,55 189,65 186,65 181,60 "  />
</g>
<g id="a33_0017"  >
<polygon style="stroke:black; stroke-width:1; fill:grey; " points="208,60 211,55 211,65 208,60 "  />
</g>
<g id="a33_0018"  >
<polygon style="stroke:black; stroke-width:1; fill:grey; " points="228,60 233,55 234,55 234,65 233,65 228,60 "  />
</g>
<g id="a33_0019"  >
<polygon style="stroke:black; stroke-width:1; fill:grey; " points="260,60 265,55 269,55 269,65 265,65 260,60 "  />
</g>
<g id="a33_0020"  >
<polygon style="stroke:black; stroke-width:1; fill:grey; " points="260,60 265,55 269,55 269,65 265,65 260,60 "  />
</g>
<g id="a33_0021"  >
<polygon style="stroke:black; stroke-width:1; fill:grey; " points="273,65 274,65 279,60 274,55 273,55 273,65 "  />
</g>
<g id="a33_0022"  >
<polygon style="stroke:black; stroke-width:1; fill:grey; " points="283,60 288,55 290,55 290,65 288,65 283,60 "  />
</g>
<g id="a33_0023"  >
<polygon style="stroke:black; stroke-width:1; fill:grey; " points="283,60 288,55 290,55 290,65 288,65 283,60 "  />
</g>
<g id="a33_0024"  >
<polygon style="stroke:black; stroke-width:1; fill:grey; " points="283,60 288,55 291,55 291,65 288,65 283,60 "  />
</g>
<g id="a33_0025"  >
<polygon style="stroke:black; stroke-width:1; fill:grey; " points="293,65 295,65 300,60 295,55 293,55 293,65 "  />
</g>
<g id="a33_0026"  >
<polygon style="stroke:black; stroke-width:1; fill:grey; " points="301,60 306,55 308,55 308,65 306,65 301,60 "  />
</g>
<g id="a33_0027"  >
<polygon style="stroke:black; stroke-width:1; fill:grey; " points="310,60 314,55 314,65 310,60 "  />
</g>
<g id="a33_0028"  >
<polygon style="stroke:black; stroke-width:1; fill:grey; " points="314,60 319,55 326,55 326,65 319,65 314,60 "  />
</g>
<g id="a33_0029"  >
<polygon style="stroke:black; stroke-width:1; fill:grey; " points="327,65 327,65 332,60 327,55 327,55 327,65 "  />
</g>
<g id="a33_0030"  >
<polygon style="stroke:black; stroke-width:1; fill:grey; " points="334,60 337,55 337,65 334,60 "  />
</g>
<g id="a33_0031"  >
<polygon style="stroke:black; stroke-width:1; fill:grey; " points="354,60 359,55 362,55 362,65 359,65 354,60 "  />
</g>
<g id="a33_0032"  >
<polygon style="stroke:black; stroke-width:1; fill:#810E15; " points="414,65 417,60 414,55 414,65 "  />
</g>
<g id="a33_0033"  >
<polygon style="stroke:black; stroke-width:1; fill:grey; " points="423,60 428,55 455,55 455,65 428,65 423,60 "  />
</g>
<g id="a33_0034"  >
<polygon style="stroke:black; stroke-width:1; fill:grey; " points="423,60 428,55 455,55 455,65 428,65 423,60 "  />
</g>
<g id="a33_0035"  >
<polygon style="stroke:black; stroke-width:1; fill:grey; " points="423,60 428,55 455,55 455,65 428,65 423,60 "  />
</g>
<g id="a33_0036"  >
<polygon style="stroke:black; stroke-width:1; fill:grey; " points="423,60 428,55 455,55 455,65 428,65 423,60 "  />
</g>
<g id="a33_0037"  >
<polygon style="stroke:black; stroke-width:1; fill:grey; " points="460,65 462,65 467,60 462,55 460,55 460,65 "  />
</g>
<g id="a33_0038"  >
<polygon style="stroke:black; stroke-width:1; fill:grey; " points="460,65 462,65 467,60 462,55 460,55 460,65 "  />
</g>
<g id="a33_0039"  >
<polygon style="stroke:black; stroke-width:1; fill:grey; " points="475,65 477,65 482,60 477,55 475,55 475,65 "  />
</g>
<g id="a33_0040"  >
<polygon style="stroke:black; stroke-width:1; fill:grey; " points="501,60 506,55 506,55 506,65 506,65 501,60 "  />
</g>
<g id="a33_0041"  >
<polygon style="stroke:black; stroke-width:1; fill:grey; " points="531,65 533,60 531,55 531,65 "  />
</g>
<g id="a33_0042"  >
<polygon style="stroke:black; stroke-width:1; fill:grey; " points="531,65 533,60 531,55 531,65 "  />
</g>
<g id="a33_0043"  >
<polygon style="stroke:black; stroke-width:1; fill:grey; " points="534,60 538,55 538,65 534,60 "  />
</g>
<g id="a33_0044"  >
<polygon style="stroke:black; stroke-width:1; fill:grey; " points="560,65 560,65 565,60 560,55 560,55 560,65 "  />
</g>
<g id="a33_0045"  >
<polygon style="stroke:black; stroke-width:1; fill:grey; " points="560,65 560,65 565,60 560,55 560,55 560,65 "  />
</g>
<g id="a33_0046"  >
<polygon style="stroke:black; stroke-width:1; fill:grey; " points="560,65 560,65 565,60 560,55 560,55 560,65 "  />
</g>
<g id="a33_0047"  >
<polygon style="stroke:black; stroke-width:1; fill:grey; " points="560,65 560,65 565,60 560,55 560,55 560,65 "  />
</g>
<g id="a33_0048"  >
<polygon style="stroke:black; stroke-width:1; fill:grey; " points="561,65 565,60 561,55 561,65 "  />
</g>
<g id="a33_0049"  >
<polygon style="stroke:black; stroke-width:1; fill:grey; " points="570,60 575,55 580,55 580,65 575,65 570,60 "  />
</g>
<g id="a33_0050"  >
<polygon style="stroke:black; stroke-width:1; fill:grey; " points="570,60 575,55 580,55 580,65 575,65 570,60 "  />
</g>
<g id="a33_0051"  >
<polygon style="stroke:black; stroke-width:1; fill:grey; " points="616,60 618,55 618,65 616,60 "  />
</g>
<g id="a33_0052"  >
<polygon style="stroke:black; stroke-width:1; fill:grey; " points="619,60 620,55 620,65 619,60 "  />
</g>
<g id="a33_0053"  >
<polygon style="stroke:black; stroke-width:1; fill:grey; " points="657,65 671,65 676,60 671,55 657,55 657,65 "  />
</g>
<g id="a33_0054"  >
<polygon style="stroke:black; stroke-width:1; fill:grey; " points="657,65 671,65 676,60 671,55 657,55 657,65 "  />
</g>
<g id="a33_0055"  >
<polygon style="stroke:black; stroke-width:1; fill:grey; " points="657,65 671,65 676,60 671,55 657,55 657,65 "  />
</g>
<g id="a33_0056"  >
<polygon style="stroke:black; stroke-width:1; fill:grey; " points="657,65 671,65 676,60 671,55 657,55 657,65 "  />
</g>
<g id="a33_0057"  >
<polygon style="stroke:black; stroke-width:1; fill:grey; " points="680,65 682,65 687,60 682,55 680,55 680,65 "  />
</g>
<g id="a33_0058"  >
<polygon style="stroke:black; stroke-width:1; fill:grey; " points="692,65 696,65 701,60 696,55 692,55 692,65 "  />
</g>
<g id="a33_0059"  >
<polygon style="stroke:black; stroke-width:1; fill:grey; " points="723,65 727,65 732,60 727,55 723,55 723,65 "  />
</g>
<g id="a33_0060"  >
<polygon style="stroke:black; stroke-width:1; fill:grey; " points="764,65 765,60 764,55 764,65 "  />
</g>
<g id="a33_0061"  >
<polygon style="stroke:black; stroke-width:1; fill:grey; " points="775,65 778,60 775,55 775,65 "  />
</g>
</svg>
