<svg xmlns="http://www.w3.org/2000/svg" height="0" width="768.0" version="1.1" y="0" x="0" preserveAspectRatio="none" xmlns:xlink="http://www.w3.org/1999/xlink" viewBox="0 -30 819.2 0"  >
<g  >
<line y1="60" x2="778.0" style="stroke:grey; stroke-width:2; " x1="10" y2="60"  />
</g>
<g id="a38_000"  >
<polygon style="stroke:black; stroke-width:1; fill:grey; " points="10,60 15,55 37,55 37,65 15,65 10,60 "  />
</g>
<g id="a38_001"  >
<polygon style="stroke:black; stroke-width:1; fill:#810E15; " points="94,60 99,55 251,55 251,65 99,65 94,60 "  />
</g>
<g id="a38_002"  >
<polygon style="stroke:black; stroke-width:1; fill:#810E15; " points="325,65 352,65 357,60 352,55 325,55 325,65 "  />
</g>
<g id="a38_003"  >
<polygon style="stroke:black; stroke-width:1; fill:#810E15; " points="431,65 468,65 473,60 468,55 431,55 431,65 "  />
</g>
<g id="a38_004"  >
<polygon style="stroke:black; stroke-width:1; fill:#810E15; " points="492,65 549,65 554,60 549,55 492,55 492,65 "  />
</g>
<g id="a38_005"  >
<polygon style="stroke:black; stroke-width:1; fill:#810E15; " points="555,60 560,55 615,55 615,65 560,65 555,60 "  />
</g>
<g id="a38_006"  >
<polygon style="stroke:black; stroke-width:1; fill:grey; " points="696,65 707,65 712,60 707,55 696,55 696,65 "  />
</g>
<g id="a38_007"  >
<polygon style="stroke:black; stroke-width:1; fill:grey; " points="726,60 731,55 778,55 778,65 731,65 726,60 "  />
</g>
<g id="a38_008"  >
<polygon style="stroke:black; stroke-width:1; fill:grey; " points="726,60 731,55 778,55 778,65 731,65 726,60 "  />
</g>
</svg>
