<svg xmlns="http://www.w3.org/2000/svg" height="0" width="768.0" version="1.1" y="0" x="0" preserveAspectRatio="none" xmlns:xlink="http://www.w3.org/1999/xlink" viewBox="0 -30 819.2 0"  >
<g  >
<line y1="60" x2="778.0" style="stroke:grey; stroke-width:2; " x1="10" y2="60"  />
</g>
<g id="a12_000"  >
<polygon style="stroke:black; stroke-width:1; fill:#810E15; " points="10,65 31,65 36,60 31,55 10,55 10,65 "  />
</g>
<g id="a12_001"  >
<polygon style="stroke:black; stroke-width:1; fill:grey; " points="66,65 70,65 75,60 70,55 66,55 66,65 "  />
</g>
<g id="a12_002"  >
<polygon style="stroke:black; stroke-width:1; fill:grey; " points="94,60 99,55 114,55 114,65 99,65 94,60 "  />
</g>
<g id="a12_003"  >
<polygon style="stroke:black; stroke-width:1; fill:grey; " points="187,65 274,65 279,60 274,55 187,55 187,65 "  />
</g>
<g id="a12_004"  >
<polygon style="stroke:black; stroke-width:1; fill:#810E15; " points="368,65 411,65 416,60 411,55 368,55 368,65 "  />
</g>
<g id="a12_005"  >
<polygon style="stroke:black; stroke-width:1; fill:grey; " points="436,60 441,55 472,55 472,65 441,65 436,60 "  />
</g>
<g id="a12_006"  >
<polygon style="stroke:black; stroke-width:1; fill:grey; " points="436,60 441,55 472,55 472,65 441,65 436,60 "  />
</g>
<g id="a12_007"  >
<polygon style="stroke:black; stroke-width:1; fill:grey; " points="436,60 441,55 472,55 472,65 441,65 436,60 "  />
</g>
<g id="a12_008"  >
<polygon style="stroke:black; stroke-width:1; fill:grey; " points="436,60 441,55 472,55 472,65 441,65 436,60 "  />
</g>
<g id="a12_009"  >
<polygon style="stroke:black; stroke-width:1; fill:grey; " points="491,60 496,55 496,55 496,65 496,65 491,60 "  />
</g>
<g id="a12_0010"  >
<polygon style="stroke:black; stroke-width:1; fill:grey; " points="632,65 671,65 676,60 671,55 632,55 632,65 "  />
</g>
<g id="a12_0011"  >
<polygon style="stroke:black; stroke-width:1; fill:grey; " points="643,65 671,65 676,60 671,55 643,55 643,65 "  />
</g>
<g id="a12_0012"  >
<polygon style="stroke:black; stroke-width:1; fill:#810E15; " points="682,60 687,55 710,55 710,65 687,65 682,60 "  />
</g>
<g id="a12_0013"  >
<polygon style="stroke:black; stroke-width:1; fill:grey; " points="750,65 773,65 778,60 773,55 750,55 750,65 "  />
</g>
</svg>
