<svg xmlns="http://www.w3.org/2000/svg" height="0" width="768.0" version="1.1" y="0" x="0" preserveAspectRatio="none" xmlns:xlink="http://www.w3.org/1999/xlink" viewBox="0 -30 819.2 0"  >
<g  >
<line y1="60" x2="778.0" style="stroke:grey; stroke-width:2; " x1="10" y2="60"  />
</g>
<g id="a16_000"  >
<polygon style="stroke:black; stroke-width:1; fill:grey; " points="10,65 64,65 69,60 64,55 10,55 10,65 "  />
</g>
<g id="a16_001"  >
<polygon style="stroke:black; stroke-width:1; fill:#810E15; " points="81,60 86,55 113,55 113,65 86,65 81,60 "  />
</g>
<g id="a16_002"  >
<polygon style="stroke:black; stroke-width:1; fill:grey; " points="83,60 88,55 113,55 113,65 88,65 83,60 "  />
</g>
<g id="a16_003"  >
<polygon style="stroke:black; stroke-width:1; fill:grey; " points="174,60 179,55 249,55 249,65 179,65 174,60 "  />
</g>
<g id="a16_004"  >
<polygon style="stroke:black; stroke-width:1; fill:grey; " points="274,65 316,65 321,60 316,55 274,55 274,65 "  />
</g>
<g id="a16_005"  >
<polygon style="stroke:black; stroke-width:1; fill:grey; " points="274,65 316,65 321,60 316,55 274,55 274,65 "  />
</g>
<g id="a16_006"  >
<polygon style="stroke:black; stroke-width:1; fill:grey; " points="332,65 346,65 351,60 346,55 332,55 332,65 "  />
</g>
<g id="a16_007"  >
<polygon style="stroke:black; stroke-width:1; fill:grey; " points="390,60 395,55 414,55 414,65 395,65 390,60 "  />
</g>
<g id="a16_008"  >
<polygon style="stroke:black; stroke-width:1; fill:grey; " points="390,60 395,55 414,55 414,65 395,65 390,60 "  />
</g>
<g id="a16_009"  >
<polygon style="stroke:black; stroke-width:1; fill:#810E15; " points="504,65 511,65 516,60 511,55 504,55 504,65 "  />
</g>
<g id="a16_0010"  >
<polygon style="stroke:black; stroke-width:1; fill:grey; " points="562,60 567,55 579,55 579,65 567,65 562,60 "  />
</g>
<g id="a16_0011"  >
<polygon style="stroke:black; stroke-width:1; fill:grey; " points="609,60 614,55 626,55 626,65 614,65 609,60 "  />
</g>
<g id="a16_0012"  >
<polygon style="stroke:black; stroke-width:1; fill:#810E15; " points="641,60 646,55 662,55 662,65 646,65 641,60 "  />
</g>
<g id="a16_0013"  >
<polygon style="stroke:black; stroke-width:1; fill:grey; " points="641,60 646,55 662,55 662,65 646,65 641,60 "  />
</g>
<g id="a16_0014"  >
<polygon style="stroke:black; stroke-width:1; fill:grey; " points="713,60 718,55 778,55 778,65 718,65 713,60 "  />
</g>
</svg>
