<svg xmlns="http://www.w3.org/2000/svg" height="0" width="768.0" version="1.1" y="0" x="0" preserveAspectRatio="none" xmlns:xlink="http://www.w3.org/1999/xlink" viewBox="0 -30 819.2 0"  >
<g  >
<line y1="60" x2="778.0" style="stroke:grey; stroke-width:2; " x1="10" y2="60"  />
</g>
<g id="a4_000"  >
<polygon style="stroke:black; stroke-width:1; fill:grey; " points="10,65 12,60 10,55 10,65 "  />
</g>
<g id="a4_001"  >
<polygon style="stroke:black; stroke-width:1; fill:grey; " points="22,65 24,60 22,55 22,65 "  />
</g>
<g id="a4_002"  >
<polygon style="stroke:black; stroke-width:1; fill:grey; " points="36,65 39,60 36,55 36,65 "  />
</g>
<g id="a4_003"  >
<polygon style="stroke:black; stroke-width:1; fill:grey; " points="36,65 39,60 36,55 36,65 "  />
</g>
<g id="a4_004"  >
<polygon style="stroke:black; stroke-width:1; fill:grey; " points="36,65 39,60 36,55 36,65 "  />
</g>
<g id="a4_005"  >
<polygon style="stroke:black; stroke-width:1; fill:#810E15; " points="42,60 47,55 51,55 51,65 47,65 42,60 "  />
</g>
<g id="a4_006"  >
<polygon style="stroke:black; stroke-width:1; fill:grey; " points="57,60 62,55 64,55 64,65 62,65 57,60 "  />
</g>
<g id="a4_007"  >
<polygon style="stroke:black; stroke-width:1; fill:grey; " points="67,65 70,65 75,60 70,55 67,55 67,65 "  />
</g>
<g id="a4_008"  >
<polygon style="stroke:black; stroke-width:1; fill:grey; " points="89,65 90,60 89,55 89,65 "  />
</g>
<g id="a4_009"  >
<polygon style="stroke:black; stroke-width:1; fill:grey; " points="94,60 99,55 104,55 104,65 99,65 94,60 "  />
</g>
<g id="a4_0010"  >
<polygon style="stroke:black; stroke-width:1; fill:grey; " points="109,60 113,55 113,65 109,60 "  />
</g>
<g id="a4_0011"  >
<polygon style="stroke:black; stroke-width:1; fill:#810E15; " points="116,60 117,55 117,65 116,60 "  />
</g>
<g id="a4_0012"  >
<polygon style="stroke:black; stroke-width:1; fill:#810E15; " points="118,60 119,55 119,65 118,60 "  />
</g>
<g id="a4_0013"  >
<polygon style="stroke:black; stroke-width:1; fill:#810E15; " points="362,65 366,60 362,55 362,65 "  />
</g>
<g id="a4_0014"  >
<polygon style="stroke:black; stroke-width:1; fill:#810E15; " points="366,65 370,60 366,55 366,65 "  />
</g>
<g id="a4_0015"  >
<polygon style="stroke:black; stroke-width:1; fill:grey; " points="481,65 483,60 481,55 481,65 "  />
</g>
<g id="a4_0016"  >
<polygon style="stroke:black; stroke-width:1; fill:#810E15; " points="563,60 567,55 567,65 563,60 "  />
</g>
<g id="a4_0017"  >
<polygon style="stroke:black; stroke-width:1; fill:#810E15; " points="589,60 594,55 626,55 626,65 594,65 589,60 "  />
</g>
<g id="a4_0018"  >
<polygon style="stroke:black; stroke-width:1; fill:grey; " points="676,60 679,55 679,65 676,60 "  />
</g>
<g id="a4_0019"  >
<polygon style="stroke:black; stroke-width:1; fill:grey; " points="707,65 709,65 714,60 709,55 707,55 707,65 "  />
</g>
<g id="a4_0020"  >
<polygon style="stroke:black; stroke-width:1; fill:grey; " points="715,65 715,65 720,60 715,55 715,55 715,65 "  />
</g>
<g id="a4_0021"  >
<polygon style="stroke:black; stroke-width:1; fill:#810E15; " points="724,65 725,65 730,60 725,55 724,55 724,65 "  />
</g>
<g id="a4_0022"  >
<polygon style="stroke:black; stroke-width:1; fill:grey; " points="735,60 738,55 738,65 735,60 "  />
</g>
<g id="a4_0023"  >
<polygon style="stroke:black; stroke-width:1; fill:grey; " points="735,60 738,55 738,65 735,60 "  />
</g>
<g id="a4_0024"  >
<polygon style="stroke:black; stroke-width:1; fill:grey; " points="775,65 778,60 775,55 775,65 "  />
</g>
</svg>
