<svg xmlns="http://www.w3.org/2000/svg" height="0" width="768.0" version="1.1" y="0" x="0" preserveAspectRatio="none" xmlns:xlink="http://www.w3.org/1999/xlink" viewBox="0 -30 819.2 0"  >
<g  >
<line y1="60" x2="778.0" style="stroke:grey; stroke-width:2; " x1="10" y2="60"  />
</g>
<g id="a40_000"  >
<polygon style="stroke:black; stroke-width:1; fill:grey; " points="10,60 15,55 34,55 34,65 15,65 10,60 "  />
</g>
<g id="a40_001"  >
<polygon style="stroke:black; stroke-width:1; fill:grey; " points="54,60 59,55 82,55 82,65 59,65 54,60 "  />
</g>
<g id="a40_002"  >
<polygon style="stroke:black; stroke-width:1; fill:#810E15; " points="94,60 99,55 111,55 111,65 99,65 94,60 "  />
</g>
<g id="a40_003"  >
<polygon style="stroke:black; stroke-width:1; fill:#810E15; " points="204,65 222,65 227,60 222,55 204,55 204,65 "  />
</g>
<g id="a40_004"  >
<polygon style="stroke:black; stroke-width:1; fill:#810E15; " points="273,65 285,65 290,60 285,55 273,55 273,65 "  />
</g>
<g id="a40_005"  >
<polygon style="stroke:black; stroke-width:1; fill:grey; " points="331,65 349,65 354,60 349,55 331,55 331,65 "  />
</g>
<g id="a40_006"  >
<polygon style="stroke:black; stroke-width:1; fill:#810E15; " points="331,65 349,65 354,60 349,55 331,55 331,65 "  />
</g>
<g id="a40_007"  >
<polygon style="stroke:black; stroke-width:1; fill:grey; " points="331,65 349,65 354,60 349,55 331,55 331,65 "  />
</g>
<g id="a40_008"  >
<polygon style="stroke:black; stroke-width:1; fill:grey; " points="386,65 420,65 425,60 420,55 386,55 386,65 "  />
</g>
<g id="a40_009"  >
<polygon style="stroke:black; stroke-width:1; fill:grey; " points="432,60 437,55 439,55 439,65 437,65 432,60 "  />
</g>
<g id="a40_0010"  >
<polygon style="stroke:black; stroke-width:1; fill:grey; " points="433,60 438,55 439,55 439,65 438,65 433,60 "  />
</g>
<g id="a40_0011"  >
<polygon style="stroke:black; stroke-width:1; fill:grey; " points="524,65 546,65 551,60 546,55 524,55 524,65 "  />
</g>
<g id="a40_0012"  >
<polygon style="stroke:black; stroke-width:1; fill:grey; " points="566,60 571,55 596,55 596,65 571,65 566,60 "  />
</g>
<g id="a40_0013"  >
<polygon style="stroke:black; stroke-width:1; fill:grey; " points="566,60 571,55 596,55 596,65 571,65 566,60 "  />
</g>
<g id="a40_0014"  >
<polygon style="stroke:black; stroke-width:1; fill:grey; " points="566,60 571,55 596,55 596,65 571,65 566,60 "  />
</g>
<g id="a40_0015"  >
<polygon style="stroke:black; stroke-width:1; fill:#810E15; " points="690,65 695,65 700,60 695,55 690,55 690,65 "  />
</g>
<g id="a40_0016"  >
<polygon style="stroke:black; stroke-width:1; fill:grey; " points="719,60 724,55 778,55 778,65 724,65 719,60 "  />
</g>
</svg>
