<svg xmlns="http://www.w3.org/2000/svg" height="0" width="768.0" version="1.1" y="0" x="0" preserveAspectRatio="none" xmlns:xlink="http://www.w3.org/1999/xlink" viewBox="0 -30 819.2 0"  >
<g  >
<line y1="60" x2="778.0" style="stroke:grey; stroke-width:2; " x1="10" y2="60"  />
</g>
<g id="a58_000"  >
<polygon style="stroke:black; stroke-width:1; fill:#810E15; " points="10,60 15,55 15,55 15,65 15,65 10,60 "  />
</g>
<g id="a58_001"  >
<polygon style="stroke:black; stroke-width:1; fill:grey; " points="17,65 27,65 32,60 27,55 17,55 17,65 "  />
</g>
<g id="a58_002"  >
<polygon style="stroke:black; stroke-width:1; fill:grey; " points="440,65 443,65 448,60 443,55 440,55 440,65 "  />
</g>
<g id="a58_003"  >
<polygon style="stroke:black; stroke-width:1; fill:grey; " points="538,65 540,65 545,60 540,55 538,55 538,65 "  />
</g>
<g id="a58_004"  >
<polygon style="stroke:black; stroke-width:1; fill:grey; " points="773,65 773,65 778,60 773,55 773,55 773,65 "  />
</g>
</svg>
