<svg xmlns="http://www.w3.org/2000/svg" height="0" width="768.0" version="1.1" y="0" x="0" preserveAspectRatio="none" xmlns:xlink="http://www.w3.org/1999/xlink" viewBox="0 -30 819.2 0"  >
<g  >
<line y1="60" x2="778.0" style="stroke:grey; stroke-width:2; " x1="10" y2="60"  />
</g>
<g id="a59_000"  >
<polygon style="stroke:black; stroke-width:1; fill:#810E15; " points="10,65 19,65 24,60 19,55 10,55 10,65 "  />
</g>
<g id="a59_001"  >
<polygon style="stroke:black; stroke-width:1; fill:#810E15; " points="124,60 129,55 143,55 143,65 129,65 124,60 "  />
</g>
<g id="a59_002"  >
<polygon style="stroke:black; stroke-width:1; fill:grey; " points="304,60 309,55 371,55 371,65 309,65 304,60 "  />
</g>
<g id="a59_003"  >
<polygon style="stroke:black; stroke-width:1; fill:grey; " points="400,65 403,65 408,60 403,55 400,55 400,65 "  />
</g>
<g id="a59_004"  >
<polygon style="stroke:black; stroke-width:1; fill:grey; " points="400,65 403,65 408,60 403,55 400,55 400,65 "  />
</g>
<g id="a59_005"  >
<polygon style="stroke:black; stroke-width:1; fill:#810E15; " points="482,65 487,65 492,60 487,55 482,55 482,65 "  />
</g>
<g id="a59_006"  >
<polygon style="stroke:black; stroke-width:1; fill:#810E15; " points="621,60 626,55 656,55 656,65 626,65 621,60 "  />
</g>
<g id="a59_007"  >
<polygon style="stroke:black; stroke-width:1; fill:grey; " points="666,60 671,55 697,55 697,65 671,65 666,60 "  />
</g>
<g id="a59_008"  >
<polygon style="stroke:black; stroke-width:1; fill:grey; " points="736,65 753,65 758,60 753,55 736,55 736,65 "  />
</g>
<g id="a59_009"  >
<polygon style="stroke:black; stroke-width:1; fill:#810E15; " points="765,60 770,55 778,55 778,65 770,65 765,60 "  />
</g>
</svg>
