<svg xmlns="http://www.w3.org/2000/svg" height="0" width="768.0" version="1.1" y="0" x="0" preserveAspectRatio="none" xmlns:xlink="http://www.w3.org/1999/xlink" viewBox="0 -30 819.2 0"  >
<g  >
<line y1="60" x2="778.0" style="stroke:grey; stroke-width:2; " x1="10" y2="60"  />
</g>
<g id="a18_000"  >
<polygon style="stroke:black; stroke-width:1; fill:#810E15; " points="10,60 15,55 17,55 17,65 15,65 10,60 "  />
</g>
<g id="a18_001"  >
<polygon style="stroke:black; stroke-width:1; fill:grey; " points="207,65 225,65 230,60 225,55 207,55 207,65 "  />
</g>
<g id="a18_002"  >
<polygon style="stroke:black; stroke-width:1; fill:#810E15; " points="369,60 374,55 401,55 401,65 374,65 369,60 "  />
</g>
<g id="a18_003"  >
<polygon style="stroke:black; stroke-width:1; fill:grey; " points="414,65 425,65 430,60 425,55 414,55 414,65 "  />
</g>
<g id="a18_004"  >
<polygon style="stroke:black; stroke-width:1; fill:grey; " points="442,60 445,55 445,65 442,60 "  />
</g>
<g id="a18_005"  >
<polygon style="stroke:black; stroke-width:1; fill:grey; " points="471,65 498,65 503,60 498,55 471,55 471,65 "  />
</g>
<g id="a18_006"  >
<polygon style="stroke:black; stroke-width:1; fill:grey; " points="515,65 517,60 515,55 515,65 "  />
</g>
<g id="a18_007"  >
<polygon style="stroke:black; stroke-width:1; fill:grey; " points="524,60 529,55 542,55 542,65 529,65 524,60 "  />
</g>
<g id="a18_008"  >
<polygon style="stroke:black; stroke-width:1; fill:#810E15; " points="736,60 740,55 740,65 736,60 "  />
</g>
<g id="a18_009"  >
<polygon style="stroke:black; stroke-width:1; fill:grey; " points="769,60 774,55 778,55 778,65 774,65 769,60 "  />
</g>
</svg>
