<svg xmlns="http://www.w3.org/2000/svg" height="0" width="768.0" version="1.1" y="0" x="0" preserveAspectRatio="none" xmlns:xlink="http://www.w3.org/1999/xlink" viewBox="0 -30 819.2 0"  >
<g  >
<line y1="60" x2="778.0" style="stroke:grey; stroke-width:2; " x1="10" y2="60"  />
</g>
<g id="a32_000"  >
<polygon style="stroke:black; stroke-width:1; fill:grey; " points="10,65 31,65 36,60 31,55 10,55 10,65 "  />
</g>
<g id="a32_001"  >
<polygon style="stroke:black; stroke-width:1; fill:grey; " points="10,65 31,65 36,60 31,55 10,55 10,65 "  />
</g>
<g id="a32_002"  >
<polygon style="stroke:black; stroke-width:1; fill:grey; " points="10,65 31,65 36,60 31,55 10,55 10,65 "  />
</g>
<g id="a32_003"  >
<polygon style="stroke:black; stroke-width:1; fill:#810E15; " points="98,60 103,55 127,55 127,65 103,65 98,60 "  />
</g>
<g id="a32_004"  >
<polygon style="stroke:black; stroke-width:1; fill:grey; " points="237,60 242,55 273,55 273,65 242,65 237,60 "  />
</g>
<g id="a32_005"  >
<polygon style="stroke:black; stroke-width:1; fill:#810E15; " points="291,60 296,55 341,55 341,65 296,65 291,60 "  />
</g>
<g id="a32_006"  >
<polygon style="stroke:black; stroke-width:1; fill:grey; " points="517,65 524,65 529,60 524,55 517,55 517,65 "  />
</g>
<g id="a32_007"  >
<polygon style="stroke:black; stroke-width:1; fill:grey; " points="540,60 545,55 581,55 581,65 545,65 540,60 "  />
</g>
<g id="a32_008"  >
<polygon style="stroke:black; stroke-width:1; fill:grey; " points="540,60 545,55 581,55 581,65 545,65 540,60 "  />
</g>
<g id="a32_009"  >
<polygon style="stroke:black; stroke-width:1; fill:grey; " points="618,65 645,65 650,60 645,55 618,55 618,65 "  />
</g>
<g id="a32_0010"  >
<polygon style="stroke:black; stroke-width:1; fill:grey; " points="618,65 645,65 650,60 645,55 618,55 618,65 "  />
</g>
<g id="a32_0011"  >
<polygon style="stroke:black; stroke-width:1; fill:grey; " points="618,65 645,65 650,60 645,55 618,55 618,65 "  />
</g>
<g id="a32_0012"  >
<polygon style="stroke:black; stroke-width:1; fill:#810E15; " points="753,65 773,65 778,60 773,55 753,55 753,65 "  />
</g>
</svg>
