<svg xmlns="http://www.w3.org/2000/svg" height="0" width="768.0" version="1.1" y="0" x="0" preserveAspectRatio="none" xmlns:xlink="http://www.w3.org/1999/xlink" viewBox="0 -30 819.2 0"  >
<g  >
<line y1="60" x2="778.0" style="stroke:grey; stroke-width:2; " x1="10" y2="60"  />
</g>
<g id="a50_000"  >
<polygon style="stroke:black; stroke-width:1; fill:grey; " points="10,65 14,60 10,55 10,65 "  />
</g>
<g id="a50_001"  >
<polygon style="stroke:black; stroke-width:1; fill:#810E15; " points="107,60 112,55 114,55 114,65 112,65 107,60 "  />
</g>
<g id="a50_002"  >
<polygon style="stroke:black; stroke-width:1; fill:#810E15; " points="117,60 122,55 123,55 123,65 122,65 117,60 "  />
</g>
<g id="a50_003"  >
<polygon style="stroke:black; stroke-width:1; fill:grey; " points="124,65 131,65 136,60 131,55 124,55 124,65 "  />
</g>
<g id="a50_004"  >
<polygon style="stroke:black; stroke-width:1; fill:#810E15; " points="143,60 148,55 150,55 150,65 148,65 143,60 "  />
</g>
<g id="a50_005"  >
<polygon style="stroke:black; stroke-width:1; fill:grey; " points="158,65 169,65 174,60 169,55 158,55 158,65 "  />
</g>
<g id="a50_006"  >
<polygon style="stroke:black; stroke-width:1; fill:#810E15; " points="308,60 313,55 316,55 316,65 313,65 308,60 "  />
</g>
<g id="a50_007"  >
<polygon style="stroke:black; stroke-width:1; fill:#810E15; " points="516,60 521,55 523,55 523,65 521,65 516,60 "  />
</g>
<g id="a50_008"  >
<polygon style="stroke:black; stroke-width:1; fill:#810E15; " points="553,60 558,55 565,55 565,65 558,65 553,60 "  />
</g>
<g id="a50_009"  >
<polygon style="stroke:black; stroke-width:1; fill:#810E15; " points="688,60 693,55 695,55 695,65 693,65 688,60 "  />
</g>
<g id="a50_0010"  >
<polygon style="stroke:black; stroke-width:1; fill:grey; " points="688,60 693,55 695,55 695,65 693,65 688,60 "  />
</g>
<g id="a50_0011"  >
<polygon style="stroke:black; stroke-width:1; fill:grey; " points="735,60 738,55 738,65 735,60 "  />
</g>
<g id="a50_0012"  >
<polygon style="stroke:black; stroke-width:1; fill:grey; " points="754,60 757,55 757,65 754,60 "  />
</g>
<g id="a50_0013"  >
<polygon style="stroke:black; stroke-width:1; fill:grey; " points="767,60 772,55 778,55 778,65 772,65 767,60 "  />
</g>
</svg>
