<svg xmlns="http://www.w3.org/2000/svg" height="0" width="768.0" version="1.1" y="0" x="0" preserveAspectRatio="none" xmlns:xlink="http://www.w3.org/1999/xlink" viewBox="0 -30 819.2 0"  >
<g  >
<line y1="60" x2="778.0" style="stroke:grey; stroke-width:2; " x1="10" y2="60"  />
</g>
<g id="a3_000"  >
<polygon style="stroke:black; stroke-width:1; fill:grey; " points="10,65 113,65 118,60 113,55 10,55 10,65 "  />
</g>
<g id="a3_001"  >
<polygon style="stroke:black; stroke-width:1; fill:#810E15; " points="183,60 188,55 349,55 349,65 188,65 183,60 "  />
</g>
<g id="a3_002"  >
<polygon style="stroke:black; stroke-width:1; fill:#810E15; " points="183,60 188,55 349,55 349,65 188,65 183,60 "  />
</g>
<g id="a3_003"  >
<polygon style="stroke:black; stroke-width:1; fill:grey; " points="481,65 575,65 580,60 575,55 481,55 481,65 "  />
</g>
<g id="a3_004"  >
<polygon style="stroke:black; stroke-width:1; fill:#810E15; " points="605,60 610,55 652,55 652,65 610,65 605,60 "  />
</g>
<g id="a3_005"  >
<polygon style="stroke:black; stroke-width:1; fill:#810E15; " points="735,60 740,55 778,55 778,65 740,65 735,60 "  />
</g>
</svg>
