<svg xmlns="http://www.w3.org/2000/svg" height="0" width="768.0" version="1.1" y="0" x="0" preserveAspectRatio="none" xmlns:xlink="http://www.w3.org/1999/xlink" viewBox="0 -30 819.2 0"  >
<g  >
<line y1="60" x2="778.0" style="stroke:grey; stroke-width:2; " x1="10" y2="60"  />
</g>
<g id="a60_000"  >
<polygon style="stroke:black; stroke-width:1; fill:grey; " points="10,65 17,65 22,60 17,55 10,55 10,65 "  />
</g>
<g id="a60_001"  >
<polygon style="stroke:black; stroke-width:1; fill:grey; " points="65,65 68,65 73,60 68,55 65,55 65,65 "  />
</g>
<g id="a60_002"  >
<polygon style="stroke:black; stroke-width:1; fill:#810E15; " points="102,65 120,65 125,60 120,55 102,55 102,65 "  />
</g>
<g id="a60_003"  >
<polygon style="stroke:black; stroke-width:1; fill:#810E15; " points="186,65 354,65 359,60 354,55 186,55 186,65 "  />
</g>
<g id="a60_004"  >
<polygon style="stroke:black; stroke-width:1; fill:#810E15; " points="374,65 375,65 380,60 375,55 374,55 374,65 "  />
</g>
<g id="a60_005"  >
<polygon style="stroke:black; stroke-width:1; fill:#810E15; " points="381,65 386,65 391,60 386,55 381,55 381,65 "  />
</g>
<g id="a60_006"  >
<polygon style="stroke:black; stroke-width:1; fill:grey; " points="401,60 406,55 455,55 455,65 406,65 401,60 "  />
</g>
<g id="a60_007"  >
<polygon style="stroke:black; stroke-width:1; fill:grey; " points="469,65 499,65 504,60 499,55 469,55 469,65 "  />
</g>
<g id="a60_008"  >
<polygon style="stroke:black; stroke-width:1; fill:grey; " points="541,60 546,55 586,55 586,65 546,65 541,60 "  />
</g>
<g id="a60_009"  >
<polygon style="stroke:black; stroke-width:1; fill:grey; " points="646,65 667,65 672,60 667,55 646,55 646,65 "  />
</g>
<g id="a60_0010"  >
<polygon style="stroke:black; stroke-width:1; fill:#810E15; " points="713,65 730,65 735,60 730,55 713,55 713,65 "  />
</g>
<g id="a60_0011"  >
<polygon style="stroke:black; stroke-width:1; fill:grey; " points="772,60 777,55 778,55 778,65 777,65 772,60 "  />
</g>
</svg>
