<svg xmlns="http://www.w3.org/2000/svg" height="0" width="768.0" version="1.1" y="0" x="0" preserveAspectRatio="none" xmlns:xlink="http://www.w3.org/1999/xlink" viewBox="0 -30 819.2 0"  >
<g  >
<line y1="60" x2="778.0" style="stroke:grey; stroke-width:2; " x1="10" y2="60"  />
</g>
<g id="a55_000"  >
<polygon style="stroke:black; stroke-width:1; fill:#810E15; " points="10,65 14,60 10,55 10,65 "  />
</g>
<g id="a55_001"  >
<polygon style="stroke:black; stroke-width:1; fill:#810E15; " points="15,65 19,60 15,55 15,65 "  />
</g>
<g id="a55_002"  >
<polygon style="stroke:black; stroke-width:1; fill:grey; " points="275,65 284,65 289,60 284,55 275,55 275,65 "  />
</g>
<g id="a55_003"  >
<polygon style="stroke:black; stroke-width:1; fill:grey; " points="323,60 328,55 361,55 361,65 328,65 323,60 "  />
</g>
<g id="a55_004"  >
<polygon style="stroke:black; stroke-width:1; fill:grey; " points="323,60 328,55 361,55 361,65 328,65 323,60 "  />
</g>
<g id="a55_005"  >
<polygon style="stroke:black; stroke-width:1; fill:#810E15; " points="689,65 734,65 739,60 734,55 689,55 689,65 "  />
</g>
<g id="a55_006"  >
<polygon style="stroke:black; stroke-width:1; fill:grey; " points="750,60 755,55 778,55 778,65 755,65 750,60 "  />
</g>
</svg>
