<svg xmlns="http://www.w3.org/2000/svg" height="0" width="768.0" version="1.1" y="0" x="0" preserveAspectRatio="none" xmlns:xlink="http://www.w3.org/1999/xlink" viewBox="0 -30 819.2 0"  >
<g  >
<line y1="60" x2="778.0" style="stroke:grey; stroke-width:2; " x1="10" y2="60"  />
</g>
<g id="a36_000"  >
<polygon style="stroke:black; stroke-width:1; fill:grey; " points="10,60 15,55 21,55 21,65 15,65 10,60 "  />
</g>
<g id="a36_001"  >
<polygon style="stroke:black; stroke-width:1; fill:grey; " points="30,60 35,55 42,55 42,65 35,65 30,60 "  />
</g>
<g id="a36_002"  >
<polygon style="stroke:black; stroke-width:1; fill:#810E15; " points="57,60 62,55 82,55 82,65 62,65 57,60 "  />
</g>
<g id="a36_003"  >
<polygon style="stroke:black; stroke-width:1; fill:#810E15; " points="120,65 120,65 125,60 120,55 120,55 120,65 "  />
</g>
<g id="a36_004"  >
<polygon style="stroke:black; stroke-width:1; fill:#810E15; " points="134,65 136,60 134,55 134,65 "  />
</g>
<g id="a36_005"  >
<polygon style="stroke:black; stroke-width:1; fill:#810E15; " points="146,65 148,60 146,55 146,65 "  />
</g>
<g id="a36_006"  >
<polygon style="stroke:black; stroke-width:1; fill:#810E15; " points="184,65 186,60 184,55 184,65 "  />
</g>
<g id="a36_007"  >
<polygon style="stroke:black; stroke-width:1; fill:#810E15; " points="195,65 198,60 195,55 195,65 "  />
</g>
<g id="a36_008"  >
<polygon style="stroke:black; stroke-width:1; fill:#810E15; " points="203,65 205,60 203,55 203,65 "  />
</g>
<g id="a36_009"  >
<polygon style="stroke:black; stroke-width:1; fill:#810E15; " points="214,65 216,60 214,55 214,65 "  />
</g>
<g id="a36_0010"  >
<polygon style="stroke:black; stroke-width:1; fill:#810E15; " points="225,65 227,60 225,55 225,65 "  />
</g>
<g id="a36_0011"  >
<polygon style="stroke:black; stroke-width:1; fill:#810E15; " points="237,65 239,60 237,55 237,65 "  />
</g>
<g id="a36_0012"  >
<polygon style="stroke:black; stroke-width:1; fill:grey; " points="307,65 429,65 434,60 429,55 307,55 307,65 "  />
</g>
<g id="a36_0013"  >
<polygon style="stroke:black; stroke-width:1; fill:#810E15; " points="388,65 391,60 388,55 388,65 "  />
</g>
<g id="a36_0014"  >
<polygon style="stroke:black; stroke-width:1; fill:#810E15; " points="500,65 503,60 500,55 500,65 "  />
</g>
<g id="a36_0015"  >
<polygon style="stroke:black; stroke-width:1; fill:grey; " points="533,65 541,65 546,60 541,55 533,55 533,65 "  />
</g>
<g id="a36_0016"  >
<polygon style="stroke:black; stroke-width:1; fill:grey; " points="563,65 566,60 563,55 563,65 "  />
</g>
<g id="a36_0017"  >
<polygon style="stroke:black; stroke-width:1; fill:#810E15; " points="585,65 588,60 585,55 585,65 "  />
</g>
<g id="a36_0018"  >
<polygon style="stroke:black; stroke-width:1; fill:#810E15; " points="596,65 599,60 596,55 596,65 "  />
</g>
<g id="a36_0019"  >
<polygon style="stroke:black; stroke-width:1; fill:#810E15; " points="612,65 615,60 612,55 612,65 "  />
</g>
<g id="a36_0020"  >
<polygon style="stroke:black; stroke-width:1; fill:#810E15; " points="638,65 640,60 638,55 638,65 "  />
</g>
<g id="a36_0021"  >
<polygon style="stroke:black; stroke-width:1; fill:#810E15; " points="649,65 652,60 649,55 649,65 "  />
</g>
<g id="a36_0022"  >
<polygon style="stroke:black; stroke-width:1; fill:#810E15; " points="664,65 667,60 664,55 664,65 "  />
</g>
<g id="a36_0023"  >
<polygon style="stroke:black; stroke-width:1; fill:#810E15; " points="673,65 675,60 673,55 673,65 "  />
</g>
<g id="a36_0024"  >
<polygon style="stroke:black; stroke-width:1; fill:#810E15; " points="686,65 689,60 686,55 686,65 "  />
</g>
<g id="a36_0025"  >
<polygon style="stroke:black; stroke-width:1; fill:#810E15; " points="696,65 699,60 696,55 696,65 "  />
</g>
<g id="a36_0026"  >
<polygon style="stroke:black; stroke-width:1; fill:#810E15; " points="707,65 709,60 707,55 707,65 "  />
</g>
<g id="a36_0027"  >
<polygon style="stroke:black; stroke-width:1; fill:#810E15; " points="713,65 744,65 749,60 744,55 713,55 713,65 "  />
</g>
<g id="a36_0028"  >
<polygon style="stroke:black; stroke-width:1; fill:grey; " points="762,65 773,65 778,60 773,55 762,55 762,65 "  />
</g>
</svg>
