<svg xmlns="http://www.w3.org/2000/svg" height="0" width="768.0" version="1.1" y="0" x="0" preserveAspectRatio="none" xmlns:xlink="http://www.w3.org/1999/xlink" viewBox="0 -30 819.2 0"  >
<g  >
<line y1="60" x2="778.0" style="stroke:grey; stroke-width:2; " x1="10" y2="60"  />
</g>
<g id="a22_000"  >
<polygon style="stroke:black; stroke-width:1; fill:grey; " points="10,65 14,65 19,60 14,55 10,55 10,65 "  />
</g>
<g id="a22_001"  >
<polygon style="stroke:black; stroke-width:1; fill:grey; " points="36,65 40,60 36,55 36,65 "  />
</g>
<g id="a22_002"  >
<polygon style="stroke:black; stroke-width:1; fill:grey; " points="40,65 53,65 58,60 53,55 40,55 40,65 "  />
</g>
<g id="a22_003"  >
<polygon style="stroke:black; stroke-width:1; fill:grey; " points="67,65 99,65 104,60 99,55 67,55 67,65 "  />
</g>
<g id="a22_004"  >
<polygon style="stroke:black; stroke-width:1; fill:#810E15; " points="67,65 100,65 105,60 100,55 67,55 67,65 "  />
</g>
<g id="a22_005"  >
<polygon style="stroke:black; stroke-width:1; fill:grey; " points="113,60 118,55 143,55 143,65 118,65 113,60 "  />
</g>
<g id="a22_006"  >
<polygon style="stroke:black; stroke-width:1; fill:grey; " points="151,60 156,55 163,55 163,65 156,65 151,60 "  />
</g>
<g id="a22_007"  >
<polygon style="stroke:black; stroke-width:1; fill:grey; " points="231,60 236,55 250,55 250,65 236,65 231,60 "  />
</g>
<g id="a22_008"  >
<polygon style="stroke:black; stroke-width:1; fill:grey; " points="231,60 236,55 250,55 250,65 236,65 231,60 "  />
</g>
<g id="a22_009"  >
<polygon style="stroke:black; stroke-width:1; fill:grey; " points="255,65 258,60 255,55 255,65 "  />
</g>
<g id="a22_0010"  >
<polygon style="stroke:black; stroke-width:1; fill:grey; " points="257,65 260,60 257,55 257,65 "  />
</g>
<g id="a22_0011"  >
<polygon style="stroke:black; stroke-width:1; fill:grey; " points="257,65 258,65 263,60 258,55 257,55 257,65 "  />
</g>
<g id="a22_0012"  >
<polygon style="stroke:black; stroke-width:1; fill:grey; " points="265,65 265,65 270,60 265,55 265,55 265,65 "  />
</g>
<g id="a22_0013"  >
<polygon style="stroke:black; stroke-width:1; fill:grey; " points="279,60 284,55 288,55 288,65 284,65 279,60 "  />
</g>
<g id="a22_0014"  >
<polygon style="stroke:black; stroke-width:1; fill:#810E15; " points="289,65 293,65 298,60 293,55 289,55 289,65 "  />
</g>
<g id="a22_0015"  >
<polygon style="stroke:black; stroke-width:1; fill:grey; " points="303,60 308,55 342,55 342,65 308,65 303,60 "  />
</g>
<g id="a22_0016"  >
<polygon style="stroke:black; stroke-width:1; fill:#810E15; " points="474,65 491,65 496,60 491,55 474,55 474,65 "  />
</g>
<g id="a22_0017"  >
<polygon style="stroke:black; stroke-width:1; fill:grey; " points="522,60 527,55 530,55 530,65 527,65 522,60 "  />
</g>
<g id="a22_0018"  >
<polygon style="stroke:black; stroke-width:1; fill:grey; " points="535,65 550,65 555,60 550,55 535,55 535,65 "  />
</g>
<g id="a22_0019"  >
<polygon style="stroke:black; stroke-width:1; fill:grey; " points="535,65 550,65 555,60 550,55 535,55 535,65 "  />
</g>
<g id="a22_0020"  >
<polygon style="stroke:black; stroke-width:1; fill:grey; " points="560,60 565,55 580,55 580,65 565,65 560,60 "  />
</g>
<g id="a22_0021"  >
<polygon style="stroke:black; stroke-width:1; fill:grey; " points="560,60 565,55 580,55 580,65 565,65 560,60 "  />
</g>
<g id="a22_0022"  >
<polygon style="stroke:black; stroke-width:1; fill:grey; " points="560,60 565,55 580,55 580,65 565,65 560,60 "  />
</g>
<g id="a22_0023"  >
<polygon style="stroke:black; stroke-width:1; fill:grey; " points="560,60 565,55 580,55 580,65 565,65 560,60 "  />
</g>
<g id="a22_0024"  >
<polygon style="stroke:black; stroke-width:1; fill:#810E15; " points="627,60 632,55 666,55 666,65 632,65 627,60 "  />
</g>
<g id="a22_0025"  >
<polygon style="stroke:black; stroke-width:1; fill:#810E15; " points="686,65 727,65 732,60 727,55 686,55 686,65 "  />
</g>
<g id="a22_0026"  >
<polygon style="stroke:black; stroke-width:1; fill:grey; " points="734,60 739,55 765,55 765,65 739,65 734,60 "  />
</g>
<g id="a22_0027"  >
<polygon style="stroke:black; stroke-width:1; fill:grey; " points="771,60 776,55 778,55 778,65 776,65 771,60 "  />
</g>
</svg>
