<svg xmlns="http://www.w3.org/2000/svg" height="0" width="768.0" version="1.1" y="0" x="0" preserveAspectRatio="none" xmlns:xlink="http://www.w3.org/1999/xlink" viewBox="0 -30 819.2 0"  >
<g  >
<line y1="60" x2="778.0" style="stroke:grey; stroke-width:2; " x1="10" y2="60"  />
</g>
<g id="a56_000"  >
<polygon style="stroke:black; stroke-width:1; fill:#810E15; " points="10,60 15,55 83,55 83,65 15,65 10,60 "  />
</g>
<g id="a56_001"  >
<polygon style="stroke:black; stroke-width:1; fill:#810E15; " points="124,60 129,55 193,55 193,65 129,65 124,60 "  />
</g>
<g id="a56_002"  >
<polygon style="stroke:black; stroke-width:1; fill:grey; " points="204,65 334,65 339,60 334,55 204,55 204,65 "  />
</g>
<g id="a56_003"  >
<polygon style="stroke:black; stroke-width:1; fill:#810E15; " points="425,60 430,55 502,55 502,65 430,65 425,60 "  />
</g>
<g id="a56_004"  >
<polygon style="stroke:black; stroke-width:1; fill:grey; " points="586,65 773,65 778,60 773,55 586,55 586,65 "  />
</g>
</svg>
