<svg xmlns="http://www.w3.org/2000/svg" height="0" width="768.0" version="1.1" y="0" x="0" preserveAspectRatio="none" xmlns:xlink="http://www.w3.org/1999/xlink" viewBox="0 -30 819.2 0"  >
<g  >
<line y1="60" x2="778.0" style="stroke:grey; stroke-width:2; " x1="10" y2="60"  />
</g>
<g id="a1_000"  >
<polygon style="stroke:black; stroke-width:1; fill:grey; " points="10,60 15,55 18,55 18,65 15,65 10,60 "  />
</g>
<g id="a1_001"  >
<polygon style="stroke:black; stroke-width:1; fill:grey; " points="108,60 113,55 126,55 126,65 113,65 108,60 "  />
</g>
<g id="a1_002"  >
<polygon style="stroke:black; stroke-width:1; fill:#810E15; " points="133,60 136,55 136,65 133,60 "  />
</g>
<g id="a1_003"  >
<polygon style="stroke:black; stroke-width:1; fill:#810E15; " points="278,65 287,65 292,60 287,55 278,55 278,65 "  />
</g>
<g id="a1_004"  >
<polygon style="stroke:black; stroke-width:1; fill:#810E15; " points="502,65 508,65 513,60 508,55 502,55 502,65 "  />
</g>
<g id="a1_005"  >
<polygon style="stroke:black; stroke-width:1; fill:#810E15; " points="771,60 776,55 778,55 778,65 776,65 771,60 "  />
</g>
</svg>
