<svg xmlns="http://www.w3.org/2000/svg" height="0" width="768.0" version="1.1" y="0" x="0" preserveAspectRatio="none" xmlns:xlink="http://www.w3.org/1999/xlink" viewBox="0 -30 819.2 0"  >
<g  >
<line y1="60" x2="778.0" style="stroke:grey; stroke-width:2; " x1="10" y2="60"  />
</g>
<g id="a37_000"  >
<polygon style="stroke:black; stroke-width:1; fill:#810E15; " points="10,65 34,65 39,60 34,55 10,55 10,65 "  />
</g>
<g id="a37_001"  >
<polygon style="stroke:black; stroke-width:1; fill:grey; " points="58,65 59,65 64,60 59,55 58,55 58,65 "  />
</g>
<g id="a37_002"  >
<polygon style="stroke:black; stroke-width:1; fill:grey; " points="76,60 81,55 89,55 89,65 81,65 76,60 "  />
</g>
<g id="a37_003"  >
<polygon style="stroke:black; stroke-width:1; fill:grey; " points="76,60 81,55 89,55 89,65 81,65 76,60 "  />
</g>
<g id="a37_004"  >
<polygon style="stroke:black; stroke-width:1; fill:grey; " points="115,60 120,55 141,55 141,65 120,65 115,60 "  />
</g>
<g id="a37_005"  >
<polygon style="stroke:black; stroke-width:1; fill:#810E15; " points="230,65 239,65 244,60 239,55 230,55 230,65 "  />
</g>
<g id="a37_006"  >
<polygon style="stroke:black; stroke-width:1; fill:#810E15; " points="280,65 306,65 311,60 306,55 280,55 280,65 "  />
</g>
<g id="a37_007"  >
<polygon style="stroke:black; stroke-width:1; fill:#810E15; " points="419,65 464,65 469,60 464,55 419,55 419,65 "  />
</g>
<g id="a37_008"  >
<polygon style="stroke:black; stroke-width:1; fill:#810E15; " points="489,65 519,65 524,60 519,55 489,55 489,65 "  />
</g>
<g id="a37_009"  >
<polygon style="stroke:black; stroke-width:1; fill:#810E15; " points="620,65 651,65 656,60 651,55 620,55 620,65 "  />
</g>
<g id="a37_0010"  >
<polygon style="stroke:black; stroke-width:1; fill:#810E15; " points="678,60 683,55 711,55 711,65 683,65 678,60 "  />
</g>
<g id="a37_0011"  >
<polygon style="stroke:black; stroke-width:1; fill:grey; " points="740,65 749,65 754,60 749,55 740,55 740,65 "  />
</g>
<g id="a37_0012"  >
<polygon style="stroke:black; stroke-width:1; fill:grey; " points="764,60 769,55 778,55 778,65 769,65 764,60 "  />
</g>
</svg>
