<svg xmlns="http://www.w3.org/2000/svg" height="0" width="768.0" version="1.1" y="0" x="0" preserveAspectRatio="none" xmlns:xlink="http://www.w3.org/1999/xlink" viewBox="0 -30 819.2 0"  >
<g  >
<line y1="60" x2="778.0" style="stroke:grey; stroke-width:2; " x1="10" y2="60"  />
</g>
<g id="a8_000"  >
<polygon style="stroke:black; stroke-width:1; fill:grey; " points="10,60 15,55 27,55 27,65 15,65 10,60 "  />
</g>
<g id="a8_001"  >
<polygon style="stroke:black; stroke-width:1; fill:grey; " points="10,60 15,55 27,55 27,65 15,65 10,60 "  />
</g>
<g id="a8_002"  >
<polygon style="stroke:black; stroke-width:1; fill:grey; " points="33,60 36,55 36,65 33,60 "  />
</g>
<g id="a8_003"  >
<polygon style="stroke:black; stroke-width:1; fill:grey; " points="69,65 77,65 82,60 77,55 69,55 69,65 "  />
</g>
<g id="a8_004"  >
<polygon style="stroke:black; stroke-width:1; fill:#810E15; " points="98,60 103,55 127,55 127,65 103,65 98,60 "  />
</g>
<g id="a8_005"  >
<polygon style="stroke:black; stroke-width:1; fill:grey; " points="131,65 134,60 131,55 131,65 "  />
</g>
<g id="a8_006"  >
<polygon style="stroke:black; stroke-width:1; fill:#810E15; " points="241,65 245,65 250,60 245,55 241,55 241,65 "  />
</g>
<g id="a8_007"  >
<polygon style="stroke:black; stroke-width:1; fill:grey; " points="259,60 264,55 276,55 276,65 264,65 259,60 "  />
</g>
<g id="a8_008"  >
<polygon style="stroke:black; stroke-width:1; fill:grey; " points="281,60 286,55 306,55 306,65 286,65 281,60 "  />
</g>
<g id="a8_009"  >
<polygon style="stroke:black; stroke-width:1; fill:grey; " points="363,60 368,55 395,55 395,65 368,65 363,60 "  />
</g>
<g id="a8_0010"  >
<polygon style="stroke:black; stroke-width:1; fill:#810E15; " points="434,65 475,65 480,60 475,55 434,55 434,65 "  />
</g>
<g id="a8_0011"  >
<polygon style="stroke:black; stroke-width:1; fill:#810E15; " points="527,65 559,65 564,60 559,55 527,55 527,65 "  />
</g>
<g id="a8_0012"  >
<polygon style="stroke:black; stroke-width:1; fill:#810E15; " points="679,65 711,65 716,60 711,55 679,55 679,65 "  />
</g>
<g id="a8_0013"  >
<polygon style="stroke:black; stroke-width:1; fill:grey; " points="737,65 773,65 778,60 773,55 737,55 737,65 "  />
</g>
<g id="a8_0014"  >
<polygon style="stroke:black; stroke-width:1; fill:#810E15; " points="737,65 773,65 778,60 773,55 737,55 737,65 "  />
</g>
</svg>
