<svg xmlns="http://www.w3.org/2000/svg" height="0" width="768.0" version="1.1" y="0" x="0" preserveAspectRatio="none" xmlns:xlink="http://www.w3.org/1999/xlink" viewBox="0 -30 819.2 0"  >
<g  >
<line y1="60" x2="778.0" style="stroke:grey; stroke-width:2; " x1="10" y2="60"  />
</g>
<g id="a28_000"  >
<polygon style="stroke:black; stroke-width:1; fill:grey; " points="10,60 11,55 11,65 10,60 "  />
</g>
<g id="a28_001"  >
<polygon style="stroke:black; stroke-width:1; fill:grey; " points="16,60 21,55 21,55 21,65 21,65 16,60 "  />
</g>
<g id="a28_002"  >
<polygon style="stroke:black; stroke-width:1; fill:grey; " points="31,65 35,60 31,55 31,65 "  />
</g>
<g id="a28_003"  >
<polygon style="stroke:black; stroke-width:1; fill:grey; " points="38,65 42,60 38,55 38,65 "  />
</g>
<g id="a28_004"  >
<polygon style="stroke:black; stroke-width:1; fill:grey; " points="44,65 47,60 44,55 44,65 "  />
</g>
<g id="a28_005"  >
<polygon style="stroke:black; stroke-width:1; fill:grey; " points="48,60 51,55 51,65 48,60 "  />
</g>
<g id="a28_006"  >
<polygon style="stroke:black; stroke-width:1; fill:grey; " points="48,60 51,55 51,65 48,60 "  />
</g>
<g id="a28_007"  >
<polygon style="stroke:black; stroke-width:1; fill:grey; " points="48,60 51,55 51,65 48,60 "  />
</g>
<g id="a28_008"  >
<polygon style="stroke:black; stroke-width:1; fill:grey; " points="48,60 51,55 51,65 48,60 "  />
</g>
<g id="a28_009"  >
<polygon style="stroke:black; stroke-width:1; fill:grey; " points="54,60 56,55 56,65 54,60 "  />
</g>
<g id="a28_0010"  >
<polygon style="stroke:black; stroke-width:1; fill:grey; " points="68,65 70,60 68,55 68,65 "  />
</g>
<g id="a28_0011"  >
<polygon style="stroke:black; stroke-width:1; fill:grey; " points="70,60 72,55 72,65 70,60 "  />
</g>
<g id="a28_0012"  >
<polygon style="stroke:black; stroke-width:1; fill:grey; " points="71,60 72,55 72,65 71,60 "  />
</g>
<g id="a28_0013"  >
<polygon style="stroke:black; stroke-width:1; fill:grey; " points="78,60 81,55 81,65 78,60 "  />
</g>
<g id="a28_0014"  >
<polygon style="stroke:black; stroke-width:1; fill:grey; " points="82,65 84,60 82,55 82,65 "  />
</g>
<g id="a28_0015"  >
<polygon style="stroke:black; stroke-width:1; fill:grey; " points="82,65 84,60 82,55 82,65 "  />
</g>
<g id="a28_0016"  >
<polygon style="stroke:black; stroke-width:1; fill:grey; " points="82,65 84,60 82,55 82,65 "  />
</g>
<g id="a28_0017"  >
<polygon style="stroke:black; stroke-width:1; fill:grey; " points="85,60 90,55 92,55 92,65 90,65 85,60 "  />
</g>
<g id="a28_0018"  >
<polygon style="stroke:black; stroke-width:1; fill:grey; " points="97,60 100,55 100,65 97,60 "  />
</g>
<g id="a28_0019"  >
<polygon style="stroke:black; stroke-width:1; fill:grey; " points="107,60 109,55 109,65 107,60 "  />
</g>
<g id="a28_0020"  >
<polygon style="stroke:black; stroke-width:1; fill:grey; " points="110,65 113,60 110,55 110,65 "  />
</g>
<g id="a28_0021"  >
<polygon style="stroke:black; stroke-width:1; fill:grey; " points="110,65 113,60 110,55 110,65 "  />
</g>
<g id="a28_0022"  >
<polygon style="stroke:black; stroke-width:1; fill:grey; " points="118,65 120,60 118,55 118,65 "  />
</g>
<g id="a28_0023"  >
<polygon style="stroke:black; stroke-width:1; fill:grey; " points="118,65 120,60 118,55 118,65 "  />
</g>
<g id="a28_0024"  >
<polygon style="stroke:black; stroke-width:1; fill:grey; " points="121,60 125,55 125,65 121,60 "  />
</g>
<g id="a28_0025"  >
<polygon style="stroke:black; stroke-width:1; fill:grey; " points="147,60 148,55 148,65 147,60 "  />
</g>
<g id="a28_0026"  >
<polygon style="stroke:black; stroke-width:1; fill:grey; " points="148,65 149,60 148,55 148,65 "  />
</g>
<g id="a28_0027"  >
<polygon style="stroke:black; stroke-width:1; fill:grey; " points="152,60 155,55 155,65 152,60 "  />
</g>
<g id="a28_0028"  >
<polygon style="stroke:black; stroke-width:1; fill:grey; " points="157,60 161,55 161,65 157,60 "  />
</g>
<g id="a28_0029"  >
<polygon style="stroke:black; stroke-width:1; fill:grey; " points="163,60 165,55 165,65 163,60 "  />
</g>
<g id="a28_0030"  >
<polygon style="stroke:black; stroke-width:1; fill:grey; " points="165,60 170,55 170,55 170,65 170,65 165,60 "  />
</g>
<g id="a28_0031"  >
<polygon style="stroke:black; stroke-width:1; fill:grey; " points="221,65 224,60 221,55 221,65 "  />
</g>
<g id="a28_0032"  >
<polygon style="stroke:black; stroke-width:1; fill:grey; " points="221,65 224,60 221,55 221,65 "  />
</g>
<g id="a28_0033"  >
<polygon style="stroke:black; stroke-width:1; fill:grey; " points="230,65 231,65 236,60 231,55 230,55 230,65 "  />
</g>
<g id="a28_0034"  >
<polygon style="stroke:black; stroke-width:1; fill:grey; " points="276,65 277,60 276,55 276,65 "  />
</g>
<g id="a28_0035"  >
<polygon style="stroke:black; stroke-width:1; fill:grey; " points="277,65 279,60 277,55 277,65 "  />
</g>
<g id="a28_0036"  >
<polygon style="stroke:black; stroke-width:1; fill:grey; " points="300,65 302,60 300,55 300,65 "  />
</g>
<g id="a28_0037"  >
<polygon style="stroke:black; stroke-width:1; fill:grey; " points="300,65 302,60 300,55 300,65 "  />
</g>
<g id="a28_0038"  >
<polygon style="stroke:black; stroke-width:1; fill:grey; " points="308,65 314,65 319,60 314,55 308,55 308,65 "  />
</g>
<g id="a28_0039"  >
<polygon style="stroke:black; stroke-width:1; fill:grey; " points="349,65 349,60 349,55 349,65 "  />
</g>
<g id="a28_0040"  >
<polygon style="stroke:black; stroke-width:1; fill:grey; " points="355,65 356,60 355,55 355,65 "  />
</g>
<g id="a28_0041"  >
<polygon style="stroke:black; stroke-width:1; fill:#810E15; " points="381,60 382,55 382,65 381,60 "  />
</g>
<g id="a28_0042"  >
<polygon style="stroke:black; stroke-width:1; fill:grey; " points="384,65 385,60 384,55 384,65 "  />
</g>
<g id="a28_0043"  >
<polygon style="stroke:black; stroke-width:1; fill:grey; " points="391,65 392,60 391,55 391,65 "  />
</g>
<g id="a28_0044"  >
<polygon style="stroke:black; stroke-width:1; fill:grey; " points="454,65 458,60 454,55 454,65 "  />
</g>
<g id="a28_0045"  >
<polygon style="stroke:black; stroke-width:1; fill:grey; " points="546,65 547,60 546,55 546,65 "  />
</g>
<g id="a28_0046"  >
<polygon style="stroke:black; stroke-width:1; fill:#810E15; " points="582,60 583,55 583,65 582,60 "  />
</g>
<g id="a28_0047"  >
<polygon style="stroke:black; stroke-width:1; fill:grey; " points="588,65 588,60 588,55 588,65 "  />
</g>
<g id="a28_0048"  >
<polygon style="stroke:black; stroke-width:1; fill:grey; " points="628,65 629,60 628,55 628,65 "  />
</g>
<g id="a28_0049"  >
<polygon style="stroke:black; stroke-width:1; fill:grey; " points="630,65 631,60 630,55 630,65 "  />
</g>
<g id="a28_0050"  >
<polygon style="stroke:black; stroke-width:1; fill:grey; " points="639,65 641,60 639,55 639,65 "  />
</g>
<g id="a28_0051"  >
<polygon style="stroke:black; stroke-width:1; fill:grey; " points="658,65 661,60 658,55 658,65 "  />
</g>
<g id="a28_0052"  >
<polygon style="stroke:black; stroke-width:1; fill:grey; " points="691,65 694,60 691,55 691,65 "  />
</g>
<g id="a28_0053"  >
<polygon style="stroke:black; stroke-width:1; fill:grey; " points="696,60 698,55 698,65 696,60 "  />
</g>
<g id="a28_0054"  >
<polygon style="stroke:black; stroke-width:1; fill:grey; " points="700,60 700,55 700,65 700,60 "  />
</g>
<g id="a28_0055"  >
<polygon style="stroke:black; stroke-width:1; fill:grey; " points="714,60 717,55 717,65 714,60 "  />
</g>
<g id="a28_0056"  >
<polygon style="stroke:black; stroke-width:1; fill:grey; " points="720,65 722,60 720,55 720,65 "  />
</g>
<g id="a28_0057"  >
<polygon style="stroke:black; stroke-width:1; fill:grey; " points="723,65 727,60 723,55 723,65 "  />
</g>
<g id="a28_0058"  >
<polygon style="stroke:black; stroke-width:1; fill:grey; " points="728,60 731,55 731,65 728,60 "  />
</g>
<g id="a28_0059"  >
<polygon style="stroke:black; stroke-width:1; fill:grey; " points="741,65 741,65 746,60 741,55 741,55 741,65 "  />
</g>
<g id="a28_0060"  >
<polygon style="stroke:black; stroke-width:1; fill:grey; " points="751,60 753,55 753,65 751,60 "  />
</g>
<g id="a28_0061"  >
<polygon style="stroke:black; stroke-width:1; fill:grey; " points="760,60 765,55 765,55 765,65 765,65 760,60 "  />
</g>
<g id="a28_0062"  >
<polygon style="stroke:black; stroke-width:1; fill:grey; " points="769,60 771,55 771,65 769,60 "  />
</g>
<g id="a28_0063"  >
<polygon style="stroke:black; stroke-width:1; fill:grey; " points="771,60 776,55 778,55 778,65 776,65 771,60 "  />
</g>
</svg>
