<svg xmlns="http://www.w3.org/2000/svg" height="0" width="768.0" version="1.1" y="0" x="0" preserveAspectRatio="none" xmlns:xlink="http://www.w3.org/1999/xlink" viewBox="0 -30 819.2 0"  >
<g  >
<line y1="60" x2="778.0" style="stroke:grey; stroke-width:2; " x1="10" y2="60"  />
</g>
<g id="a48_000"  >
<polygon style="stroke:black; stroke-width:1; fill:#810E15; " points="10,65 29,65 34,60 29,55 10,55 10,65 "  />
</g>
<g id="a48_001"  >
<polygon style="stroke:black; stroke-width:1; fill:#810E15; " points="241,65 250,65 255,60 250,55 241,55 241,65 "  />
</g>
<g id="a48_002"  >
<polygon style="stroke:black; stroke-width:1; fill:#810E15; " points="420,60 425,55 502,55 502,65 425,65 420,60 "  />
</g>
<g id="a48_003"  >
<polygon style="stroke:black; stroke-width:1; fill:grey; " points="524,60 529,55 599,55 599,65 529,65 524,60 "  />
</g>
<g id="a48_004"  >
<polygon style="stroke:black; stroke-width:1; fill:grey; " points="688,65 732,65 737,60 732,55 688,55 688,65 "  />
</g>
<g id="a48_005"  >
<polygon style="stroke:black; stroke-width:1; fill:#810E15; " points="752,60 757,55 778,55 778,65 757,65 752,60 "  />
</g>
</svg>
