<svg xmlns="http://www.w3.org/2000/svg" height="0" width="768.0" version="1.1" y="0" x="0" preserveAspectRatio="none" xmlns:xlink="http://www.w3.org/1999/xlink" viewBox="0 -30 819.2 0"  >
<g  >
<line y1="60" x2="778.0" style="stroke:grey; stroke-width:2; " x1="10" y2="60"  />
</g>
<g id="a21_000"  >
<polygon style="stroke:black; stroke-width:1; fill:grey; " points="10,60 15,55 70,55 70,65 15,65 10,60 "  />
</g>
<g id="a21_001"  >
<polygon style="stroke:black; stroke-width:1; fill:grey; " points="10,60 15,55 70,55 70,65 15,65 10,60 "  />
</g>
<g id="a21_002"  >
<polygon style="stroke:black; stroke-width:1; fill:grey; " points="81,60 86,55 86,55 86,65 86,65 81,60 "  />
</g>
<g id="a21_003"  >
<polygon style="stroke:black; stroke-width:1; fill:#810E15; " points="94,65 113,65 118,60 113,55 94,55 94,65 "  />
</g>
<g id="a21_004"  >
<polygon style="stroke:black; stroke-width:1; fill:grey; " points="136,65 152,65 157,60 152,55 136,55 136,65 "  />
</g>
<g id="a21_005"  >
<polygon style="stroke:black; stroke-width:1; fill:grey; " points="163,60 168,55 169,55 169,65 168,65 163,60 "  />
</g>
<g id="a21_006"  >
<polygon style="stroke:black; stroke-width:1; fill:#810E15; " points="205,65 226,65 231,60 226,55 205,55 205,65 "  />
</g>
<g id="a21_007"  >
<polygon style="stroke:black; stroke-width:1; fill:#810E15; " points="385,60 390,55 399,55 399,65 390,65 385,60 "  />
</g>
<g id="a21_008"  >
<polygon style="stroke:black; stroke-width:1; fill:#810E15; " points="485,60 490,55 495,55 495,65 490,65 485,60 "  />
</g>
<g id="a21_009"  >
<polygon style="stroke:black; stroke-width:1; fill:#810E15; " points="522,60 527,55 530,55 530,65 527,65 522,60 "  />
</g>
<g id="a21_0010"  >
<polygon style="stroke:black; stroke-width:1; fill:#810E15; " points="661,60 666,55 672,55 672,65 666,65 661,60 "  />
</g>
<g id="a21_0011"  >
<polygon style="stroke:black; stroke-width:1; fill:grey; " points="768,60 773,55 778,55 778,65 773,65 768,60 "  />
</g>
</svg>
