<svg xmlns="http://www.w3.org/2000/svg" height="0" width="768.0" version="1.1" y="0" x="0" preserveAspectRatio="none" xmlns:xlink="http://www.w3.org/1999/xlink" viewBox="0 -30 819.2 0"  >
<g  >
<line y1="60" x2="778.0" style="stroke:grey; stroke-width:2; " x1="10" y2="60"  />
</g>
<g id="a30_000"  >
<polygon style="stroke:black; stroke-width:1; fill:grey; " points="10,65 32,65 37,60 32,55 10,55 10,65 "  />
</g>
<g id="a30_001"  >
<polygon style="stroke:black; stroke-width:1; fill:grey; " points="40,65 43,65 48,60 43,55 40,55 40,65 "  />
</g>
<g id="a30_002"  >
<polygon style="stroke:black; stroke-width:1; fill:grey; " points="73,60 75,55 75,65 73,60 "  />
</g>
<g id="a30_003"  >
<polygon style="stroke:black; stroke-width:1; fill:grey; " points="149,65 153,65 158,60 153,55 149,55 149,65 "  />
</g>
<g id="a30_004"  >
<polygon style="stroke:black; stroke-width:1; fill:grey; " points="162,65 164,60 162,55 162,65 "  />
</g>
<g id="a30_005"  >
<polygon style="stroke:black; stroke-width:1; fill:grey; " points="162,65 164,60 162,55 162,65 "  />
</g>
<g id="a30_006"  >
<polygon style="stroke:black; stroke-width:1; fill:grey; " points="162,65 164,60 162,55 162,65 "  />
</g>
<g id="a30_007"  >
<polygon style="stroke:black; stroke-width:1; fill:grey; " points="300,65 307,65 312,60 307,55 300,55 300,65 "  />
</g>
<g id="a30_008"  >
<polygon style="stroke:black; stroke-width:1; fill:grey; " points="300,65 307,65 312,60 307,55 300,55 300,65 "  />
</g>
<g id="a30_009"  >
<polygon style="stroke:black; stroke-width:1; fill:grey; " points="319,65 322,60 319,55 319,65 "  />
</g>
<g id="a30_0010"  >
<polygon style="stroke:black; stroke-width:1; fill:grey; " points="330,65 340,65 345,60 340,55 330,55 330,65 "  />
</g>
<g id="a30_0011"  >
<polygon style="stroke:black; stroke-width:1; fill:grey; " points="336,65 338,60 336,55 336,65 "  />
</g>
<g id="a30_0012"  >
<polygon style="stroke:black; stroke-width:1; fill:grey; " points="362,65 365,60 362,55 362,65 "  />
</g>
<g id="a30_0013"  >
<polygon style="stroke:black; stroke-width:1; fill:#810E15; " points="395,60 397,55 397,65 395,60 "  />
</g>
<g id="a30_0014"  >
<polygon style="stroke:black; stroke-width:1; fill:grey; " points="403,65 405,60 403,55 403,65 "  />
</g>
<g id="a30_0015"  >
<polygon style="stroke:black; stroke-width:1; fill:grey; " points="414,65 420,65 425,60 420,55 414,55 414,65 "  />
</g>
<g id="a30_0016"  >
<polygon style="stroke:black; stroke-width:1; fill:grey; " points="428,60 433,55 438,55 438,65 433,65 428,60 "  />
</g>
<g id="a30_0017"  >
<polygon style="stroke:black; stroke-width:1; fill:grey; " points="457,60 461,55 461,65 457,60 "  />
</g>
<g id="a30_0018"  >
<polygon style="stroke:black; stroke-width:1; fill:grey; " points="470,60 475,55 478,55 478,65 475,65 470,60 "  />
</g>
<g id="a30_0019"  >
<polygon style="stroke:black; stroke-width:1; fill:grey; " points="489,60 494,55 495,55 495,65 494,65 489,60 "  />
</g>
<g id="a30_0020"  >
<polygon style="stroke:black; stroke-width:1; fill:grey; " points="489,60 494,55 495,55 495,65 494,65 489,60 "  />
</g>
<g id="a30_0021"  >
<polygon style="stroke:black; stroke-width:1; fill:grey; " points="517,65 520,65 525,60 520,55 517,55 517,65 "  />
</g>
<g id="a30_0022"  >
<polygon style="stroke:black; stroke-width:1; fill:grey; " points="517,65 520,65 525,60 520,55 517,55 517,65 "  />
</g>
<g id="a30_0023"  >
<polygon style="stroke:black; stroke-width:1; fill:grey; " points="517,65 520,65 525,60 520,55 517,55 517,65 "  />
</g>
<g id="a30_0024"  >
<polygon style="stroke:black; stroke-width:1; fill:grey; " points="517,65 520,65 525,60 520,55 517,55 517,65 "  />
</g>
<g id="a30_0025"  >
<polygon style="stroke:black; stroke-width:1; fill:grey; " points="533,65 536,60 533,55 533,65 "  />
</g>
<g id="a30_0026"  >
<polygon style="stroke:black; stroke-width:1; fill:grey; " points="540,65 542,65 547,60 542,55 540,55 540,65 "  />
</g>
<g id="a30_0027"  >
<polygon style="stroke:black; stroke-width:1; fill:grey; " points="551,60 556,55 562,55 562,65 556,65 551,60 "  />
</g>
<g id="a30_0028"  >
<polygon style="stroke:black; stroke-width:1; fill:grey; " points="551,60 556,55 556,55 556,65 556,65 551,60 "  />
</g>
<g id="a30_0029"  >
<polygon style="stroke:black; stroke-width:1; fill:grey; " points="551,60 556,55 562,55 562,65 556,65 551,60 "  />
</g>
<g id="a30_0030"  >
<polygon style="stroke:black; stroke-width:1; fill:grey; " points="576,60 581,55 586,55 586,65 581,65 576,60 "  />
</g>
<g id="a30_0031"  >
<polygon style="stroke:black; stroke-width:1; fill:grey; " points="630,60 635,55 636,55 636,65 635,65 630,60 "  />
</g>
<g id="a30_0032"  >
<polygon style="stroke:black; stroke-width:1; fill:grey; " points="688,65 693,65 698,60 693,55 688,55 688,65 "  />
</g>
<g id="a30_0033"  >
<polygon style="stroke:black; stroke-width:1; fill:grey; " points="735,60 740,55 778,55 778,65 740,65 735,60 "  />
</g>
</svg>
