<svg xmlns="http://www.w3.org/2000/svg" height="0" width="768.0" version="1.1" y="0" x="0" preserveAspectRatio="none" xmlns:xlink="http://www.w3.org/1999/xlink" viewBox="0 -30 819.2 0"  >
<g  >
<line y1="60" x2="778.0" style="stroke:grey; stroke-width:2; " x1="10" y2="60"  />
</g>
<g id="a24_000"  >
<polygon style="stroke:black; stroke-width:1; fill:#810E15; " points="10,65 12,65 17,60 12,55 10,55 10,65 "  />
</g>
<g id="a24_001"  >
<polygon style="stroke:black; stroke-width:1; fill:grey; " points="44,60 49,55 55,55 55,65 49,65 44,60 "  />
</g>
<g id="a24_002"  >
<polygon style="stroke:black; stroke-width:1; fill:grey; " points="44,60 49,55 55,55 55,65 49,65 44,60 "  />
</g>
<g id="a24_003"  >
<polygon style="stroke:black; stroke-width:1; fill:grey; " points="44,60 49,55 55,55 55,65 49,65 44,60 "  />
</g>
<g id="a24_004"  >
<polygon style="stroke:black; stroke-width:1; fill:grey; " points="59,65 64,65 69,60 64,55 59,55 59,65 "  />
</g>
<g id="a24_005"  >
<polygon style="stroke:black; stroke-width:1; fill:grey; " points="72,60 77,55 82,55 82,65 77,65 72,60 "  />
</g>
<g id="a24_006"  >
<polygon style="stroke:black; stroke-width:1; fill:grey; " points="137,60 142,55 143,55 143,65 142,65 137,60 "  />
</g>
<g id="a24_007"  >
<polygon style="stroke:black; stroke-width:1; fill:#810E15; " points="149,60 154,55 176,55 176,65 154,65 149,60 "  />
</g>
<g id="a24_008"  >
<polygon style="stroke:black; stroke-width:1; fill:grey; " points="265,65 284,65 289,60 284,55 265,55 265,65 "  />
</g>
<g id="a24_009"  >
<polygon style="stroke:black; stroke-width:1; fill:grey; " points="298,65 298,65 303,60 298,55 298,55 298,65 "  />
</g>
<g id="a24_0010"  >
<polygon style="stroke:black; stroke-width:1; fill:#810E15; " points="339,65 343,60 339,55 339,65 "  />
</g>
<g id="a24_0011"  >
<polygon style="stroke:black; stroke-width:1; fill:#810E15; " points="437,60 442,55 559,55 559,65 442,65 437,60 "  />
</g>
<g id="a24_0012"  >
<polygon style="stroke:black; stroke-width:1; fill:#810E15; " points="683,60 688,55 693,55 693,65 688,65 683,60 "  />
</g>
<g id="a24_0013"  >
<polygon style="stroke:black; stroke-width:1; fill:#810E15; " points="744,60 749,55 753,55 753,65 749,65 744,60 "  />
</g>
<g id="a24_0014"  >
<polygon style="stroke:black; stroke-width:1; fill:grey; " points="773,60 778,55 778,55 778,65 778,65 773,60 "  />
</g>
</svg>
