<svg xmlns="http://www.w3.org/2000/svg" height="0" width="768.0" version="1.1" y="0" x="0" preserveAspectRatio="none" xmlns:xlink="http://www.w3.org/1999/xlink" viewBox="0 -30 819.2 0"  >
<g  >
<line y1="60" x2="778.0" style="stroke:grey; stroke-width:2; " x1="10" y2="60"  />
</g>
<g id="a2_000"  >
<polygon style="stroke:black; stroke-width:1; fill:grey; " points="10,65 79,65 84,60 79,55 10,55 10,65 "  />
</g>
<g id="a2_001"  >
<polygon style="stroke:black; stroke-width:1; fill:#810E15; " points="89,60 94,55 160,55 160,65 94,65 89,60 "  />
</g>
<g id="a2_002"  >
<polygon style="stroke:black; stroke-width:1; fill:#810E15; " points="89,60 94,55 160,55 160,65 94,65 89,60 "  />
</g>
<g id="a2_003"  >
<polygon style="stroke:black; stroke-width:1; fill:grey; " points="185,65 207,65 212,60 207,55 185,55 185,65 "  />
</g>
<g id="a2_004"  >
<polygon style="stroke:black; stroke-width:1; fill:grey; " points="185,65 207,65 212,60 207,55 185,55 185,65 "  />
</g>
<g id="a2_005"  >
<polygon style="stroke:black; stroke-width:1; fill:#810E15; " points="232,65 311,65 316,60 311,55 232,55 232,65 "  />
</g>
<g id="a2_006"  >
<polygon style="stroke:black; stroke-width:1; fill:grey; " points="329,60 334,55 379,55 379,65 334,65 329,60 "  />
</g>
<g id="a2_007"  >
<polygon style="stroke:black; stroke-width:1; fill:grey; " points="426,60 431,55 453,55 453,65 431,65 426,60 "  />
</g>
<g id="a2_008"  >
<polygon style="stroke:black; stroke-width:1; fill:grey; " points="482,65 520,65 525,60 520,55 482,55 482,65 "  />
</g>
<g id="a2_009"  >
<polygon style="stroke:black; stroke-width:1; fill:#810E15; " points="557,65 635,65 640,60 635,55 557,55 557,65 "  />
</g>
<g id="a2_0010"  >
<polygon style="stroke:black; stroke-width:1; fill:grey; " points="680,65 773,65 778,60 773,55 680,55 680,65 "  />
</g>
</svg>
