<svg xmlns="http://www.w3.org/2000/svg" height="0" width="768.0" version="1.1" y="0" x="0" preserveAspectRatio="none" xmlns:xlink="http://www.w3.org/1999/xlink" viewBox="0 -30 819.2 0"  >
<g  >
<line y1="60" x2="778.0" style="stroke:grey; stroke-width:2; " x1="10" y2="60"  />
</g>
<g id="a49_000"  >
<polygon style="stroke:black; stroke-width:1; fill:grey; " points="10,65 18,65 23,60 18,55 10,55 10,65 "  />
</g>
<g id="a49_001"  >
<polygon style="stroke:black; stroke-width:1; fill:grey; " points="10,65 18,65 23,60 18,55 10,55 10,65 "  />
</g>
<g id="a49_002"  >
<polygon style="stroke:black; stroke-width:1; fill:#810E15; " points="37,65 42,65 47,60 42,55 37,55 37,65 "  />
</g>
<g id="a49_003"  >
<polygon style="stroke:black; stroke-width:1; fill:#810E15; " points="93,60 98,55 99,55 99,65 98,65 93,60 "  />
</g>
<g id="a49_004"  >
<polygon style="stroke:black; stroke-width:1; fill:#810E15; " points="101,60 106,55 108,55 108,65 106,65 101,60 "  />
</g>
<g id="a49_005"  >
<polygon style="stroke:black; stroke-width:1; fill:#810E15; " points="392,65 393,65 398,60 393,55 392,55 392,65 "  />
</g>
<g id="a49_006"  >
<polygon style="stroke:black; stroke-width:1; fill:#810E15; " points="411,65 434,65 439,60 434,55 411,55 411,65 "  />
</g>
<g id="a49_007"  >
<polygon style="stroke:black; stroke-width:1; fill:#810E15; " points="616,65 620,65 625,60 620,55 616,55 616,65 "  />
</g>
<g id="a49_008"  >
<polygon style="stroke:black; stroke-width:1; fill:#810E15; " points="703,65 706,65 711,60 706,55 703,55 703,65 "  />
</g>
<g id="a49_009"  >
<polygon style="stroke:black; stroke-width:1; fill:grey; " points="772,60 777,55 778,55 778,65 777,65 772,60 "  />
</g>
</svg>
