<svg xmlns="http://www.w3.org/2000/svg" height="0" width="768.0" version="1.1" y="0" x="0" preserveAspectRatio="none" xmlns:xlink="http://www.w3.org/1999/xlink" viewBox="0 -30 819.2 0"  >
<g  >
<line y1="60" x2="778.0" style="stroke:grey; stroke-width:2; " x1="10" y2="60"  />
</g>
<g id="a54_000"  >
<polygon style="stroke:black; stroke-width:1; fill:grey; " points="10,60 15,55 47,55 47,65 15,65 10,60 "  />
</g>
<g id="a54_001"  >
<polygon style="stroke:black; stroke-width:1; fill:#810E15; " points="115,60 120,55 147,55 147,65 120,65 115,60 "  />
</g>
<g id="a54_002"  >
<polygon style="stroke:black; stroke-width:1; fill:#810E15; " points="242,60 247,55 270,55 270,65 247,65 242,60 "  />
</g>
<g id="a54_003"  >
<polygon style="stroke:black; stroke-width:1; fill:grey; " points="453,65 471,65 476,60 471,55 453,55 453,65 "  />
</g>
<g id="a54_004"  >
<polygon style="stroke:black; stroke-width:1; fill:grey; " points="525,65 572,65 577,60 572,55 525,55 525,65 "  />
</g>
<g id="a54_005"  >
<polygon style="stroke:black; stroke-width:1; fill:grey; " points="525,65 572,65 577,60 572,55 525,55 525,65 "  />
</g>
<g id="a54_006"  >
<polygon style="stroke:black; stroke-width:1; fill:grey; " points="525,65 572,65 577,60 572,55 525,55 525,65 "  />
</g>
<g id="a54_007"  >
<polygon style="stroke:black; stroke-width:1; fill:grey; " points="525,65 572,65 577,60 572,55 525,55 525,65 "  />
</g>
<g id="a54_008"  >
<polygon style="stroke:black; stroke-width:1; fill:grey; " points="525,65 572,65 577,60 572,55 525,55 525,65 "  />
</g>
<g id="a54_009"  >
<polygon style="stroke:black; stroke-width:1; fill:grey; " points="525,65 572,65 577,60 572,55 525,55 525,65 "  />
</g>
<g id="a54_0010"  >
<polygon style="stroke:black; stroke-width:1; fill:grey; " points="600,60 605,55 656,55 656,65 605,65 600,60 "  />
</g>
<g id="a54_0011"  >
<polygon style="stroke:black; stroke-width:1; fill:#810E15; " points="600,60 605,55 656,55 656,65 605,65 600,60 "  />
</g>
<g id="a54_0012"  >
<polygon style="stroke:black; stroke-width:1; fill:grey; " points="670,65 701,65 706,60 701,55 670,55 670,65 "  />
</g>
<g id="a54_0013"  >
<polygon style="stroke:black; stroke-width:1; fill:grey; " points="721,60 726,55 778,55 778,65 726,65 721,60 "  />
</g>
</svg>
