<svg xmlns="http://www.w3.org/2000/svg" height="0" width="768.0" version="1.1" y="0" x="0" preserveAspectRatio="none" xmlns:xlink="http://www.w3.org/1999/xlink" viewBox="0 -30 819.2 0"  >
<g  >
<line y1="60" x2="778.0" style="stroke:grey; stroke-width:2; " x1="10" y2="60"  />
</g>
<g id="a14_000"  >
<polygon style="stroke:black; stroke-width:1; fill:#810E15; " points="10,65 21,65 26,60 21,55 10,55 10,65 "  />
</g>
<g id="a14_001"  >
<polygon style="stroke:black; stroke-width:1; fill:#810E15; " points="206,65 215,65 220,60 215,55 206,55 206,65 "  />
</g>
<g id="a14_002"  >
<polygon style="stroke:black; stroke-width:1; fill:#810E15; " points="541,65 550,65 555,60 550,55 541,55 541,65 "  />
</g>
<g id="a14_003"  >
<polygon style="stroke:black; stroke-width:1; fill:#810E15; " points="585,65 594,65 599,60 594,55 585,55 585,65 "  />
</g>
<g id="a14_004"  >
<polygon style="stroke:black; stroke-width:1; fill:grey; " points="601,65 633,65 638,60 633,55 601,55 601,65 "  />
</g>
<g id="a14_005"  >
<polygon style="stroke:black; stroke-width:1; fill:grey; " points="653,60 658,55 693,55 693,65 658,65 653,60 "  />
</g>
<g id="a14_006"  >
<polygon style="stroke:black; stroke-width:1; fill:#810E15; " points="705,65 708,65 713,60 708,55 705,55 705,65 "  />
</g>
<g id="a14_007"  >
<polygon style="stroke:black; stroke-width:1; fill:#810E15; " points="728,65 730,65 735,60 730,55 728,55 728,65 "  />
</g>
<g id="a14_008"  >
<polygon style="stroke:black; stroke-width:1; fill:grey; " points="743,60 748,55 751,55 751,65 748,65 743,60 "  />
</g>
<g id="a14_009"  >
<polygon style="stroke:black; stroke-width:1; fill:grey; " points="760,60 765,55 778,55 778,65 765,65 760,60 "  />
</g>
</svg>
