<svg xmlns="http://www.w3.org/2000/svg" height="0" width="768.0" version="1.1" y="0" x="0" preserveAspectRatio="none" xmlns:xlink="http://www.w3.org/1999/xlink" viewBox="0 -30 819.2 0"  >
<g  >
<line y1="60" x2="778.0" style="stroke:grey; stroke-width:2; " x1="10" y2="60"  />
</g>
<g id="a11_000"  >
<polygon style="stroke:black; stroke-width:1; fill:grey; " points="10,65 22,65 27,60 22,55 10,55 10,65 "  />
</g>
<g id="a11_001"  >
<polygon style="stroke:black; stroke-width:1; fill:grey; " points="39,60 44,55 50,55 50,65 44,65 39,60 "  />
</g>
<g id="a11_002"  >
<polygon style="stroke:black; stroke-width:1; fill:#810E15; " points="72,60 77,55 82,55 82,65 77,65 72,60 "  />
</g>
<g id="a11_003"  >
<polygon style="stroke:black; stroke-width:1; fill:grey; " points="95,60 100,55 114,55 114,65 100,65 95,60 "  />
</g>
<g id="a11_004"  >
<polygon style="stroke:black; stroke-width:1; fill:grey; " points="143,65 150,65 155,60 150,55 143,55 143,65 "  />
</g>
<g id="a11_005"  >
<polygon style="stroke:black; stroke-width:1; fill:grey; " points="158,60 163,55 175,55 175,65 163,65 158,60 "  />
</g>
<g id="a11_006"  >
<polygon style="stroke:black; stroke-width:1; fill:grey; " points="184,65 202,65 207,60 202,55 184,55 184,65 "  />
</g>
<g id="a11_007"  >
<polygon style="stroke:black; stroke-width:1; fill:grey; " points="294,65 298,65 303,60 298,55 294,55 294,65 "  />
</g>
<g id="a11_008"  >
<polygon style="stroke:black; stroke-width:1; fill:#810E15; " points="358,60 363,55 372,55 372,65 363,65 358,60 "  />
</g>
<g id="a11_009"  >
<polygon style="stroke:black; stroke-width:1; fill:grey; " points="382,65 397,65 402,60 397,55 382,55 382,65 "  />
</g>
<g id="a11_0010"  >
<polygon style="stroke:black; stroke-width:1; fill:grey; " points="414,65 427,65 432,60 427,55 414,55 414,65 "  />
</g>
<g id="a11_0011"  >
<polygon style="stroke:black; stroke-width:1; fill:#810E15; " points="439,60 444,55 452,55 452,65 444,65 439,60 "  />
</g>
<g id="a11_0012"  >
<polygon style="stroke:black; stroke-width:1; fill:grey; " points="487,60 492,55 513,55 513,65 492,65 487,60 "  />
</g>
<g id="a11_0013"  >
<polygon style="stroke:black; stroke-width:1; fill:grey; " points="487,60 492,55 513,55 513,65 492,65 487,60 "  />
</g>
<g id="a11_0014"  >
<polygon style="stroke:black; stroke-width:1; fill:grey; " points="487,60 492,55 513,55 513,65 492,65 487,60 "  />
</g>
<g id="a11_0015"  >
<polygon style="stroke:black; stroke-width:1; fill:grey; " points="542,60 547,55 552,55 552,65 547,65 542,60 "  />
</g>
<g id="a11_0016"  >
<polygon style="stroke:black; stroke-width:1; fill:grey; " points="619,65 622,65 627,60 622,55 619,55 619,65 "  />
</g>
<g id="a11_0017"  >
<polygon style="stroke:black; stroke-width:1; fill:grey; " points="641,60 646,55 657,55 657,65 646,65 641,60 "  />
</g>
<g id="a11_0018"  >
<polygon style="stroke:black; stroke-width:1; fill:#810E15; " points="676,60 681,55 712,55 712,65 681,65 676,60 "  />
</g>
<g id="a11_0019"  >
<polygon style="stroke:black; stroke-width:1; fill:#810E15; " points="718,60 723,55 747,55 747,65 723,65 718,60 "  />
</g>
<g id="a11_0020"  >
<polygon style="stroke:black; stroke-width:1; fill:grey; " points="771,65 773,65 778,60 773,55 771,55 771,65 "  />
</g>
</svg>
