<svg xmlns="http://www.w3.org/2000/svg" height="0" width="768.0" version="1.1" y="0" x="0" preserveAspectRatio="none" xmlns:xlink="http://www.w3.org/1999/xlink" viewBox="0 -30 819.2 0"  >
<g  >
<line y1="60" x2="778.0" style="stroke:grey; stroke-width:2; " x1="10" y2="60"  />
</g>
<g id="a46_000"  >
<polygon style="stroke:black; stroke-width:1; fill:#810E15; " points="10,65 24,65 29,60 24,55 10,55 10,65 "  />
</g>
<g id="a46_001"  >
<polygon style="stroke:black; stroke-width:1; fill:#810E15; " points="83,60 88,55 93,55 93,65 88,65 83,60 "  />
</g>
<g id="a46_002"  >
<polygon style="stroke:black; stroke-width:1; fill:#810E15; " points="119,60 124,55 130,55 130,65 124,65 119,60 "  />
</g>
<g id="a46_003"  >
<polygon style="stroke:black; stroke-width:1; fill:grey; " points="221,60 226,55 319,55 319,65 226,65 221,60 "  />
</g>
<g id="a46_004"  >
<polygon style="stroke:black; stroke-width:1; fill:grey; " points="329,65 333,65 338,60 333,55 329,55 329,65 "  />
</g>
<g id="a46_005"  >
<polygon style="stroke:black; stroke-width:1; fill:#810E15; " points="743,65 758,65 763,60 758,55 743,55 743,65 "  />
</g>
<g id="a46_006"  >
<polygon style="stroke:black; stroke-width:1; fill:#810E15; " points="773,60 778,55 778,55 778,65 778,65 773,60 "  />
</g>
</svg>
