<svg xmlns="http://www.w3.org/2000/svg" height="0" width="768.0" version="1.1" y="0" x="0" preserveAspectRatio="none" xmlns:xlink="http://www.w3.org/1999/xlink" viewBox="0 -30 819.2 0"  >
<g  >
<line y1="60" x2="778.0" style="stroke:grey; stroke-width:2; " x1="10" y2="60"  />
</g>
<g id="a7_000"  >
<polygon style="stroke:black; stroke-width:1; fill:grey; " points="10,65 21,65 26,60 21,55 10,55 10,65 "  />
</g>
<g id="a7_001"  >
<polygon style="stroke:black; stroke-width:1; fill:grey; " points="35,65 37,60 35,55 35,65 "  />
</g>
<g id="a7_002"  >
<polygon style="stroke:black; stroke-width:1; fill:grey; " points="89,65 107,65 112,60 107,55 89,55 89,65 "  />
</g>
<g id="a7_003"  >
<polygon style="stroke:black; stroke-width:1; fill:#810E15; " points="115,60 120,55 122,55 122,65 120,65 115,60 "  />
</g>
<g id="a7_004"  >
<polygon style="stroke:black; stroke-width:1; fill:#810E15; " points="137,60 139,55 139,65 137,60 "  />
</g>
<g id="a7_005"  >
<polygon style="stroke:black; stroke-width:1; fill:#810E15; " points="173,60 178,55 178,55 178,65 178,65 173,60 "  />
</g>
<g id="a7_006"  >
<polygon style="stroke:black; stroke-width:1; fill:grey; " points="188,65 192,65 197,60 192,55 188,55 188,65 "  />
</g>
<g id="a7_007"  >
<polygon style="stroke:black; stroke-width:1; fill:grey; " points="203,65 207,65 212,60 207,55 203,55 203,65 "  />
</g>
<g id="a7_008"  >
<polygon style="stroke:black; stroke-width:1; fill:#810E15; " points="241,65 245,65 250,60 245,55 241,55 241,65 "  />
</g>
<g id="a7_009"  >
<polygon style="stroke:black; stroke-width:1; fill:grey; " points="366,65 368,65 373,60 368,55 366,55 366,65 "  />
</g>
<g id="a7_0010"  >
<polygon style="stroke:black; stroke-width:1; fill:grey; " points="385,60 389,55 389,65 385,60 "  />
</g>
<g id="a7_0011"  >
<polygon style="stroke:black; stroke-width:1; fill:grey; " points="531,65 534,65 539,60 534,55 531,55 531,65 "  />
</g>
<g id="a7_0012"  >
<polygon style="stroke:black; stroke-width:1; fill:#810E15; " points="770,65 773,65 778,60 773,55 770,55 770,65 "  />
</g>
</svg>
