<svg xmlns="http://www.w3.org/2000/svg" height="0" width="768.0" version="1.1" y="0" x="0" preserveAspectRatio="none" xmlns:xlink="http://www.w3.org/1999/xlink" viewBox="0 -30 819.2 0"  >
<g  >
<line y1="60" x2="778.0" style="stroke:grey; stroke-width:2; " x1="10" y2="60"  />
</g>
<g id="a29_000"  >
<polygon style="stroke:black; stroke-width:1; fill:grey; " points="10,60 10,55 10,65 10,60 "  />
</g>
<g id="a29_001"  >
<polygon style="stroke:black; stroke-width:1; fill:grey; " points="11,65 12,60 11,55 11,65 "  />
</g>
<g id="a29_002"  >
<polygon style="stroke:black; stroke-width:1; fill:grey; " points="14,60 17,55 17,65 14,60 "  />
</g>
<g id="a29_003"  >
<polygon style="stroke:black; stroke-width:1; fill:grey; " points="19,60 22,55 22,65 19,60 "  />
</g>
<g id="a29_004"  >
<polygon style="stroke:black; stroke-width:1; fill:grey; " points="24,60 25,55 25,65 24,60 "  />
</g>
<g id="a29_005"  >
<polygon style="stroke:black; stroke-width:1; fill:grey; " points="26,60 30,55 30,65 26,60 "  />
</g>
<g id="a29_006"  >
<polygon style="stroke:black; stroke-width:1; fill:grey; " points="75,65 78,60 75,55 75,65 "  />
</g>
<g id="a29_007"  >
<polygon style="stroke:black; stroke-width:1; fill:grey; " points="75,65 78,60 75,55 75,65 "  />
</g>
<g id="a29_008"  >
<polygon style="stroke:black; stroke-width:1; fill:grey; " points="83,65 83,65 88,60 83,55 83,55 83,65 "  />
</g>
<g id="a29_009"  >
<polygon style="stroke:black; stroke-width:1; fill:grey; " points="124,65 125,60 124,55 124,65 "  />
</g>
<g id="a29_0010"  >
<polygon style="stroke:black; stroke-width:1; fill:grey; " points="125,65 126,60 125,55 125,65 "  />
</g>
<g id="a29_0011"  >
<polygon style="stroke:black; stroke-width:1; fill:grey; " points="144,65 147,60 144,55 144,65 "  />
</g>
<g id="a29_0012"  >
<polygon style="stroke:black; stroke-width:1; fill:grey; " points="144,65 147,60 144,55 144,65 "  />
</g>
<g id="a29_0013"  >
<polygon style="stroke:black; stroke-width:1; fill:grey; " points="152,65 157,65 162,60 157,55 152,55 152,65 "  />
</g>
<g id="a29_0014"  >
<polygon style="stroke:black; stroke-width:1; fill:grey; " points="188,65 188,60 188,55 188,65 "  />
</g>
<g id="a29_0015"  >
<polygon style="stroke:black; stroke-width:1; fill:grey; " points="193,65 194,60 193,55 193,65 "  />
</g>
<g id="a29_0016"  >
<polygon style="stroke:black; stroke-width:1; fill:#810E15; " points="216,60 217,55 217,65 216,60 "  />
</g>
<g id="a29_0017"  >
<polygon style="stroke:black; stroke-width:1; fill:grey; " points="219,65 219,60 219,55 219,65 "  />
</g>
<g id="a29_0018"  >
<polygon style="stroke:black; stroke-width:1; fill:grey; " points="225,65 226,60 225,55 225,65 "  />
</g>
<g id="a29_0019"  >
<polygon style="stroke:black; stroke-width:1; fill:grey; " points="280,65 284,60 280,55 280,65 "  />
</g>
<g id="a29_0020"  >
<polygon style="stroke:black; stroke-width:1; fill:grey; " points="362,65 362,60 362,55 362,65 "  />
</g>
<g id="a29_0021"  >
<polygon style="stroke:black; stroke-width:1; fill:#810E15; " points="393,60 394,55 394,65 393,60 "  />
</g>
<g id="a29_0022"  >
<polygon style="stroke:black; stroke-width:1; fill:grey; " points="398,65 399,60 398,55 398,65 "  />
</g>
<g id="a29_0023"  >
<polygon style="stroke:black; stroke-width:1; fill:grey; " points="434,65 435,60 434,55 434,65 "  />
</g>
<g id="a29_0024"  >
<polygon style="stroke:black; stroke-width:1; fill:grey; " points="435,65 436,60 435,55 435,65 "  />
</g>
<g id="a29_0025"  >
<polygon style="stroke:black; stroke-width:1; fill:grey; " points="444,65 445,60 444,55 444,65 "  />
</g>
<g id="a29_0026"  >
<polygon style="stroke:black; stroke-width:1; fill:grey; " points="460,65 463,60 460,55 460,65 "  />
</g>
<g id="a29_0027"  >
<polygon style="stroke:black; stroke-width:1; fill:grey; " points="489,65 492,60 489,55 489,65 "  />
</g>
<g id="a29_0028"  >
<polygon style="stroke:black; stroke-width:1; fill:grey; " points="494,60 495,55 495,65 494,60 "  />
</g>
<g id="a29_0029"  >
<polygon style="stroke:black; stroke-width:1; fill:grey; " points="497,60 497,55 497,65 497,60 "  />
</g>
<g id="a29_0030"  >
<polygon style="stroke:black; stroke-width:1; fill:grey; " points="510,60 512,55 512,65 510,60 "  />
</g>
<g id="a29_0031"  >
<polygon style="stroke:black; stroke-width:1; fill:grey; " points="515,65 517,60 515,55 515,65 "  />
</g>
<g id="a29_0032"  >
<polygon style="stroke:black; stroke-width:1; fill:grey; " points="518,65 521,60 518,55 518,65 "  />
</g>
<g id="a29_0033"  >
<polygon style="stroke:black; stroke-width:1; fill:grey; " points="522,60 524,55 524,65 522,60 "  />
</g>
<g id="a29_0034"  >
<polygon style="stroke:black; stroke-width:1; fill:grey; " points="534,65 538,60 534,55 534,65 "  />
</g>
<g id="a29_0035"  >
<polygon style="stroke:black; stroke-width:1; fill:grey; " points="543,60 544,55 544,65 543,60 "  />
</g>
<g id="a29_0036"  >
<polygon style="stroke:black; stroke-width:1; fill:grey; " points="550,60 554,55 554,65 550,60 "  />
</g>
<g id="a29_0037"  >
<polygon style="stroke:black; stroke-width:1; fill:grey; " points="558,60 559,55 559,65 558,60 "  />
</g>
<g id="a29_0038"  >
<polygon style="stroke:black; stroke-width:1; fill:grey; " points="560,60 565,55 565,55 565,65 565,65 560,60 "  />
</g>
<g id="a29_0039"  >
<polygon style="stroke:black; stroke-width:1; fill:grey; " points="575,60 578,55 578,65 575,60 "  />
</g>
<g id="a29_0040"  >
<polygon style="stroke:black; stroke-width:1; fill:grey; " points="609,65 612,60 609,55 609,65 "  />
</g>
<g id="a29_0041"  >
<polygon style="stroke:black; stroke-width:1; fill:grey; " points="609,65 612,60 609,55 609,65 "  />
</g>
<g id="a29_0042"  >
<polygon style="stroke:black; stroke-width:1; fill:grey; " points="609,65 612,60 609,55 609,65 "  />
</g>
<g id="a29_0043"  >
<polygon style="stroke:black; stroke-width:1; fill:grey; " points="618,60 622,55 622,65 618,60 "  />
</g>
<g id="a29_0044"  >
<polygon style="stroke:black; stroke-width:1; fill:grey; " points="640,60 644,55 644,65 640,60 "  />
</g>
<g id="a29_0045"  >
<polygon style="stroke:black; stroke-width:1; fill:grey; " points="655,60 657,55 657,65 655,60 "  />
</g>
<g id="a29_0046"  >
<polygon style="stroke:black; stroke-width:1; fill:grey; " points="662,60 667,55 667,55 667,65 667,65 662,60 "  />
</g>
<g id="a29_0047"  >
<polygon style="stroke:black; stroke-width:1; fill:grey; " points="669,60 673,55 673,65 669,60 "  />
</g>
<g id="a29_0048"  >
<polygon style="stroke:black; stroke-width:1; fill:grey; " points="702,60 704,55 704,65 702,60 "  />
</g>
<g id="a29_0049"  >
<polygon style="stroke:black; stroke-width:1; fill:grey; " points="702,60 704,55 704,65 702,60 "  />
</g>
<g id="a29_0050"  >
<polygon style="stroke:black; stroke-width:1; fill:grey; " points="753,65 754,60 753,55 753,65 "  />
</g>
<g id="a29_0051"  >
<polygon style="stroke:black; stroke-width:1; fill:grey; " points="764,65 766,60 764,55 764,65 "  />
</g>
<g id="a29_0052"  >
<polygon style="stroke:black; stroke-width:1; fill:grey; " points="773,60 778,55 778,55 778,65 778,65 773,60 "  />
</g>
</svg>
