<svg xmlns="http://www.w3.org/2000/svg" height="0" width="768.0" version="1.1" y="0" x="0" preserveAspectRatio="none" xmlns:xlink="http://www.w3.org/1999/xlink" viewBox="0 -30 819.2 0"  >
<g  >
<line y1="60" x2="778.0" style="stroke:grey; stroke-width:2; " x1="10" y2="60"  />
</g>
<g id="a20_000"  >
<polygon style="stroke:black; stroke-width:1; fill:grey; " points="10,60 10,55 10,65 10,60 "  />
</g>
<g id="a20_001"  >
<polygon style="stroke:black; stroke-width:1; fill:grey; " points="13,60 14,55 14,65 13,60 "  />
</g>
<g id="a20_002"  >
<polygon style="stroke:black; stroke-width:1; fill:grey; " points="35,60 39,55 39,65 35,60 "  />
</g>
<g id="a20_003"  >
<polygon style="stroke:black; stroke-width:1; fill:#810E15; " points="49,65 86,65 91,60 86,55 49,55 49,65 "  />
</g>
<g id="a20_004"  >
<polygon style="stroke:black; stroke-width:1; fill:grey; " points="103,65 113,65 118,60 113,55 103,55 103,65 "  />
</g>
<g id="a20_005"  >
<polygon style="stroke:black; stroke-width:1; fill:grey; " points="121,65 121,65 126,60 121,55 121,55 121,65 "  />
</g>
<g id="a20_006"  >
<polygon style="stroke:black; stroke-width:1; fill:#810E15; " points="130,60 135,55 138,55 138,65 135,65 130,60 "  />
</g>
<g id="a20_007"  >
<polygon style="stroke:black; stroke-width:1; fill:#810E15; " points="187,65 187,65 192,60 187,55 187,55 187,65 "  />
</g>
<g id="a20_008"  >
<polygon style="stroke:black; stroke-width:1; fill:#810E15; " points="194,65 197,60 194,55 194,65 "  />
</g>
<g id="a20_009"  >
<polygon style="stroke:black; stroke-width:1; fill:#810E15; " points="212,65 213,60 212,55 212,65 "  />
</g>
<g id="a20_0010"  >
<polygon style="stroke:black; stroke-width:1; fill:#810E15; " points="338,60 343,55 348,55 348,65 343,65 338,60 "  />
</g>
<g id="a20_0011"  >
<polygon style="stroke:black; stroke-width:1; fill:#810E15; " points="500,60 505,55 507,55 507,65 505,65 500,60 "  />
</g>
<g id="a20_0012"  >
<polygon style="stroke:black; stroke-width:1; fill:grey; " points="553,65 557,60 553,55 553,65 "  />
</g>
<g id="a20_0013"  >
<polygon style="stroke:black; stroke-width:1; fill:grey; " points="591,65 591,65 596,60 591,55 591,55 591,65 "  />
</g>
<g id="a20_0014"  >
<polygon style="stroke:black; stroke-width:1; fill:grey; " points="608,65 609,60 608,55 608,65 "  />
</g>
<g id="a20_0015"  >
<polygon style="stroke:black; stroke-width:1; fill:#810E15; " points="666,60 669,55 669,65 666,60 "  />
</g>
<g id="a20_0016"  >
<polygon style="stroke:black; stroke-width:1; fill:#810E15; " points="686,60 690,55 690,65 686,60 "  />
</g>
<g id="a20_0017"  >
<polygon style="stroke:black; stroke-width:1; fill:#810E15; " points="694,60 697,55 697,65 694,60 "  />
</g>
<g id="a20_0018"  >
<polygon style="stroke:black; stroke-width:1; fill:#810E15; " points="720,65 723,60 720,55 720,65 "  />
</g>
<g id="a20_0019"  >
<polygon style="stroke:black; stroke-width:1; fill:grey; " points="724,60 726,55 726,65 724,60 "  />
</g>
<g id="a20_0020"  >
<polygon style="stroke:black; stroke-width:1; fill:grey; " points="743,65 746,60 743,55 743,65 "  />
</g>
<g id="a20_0021"  >
<polygon style="stroke:black; stroke-width:1; fill:#810E15; " points="750,60 752,55 752,65 750,60 "  />
</g>
<g id="a20_0022"  >
<polygon style="stroke:black; stroke-width:1; fill:grey; " points="753,65 753,65 758,60 753,55 753,55 753,65 "  />
</g>
<g id="a20_0023"  >
<polygon style="stroke:black; stroke-width:1; fill:grey; " points="763,65 764,65 769,60 764,55 763,55 763,65 "  />
</g>
<g id="a20_0024"  >
<polygon style="stroke:black; stroke-width:1; fill:grey; " points="773,60 778,55 778,55 778,65 778,65 773,60 "  />
</g>
<g id="a20_0025"  >
<polygon style="stroke:black; stroke-width:1; fill:grey; " points="773,60 778,55 778,55 778,65 778,65 773,60 "  />
</g>
</svg>
