<svg xmlns="http://www.w3.org/2000/svg" height="0" width="768.0" version="1.1" y="0" x="0" preserveAspectRatio="none" xmlns:xlink="http://www.w3.org/1999/xlink" viewBox="0 -30 819.2 0"  >
<g  >
<line y1="60" x2="778.0" style="stroke:grey; stroke-width:2; " x1="10" y2="60"  />
</g>
<g id="a39_000"  >
<polygon style="stroke:black; stroke-width:1; fill:grey; " points="10,65 30,65 35,60 30,55 10,55 10,65 "  />
</g>
<g id="a39_001"  >
<polygon style="stroke:black; stroke-width:1; fill:grey; " points="51,65 63,65 68,60 63,55 51,55 51,65 "  />
</g>
<g id="a39_002"  >
<polygon style="stroke:black; stroke-width:1; fill:grey; " points="75,60 80,55 115,55 115,65 80,65 75,60 "  />
</g>
<g id="a39_003"  >
<polygon style="stroke:black; stroke-width:1; fill:#810E15; " points="125,65 192,65 197,60 192,55 125,55 125,65 "  />
</g>
<g id="a39_004"  >
<polygon style="stroke:black; stroke-width:1; fill:#810E15; " points="251,60 256,55 287,55 287,65 256,65 251,60 "  />
</g>
<g id="a39_005"  >
<polygon style="stroke:black; stroke-width:1; fill:#810E15; " points="374,60 379,55 414,55 414,65 379,65 374,60 "  />
</g>
<g id="a39_006"  >
<polygon style="stroke:black; stroke-width:1; fill:#810E15; " points="652,65 683,65 688,60 683,55 652,55 652,65 "  />
</g>
<g id="a39_007"  >
<polygon style="stroke:black; stroke-width:1; fill:grey; " points="699,60 704,55 778,55 778,65 704,65 699,60 "  />
</g>
<g id="a39_008"  >
<polygon style="stroke:black; stroke-width:1; fill:grey; " points="699,60 704,55 778,55 778,65 704,65 699,60 "  />
</g>
</svg>
