<svg xmlns="http://www.w3.org/2000/svg" height="0" width="768.0" version="1.1" y="0" x="0" preserveAspectRatio="none" xmlns:xlink="http://www.w3.org/1999/xlink" viewBox="0 -30 819.2 0"  >
<g  >
<line y1="60" x2="778.0" style="stroke:grey; stroke-width:2; " x1="10" y2="60"  />
</g>
<g id="a31_000"  >
<polygon style="stroke:black; stroke-width:1; fill:grey; " points="10,65 37,65 42,60 37,55 10,55 10,65 "  />
</g>
<g id="a31_001"  >
<polygon style="stroke:black; stroke-width:1; fill:#810E15; " points="75,65 94,65 99,60 94,55 75,55 75,65 "  />
</g>
<g id="a31_002"  >
<polygon style="stroke:black; stroke-width:1; fill:#810E15; " points="167,65 195,65 200,60 195,55 167,55 167,65 "  />
</g>
<g id="a31_003"  >
<polygon style="stroke:black; stroke-width:1; fill:#810E15; " points="210,65 238,65 243,60 238,55 210,55 210,65 "  />
</g>
<g id="a31_004"  >
<polygon style="stroke:black; stroke-width:1; fill:grey; " points="272,65 315,65 320,60 315,55 272,55 272,65 "  />
</g>
<g id="a31_005"  >
<polygon style="stroke:black; stroke-width:1; fill:grey; " points="339,65 360,65 365,60 360,55 339,55 339,65 "  />
</g>
<g id="a31_006"  >
<polygon style="stroke:black; stroke-width:1; fill:grey; " points="385,65 434,65 439,60 434,55 385,55 385,65 "  />
</g>
<g id="a31_007"  >
<polygon style="stroke:black; stroke-width:1; fill:grey; " points="385,65 434,65 439,60 434,55 385,55 385,65 "  />
</g>
<g id="a31_008"  >
<polygon style="stroke:black; stroke-width:1; fill:grey; " points="385,65 434,65 439,60 434,55 385,55 385,65 "  />
</g>
<g id="a31_009"  >
<polygon style="stroke:black; stroke-width:1; fill:grey; " points="516,65 533,65 538,60 533,55 516,55 516,65 "  />
</g>
<g id="a31_0010"  >
<polygon style="stroke:black; stroke-width:1; fill:grey; " points="516,65 533,65 538,60 533,55 516,55 516,65 "  />
</g>
<g id="a31_0011"  >
<polygon style="stroke:black; stroke-width:1; fill:grey; " points="556,60 561,55 603,55 603,65 561,65 556,60 "  />
</g>
<g id="a31_0012"  >
<polygon style="stroke:black; stroke-width:1; fill:grey; " points="630,60 635,55 640,55 640,65 635,65 630,60 "  />
</g>
<g id="a31_0013"  >
<polygon style="stroke:black; stroke-width:1; fill:#810E15; " points="676,60 681,55 694,55 694,65 681,65 676,60 "  />
</g>
<g id="a31_0014"  >
<polygon style="stroke:black; stroke-width:1; fill:#810E15; " points="759,60 764,55 778,55 778,65 764,65 759,60 "  />
</g>
</svg>
