<svg xmlns="http://www.w3.org/2000/svg" height="0" width="768.0" version="1.1" y="0" x="0" preserveAspectRatio="none" xmlns:xlink="http://www.w3.org/1999/xlink" viewBox="0 -30 819.2 0"  >
<g  >
<line y1="60" x2="778.0" style="stroke:grey; stroke-width:2; " x1="10" y2="60"  />
</g>
<g id="a35_000"  >
<polygon style="stroke:black; stroke-width:1; fill:grey; " points="10,60 15,55 21,55 21,65 15,65 10,60 "  />
</g>
<g id="a35_001"  >
<polygon style="stroke:black; stroke-width:1; fill:grey; " points="10,60 15,55 21,55 21,65 15,65 10,60 "  />
</g>
<g id="a35_002"  >
<polygon style="stroke:black; stroke-width:1; fill:grey; " points="22,65 24,65 29,60 24,55 22,55 22,65 "  />
</g>
<g id="a35_003"  >
<polygon style="stroke:black; stroke-width:1; fill:grey; " points="31,60 36,55 40,55 40,65 36,65 31,60 "  />
</g>
<g id="a35_004"  >
<polygon style="stroke:black; stroke-width:1; fill:#810E15; " points="75,65 79,60 75,55 75,65 "  />
</g>
<g id="a35_005"  >
<polygon style="stroke:black; stroke-width:1; fill:grey; " points="109,65 126,65 131,60 126,55 109,55 109,65 "  />
</g>
<g id="a35_006"  >
<polygon style="stroke:black; stroke-width:1; fill:#810E15; " points="241,65 242,65 247,60 242,55 241,55 241,65 "  />
</g>
<g id="a35_007"  >
<polygon style="stroke:black; stroke-width:1; fill:#810E15; " points="438,65 439,65 444,60 439,55 438,55 438,65 "  />
</g>
<g id="a35_008"  >
<polygon style="stroke:black; stroke-width:1; fill:grey; " points="487,65 490,60 487,55 487,65 "  />
</g>
<g id="a35_009"  >
<polygon style="stroke:black; stroke-width:1; fill:#810E15; " points="492,65 494,60 492,55 492,65 "  />
</g>
<g id="a35_0010"  >
<polygon style="stroke:black; stroke-width:1; fill:grey; " points="566,65 567,65 572,60 567,55 566,55 566,65 "  />
</g>
<g id="a35_0011"  >
<polygon style="stroke:black; stroke-width:1; fill:grey; " points="566,65 567,65 572,60 567,55 566,55 566,65 "  />
</g>
<g id="a35_0012"  >
<polygon style="stroke:black; stroke-width:1; fill:grey; " points="712,65 712,65 717,60 712,55 712,55 712,65 "  />
</g>
<g id="a35_0013"  >
<polygon style="stroke:black; stroke-width:1; fill:#810E15; " points="721,65 724,65 729,60 724,55 721,55 721,65 "  />
</g>
<g id="a35_0014"  >
<polygon style="stroke:black; stroke-width:1; fill:grey; " points="733,60 738,55 747,55 747,65 738,65 733,60 "  />
</g>
<g id="a35_0015"  >
<polygon style="stroke:black; stroke-width:1; fill:grey; " points="774,65 778,60 774,55 774,65 "  />
</g>
</svg>
