<svg xmlns="http://www.w3.org/2000/svg" height="0" width="768.0" version="1.1" y="0" x="0" preserveAspectRatio="none" xmlns:xlink="http://www.w3.org/1999/xlink" viewBox="0 -30 819.2 0"  >
<g  >
<line y1="60" x2="778.0" style="stroke:grey; stroke-width:2; " x1="10" y2="60"  />
</g>
<g id="a45_000"  >
<polygon style="stroke:black; stroke-width:1; fill:grey; " points="10,65 21,65 26,60 21,55 10,55 10,65 "  />
</g>
<g id="a45_001"  >
<polygon style="stroke:black; stroke-width:1; fill:grey; " points="34,65 36,65 41,60 36,55 34,55 34,65 "  />
</g>
<g id="a45_002"  >
<polygon style="stroke:black; stroke-width:1; fill:grey; " points="49,65 50,65 55,60 50,55 49,55 49,65 "  />
</g>
<g id="a45_003"  >
<polygon style="stroke:black; stroke-width:1; fill:#810E15; " points="61,65 64,60 61,55 61,65 "  />
</g>
<g id="a45_004"  >
<polygon style="stroke:black; stroke-width:1; fill:#810E15; " points="79,65 82,60 79,55 79,65 "  />
</g>
<g id="a45_005"  >
<polygon style="stroke:black; stroke-width:1; fill:#810E15; " points="131,60 132,55 132,65 131,60 "  />
</g>
<g id="a45_006"  >
<polygon style="stroke:black; stroke-width:1; fill:#810E15; " points="141,60 144,55 144,65 141,60 "  />
</g>
<g id="a45_007"  >
<polygon style="stroke:black; stroke-width:1; fill:#810E15; " points="175,60 176,55 176,65 175,60 "  />
</g>
<g id="a45_008"  >
<polygon style="stroke:black; stroke-width:1; fill:#810E15; " points="181,65 185,60 181,55 181,65 "  />
</g>
<g id="a45_009"  >
<polygon style="stroke:black; stroke-width:1; fill:#810E15; " points="193,60 196,55 196,65 193,60 "  />
</g>
<g id="a45_0010"  >
<polygon style="stroke:black; stroke-width:1; fill:#810E15; " points="202,65 206,60 202,55 202,65 "  />
</g>
<g id="a45_0011"  >
<polygon style="stroke:black; stroke-width:1; fill:#810E15; " points="214,60 217,55 217,65 214,60 "  />
</g>
<g id="a45_0012"  >
<polygon style="stroke:black; stroke-width:1; fill:#810E15; " points="357,60 358,55 358,65 357,60 "  />
</g>
<g id="a45_0013"  >
<polygon style="stroke:black; stroke-width:1; fill:#810E15; " points="428,60 430,55 430,65 428,60 "  />
</g>
<g id="a45_0014"  >
<polygon style="stroke:black; stroke-width:1; fill:#810E15; " points="435,60 437,55 437,65 435,60 "  />
</g>
<g id="a45_0015"  >
<polygon style="stroke:black; stroke-width:1; fill:#810E15; " points="538,60 541,55 541,65 538,60 "  />
</g>
<g id="a45_0016"  >
<polygon style="stroke:black; stroke-width:1; fill:#810E15; " points="569,65 572,60 569,55 569,65 "  />
</g>
<g id="a45_0017"  >
<polygon style="stroke:black; stroke-width:1; fill:#810E15; " points="599,60 602,55 602,65 599,60 "  />
</g>
<g id="a45_0018"  >
<polygon style="stroke:black; stroke-width:1; fill:#810E15; " points="625,60 630,55 659,55 659,65 630,65 625,60 "  />
</g>
<g id="a45_0019"  >
<polygon style="stroke:black; stroke-width:1; fill:#810E15; " points="667,65 670,60 667,55 667,65 "  />
</g>
<g id="a45_0020"  >
<polygon style="stroke:black; stroke-width:1; fill:#810E15; " points="682,60 685,55 685,65 682,60 "  />
</g>
<g id="a45_0021"  >
<polygon style="stroke:black; stroke-width:1; fill:#810E15; " points="688,60 691,55 691,65 688,60 "  />
</g>
<g id="a45_0022"  >
<polygon style="stroke:black; stroke-width:1; fill:#810E15; " points="695,65 699,60 695,55 695,65 "  />
</g>
<g id="a45_0023"  >
<polygon style="stroke:black; stroke-width:1; fill:grey; " points="701,65 705,60 701,55 701,65 "  />
</g>
<g id="a45_0024"  >
<polygon style="stroke:black; stroke-width:1; fill:grey; " points="705,65 706,65 711,60 706,55 705,55 705,65 "  />
</g>
<g id="a45_0025"  >
<polygon style="stroke:black; stroke-width:1; fill:#810E15; " points="720,60 724,55 724,65 720,60 "  />
</g>
<g id="a45_0026"  >
<polygon style="stroke:black; stroke-width:1; fill:#810E15; " points="771,60 776,55 778,55 778,65 776,65 771,60 "  />
</g>
</svg>
