<svg xmlns="http://www.w3.org/2000/svg" height="0" width="768.0" version="1.1" y="0" x="0" preserveAspectRatio="none" xmlns:xlink="http://www.w3.org/1999/xlink" viewBox="0 -30 819.2 0"  >
<g  >
<line y1="60" x2="778.0" style="stroke:grey; stroke-width:2; " x1="10" y2="60"  />
</g>
<g id="a59_000"  >
<polygon style="stroke:black; stroke-width:1; fill:#810E15; " points="10,60 15,55 59,55 59,65 15,65 10,60 "  />
</g>
<g id="a59_001"  >
<polygon style="stroke:black; stroke-width:1; fill:grey; " points="95,65 118,65 123,60 118,55 95,55 95,65 "  />
</g>
<g id="a59_002"  >
<polygon style="stroke:black; stroke-width:1; fill:#810E15; " points="352,65 473,65 478,60 473,55 352,55 352,65 "  />
</g>
<g id="a59_003"  >
<polygon style="stroke:black; stroke-width:1; fill:#810E15; " points="531,65 539,65 544,60 539,55 531,55 531,65 "  />
</g>
<g id="a59_004"  >
<polygon style="stroke:black; stroke-width:1; fill:#810E15; " points="582,65 630,65 635,60 630,55 582,55 582,65 "  />
</g>
<g id="a59_005"  >
<polygon style="stroke:black; stroke-width:1; fill:#810E15; " points="667,60 672,55 693,55 693,65 672,65 667,60 "  />
</g>
<g id="a59_006"  >
<polygon style="stroke:black; stroke-width:1; fill:grey; " points="754,60 759,55 778,55 778,65 759,65 754,60 "  />
</g>
</svg>
