<svg xmlns="http://www.w3.org/2000/svg" height="0" width="768.0" version="1.1" y="0" x="0" preserveAspectRatio="none" xmlns:xlink="http://www.w3.org/1999/xlink" viewBox="0 -30 819.2 0"  >
<g  >
<line y1="60" x2="778.0" style="stroke:grey; stroke-width:2; " x1="10" y2="60"  />
</g>
<g id="a41_000"  >
<polygon style="stroke:black; stroke-width:1; fill:grey; " points="10,65 13,65 18,60 13,55 10,55 10,65 "  />
</g>
<g id="a41_001"  >
<polygon style="stroke:black; stroke-width:1; fill:grey; " points="28,65 31,60 28,55 28,65 "  />
</g>
<g id="a41_002"  >
<polygon style="stroke:black; stroke-width:1; fill:grey; " points="47,60 52,55 63,55 63,65 52,65 47,60 "  />
</g>
<g id="a41_003"  >
<polygon style="stroke:black; stroke-width:1; fill:grey; " points="114,60 115,55 115,65 114,60 "  />
</g>
<g id="a41_004"  >
<polygon style="stroke:black; stroke-width:1; fill:grey; " points="128,60 133,55 157,55 157,65 133,65 128,60 "  />
</g>
<g id="a41_005"  >
<polygon style="stroke:black; stroke-width:1; fill:grey; " points="133,60 138,55 157,55 157,65 138,65 133,60 "  />
</g>
<g id="a41_006"  >
<polygon style="stroke:black; stroke-width:1; fill:grey; " points="226,65 231,65 236,60 231,55 226,55 226,65 "  />
</g>
<g id="a41_007"  >
<polygon style="stroke:black; stroke-width:1; fill:grey; " points="247,65 250,60 247,55 247,65 "  />
</g>
<g id="a41_008"  >
<polygon style="stroke:black; stroke-width:1; fill:grey; " points="253,60 254,55 254,65 253,60 "  />
</g>
<g id="a41_009"  >
<polygon style="stroke:black; stroke-width:1; fill:grey; " points="275,65 289,65 294,60 289,55 275,55 275,65 "  />
</g>
<g id="a41_0010"  >
<polygon style="stroke:black; stroke-width:1; fill:grey; " points="275,65 289,65 294,60 289,55 275,55 275,65 "  />
</g>
<g id="a41_0011"  >
<polygon style="stroke:black; stroke-width:1; fill:grey; " points="307,65 338,65 343,60 338,55 307,55 307,65 "  />
</g>
<g id="a41_0012"  >
<polygon style="stroke:black; stroke-width:1; fill:#810E15; " points="355,60 360,55 365,55 365,65 360,65 355,60 "  />
</g>
<g id="a41_0013"  >
<polygon style="stroke:black; stroke-width:1; fill:#810E15; " points="366,60 371,55 373,55 373,65 371,65 366,60 "  />
</g>
<g id="a41_0014"  >
<polygon style="stroke:black; stroke-width:1; fill:#810E15; " points="374,60 377,55 377,65 374,60 "  />
</g>
<g id="a41_0015"  >
<polygon style="stroke:black; stroke-width:1; fill:#810E15; " points="378,60 382,55 382,65 378,60 "  />
</g>
<g id="a41_0016"  >
<polygon style="stroke:black; stroke-width:1; fill:grey; " points="386,65 390,65 395,60 390,55 386,55 386,65 "  />
</g>
<g id="a41_0017"  >
<polygon style="stroke:black; stroke-width:1; fill:grey; " points="399,65 404,65 409,60 404,55 399,55 399,65 "  />
</g>
<g id="a41_0018"  >
<polygon style="stroke:black; stroke-width:1; fill:grey; " points="416,60 417,55 417,65 416,60 "  />
</g>
<g id="a41_0019"  >
<polygon style="stroke:black; stroke-width:1; fill:grey; " points="428,65 429,60 428,55 428,65 "  />
</g>
<g id="a41_0020"  >
<polygon style="stroke:black; stroke-width:1; fill:#810E15; " points="438,60 443,55 444,55 444,65 443,65 438,60 "  />
</g>
<g id="a41_0021"  >
<polygon style="stroke:black; stroke-width:1; fill:#810E15; " points="448,60 453,55 454,55 454,65 453,65 448,60 "  />
</g>
<g id="a41_0022"  >
<polygon style="stroke:black; stroke-width:1; fill:#810E15; " points="455,60 458,55 458,65 455,60 "  />
</g>
<g id="a41_0023"  >
<polygon style="stroke:black; stroke-width:1; fill:#810E15; " points="465,60 470,55 470,55 470,65 470,65 465,60 "  />
</g>
<g id="a41_0024"  >
<polygon style="stroke:black; stroke-width:1; fill:#810E15; " points="471,60 476,55 476,55 476,65 476,65 471,60 "  />
</g>
<g id="a41_0025"  >
<polygon style="stroke:black; stroke-width:1; fill:grey; " points="484,60 484,55 484,65 484,60 "  />
</g>
<g id="a41_0026"  >
<polygon style="stroke:black; stroke-width:1; fill:grey; " points="502,60 507,55 510,55 510,65 507,65 502,60 "  />
</g>
<g id="a41_0027"  >
<polygon style="stroke:black; stroke-width:1; fill:grey; " points="525,65 538,65 543,60 538,55 525,55 525,65 "  />
</g>
<g id="a41_0028"  >
<polygon style="stroke:black; stroke-width:1; fill:grey; " points="555,65 568,65 573,60 568,55 555,55 555,65 "  />
</g>
<g id="a41_0029"  >
<polygon style="stroke:black; stroke-width:1; fill:grey; " points="555,65 575,65 580,60 575,55 555,55 555,65 "  />
</g>
<g id="a41_0030"  >
<polygon style="stroke:black; stroke-width:1; fill:grey; " points="585,60 590,55 592,55 592,65 590,65 585,60 "  />
</g>
<g id="a41_0031"  >
<polygon style="stroke:black; stroke-width:1; fill:grey; " points="621,60 626,55 634,55 634,65 626,65 621,60 "  />
</g>
<g id="a41_0032"  >
<polygon style="stroke:black; stroke-width:1; fill:grey; " points="736,60 741,55 744,55 744,65 741,65 736,60 "  />
</g>
<g id="a41_0033"  >
<polygon style="stroke:black; stroke-width:1; fill:grey; " points="750,60 755,55 765,55 765,65 755,65 750,60 "  />
</g>
<g id="a41_0034"  >
<polygon style="stroke:black; stroke-width:1; fill:grey; " points="771,65 773,65 778,60 773,55 771,55 771,65 "  />
</g>
</svg>
