<svg xmlns="http://www.w3.org/2000/svg" height="0" width="768.0" version="1.1" y="0" x="0" preserveAspectRatio="none" xmlns:xlink="http://www.w3.org/1999/xlink" viewBox="0 -30 819.2 0"  >
<g  >
<line y1="60" x2="778.0" style="stroke:grey; stroke-width:2; " x1="10" y2="60"  />
</g>
<g id="a43_000"  >
<polygon style="stroke:black; stroke-width:1; fill:grey; " points="10,65 105,65 110,60 105,55 10,55 10,65 "  />
</g>
<g id="a43_001"  >
<polygon style="stroke:black; stroke-width:1; fill:grey; " points="157,60 162,55 187,55 187,65 162,65 157,60 "  />
</g>
<g id="a43_002"  >
<polygon style="stroke:black; stroke-width:1; fill:#810E15; " points="209,60 214,55 238,55 238,65 214,65 209,60 "  />
</g>
<g id="a43_003"  >
<polygon style="stroke:black; stroke-width:1; fill:grey; " points="482,65 522,65 527,60 522,55 482,55 482,65 "  />
</g>
<g id="a43_004"  >
<polygon style="stroke:black; stroke-width:1; fill:#810E15; " points="544,60 549,55 596,55 596,65 549,65 544,60 "  />
</g>
<g id="a43_005"  >
<polygon style="stroke:black; stroke-width:1; fill:grey; " points="601,60 606,55 627,55 627,65 606,65 601,60 "  />
</g>
<g id="a43_006"  >
<polygon style="stroke:black; stroke-width:1; fill:#810E15; " points="631,60 636,55 698,55 698,65 636,65 631,60 "  />
</g>
<g id="a43_007"  >
<polygon style="stroke:black; stroke-width:1; fill:grey; " points="749,60 754,55 778,55 778,65 754,65 749,60 "  />
</g>
</svg>
