<svg xmlns="http://www.w3.org/2000/svg" height="0" width="768.0" version="1.1" y="0" x="0" preserveAspectRatio="none" xmlns:xlink="http://www.w3.org/1999/xlink" viewBox="0 -30 819.2 0"  >
<g  >
<line y1="60" x2="778.0" style="stroke:grey; stroke-width:2; " x1="10" y2="60"  />
</g>
<g id="a33_000"  >
<polygon style="stroke:black; stroke-width:1; fill:grey; " points="10,60 15,55 45,55 45,65 15,65 10,60 "  />
</g>
<g id="a33_001"  >
<polygon style="stroke:black; stroke-width:1; fill:grey; " points="15,60 20,55 45,55 45,65 20,65 15,60 "  />
</g>
<g id="a33_002"  >
<polygon style="stroke:black; stroke-width:1; fill:#810E15; " points="97,65 115,65 120,60 115,55 97,55 97,65 "  />
</g>
<g id="a33_003"  >
<polygon style="stroke:black; stroke-width:1; fill:#810E15; " points="134,60 139,55 167,55 167,65 139,65 134,60 "  />
</g>
<g id="a33_004"  >
<polygon style="stroke:black; stroke-width:1; fill:grey; " points="215,60 220,55 256,55 256,65 220,65 215,60 "  />
</g>
<g id="a33_005"  >
<polygon style="stroke:black; stroke-width:1; fill:grey; " points="215,60 220,55 256,55 256,65 220,65 215,60 "  />
</g>
<g id="a33_006"  >
<polygon style="stroke:black; stroke-width:1; fill:grey; " points="229,60 234,55 256,55 256,65 234,65 229,60 "  />
</g>
<g id="a33_007"  >
<polygon style="stroke:black; stroke-width:1; fill:grey; " points="266,60 271,55 304,55 304,65 271,65 266,60 "  />
</g>
<g id="a33_008"  >
<polygon style="stroke:black; stroke-width:1; fill:grey; " points="266,60 271,55 309,55 309,65 271,65 266,60 "  />
</g>
<g id="a33_009"  >
<polygon style="stroke:black; stroke-width:1; fill:grey; " points="272,60 277,55 309,55 309,65 277,65 272,60 "  />
</g>
<g id="a33_0010"  >
<polygon style="stroke:black; stroke-width:1; fill:grey; " points="316,60 321,55 336,55 336,65 321,65 316,60 "  />
</g>
<g id="a33_0011"  >
<polygon style="stroke:black; stroke-width:1; fill:grey; " points="316,60 321,55 340,55 340,65 321,65 316,60 "  />
</g>
<g id="a33_0012"  >
<polygon style="stroke:black; stroke-width:1; fill:grey; " points="370,60 375,55 376,55 376,65 375,65 370,60 "  />
</g>
<g id="a33_0013"  >
<polygon style="stroke:black; stroke-width:1; fill:grey; " points="379,65 388,65 393,60 388,55 379,55 379,65 "  />
</g>
<g id="a33_0014"  >
<polygon style="stroke:black; stroke-width:1; fill:grey; " points="379,65 404,65 409,60 404,55 379,55 379,65 "  />
</g>
<g id="a33_0015"  >
<polygon style="stroke:black; stroke-width:1; fill:#810E15; " points="421,65 426,65 431,60 426,55 421,55 421,65 "  />
</g>
<g id="a33_0016"  >
<polygon style="stroke:black; stroke-width:1; fill:grey; " points="452,60 457,55 460,55 460,65 457,65 452,60 "  />
</g>
<g id="a33_0017"  >
<polygon style="stroke:black; stroke-width:1; fill:grey; " points="452,60 457,55 469,55 469,65 457,65 452,60 "  />
</g>
<g id="a33_0018"  >
<polygon style="stroke:black; stroke-width:1; fill:grey; " points="522,60 525,55 525,65 522,60 "  />
</g>
<g id="a33_0019"  >
<polygon style="stroke:black; stroke-width:1; fill:grey; " points="529,65 540,65 545,60 540,55 529,55 529,65 "  />
</g>
<g id="a33_0020"  >
<polygon style="stroke:black; stroke-width:1; fill:#810E15; " points="563,60 568,55 589,55 589,65 568,65 563,60 "  />
</g>
<g id="a33_0021"  >
<polygon style="stroke:black; stroke-width:1; fill:grey; " points="630,60 635,55 657,55 657,65 635,65 630,60 "  />
</g>
<g id="a33_0022"  >
<polygon style="stroke:black; stroke-width:1; fill:#810E15; " points="675,65 676,65 681,60 676,55 675,55 675,65 "  />
</g>
<g id="a33_0023"  >
<polygon style="stroke:black; stroke-width:1; fill:#810E15; " points="709,65 711,65 716,60 711,55 709,55 709,65 "  />
</g>
<g id="a33_0024"  >
<polygon style="stroke:black; stroke-width:1; fill:grey; " points="771,65 773,65 778,60 773,55 771,55 771,65 "  />
</g>
</svg>
