<svg xmlns="http://www.w3.org/2000/svg" height="0" width="768.0" version="1.1" y="0" x="0" preserveAspectRatio="none" xmlns:xlink="http://www.w3.org/1999/xlink" viewBox="0 -30 819.2 0"  >
<g  >
<line y1="60" x2="778.0" style="stroke:grey; stroke-width:2; " x1="10" y2="60"  />
</g>
<g id="a69_000"  >
<polygon style="stroke:black; stroke-width:1; fill:grey; " points="10,60 15,55 32,55 32,65 15,65 10,60 "  />
</g>
<g id="a69_001"  >
<polygon style="stroke:black; stroke-width:1; fill:#810E15; " points="211,60 216,55 287,55 287,65 216,65 211,60 "  />
</g>
<g id="a69_002"  >
<polygon style="stroke:black; stroke-width:1; fill:#810E15; " points="397,65 426,65 431,60 426,55 397,55 397,65 "  />
</g>
<g id="a69_003"  >
<polygon style="stroke:black; stroke-width:1; fill:#810E15; " points="523,65 536,65 541,60 536,55 523,55 523,65 "  />
</g>
<g id="a69_004"  >
<polygon style="stroke:black; stroke-width:1; fill:grey; " points="602,65 602,65 607,60 602,55 602,55 602,65 "  />
</g>
<g id="a69_005"  >
<polygon style="stroke:black; stroke-width:1; fill:grey; " points="700,60 705,55 778,55 778,65 705,65 700,60 "  />
</g>
</svg>
