<svg xmlns="http://www.w3.org/2000/svg" height="0" width="768.0" version="1.1" y="0" x="0" preserveAspectRatio="none" xmlns:xlink="http://www.w3.org/1999/xlink" viewBox="0 -30 819.2 0"  >
<g  >
<line y1="60" x2="778.0" style="stroke:grey; stroke-width:2; " x1="10" y2="60"  />
</g>
<g id="a68_000"  >
<polygon style="stroke:black; stroke-width:1; fill:grey; " points="10,65 10,60 10,55 10,65 "  />
</g>
<g id="a68_001"  >
<polygon style="stroke:black; stroke-width:1; fill:grey; " points="13,65 14,60 13,55 13,65 "  />
</g>
<g id="a68_002"  >
<polygon style="stroke:black; stroke-width:1; fill:grey; " points="20,65 20,60 20,55 20,65 "  />
</g>
<g id="a68_003"  >
<polygon style="stroke:black; stroke-width:1; fill:grey; " points="22,65 23,60 22,55 22,65 "  />
</g>
<g id="a68_004"  >
<polygon style="stroke:black; stroke-width:1; fill:grey; " points="30,65 30,60 30,55 30,65 "  />
</g>
<g id="a68_005"  >
<polygon style="stroke:black; stroke-width:1; fill:grey; " points="32,65 33,60 32,55 32,65 "  />
</g>
<g id="a68_006"  >
<polygon style="stroke:black; stroke-width:1; fill:grey; " points="38,65 38,60 38,55 38,65 "  />
</g>
<g id="a68_007"  >
<polygon style="stroke:black; stroke-width:1; fill:grey; " points="42,65 43,60 42,55 42,65 "  />
</g>
<g id="a68_008"  >
<polygon style="stroke:black; stroke-width:1; fill:grey; " points="61,65 61,60 61,55 61,65 "  />
</g>
<g id="a68_009"  >
<polygon style="stroke:black; stroke-width:1; fill:grey; " points="76,65 78,65 83,60 78,55 76,55 76,65 "  />
</g>
<g id="a68_0010"  >
<polygon style="stroke:black; stroke-width:1; fill:grey; " points="76,65 78,65 83,60 78,55 76,55 76,65 "  />
</g>
<g id="a68_0011"  >
<polygon style="stroke:black; stroke-width:1; fill:grey; " points="90,60 93,55 93,65 90,60 "  />
</g>
<g id="a68_0012"  >
<polygon style="stroke:black; stroke-width:1; fill:grey; " points="114,60 117,55 117,65 114,60 "  />
</g>
<g id="a68_0013"  >
<polygon style="stroke:black; stroke-width:1; fill:grey; " points="114,60 119,55 123,55 123,65 119,65 114,60 "  />
</g>
<g id="a68_0014"  >
<polygon style="stroke:black; stroke-width:1; fill:grey; " points="124,65 125,65 130,60 125,55 124,55 124,65 "  />
</g>
<g id="a68_0015"  >
<polygon style="stroke:black; stroke-width:1; fill:grey; " points="131,60 132,55 132,65 131,60 "  />
</g>
<g id="a68_0016"  >
<polygon style="stroke:black; stroke-width:1; fill:grey; " points="142,60 142,55 142,65 142,60 "  />
</g>
<g id="a68_0017"  >
<polygon style="stroke:black; stroke-width:1; fill:grey; " points="166,60 166,55 166,65 166,60 "  />
</g>
<g id="a68_0018"  >
<polygon style="stroke:black; stroke-width:1; fill:grey; " points="167,65 168,60 167,55 167,65 "  />
</g>
<g id="a68_0019"  >
<polygon style="stroke:black; stroke-width:1; fill:grey; " points="181,60 182,55 182,65 181,60 "  />
</g>
<g id="a68_0020"  >
<polygon style="stroke:black; stroke-width:1; fill:grey; " points="192,65 193,65 198,60 193,55 192,55 192,65 "  />
</g>
<g id="a68_0021"  >
<polygon style="stroke:black; stroke-width:1; fill:grey; " points="201,60 202,55 202,65 201,60 "  />
</g>
<g id="a68_0022"  >
<polygon style="stroke:black; stroke-width:1; fill:grey; " points="202,65 204,60 202,55 202,65 "  />
</g>
<g id="a68_0023"  >
<polygon style="stroke:black; stroke-width:1; fill:grey; " points="230,60 234,55 234,65 230,60 "  />
</g>
<g id="a68_0024"  >
<polygon style="stroke:black; stroke-width:1; fill:grey; " points="257,65 260,65 265,60 260,55 257,55 257,65 "  />
</g>
<g id="a68_0025"  >
<polygon style="stroke:black; stroke-width:1; fill:grey; " points="267,65 268,60 267,55 267,65 "  />
</g>
<g id="a68_0026"  >
<polygon style="stroke:black; stroke-width:1; fill:grey; " points="282,60 287,55 288,55 288,65 287,65 282,60 "  />
</g>
<g id="a68_0027"  >
<polygon style="stroke:black; stroke-width:1; fill:grey; " points="311,65 314,60 311,55 311,65 "  />
</g>
<g id="a68_0028"  >
<polygon style="stroke:black; stroke-width:1; fill:grey; " points="315,60 316,55 316,65 315,60 "  />
</g>
<g id="a68_0029"  >
<polygon style="stroke:black; stroke-width:1; fill:grey; " points="320,65 321,60 320,55 320,65 "  />
</g>
<g id="a68_0030"  >
<polygon style="stroke:black; stroke-width:1; fill:grey; " points="326,65 343,65 348,60 343,55 326,55 326,65 "  />
</g>
<g id="a68_0031"  >
<polygon style="stroke:black; stroke-width:1; fill:grey; " points="326,65 344,65 349,60 344,55 326,55 326,65 "  />
</g>
<g id="a68_0032"  >
<polygon style="stroke:black; stroke-width:1; fill:grey; " points="326,65 346,65 351,60 346,55 326,55 326,65 "  />
</g>
<g id="a68_0033"  >
<polygon style="stroke:black; stroke-width:1; fill:grey; " points="355,60 360,55 367,55 367,65 360,65 355,60 "  />
</g>
<g id="a68_0034"  >
<polygon style="stroke:black; stroke-width:1; fill:#810E15; " points="372,60 374,55 374,65 372,60 "  />
</g>
<g id="a68_0035"  >
<polygon style="stroke:black; stroke-width:1; fill:#810E15; " points="395,60 399,55 399,65 395,60 "  />
</g>
<g id="a68_0036"  >
<polygon style="stroke:black; stroke-width:1; fill:#810E15; " points="421,60 424,55 424,65 421,60 "  />
</g>
<g id="a68_0037"  >
<polygon style="stroke:black; stroke-width:1; fill:grey; " points="430,65 430,65 435,60 430,55 430,55 430,65 "  />
</g>
<g id="a68_0038"  >
<polygon style="stroke:black; stroke-width:1; fill:grey; " points="473,60 474,55 474,65 473,60 "  />
</g>
<g id="a68_0039"  >
<polygon style="stroke:black; stroke-width:1; fill:grey; " points="485,60 489,55 489,65 485,60 "  />
</g>
<g id="a68_0040"  >
<polygon style="stroke:black; stroke-width:1; fill:grey; " points="495,65 495,65 500,60 495,55 495,55 495,65 "  />
</g>
<g id="a68_0041"  >
<polygon style="stroke:black; stroke-width:1; fill:grey; " points="508,60 513,55 516,55 516,65 513,65 508,60 "  />
</g>
<g id="a68_0042"  >
<polygon style="stroke:black; stroke-width:1; fill:grey; " points="508,60 513,55 522,55 522,65 513,65 508,60 "  />
</g>
<g id="a68_0043"  >
<polygon style="stroke:black; stroke-width:1; fill:grey; " points="539,60 539,55 539,65 539,60 "  />
</g>
<g id="a68_0044"  >
<polygon style="stroke:black; stroke-width:1; fill:grey; " points="542,60 543,55 543,65 542,60 "  />
</g>
<g id="a68_0045"  >
<polygon style="stroke:black; stroke-width:1; fill:grey; " points="546,60 548,55 548,65 546,60 "  />
</g>
<g id="a68_0046"  >
<polygon style="stroke:black; stroke-width:1; fill:grey; " points="551,60 551,55 551,65 551,60 "  />
</g>
<g id="a68_0047"  >
<polygon style="stroke:black; stroke-width:1; fill:grey; " points="556,60 557,55 557,65 556,60 "  />
</g>
<g id="a68_0048"  >
<polygon style="stroke:black; stroke-width:1; fill:grey; " points="560,65 564,65 569,60 564,55 560,55 560,65 "  />
</g>
<g id="a68_0049"  >
<polygon style="stroke:black; stroke-width:1; fill:grey; " points="570,60 575,55 575,55 575,65 575,65 570,60 "  />
</g>
<g id="a68_0050"  >
<polygon style="stroke:black; stroke-width:1; fill:grey; " points="585,65 587,60 585,55 585,65 "  />
</g>
<g id="a68_0051"  >
<polygon style="stroke:black; stroke-width:1; fill:grey; " points="592,65 594,60 592,55 592,65 "  />
</g>
<g id="a68_0052"  >
<polygon style="stroke:black; stroke-width:1; fill:grey; " points="604,60 605,55 605,65 604,60 "  />
</g>
<g id="a68_0053"  >
<polygon style="stroke:black; stroke-width:1; fill:grey; " points="614,65 616,60 614,55 614,65 "  />
</g>
<g id="a68_0054"  >
<polygon style="stroke:black; stroke-width:1; fill:grey; " points="635,65 639,60 635,55 635,65 "  />
</g>
<g id="a68_0055"  >
<polygon style="stroke:black; stroke-width:1; fill:grey; " points="644,65 645,65 650,60 645,55 644,55 644,65 "  />
</g>
<g id="a68_0056"  >
<polygon style="stroke:black; stroke-width:1; fill:grey; " points="644,65 645,65 650,60 645,55 644,55 644,65 "  />
</g>
<g id="a68_0057"  >
<polygon style="stroke:black; stroke-width:1; fill:grey; " points="646,65 650,60 646,55 646,65 "  />
</g>
<g id="a68_0058"  >
<polygon style="stroke:black; stroke-width:1; fill:grey; " points="655,60 660,55 661,55 661,65 660,65 655,60 "  />
</g>
<g id="a68_0059"  >
<polygon style="stroke:black; stroke-width:1; fill:grey; " points="663,65 667,60 663,55 663,65 "  />
</g>
<g id="a68_0060"  >
<polygon style="stroke:black; stroke-width:1; fill:grey; " points="668,60 673,55 678,55 678,65 673,65 668,60 "  />
</g>
<g id="a68_0061"  >
<polygon style="stroke:black; stroke-width:1; fill:grey; " points="670,60 675,55 678,55 678,65 675,65 670,60 "  />
</g>
<g id="a68_0062"  >
<polygon style="stroke:black; stroke-width:1; fill:grey; " points="688,60 691,55 691,65 688,60 "  />
</g>
<g id="a68_0063"  >
<polygon style="stroke:black; stroke-width:1; fill:grey; " points="696,60 699,55 699,65 696,60 "  />
</g>
<g id="a68_0064"  >
<polygon style="stroke:black; stroke-width:1; fill:grey; " points="701,60 703,55 703,65 701,60 "  />
</g>
<g id="a68_0065"  >
<polygon style="stroke:black; stroke-width:1; fill:grey; " points="708,65 709,60 708,55 708,65 "  />
</g>
<g id="a68_0066"  >
<polygon style="stroke:black; stroke-width:1; fill:grey; " points="716,60 721,55 721,55 721,65 721,65 716,60 "  />
</g>
<g id="a68_0067"  >
<polygon style="stroke:black; stroke-width:1; fill:grey; " points="754,60 759,55 761,55 761,65 759,65 754,60 "  />
</g>
<g id="a68_0068"  >
<polygon style="stroke:black; stroke-width:1; fill:grey; " points="762,60 762,55 762,65 762,60 "  />
</g>
<g id="a68_0069"  >
<polygon style="stroke:black; stroke-width:1; fill:grey; " points="764,65 764,60 764,55 764,65 "  />
</g>
<g id="a68_0070"  >
<polygon style="stroke:black; stroke-width:1; fill:grey; " points="771,65 771,65 776,60 771,55 771,55 771,65 "  />
</g>
<g id="a68_0071"  >
<polygon style="stroke:black; stroke-width:1; fill:grey; " points="777,65 778,60 777,55 777,65 "  />
</g>
</svg>
