<svg xmlns="http://www.w3.org/2000/svg" height="0" width="768.0" version="1.1" y="0" x="0" preserveAspectRatio="none" xmlns:xlink="http://www.w3.org/1999/xlink" viewBox="0 -30 819.2 0"  >
<g  >
<line y1="60" x2="778.0" style="stroke:grey; stroke-width:2; " x1="10" y2="60"  />
</g>
<g id="a40_000"  >
<polygon style="stroke:black; stroke-width:1; fill:grey; " points="10,65 131,65 136,60 131,55 10,55 10,65 "  />
</g>
<g id="a40_001"  >
<polygon style="stroke:black; stroke-width:1; fill:grey; " points="10,65 131,65 136,60 131,55 10,55 10,65 "  />
</g>
<g id="a40_002"  >
<polygon style="stroke:black; stroke-width:1; fill:#810E15; " points="145,60 150,55 159,55 159,65 150,65 145,60 "  />
</g>
<g id="a40_003"  >
<polygon style="stroke:black; stroke-width:1; fill:grey; " points="171,60 176,55 202,55 202,65 176,65 171,60 "  />
</g>
<g id="a40_004"  >
<polygon style="stroke:black; stroke-width:1; fill:#810E15; " points="233,65 267,65 272,60 267,55 233,55 233,65 "  />
</g>
<g id="a40_005"  >
<polygon style="stroke:black; stroke-width:1; fill:#810E15; " points="305,60 310,55 337,55 337,65 310,65 305,60 "  />
</g>
<g id="a40_006"  >
<polygon style="stroke:black; stroke-width:1; fill:grey; " points="520,65 524,65 529,60 524,55 520,55 520,65 "  />
</g>
<g id="a40_007"  >
<polygon style="stroke:black; stroke-width:1; fill:#810E15; " points="668,60 673,55 686,55 686,65 673,65 668,60 "  />
</g>
<g id="a40_008"  >
<polygon style="stroke:black; stroke-width:1; fill:grey; " points="699,60 701,55 701,65 699,60 "  />
</g>
<g id="a40_009"  >
<polygon style="stroke:black; stroke-width:1; fill:grey; " points="762,65 773,65 778,60 773,55 762,55 762,65 "  />
</g>
</svg>
