<svg xmlns="http://www.w3.org/2000/svg" height="0" width="768.0" version="1.1" y="0" x="0" preserveAspectRatio="none" xmlns:xlink="http://www.w3.org/1999/xlink" viewBox="0 -30 819.2 0"  >
<g  >
<line y1="60" x2="778.0" style="stroke:grey; stroke-width:2; " x1="10" y2="60"  />
</g>
<g id="a21_000"  >
<polygon style="stroke:black; stroke-width:1; fill:grey; " points="10,60 15,55 15,55 15,65 15,65 10,60 "  />
</g>
<g id="a21_001"  >
<polygon style="stroke:black; stroke-width:1; fill:grey; " points="20,60 25,55 30,55 30,65 25,65 20,60 "  />
</g>
<g id="a21_002"  >
<polygon style="stroke:black; stroke-width:1; fill:grey; " points="32,60 33,55 33,65 32,60 "  />
</g>
<g id="a21_003"  >
<polygon style="stroke:black; stroke-width:1; fill:#810E15; " points="40,65 42,65 47,60 42,55 40,55 40,65 "  />
</g>
<g id="a21_004"  >
<polygon style="stroke:black; stroke-width:1; fill:grey; " points="70,65 70,60 70,55 70,65 "  />
</g>
<g id="a21_005"  >
<polygon style="stroke:black; stroke-width:1; fill:grey; " points="78,65 99,65 104,60 99,55 78,55 78,65 "  />
</g>
<g id="a21_006"  >
<polygon style="stroke:black; stroke-width:1; fill:#810E15; " points="112,65 116,60 112,55 112,65 "  />
</g>
<g id="a21_007"  >
<polygon style="stroke:black; stroke-width:1; fill:grey; " points="117,60 122,55 127,55 127,65 122,65 117,60 "  />
</g>
<g id="a21_008"  >
<polygon style="stroke:black; stroke-width:1; fill:grey; " points="132,60 137,55 139,55 139,65 137,65 132,60 "  />
</g>
<g id="a21_009"  >
<polygon style="stroke:black; stroke-width:1; fill:grey; " points="154,65 155,65 160,60 155,55 154,55 154,65 "  />
</g>
<g id="a21_0010"  >
<polygon style="stroke:black; stroke-width:1; fill:grey; " points="162,60 165,55 165,65 162,60 "  />
</g>
<g id="a21_0011"  >
<polygon style="stroke:black; stroke-width:1; fill:#810E15; " points="191,65 194,65 199,60 194,55 191,55 191,65 "  />
</g>
<g id="a21_0012"  >
<polygon style="stroke:black; stroke-width:1; fill:grey; " points="224,65 229,65 234,60 229,55 224,55 224,65 "  />
</g>
<g id="a21_0013"  >
<polygon style="stroke:black; stroke-width:1; fill:#810E15; " points="224,65 231,65 236,60 231,55 224,55 224,65 "  />
</g>
<g id="a21_0014"  >
<polygon style="stroke:black; stroke-width:1; fill:#810E15; " points="237,60 242,55 246,55 246,65 242,65 237,60 "  />
</g>
<g id="a21_0015"  >
<polygon style="stroke:black; stroke-width:1; fill:#810E15; " points="260,60 265,55 267,55 267,65 265,65 260,60 "  />
</g>
<g id="a21_0016"  >
<polygon style="stroke:black; stroke-width:1; fill:#810E15; " points="304,60 309,55 318,55 318,65 309,65 304,60 "  />
</g>
<g id="a21_0017"  >
<polygon style="stroke:black; stroke-width:1; fill:grey; " points="332,65 345,65 350,60 345,55 332,55 332,65 "  />
</g>
<g id="a21_0018"  >
<polygon style="stroke:black; stroke-width:1; fill:#810E15; " points="351,60 356,55 356,55 356,65 356,65 351,60 "  />
</g>
<g id="a21_0019"  >
<polygon style="stroke:black; stroke-width:1; fill:#810E15; " points="495,65 497,65 502,60 497,55 495,55 495,65 "  />
</g>
<g id="a21_0020"  >
<polygon style="stroke:black; stroke-width:1; fill:grey; " points="503,60 507,55 507,65 503,60 "  />
</g>
<g id="a21_0021"  >
<polygon style="stroke:black; stroke-width:1; fill:#810E15; " points="523,60 525,55 525,65 523,60 "  />
</g>
<g id="a21_0022"  >
<polygon style="stroke:black; stroke-width:1; fill:#810E15; " points="537,60 538,55 538,65 537,60 "  />
</g>
<g id="a21_0023"  >
<polygon style="stroke:black; stroke-width:1; fill:grey; " points="560,65 561,60 560,55 560,65 "  />
</g>
<g id="a21_0024"  >
<polygon style="stroke:black; stroke-width:1; fill:#810E15; " points="564,60 569,55 573,55 573,65 569,65 564,60 "  />
</g>
<g id="a21_0025"  >
<polygon style="stroke:black; stroke-width:1; fill:#810E15; " points="627,65 630,65 635,60 630,55 627,55 627,65 "  />
</g>
<g id="a21_0026"  >
<polygon style="stroke:black; stroke-width:1; fill:grey; " points="636,60 639,55 639,65 636,60 "  />
</g>
<g id="a21_0027"  >
<polygon style="stroke:black; stroke-width:1; fill:grey; " points="644,60 647,55 647,65 644,60 "  />
</g>
<g id="a21_0028"  >
<polygon style="stroke:black; stroke-width:1; fill:grey; " points="644,60 647,55 647,65 644,60 "  />
</g>
<g id="a21_0029"  >
<polygon style="stroke:black; stroke-width:1; fill:grey; " points="656,60 657,55 657,65 656,60 "  />
</g>
<g id="a21_0030"  >
<polygon style="stroke:black; stroke-width:1; fill:#810E15; " points="665,60 670,55 672,55 672,65 670,65 665,60 "  />
</g>
<g id="a21_0031"  >
<polygon style="stroke:black; stroke-width:1; fill:#810E15; " points="675,60 680,55 682,55 682,65 680,65 675,60 "  />
</g>
<g id="a21_0032"  >
<polygon style="stroke:black; stroke-width:1; fill:#810E15; " points="690,60 695,55 697,55 697,65 695,65 690,60 "  />
</g>
<g id="a21_0033"  >
<polygon style="stroke:black; stroke-width:1; fill:#810E15; " points="706,60 711,55 712,55 712,65 711,65 706,60 "  />
</g>
<g id="a21_0034"  >
<polygon style="stroke:black; stroke-width:1; fill:grey; " points="719,65 720,60 719,55 719,65 "  />
</g>
<g id="a21_0035"  >
<polygon style="stroke:black; stroke-width:1; fill:#810E15; " points="721,60 726,55 728,55 728,65 726,65 721,60 "  />
</g>
<g id="a21_0036"  >
<polygon style="stroke:black; stroke-width:1; fill:#810E15; " points="735,60 740,55 741,55 741,65 740,65 735,60 "  />
</g>
<g id="a21_0037"  >
<polygon style="stroke:black; stroke-width:1; fill:grey; " points="746,65 752,65 757,60 752,55 746,55 746,65 "  />
</g>
<g id="a21_0038"  >
<polygon style="stroke:black; stroke-width:1; fill:grey; " points="761,65 763,65 768,60 763,55 761,55 761,65 "  />
</g>
<g id="a21_0039"  >
<polygon style="stroke:black; stroke-width:1; fill:grey; " points="769,65 770,60 769,55 769,65 "  />
</g>
<g id="a21_0040"  >
<polygon style="stroke:black; stroke-width:1; fill:grey; " points="772,65 773,65 778,60 773,55 772,55 772,65 "  />
</g>
</svg>
