<svg xmlns="http://www.w3.org/2000/svg" height="0" width="768.0" version="1.1" y="0" x="0" preserveAspectRatio="none" xmlns:xlink="http://www.w3.org/1999/xlink" viewBox="0 -30 819.2 0"  >
<g  >
<line y1="60" x2="778.0" style="stroke:grey; stroke-width:2; " x1="10" y2="60"  />
</g>
<g id="a53_000"  >
<polygon style="stroke:black; stroke-width:1; fill:grey; " points="10,60 15,55 64,55 64,65 15,65 10,60 "  />
</g>
<g id="a53_001"  >
<polygon style="stroke:black; stroke-width:1; fill:grey; " points="17,60 22,55 64,55 64,65 22,65 17,60 "  />
</g>
<g id="a53_002"  >
<polygon style="stroke:black; stroke-width:1; fill:#810E15; " points="140,60 145,55 148,55 148,65 145,65 140,60 "  />
</g>
<g id="a53_003"  >
<polygon style="stroke:black; stroke-width:1; fill:grey; " points="190,60 191,55 191,65 190,60 "  />
</g>
<g id="a53_004"  >
<polygon style="stroke:black; stroke-width:1; fill:grey; " points="270,65 270,65 275,60 270,55 270,55 270,65 "  />
</g>
<g id="a53_005"  >
<polygon style="stroke:black; stroke-width:1; fill:grey; " points="317,65 319,60 317,55 317,65 "  />
</g>
<g id="a53_006"  >
<polygon style="stroke:black; stroke-width:1; fill:grey; " points="464,60 469,55 473,55 473,65 469,65 464,60 "  />
</g>
<g id="a53_007"  >
<polygon style="stroke:black; stroke-width:1; fill:grey; " points="489,65 522,65 527,60 522,55 489,55 489,65 "  />
</g>
<g id="a53_008"  >
<polygon style="stroke:black; stroke-width:1; fill:grey; " points="530,65 532,60 530,55 530,65 "  />
</g>
<g id="a53_009"  >
<polygon style="stroke:black; stroke-width:1; fill:grey; " points="553,65 570,65 575,60 570,55 553,55 553,65 "  />
</g>
<g id="a53_0010"  >
<polygon style="stroke:black; stroke-width:1; fill:#810E15; " points="588,65 615,65 620,60 615,55 588,55 588,65 "  />
</g>
<g id="a53_0011"  >
<polygon style="stroke:black; stroke-width:1; fill:#810E15; " points="626,60 631,55 638,55 638,65 631,65 626,60 "  />
</g>
<g id="a53_0012"  >
<polygon style="stroke:black; stroke-width:1; fill:#810E15; " points="665,60 670,55 677,55 677,65 670,65 665,60 "  />
</g>
<g id="a53_0013"  >
<polygon style="stroke:black; stroke-width:1; fill:grey; " points="702,60 707,55 709,55 709,65 707,65 702,60 "  />
</g>
<g id="a53_0014"  >
<polygon style="stroke:black; stroke-width:1; fill:grey; " points="773,65 773,65 778,60 773,55 773,55 773,65 "  />
</g>
</svg>
