<svg xmlns="http://www.w3.org/2000/svg" height="0" width="768.0" version="1.1" y="0" x="0" preserveAspectRatio="none" xmlns:xlink="http://www.w3.org/1999/xlink" viewBox="0 -30 819.2 0"  >
<g  >
<line y1="60" x2="778.0" style="stroke:grey; stroke-width:2; " x1="10" y2="60"  />
</g>
<g id="a10_000"  >
<polygon style="stroke:black; stroke-width:1; fill:grey; " points="10,65 66,65 71,60 66,55 10,55 10,65 "  />
</g>
<g id="a10_001"  >
<polygon style="stroke:black; stroke-width:1; fill:grey; " points="85,65 89,65 94,60 89,55 85,55 85,65 "  />
</g>
<g id="a10_002"  >
<polygon style="stroke:black; stroke-width:1; fill:#810E15; " points="107,60 112,55 147,55 147,65 112,65 107,60 "  />
</g>
<g id="a10_003"  >
<polygon style="stroke:black; stroke-width:1; fill:grey; " points="124,60 129,55 147,55 147,65 129,65 124,60 "  />
</g>
<g id="a10_004"  >
<polygon style="stroke:black; stroke-width:1; fill:grey; " points="127,60 132,55 147,55 147,65 132,65 127,60 "  />
</g>
<g id="a10_005"  >
<polygon style="stroke:black; stroke-width:1; fill:grey; " points="128,60 133,55 147,55 147,65 133,65 128,60 "  />
</g>
<g id="a10_006"  >
<polygon style="stroke:black; stroke-width:1; fill:grey; " points="210,65 284,65 289,60 284,55 210,55 210,65 "  />
</g>
<g id="a10_007"  >
<polygon style="stroke:black; stroke-width:1; fill:grey; " points="210,65 284,65 289,60 284,55 210,55 210,65 "  />
</g>
<g id="a10_008"  >
<polygon style="stroke:black; stroke-width:1; fill:grey; " points="291,65 292,65 297,60 292,55 291,55 291,65 "  />
</g>
<g id="a10_009"  >
<polygon style="stroke:black; stroke-width:1; fill:grey; " points="387,65 401,65 406,60 401,55 387,55 387,65 "  />
</g>
<g id="a10_0010"  >
<polygon style="stroke:black; stroke-width:1; fill:#810E15; " points="509,65 527,65 532,60 527,55 509,55 509,65 "  />
</g>
<g id="a10_0011"  >
<polygon style="stroke:black; stroke-width:1; fill:grey; " points="540,65 567,65 572,60 567,55 540,55 540,65 "  />
</g>
<g id="a10_0012"  >
<polygon style="stroke:black; stroke-width:1; fill:grey; " points="616,60 621,55 627,55 627,65 621,65 616,60 "  />
</g>
<g id="a10_0013"  >
<polygon style="stroke:black; stroke-width:1; fill:grey; " points="633,65 707,65 712,60 707,55 633,55 633,65 "  />
</g>
<g id="a10_0014"  >
<polygon style="stroke:black; stroke-width:1; fill:#810E15; " points="766,60 771,55 778,55 778,65 771,65 766,60 "  />
</g>
</svg>
