<svg xmlns="http://www.w3.org/2000/svg" height="0" width="768.0" version="1.1" y="0" x="0" preserveAspectRatio="none" xmlns:xlink="http://www.w3.org/1999/xlink" viewBox="0 -30 819.2 0"  >
<g  >
<line y1="60" x2="778.0" style="stroke:grey; stroke-width:2; " x1="10" y2="60"  />
</g>
<g id="a52_000"  >
<polygon style="stroke:black; stroke-width:1; fill:grey; " points="10,65 13,60 10,55 10,65 "  />
</g>
<g id="a52_001"  >
<polygon style="stroke:black; stroke-width:1; fill:grey; " points="22,65 23,60 22,55 22,65 "  />
</g>
<g id="a52_002"  >
<polygon style="stroke:black; stroke-width:1; fill:grey; " points="31,60 33,55 33,65 31,60 "  />
</g>
<g id="a52_003"  >
<polygon style="stroke:black; stroke-width:1; fill:#810E15; " points="37,60 42,55 44,55 44,65 42,65 37,60 "  />
</g>
<g id="a52_004"  >
<polygon style="stroke:black; stroke-width:1; fill:grey; " points="46,60 51,55 54,55 54,65 51,65 46,60 "  />
</g>
<g id="a52_005"  >
<polygon style="stroke:black; stroke-width:1; fill:#810E15; " points="60,60 65,55 76,55 76,65 65,65 60,60 "  />
</g>
<g id="a52_006"  >
<polygon style="stroke:black; stroke-width:1; fill:grey; " points="84,65 86,60 84,55 84,65 "  />
</g>
<g id="a52_007"  >
<polygon style="stroke:black; stroke-width:1; fill:#810E15; " points="95,65 95,65 100,60 95,55 95,55 95,65 "  />
</g>
<g id="a52_008"  >
<polygon style="stroke:black; stroke-width:1; fill:grey; " points="110,65 111,60 110,55 110,65 "  />
</g>
<g id="a52_009"  >
<polygon style="stroke:black; stroke-width:1; fill:grey; " points="120,65 120,60 120,55 120,65 "  />
</g>
<g id="a52_0010"  >
<polygon style="stroke:black; stroke-width:1; fill:#810E15; " points="132,60 137,55 162,55 162,65 137,65 132,60 "  />
</g>
<g id="a52_0011"  >
<polygon style="stroke:black; stroke-width:1; fill:grey; " points="164,60 165,55 165,65 164,60 "  />
</g>
<g id="a52_0012"  >
<polygon style="stroke:black; stroke-width:1; fill:#810E15; " points="178,60 183,55 217,55 217,65 183,65 178,60 "  />
</g>
<g id="a52_0013"  >
<polygon style="stroke:black; stroke-width:1; fill:grey; " points="294,60 295,55 295,65 294,60 "  />
</g>
<g id="a52_0014"  >
<polygon style="stroke:black; stroke-width:1; fill:#810E15; " points="303,65 316,65 321,60 316,55 303,55 303,65 "  />
</g>
<g id="a52_0015"  >
<polygon style="stroke:black; stroke-width:1; fill:#810E15; " points="342,60 345,55 345,65 342,60 "  />
</g>
<g id="a52_0016"  >
<polygon style="stroke:black; stroke-width:1; fill:#810E15; " points="362,60 365,55 365,65 362,60 "  />
</g>
<g id="a52_0017"  >
<polygon style="stroke:black; stroke-width:1; fill:grey; " points="375,65 378,60 375,55 375,65 "  />
</g>
<g id="a52_0018"  >
<polygon style="stroke:black; stroke-width:1; fill:grey; " points="389,60 390,55 390,65 389,60 "  />
</g>
<g id="a52_0019"  >
<polygon style="stroke:black; stroke-width:1; fill:#810E15; " points="394,65 395,60 394,55 394,65 "  />
</g>
<g id="a52_0020"  >
<polygon style="stroke:black; stroke-width:1; fill:#810E15; " points="398,65 401,60 398,55 398,65 "  />
</g>
<g id="a52_0021"  >
<polygon style="stroke:black; stroke-width:1; fill:grey; " points="409,60 411,55 411,65 409,60 "  />
</g>
<g id="a52_0022"  >
<polygon style="stroke:black; stroke-width:1; fill:grey; " points="421,65 422,60 421,55 421,65 "  />
</g>
<g id="a52_0023"  >
<polygon style="stroke:black; stroke-width:1; fill:#810E15; " points="431,65 433,60 431,55 431,65 "  />
</g>
<g id="a52_0024"  >
<polygon style="stroke:black; stroke-width:1; fill:#810E15; " points="597,65 599,60 597,55 597,65 "  />
</g>
<g id="a52_0025"  >
<polygon style="stroke:black; stroke-width:1; fill:grey; " points="603,60 603,55 603,65 603,60 "  />
</g>
<g id="a52_0026"  >
<polygon style="stroke:black; stroke-width:1; fill:grey; " points="627,65 628,60 627,55 627,65 "  />
</g>
<g id="a52_0027"  >
<polygon style="stroke:black; stroke-width:1; fill:#810E15; " points="631,65 635,60 631,55 631,65 "  />
</g>
<g id="a52_0028"  >
<polygon style="stroke:black; stroke-width:1; fill:grey; " points="655,65 660,65 665,60 660,55 655,55 655,65 "  />
</g>
<g id="a52_0029"  >
<polygon style="stroke:black; stroke-width:1; fill:grey; " points="668,65 669,60 668,55 668,65 "  />
</g>
<g id="a52_0030"  >
<polygon style="stroke:black; stroke-width:1; fill:grey; " points="671,65 674,60 671,55 671,65 "  />
</g>
<g id="a52_0031"  >
<polygon style="stroke:black; stroke-width:1; fill:grey; " points="696,60 697,55 697,65 696,60 "  />
</g>
<g id="a52_0032"  >
<polygon style="stroke:black; stroke-width:1; fill:grey; " points="734,65 735,60 734,55 734,65 "  />
</g>
<g id="a52_0033"  >
<polygon style="stroke:black; stroke-width:1; fill:grey; " points="738,65 738,65 743,60 738,55 738,55 738,65 "  />
</g>
<g id="a52_0034"  >
<polygon style="stroke:black; stroke-width:1; fill:grey; " points="762,60 763,55 763,65 762,60 "  />
</g>
<g id="a52_0035"  >
<polygon style="stroke:black; stroke-width:1; fill:#810E15; " points="769,60 771,55 771,65 769,60 "  />
</g>
<g id="a52_0036"  >
<polygon style="stroke:black; stroke-width:1; fill:grey; " points="775,60 778,55 778,65 775,60 "  />
</g>
</svg>
