<svg xmlns="http://www.w3.org/2000/svg" height="0" width="768.0" version="1.1" y="0" x="0" preserveAspectRatio="none" xmlns:xlink="http://www.w3.org/1999/xlink" viewBox="0 -30 819.2 0"  >
<g  >
<line y1="60" x2="778.0" style="stroke:grey; stroke-width:2; " x1="10" y2="60"  />
</g>
<g id="a55_000"  >
<polygon style="stroke:black; stroke-width:1; fill:grey; " points="10,60 15,55 30,55 30,65 15,65 10,60 "  />
</g>
<g id="a55_001"  >
<polygon style="stroke:black; stroke-width:1; fill:grey; " points="35,60 40,55 44,55 44,65 40,65 35,60 "  />
</g>
<g id="a55_002"  >
<polygon style="stroke:black; stroke-width:1; fill:grey; " points="49,65 51,60 49,55 49,65 "  />
</g>
<g id="a55_003"  >
<polygon style="stroke:black; stroke-width:1; fill:#810E15; " points="64,60 69,55 93,55 93,65 69,65 64,60 "  />
</g>
<g id="a55_004"  >
<polygon style="stroke:black; stroke-width:1; fill:#810E15; " points="136,60 141,55 156,55 156,65 141,65 136,60 "  />
</g>
<g id="a55_005"  >
<polygon style="stroke:black; stroke-width:1; fill:grey; " points="170,60 175,55 210,55 210,65 175,65 170,60 "  />
</g>
<g id="a55_006"  >
<polygon style="stroke:black; stroke-width:1; fill:grey; " points="170,60 175,55 217,55 217,65 175,65 170,60 "  />
</g>
<g id="a55_007"  >
<polygon style="stroke:black; stroke-width:1; fill:grey; " points="239,60 244,55 250,55 250,65 244,65 239,60 "  />
</g>
<g id="a55_008"  >
<polygon style="stroke:black; stroke-width:1; fill:grey; " points="257,60 262,55 280,55 280,65 262,65 257,60 "  />
</g>
<g id="a55_009"  >
<polygon style="stroke:black; stroke-width:1; fill:grey; " points="288,60 293,55 303,55 303,65 293,65 288,60 "  />
</g>
<g id="a55_0010"  >
<polygon style="stroke:black; stroke-width:1; fill:grey; " points="317,60 322,55 327,55 327,65 322,65 317,60 "  />
</g>
<g id="a55_0011"  >
<polygon style="stroke:black; stroke-width:1; fill:grey; " points="338,60 342,55 342,65 338,60 "  />
</g>
<g id="a55_0012"  >
<polygon style="stroke:black; stroke-width:1; fill:grey; " points="361,60 366,55 382,55 382,65 366,65 361,60 "  />
</g>
<g id="a55_0013"  >
<polygon style="stroke:black; stroke-width:1; fill:#810E15; " points="484,60 489,55 504,55 504,65 489,65 484,60 "  />
</g>
<g id="a55_0014"  >
<polygon style="stroke:black; stroke-width:1; fill:#810E15; " points="650,65 684,65 689,60 684,55 650,55 650,65 "  />
</g>
<g id="a55_0015"  >
<polygon style="stroke:black; stroke-width:1; fill:grey; " points="702,60 707,55 729,55 729,65 707,65 702,60 "  />
</g>
<g id="a55_0016"  >
<polygon style="stroke:black; stroke-width:1; fill:grey; " points="750,65 768,65 773,60 768,55 750,55 750,65 "  />
</g>
<g id="a55_0017"  >
<polygon style="stroke:black; stroke-width:1; fill:grey; " points="750,65 773,65 778,60 773,55 750,55 750,65 "  />
</g>
</svg>
