<svg xmlns="http://www.w3.org/2000/svg" height="0" width="768.0" version="1.1" y="0" x="0" preserveAspectRatio="none" xmlns:xlink="http://www.w3.org/1999/xlink" viewBox="0 -30 819.2 0"  >
<g  >
<line y1="60" x2="778.0" style="stroke:grey; stroke-width:2; " x1="10" y2="60"  />
</g>
<g id="a16_000"  >
<polygon style="stroke:black; stroke-width:1; fill:grey; " points="10,65 12,60 10,55 10,65 "  />
</g>
<g id="a16_001"  >
<polygon style="stroke:black; stroke-width:1; fill:grey; " points="53,60 57,55 57,65 53,60 "  />
</g>
<g id="a16_002"  >
<polygon style="stroke:black; stroke-width:1; fill:#810E15; " points="76,65 93,65 98,60 93,55 76,55 76,65 "  />
</g>
<g id="a16_003"  >
<polygon style="stroke:black; stroke-width:1; fill:#810E15; " points="230,60 235,55 245,55 245,65 235,65 230,60 "  />
</g>
<g id="a16_004"  >
<polygon style="stroke:black; stroke-width:1; fill:#810E15; " points="259,60 264,55 310,55 310,65 264,65 259,60 "  />
</g>
<g id="a16_005"  >
<polygon style="stroke:black; stroke-width:1; fill:grey; " points="347,60 352,55 382,55 382,65 352,65 347,60 "  />
</g>
<g id="a16_006"  >
<polygon style="stroke:black; stroke-width:1; fill:grey; " points="404,60 409,55 418,55 418,65 409,65 404,60 "  />
</g>
<g id="a16_007"  >
<polygon style="stroke:black; stroke-width:1; fill:grey; " points="461,65 471,65 476,60 471,55 461,55 461,65 "  />
</g>
<g id="a16_008"  >
<polygon style="stroke:black; stroke-width:1; fill:grey; " points="479,60 481,55 481,65 479,60 "  />
</g>
<g id="a16_009"  >
<polygon style="stroke:black; stroke-width:1; fill:grey; " points="503,65 510,65 515,60 510,55 503,55 503,65 "  />
</g>
<g id="a16_0010"  >
<polygon style="stroke:black; stroke-width:1; fill:grey; " points="541,60 546,55 572,55 572,65 546,65 541,60 "  />
</g>
<g id="a16_0011"  >
<polygon style="stroke:black; stroke-width:1; fill:grey; " points="541,60 546,55 572,55 572,65 546,65 541,60 "  />
</g>
<g id="a16_0012"  >
<polygon style="stroke:black; stroke-width:1; fill:#810E15; " points="541,60 546,55 572,55 572,65 546,65 541,60 "  />
</g>
<g id="a16_0013"  >
<polygon style="stroke:black; stroke-width:1; fill:grey; " points="621,60 623,55 623,65 621,60 "  />
</g>
<g id="a16_0014"  >
<polygon style="stroke:black; stroke-width:1; fill:#810E15; " points="664,60 669,55 688,55 688,65 669,65 664,60 "  />
</g>
<g id="a16_0015"  >
<polygon style="stroke:black; stroke-width:1; fill:grey; " points="753,65 773,65 778,60 773,55 753,55 753,65 "  />
</g>
</svg>
