<svg xmlns="http://www.w3.org/2000/svg" height="0" width="768.0" version="1.1" y="0" x="0" preserveAspectRatio="none" xmlns:xlink="http://www.w3.org/1999/xlink" viewBox="0 -30 819.2 0"  >
<g  >
<line y1="60" x2="778.0" style="stroke:grey; stroke-width:2; " x1="10" y2="60"  />
</g>
<g id="a37_000"  >
<polygon style="stroke:black; stroke-width:1; fill:grey; " points="10,60 11,55 11,65 10,60 "  />
</g>
<g id="a37_001"  >
<polygon style="stroke:black; stroke-width:1; fill:grey; " points="14,65 15,60 14,55 14,65 "  />
</g>
<g id="a37_002"  >
<polygon style="stroke:black; stroke-width:1; fill:grey; " points="36,65 47,65 52,60 47,55 36,55 36,65 "  />
</g>
<g id="a37_003"  >
<polygon style="stroke:black; stroke-width:1; fill:grey; " points="39,65 47,65 52,60 47,55 39,55 39,65 "  />
</g>
<g id="a37_004"  >
<polygon style="stroke:black; stroke-width:1; fill:grey; " points="57,65 59,65 64,60 59,55 57,55 57,65 "  />
</g>
<g id="a37_005"  >
<polygon style="stroke:black; stroke-width:1; fill:grey; " points="65,65 66,60 65,55 65,65 "  />
</g>
<g id="a37_006"  >
<polygon style="stroke:black; stroke-width:1; fill:grey; " points="79,60 84,55 85,55 85,65 84,65 79,60 "  />
</g>
<g id="a37_007"  >
<polygon style="stroke:black; stroke-width:1; fill:grey; " points="119,65 120,60 119,55 119,65 "  />
</g>
<g id="a37_008"  >
<polygon style="stroke:black; stroke-width:1; fill:grey; " points="126,65 128,65 133,60 128,55 126,55 126,65 "  />
</g>
<g id="a37_009"  >
<polygon style="stroke:black; stroke-width:1; fill:grey; " points="148,60 153,55 154,55 154,65 153,65 148,60 "  />
</g>
<g id="a37_0010"  >
<polygon style="stroke:black; stroke-width:1; fill:grey; " points="209,65 211,65 216,60 211,55 209,55 209,65 "  />
</g>
<g id="a37_0011"  >
<polygon style="stroke:black; stroke-width:1; fill:grey; " points="222,60 224,55 224,65 222,60 "  />
</g>
<g id="a37_0012"  >
<polygon style="stroke:black; stroke-width:1; fill:grey; " points="249,65 251,60 249,55 249,65 "  />
</g>
<g id="a37_0013"  >
<polygon style="stroke:black; stroke-width:1; fill:grey; " points="263,65 266,60 263,55 263,65 "  />
</g>
<g id="a37_0014"  >
<polygon style="stroke:black; stroke-width:1; fill:grey; " points="276,65 279,60 276,55 276,65 "  />
</g>
<g id="a37_0015"  >
<polygon style="stroke:black; stroke-width:1; fill:grey; " points="288,60 293,55 296,55 296,65 293,65 288,60 "  />
</g>
<g id="a37_0016"  >
<polygon style="stroke:black; stroke-width:1; fill:grey; " points="309,60 314,55 317,55 317,65 314,65 309,60 "  />
</g>
<g id="a37_0017"  >
<polygon style="stroke:black; stroke-width:1; fill:grey; " points="323,60 328,55 329,55 329,65 328,65 323,60 "  />
</g>
<g id="a37_0018"  >
<polygon style="stroke:black; stroke-width:1; fill:grey; " points="341,65 343,60 341,55 341,65 "  />
</g>
<g id="a37_0019"  >
<polygon style="stroke:black; stroke-width:1; fill:grey; " points="348,65 351,60 348,55 348,65 "  />
</g>
<g id="a37_0020"  >
<polygon style="stroke:black; stroke-width:1; fill:grey; " points="351,60 356,55 357,55 357,65 356,65 351,60 "  />
</g>
<g id="a37_0021"  >
<polygon style="stroke:black; stroke-width:1; fill:grey; " points="372,65 376,60 372,55 372,65 "  />
</g>
<g id="a37_0022"  >
<polygon style="stroke:black; stroke-width:1; fill:grey; " points="383,65 386,60 383,55 383,65 "  />
</g>
<g id="a37_0023"  >
<polygon style="stroke:black; stroke-width:1; fill:grey; " points="396,65 396,65 401,60 396,55 396,55 396,65 "  />
</g>
<g id="a37_0024"  >
<polygon style="stroke:black; stroke-width:1; fill:#810E15; " points="407,65 409,60 407,55 407,65 "  />
</g>
<g id="a37_0025"  >
<polygon style="stroke:black; stroke-width:1; fill:grey; " points="418,60 419,55 419,65 418,60 "  />
</g>
<g id="a37_0026"  >
<polygon style="stroke:black; stroke-width:1; fill:grey; " points="462,65 464,65 469,60 464,55 462,55 462,65 "  />
</g>
<g id="a37_0027"  >
<polygon style="stroke:black; stroke-width:1; fill:grey; " points="503,65 514,65 519,60 514,55 503,55 503,65 "  />
</g>
<g id="a37_0028"  >
<polygon style="stroke:black; stroke-width:1; fill:grey; " points="504,65 515,65 520,60 515,55 504,55 504,65 "  />
</g>
<g id="a37_0029"  >
<polygon style="stroke:black; stroke-width:1; fill:grey; " points="531,60 535,55 535,65 531,60 "  />
</g>
<g id="a37_0030"  >
<polygon style="stroke:black; stroke-width:1; fill:grey; " points="561,60 566,55 566,55 566,65 566,65 561,60 "  />
</g>
<g id="a37_0031"  >
<polygon style="stroke:black; stroke-width:1; fill:grey; " points="650,65 658,65 663,60 658,55 650,55 650,65 "  />
</g>
<g id="a37_0032"  >
<polygon style="stroke:black; stroke-width:1; fill:grey; " points="650,65 661,65 666,60 661,55 650,55 650,65 "  />
</g>
<g id="a37_0033"  >
<polygon style="stroke:black; stroke-width:1; fill:grey; " points="671,60 676,55 680,55 680,65 676,65 671,60 "  />
</g>
<g id="a37_0034"  >
<polygon style="stroke:black; stroke-width:1; fill:grey; " points="703,65 705,60 703,55 703,65 "  />
</g>
<g id="a37_0035"  >
<polygon style="stroke:black; stroke-width:1; fill:grey; " points="708,60 713,55 715,55 715,65 713,65 708,60 "  />
</g>
<g id="a37_0036"  >
<polygon style="stroke:black; stroke-width:1; fill:grey; " points="745,65 747,60 745,55 745,65 "  />
</g>
<g id="a37_0037"  >
<polygon style="stroke:black; stroke-width:1; fill:grey; " points="751,60 756,55 758,55 758,65 756,65 751,60 "  />
</g>
<g id="a37_0038"  >
<polygon style="stroke:black; stroke-width:1; fill:grey; " points="764,60 769,55 778,55 778,65 769,65 764,60 "  />
</g>
</svg>
