<svg xmlns="http://www.w3.org/2000/svg" height="0" width="768.0" version="1.1" y="0" x="0" preserveAspectRatio="none" xmlns:xlink="http://www.w3.org/1999/xlink" viewBox="0 -30 819.2 0"  >
<g  >
<line y1="60" x2="778.0" style="stroke:grey; stroke-width:2; " x1="10" y2="60"  />
</g>
<g id="a67_000"  >
<polygon style="stroke:black; stroke-width:1; fill:grey; " points="10,60 11,55 11,65 10,60 "  />
</g>
<g id="a67_001"  >
<polygon style="stroke:black; stroke-width:1; fill:grey; " points="19,60 20,55 20,65 19,60 "  />
</g>
<g id="a67_002"  >
<polygon style="stroke:black; stroke-width:1; fill:grey; " points="28,60 28,55 28,65 28,60 "  />
</g>
<g id="a67_003"  >
<polygon style="stroke:black; stroke-width:1; fill:grey; " points="32,60 33,55 33,65 32,60 "  />
</g>
<g id="a67_004"  >
<polygon style="stroke:black; stroke-width:1; fill:grey; " points="46,65 48,65 53,60 48,55 46,55 46,65 "  />
</g>
<g id="a67_005"  >
<polygon style="stroke:black; stroke-width:1; fill:grey; " points="46,65 49,65 54,60 49,55 46,55 46,65 "  />
</g>
<g id="a67_006"  >
<polygon style="stroke:black; stroke-width:1; fill:grey; " points="58,60 61,55 61,65 58,60 "  />
</g>
<g id="a67_007"  >
<polygon style="stroke:black; stroke-width:1; fill:grey; " points="69,65 70,65 75,60 70,55 69,55 69,65 "  />
</g>
<g id="a67_008"  >
<polygon style="stroke:black; stroke-width:1; fill:grey; " points="81,65 81,60 81,55 81,65 "  />
</g>
<g id="a67_009"  >
<polygon style="stroke:black; stroke-width:1; fill:grey; " points="83,65 83,65 88,60 83,55 83,55 83,65 "  />
</g>
<g id="a67_0010"  >
<polygon style="stroke:black; stroke-width:1; fill:grey; " points="94,65 100,65 105,60 100,55 94,55 94,65 "  />
</g>
<g id="a67_0011"  >
<polygon style="stroke:black; stroke-width:1; fill:grey; " points="113,60 115,55 115,65 113,60 "  />
</g>
<g id="a67_0012"  >
<polygon style="stroke:black; stroke-width:1; fill:grey; " points="144,60 146,55 146,65 144,60 "  />
</g>
<g id="a67_0013"  >
<polygon style="stroke:black; stroke-width:1; fill:grey; " points="163,60 164,55 164,65 163,60 "  />
</g>
<g id="a67_0014"  >
<polygon style="stroke:black; stroke-width:1; fill:grey; " points="169,60 174,55 175,55 175,65 174,65 169,60 "  />
</g>
<g id="a67_0015"  >
<polygon style="stroke:black; stroke-width:1; fill:grey; " points="176,60 181,55 181,55 181,65 181,65 176,60 "  />
</g>
<g id="a67_0016"  >
<polygon style="stroke:black; stroke-width:1; fill:grey; " points="208,60 212,55 212,65 208,60 "  />
</g>
<g id="a67_0017"  >
<polygon style="stroke:black; stroke-width:1; fill:grey; " points="221,60 225,55 225,65 221,60 "  />
</g>
<g id="a67_0018"  >
<polygon style="stroke:black; stroke-width:1; fill:grey; " points="246,60 249,55 249,65 246,60 "  />
</g>
<g id="a67_0019"  >
<polygon style="stroke:black; stroke-width:1; fill:grey; " points="272,60 275,55 275,65 272,60 "  />
</g>
<g id="a67_0020"  >
<polygon style="stroke:black; stroke-width:1; fill:grey; " points="291,60 293,55 293,65 291,60 "  />
</g>
<g id="a67_0021"  >
<polygon style="stroke:black; stroke-width:1; fill:grey; " points="324,60 328,55 328,65 324,60 "  />
</g>
<g id="a67_0022"  >
<polygon style="stroke:black; stroke-width:1; fill:grey; " points="335,60 336,55 336,65 335,60 "  />
</g>
<g id="a67_0023"  >
<polygon style="stroke:black; stroke-width:1; fill:grey; " points="341,65 341,60 341,55 341,65 "  />
</g>
<g id="a67_0024"  >
<polygon style="stroke:black; stroke-width:1; fill:grey; " points="348,65 349,60 348,55 348,65 "  />
</g>
<g id="a67_0025"  >
<polygon style="stroke:black; stroke-width:1; fill:grey; " points="359,65 360,60 359,55 359,65 "  />
</g>
<g id="a67_0026"  >
<polygon style="stroke:black; stroke-width:1; fill:grey; " points="361,60 366,55 370,55 370,65 366,65 361,60 "  />
</g>
<g id="a67_0027"  >
<polygon style="stroke:black; stroke-width:1; fill:grey; " points="361,60 366,55 370,55 370,65 366,65 361,60 "  />
</g>
<g id="a67_0028"  >
<polygon style="stroke:black; stroke-width:1; fill:#810E15; " points="361,60 366,55 370,55 370,65 366,65 361,60 "  />
</g>
<g id="a67_0029"  >
<polygon style="stroke:black; stroke-width:1; fill:grey; " points="377,60 379,55 379,65 377,60 "  />
</g>
<g id="a67_0030"  >
<polygon style="stroke:black; stroke-width:1; fill:grey; " points="377,60 381,55 381,65 377,60 "  />
</g>
<g id="a67_0031"  >
<polygon style="stroke:black; stroke-width:1; fill:#810E15; " points="377,60 382,55 382,55 382,65 382,65 377,60 "  />
</g>
<g id="a67_0032"  >
<polygon style="stroke:black; stroke-width:1; fill:grey; " points="404,60 407,55 407,65 404,60 "  />
</g>
<g id="a67_0033"  >
<polygon style="stroke:black; stroke-width:1; fill:grey; " points="411,65 412,60 411,55 411,65 "  />
</g>
<g id="a67_0034"  >
<polygon style="stroke:black; stroke-width:1; fill:grey; " points="421,65 421,60 421,55 421,65 "  />
</g>
<g id="a67_0035"  >
<polygon style="stroke:black; stroke-width:1; fill:#810E15; " points="442,60 445,55 445,65 442,60 "  />
</g>
<g id="a67_0036"  >
<polygon style="stroke:black; stroke-width:1; fill:grey; " points="447,60 448,55 448,65 447,60 "  />
</g>
<g id="a67_0037"  >
<polygon style="stroke:black; stroke-width:1; fill:grey; " points="466,60 467,55 467,65 466,60 "  />
</g>
<g id="a67_0038"  >
<polygon style="stroke:black; stroke-width:1; fill:grey; " points="469,60 469,55 469,65 469,60 "  />
</g>
<g id="a67_0039"  >
<polygon style="stroke:black; stroke-width:1; fill:grey; " points="471,60 473,55 473,65 471,60 "  />
</g>
<g id="a67_0040"  >
<polygon style="stroke:black; stroke-width:1; fill:grey; " points="476,65 478,60 476,55 476,65 "  />
</g>
<g id="a67_0041"  >
<polygon style="stroke:black; stroke-width:1; fill:grey; " points="482,60 483,55 483,65 482,60 "  />
</g>
<g id="a67_0042"  >
<polygon style="stroke:black; stroke-width:1; fill:grey; " points="489,60 490,55 490,65 489,60 "  />
</g>
<g id="a67_0043"  >
<polygon style="stroke:black; stroke-width:1; fill:grey; " points="491,65 491,60 491,55 491,65 "  />
</g>
<g id="a67_0044"  >
<polygon style="stroke:black; stroke-width:1; fill:grey; " points="502,60 503,55 503,65 502,60 "  />
</g>
<g id="a67_0045"  >
<polygon style="stroke:black; stroke-width:1; fill:grey; " points="512,60 516,55 516,65 512,60 "  />
</g>
<g id="a67_0046"  >
<polygon style="stroke:black; stroke-width:1; fill:grey; " points="519,60 523,55 523,65 519,60 "  />
</g>
<g id="a67_0047"  >
<polygon style="stroke:black; stroke-width:1; fill:grey; " points="539,60 541,55 541,65 539,60 "  />
</g>
<g id="a67_0048"  >
<polygon style="stroke:black; stroke-width:1; fill:grey; " points="547,65 549,65 554,60 549,55 547,55 547,65 "  />
</g>
<g id="a67_0049"  >
<polygon style="stroke:black; stroke-width:1; fill:grey; " points="547,65 550,65 555,60 550,55 547,55 547,65 "  />
</g>
<g id="a67_0050"  >
<polygon style="stroke:black; stroke-width:1; fill:grey; " points="547,65 550,65 555,60 550,55 547,55 547,65 "  />
</g>
<g id="a67_0051"  >
<polygon style="stroke:black; stroke-width:1; fill:grey; " points="565,65 567,60 565,55 565,65 "  />
</g>
<g id="a67_0052"  >
<polygon style="stroke:black; stroke-width:1; fill:grey; " points="581,65 584,60 581,55 581,65 "  />
</g>
<g id="a67_0053"  >
<polygon style="stroke:black; stroke-width:1; fill:grey; " points="586,65 588,60 586,55 586,65 "  />
</g>
<g id="a67_0054"  >
<polygon style="stroke:black; stroke-width:1; fill:grey; " points="591,65 592,60 591,55 591,65 "  />
</g>
<g id="a67_0055"  >
<polygon style="stroke:black; stroke-width:1; fill:grey; " points="596,65 599,60 596,55 596,65 "  />
</g>
<g id="a67_0056"  >
<polygon style="stroke:black; stroke-width:1; fill:grey; " points="607,65 609,60 607,55 607,65 "  />
</g>
<g id="a67_0057"  >
<polygon style="stroke:black; stroke-width:1; fill:grey; " points="614,65 614,65 619,60 614,55 614,55 614,65 "  />
</g>
<g id="a67_0058"  >
<polygon style="stroke:black; stroke-width:1; fill:grey; " points="630,60 631,55 631,65 630,60 "  />
</g>
<g id="a67_0059"  >
<polygon style="stroke:black; stroke-width:1; fill:grey; " points="634,65 637,60 634,55 634,65 "  />
</g>
<g id="a67_0060"  >
<polygon style="stroke:black; stroke-width:1; fill:grey; " points="639,65 641,60 639,55 639,65 "  />
</g>
<g id="a67_0061"  >
<polygon style="stroke:black; stroke-width:1; fill:grey; " points="643,65 645,60 643,55 643,65 "  />
</g>
<g id="a67_0062"  >
<polygon style="stroke:black; stroke-width:1; fill:grey; " points="649,65 649,60 649,55 649,65 "  />
</g>
<g id="a67_0063"  >
<polygon style="stroke:black; stroke-width:1; fill:grey; " points="652,60 654,55 654,65 652,60 "  />
</g>
<g id="a67_0064"  >
<polygon style="stroke:black; stroke-width:1; fill:grey; " points="654,60 655,55 655,65 654,60 "  />
</g>
<g id="a67_0065"  >
<polygon style="stroke:black; stroke-width:1; fill:grey; " points="665,60 666,55 666,65 665,60 "  />
</g>
<g id="a67_0066"  >
<polygon style="stroke:black; stroke-width:1; fill:grey; " points="689,60 694,55 701,55 701,65 694,65 689,60 "  />
</g>
<g id="a67_0067"  >
<polygon style="stroke:black; stroke-width:1; fill:grey; " points="707,60 708,55 708,65 707,60 "  />
</g>
<g id="a67_0068"  >
<polygon style="stroke:black; stroke-width:1; fill:grey; " points="713,60 714,55 714,65 713,60 "  />
</g>
<g id="a67_0069"  >
<polygon style="stroke:black; stroke-width:1; fill:grey; " points="726,60 727,55 727,65 726,60 "  />
</g>
<g id="a67_0070"  >
<polygon style="stroke:black; stroke-width:1; fill:grey; " points="745,65 746,60 745,55 745,65 "  />
</g>
<g id="a67_0071"  >
<polygon style="stroke:black; stroke-width:1; fill:grey; " points="761,65 762,65 767,60 762,55 761,55 761,65 "  />
</g>
<g id="a67_0072"  >
<polygon style="stroke:black; stroke-width:1; fill:grey; " points="771,60 776,55 778,55 778,65 776,65 771,60 "  />
</g>
</svg>
