<svg xmlns="http://www.w3.org/2000/svg" height="0" width="768.0" version="1.1" y="0" x="0" preserveAspectRatio="none" xmlns:xlink="http://www.w3.org/1999/xlink" viewBox="0 -30 819.2 0"  >
<g  >
<line y1="60" x2="778.0" style="stroke:grey; stroke-width:2; " x1="10" y2="60"  />
</g>
<g id="a57_000"  >
<polygon style="stroke:black; stroke-width:1; fill:grey; " points="10,60 15,55 15,55 15,65 15,65 10,60 "  />
</g>
<g id="a57_001"  >
<polygon style="stroke:black; stroke-width:1; fill:#810E15; " points="48,60 53,55 69,55 69,65 53,65 48,60 "  />
</g>
<g id="a57_002"  >
<polygon style="stroke:black; stroke-width:1; fill:grey; " points="119,60 124,55 124,55 124,65 124,65 119,60 "  />
</g>
<g id="a57_003"  >
<polygon style="stroke:black; stroke-width:1; fill:grey; " points="162,60 167,55 171,55 171,65 167,65 162,60 "  />
</g>
<g id="a57_004"  >
<polygon style="stroke:black; stroke-width:1; fill:grey; " points="207,60 212,55 217,55 217,65 212,65 207,60 "  />
</g>
<g id="a57_005"  >
<polygon style="stroke:black; stroke-width:1; fill:grey; " points="207,60 212,55 217,55 217,65 212,65 207,60 "  />
</g>
<g id="a57_006"  >
<polygon style="stroke:black; stroke-width:1; fill:#810E15; " points="244,65 248,60 244,55 244,65 "  />
</g>
<g id="a57_007"  >
<polygon style="stroke:black; stroke-width:1; fill:grey; " points="251,60 254,55 254,65 251,60 "  />
</g>
<g id="a57_008"  >
<polygon style="stroke:black; stroke-width:1; fill:grey; " points="260,60 261,55 261,65 260,60 "  />
</g>
<g id="a57_009"  >
<polygon style="stroke:black; stroke-width:1; fill:grey; " points="265,60 265,55 265,65 265,60 "  />
</g>
<g id="a57_0010"  >
<polygon style="stroke:black; stroke-width:1; fill:grey; " points="272,60 274,55 274,65 272,60 "  />
</g>
<g id="a57_0011"  >
<polygon style="stroke:black; stroke-width:1; fill:grey; " points="313,60 318,55 320,55 320,65 318,65 313,60 "  />
</g>
<g id="a57_0012"  >
<polygon style="stroke:black; stroke-width:1; fill:#810E15; " points="409,65 413,60 409,55 409,65 "  />
</g>
<g id="a57_0013"  >
<polygon style="stroke:black; stroke-width:1; fill:grey; " points="431,65 432,60 431,55 431,65 "  />
</g>
<g id="a57_0014"  >
<polygon style="stroke:black; stroke-width:1; fill:#810E15; " points="452,60 456,55 456,65 452,60 "  />
</g>
<g id="a57_0015"  >
<polygon style="stroke:black; stroke-width:1; fill:grey; " points="464,65 464,60 464,55 464,65 "  />
</g>
<g id="a57_0016"  >
<polygon style="stroke:black; stroke-width:1; fill:grey; " points="479,60 479,55 479,65 479,60 "  />
</g>
<g id="a57_0017"  >
<polygon style="stroke:black; stroke-width:1; fill:#810E15; " points="483,65 487,60 483,55 483,65 "  />
</g>
<g id="a57_0018"  >
<polygon style="stroke:black; stroke-width:1; fill:#810E15; " points="491,65 495,60 491,55 491,65 "  />
</g>
<g id="a57_0019"  >
<polygon style="stroke:black; stroke-width:1; fill:#810E15; " points="501,65 501,65 506,60 501,55 501,55 501,65 "  />
</g>
<g id="a57_0020"  >
<polygon style="stroke:black; stroke-width:1; fill:#810E15; " points="537,65 540,60 537,55 537,65 "  />
</g>
<g id="a57_0021"  >
<polygon style="stroke:black; stroke-width:1; fill:grey; " points="571,65 572,60 571,55 571,65 "  />
</g>
<g id="a57_0022"  >
<polygon style="stroke:black; stroke-width:1; fill:grey; " points="580,65 583,60 580,55 580,65 "  />
</g>
<g id="a57_0023"  >
<polygon style="stroke:black; stroke-width:1; fill:#810E15; " points="596,65 600,60 596,55 596,65 "  />
</g>
<g id="a57_0024"  >
<polygon style="stroke:black; stroke-width:1; fill:#810E15; " points="616,65 618,60 616,55 616,65 "  />
</g>
<g id="a57_0025"  >
<polygon style="stroke:black; stroke-width:1; fill:#810E15; " points="640,65 643,60 640,55 640,65 "  />
</g>
<g id="a57_0026"  >
<polygon style="stroke:black; stroke-width:1; fill:#810E15; " points="652,60 653,55 653,65 652,60 "  />
</g>
<g id="a57_0027"  >
<polygon style="stroke:black; stroke-width:1; fill:#810E15; " points="658,60 660,55 660,65 658,60 "  />
</g>
<g id="a57_0028"  >
<polygon style="stroke:black; stroke-width:1; fill:grey; " points="660,60 661,55 661,65 660,60 "  />
</g>
<g id="a57_0029"  >
<polygon style="stroke:black; stroke-width:1; fill:#810E15; " points="664,65 667,60 664,55 664,65 "  />
</g>
<g id="a57_0030"  >
<polygon style="stroke:black; stroke-width:1; fill:#810E15; " points="678,65 681,60 678,55 678,65 "  />
</g>
<g id="a57_0031"  >
<polygon style="stroke:black; stroke-width:1; fill:grey; " points="722,60 723,55 723,65 722,60 "  />
</g>
<g id="a57_0032"  >
<polygon style="stroke:black; stroke-width:1; fill:#810E15; " points="726,60 729,55 729,65 726,60 "  />
</g>
<g id="a57_0033"  >
<polygon style="stroke:black; stroke-width:1; fill:#810E15; " points="738,60 741,55 741,65 738,60 "  />
</g>
<g id="a57_0034"  >
<polygon style="stroke:black; stroke-width:1; fill:grey; " points="746,60 750,55 750,65 746,60 "  />
</g>
<g id="a57_0035"  >
<polygon style="stroke:black; stroke-width:1; fill:grey; " points="750,65 752,60 750,55 750,65 "  />
</g>
<g id="a57_0036"  >
<polygon style="stroke:black; stroke-width:1; fill:#810E15; " points="760,60 764,55 764,65 760,60 "  />
</g>
<g id="a57_0037"  >
<polygon style="stroke:black; stroke-width:1; fill:grey; " points="767,65 773,65 778,60 773,55 767,55 767,65 "  />
</g>
</svg>
