<svg xmlns="http://www.w3.org/2000/svg" height="0" width="768.0" version="1.1" y="0" x="0" preserveAspectRatio="none" xmlns:xlink="http://www.w3.org/1999/xlink" viewBox="0 -30 819.2 0"  >
<g  >
<line y1="60" x2="778.0" style="stroke:grey; stroke-width:2; " x1="10" y2="60"  />
</g>
<g id="a9_000"  >
<polygon style="stroke:black; stroke-width:1; fill:grey; " points="10,60 15,55 31,55 31,65 15,65 10,60 "  />
</g>
<g id="a9_001"  >
<polygon style="stroke:black; stroke-width:1; fill:grey; " points="16,60 21,55 31,55 31,65 21,65 16,60 "  />
</g>
<g id="a9_002"  >
<polygon style="stroke:black; stroke-width:1; fill:#810E15; " points="61,65 75,65 80,60 75,55 61,55 61,65 "  />
</g>
<g id="a9_003"  >
<polygon style="stroke:black; stroke-width:1; fill:grey; " points="88,65 141,65 146,60 141,55 88,55 88,65 "  />
</g>
<g id="a9_004"  >
<polygon style="stroke:black; stroke-width:1; fill:grey; " points="88,65 141,65 146,60 141,55 88,55 88,65 "  />
</g>
<g id="a9_005"  >
<polygon style="stroke:black; stroke-width:1; fill:#810E15; " points="278,60 283,55 285,55 285,65 283,65 278,60 "  />
</g>
<g id="a9_006"  >
<polygon style="stroke:black; stroke-width:1; fill:#810E15; " points="317,65 321,65 326,60 321,55 317,55 317,65 "  />
</g>
<g id="a9_007"  >
<polygon style="stroke:black; stroke-width:1; fill:#810E15; " points="344,65 345,65 350,60 345,55 344,55 344,65 "  />
</g>
<g id="a9_008"  >
<polygon style="stroke:black; stroke-width:1; fill:#810E15; " points="368,65 368,65 373,60 368,55 368,55 368,65 "  />
</g>
<g id="a9_009"  >
<polygon style="stroke:black; stroke-width:1; fill:grey; " points="421,60 426,55 429,55 429,65 426,65 421,60 "  />
</g>
<g id="a9_0010"  >
<polygon style="stroke:black; stroke-width:1; fill:#810E15; " points="453,65 455,65 460,60 455,55 453,55 453,65 "  />
</g>
<g id="a9_0011"  >
<polygon style="stroke:black; stroke-width:1; fill:grey; " points="462,60 465,55 465,65 462,60 "  />
</g>
<g id="a9_0012"  >
<polygon style="stroke:black; stroke-width:1; fill:#810E15; " points="507,60 512,55 514,55 514,65 512,65 507,60 "  />
</g>
<g id="a9_0013"  >
<polygon style="stroke:black; stroke-width:1; fill:grey; " points="521,60 526,55 549,55 549,65 526,65 521,60 "  />
</g>
<g id="a9_0014"  >
<polygon style="stroke:black; stroke-width:1; fill:grey; " points="522,60 527,55 549,55 549,65 527,65 522,60 "  />
</g>
<g id="a9_0015"  >
<polygon style="stroke:black; stroke-width:1; fill:#810E15; " points="568,60 572,55 572,65 568,60 "  />
</g>
<g id="a9_0016"  >
<polygon style="stroke:black; stroke-width:1; fill:#810E15; " points="634,60 639,55 642,55 642,65 639,65 634,60 "  />
</g>
<g id="a9_0017"  >
<polygon style="stroke:black; stroke-width:1; fill:grey; " points="645,65 647,60 645,55 645,65 "  />
</g>
<g id="a9_0018"  >
<polygon style="stroke:black; stroke-width:1; fill:#810E15; " points="653,60 658,55 660,55 660,65 658,65 653,60 "  />
</g>
<g id="a9_0019"  >
<polygon style="stroke:black; stroke-width:1; fill:#810E15; " points="679,60 684,55 687,55 687,65 684,65 679,60 "  />
</g>
<g id="a9_0020"  >
<polygon style="stroke:black; stroke-width:1; fill:grey; " points="691,65 694,65 699,60 694,55 691,55 691,65 "  />
</g>
<g id="a9_0021"  >
<polygon style="stroke:black; stroke-width:1; fill:#810E15; " points="708,60 713,55 716,55 716,65 713,65 708,60 "  />
</g>
<g id="a9_0022"  >
<polygon style="stroke:black; stroke-width:1; fill:#810E15; " points="728,60 733,55 735,55 735,65 733,65 728,60 "  />
</g>
<g id="a9_0023"  >
<polygon style="stroke:black; stroke-width:1; fill:grey; " points="755,60 760,55 778,55 778,65 760,65 755,60 "  />
</g>
</svg>
