<svg xmlns="http://www.w3.org/2000/svg" height="0" width="768.0" version="1.1" y="0" x="0" preserveAspectRatio="none" xmlns:xlink="http://www.w3.org/1999/xlink" viewBox="0 -30 819.2 0"  >
<g  >
<line y1="60" x2="778.0" style="stroke:grey; stroke-width:2; " x1="10" y2="60"  />
</g>
<g id="a35_000"  >
<polygon style="stroke:black; stroke-width:1; fill:grey; " points="10,60 15,55 65,55 65,65 15,65 10,60 "  />
</g>
<g id="a35_001"  >
<polygon style="stroke:black; stroke-width:1; fill:#810E15; " points="117,65 139,65 144,60 139,55 117,55 117,65 "  />
</g>
<g id="a35_002"  >
<polygon style="stroke:black; stroke-width:1; fill:#810E15; " points="180,65 204,65 209,60 204,55 180,55 180,65 "  />
</g>
<g id="a35_003"  >
<polygon style="stroke:black; stroke-width:1; fill:grey; " points="298,60 303,55 328,55 328,65 303,65 298,60 "  />
</g>
<g id="a35_004"  >
<polygon style="stroke:black; stroke-width:1; fill:#810E15; " points="366,60 371,55 384,55 384,65 371,65 366,60 "  />
</g>
<g id="a35_005"  >
<polygon style="stroke:black; stroke-width:1; fill:#810E15; " points="411,60 416,55 426,55 426,65 416,65 411,60 "  />
</g>
<g id="a35_006"  >
<polygon style="stroke:black; stroke-width:1; fill:#810E15; " points="488,60 493,55 515,55 515,65 493,65 488,60 "  />
</g>
<g id="a35_007"  >
<polygon style="stroke:black; stroke-width:1; fill:#810E15; " points="548,60 553,55 563,55 563,65 553,65 548,60 "  />
</g>
<g id="a35_008"  >
<polygon style="stroke:black; stroke-width:1; fill:#810E15; " points="584,60 589,55 599,55 599,65 589,65 584,60 "  />
</g>
<g id="a35_009"  >
<polygon style="stroke:black; stroke-width:1; fill:grey; " points="611,65 624,65 629,60 624,55 611,55 611,65 "  />
</g>
<g id="a35_0010"  >
<polygon style="stroke:black; stroke-width:1; fill:#810E15; " points="652,60 657,55 666,55 666,65 657,65 652,60 "  />
</g>
<g id="a35_0011"  >
<polygon style="stroke:black; stroke-width:1; fill:grey; " points="724,60 729,55 767,55 767,65 729,65 724,60 "  />
</g>
<g id="a35_0012"  >
<polygon style="stroke:black; stroke-width:1; fill:grey; " points="724,60 729,55 778,55 778,65 729,65 724,60 "  />
</g>
</svg>
