<svg xmlns="http://www.w3.org/2000/svg" height="0" width="768.0" version="1.1" y="0" x="0" preserveAspectRatio="none" xmlns:xlink="http://www.w3.org/1999/xlink" viewBox="0 -30 819.2 0"  >
<g  >
<line y1="60" x2="778.0" style="stroke:grey; stroke-width:2; " x1="10" y2="60"  />
</g>
<g id="a63_000"  >
<polygon style="stroke:black; stroke-width:1; fill:grey; " points="10,65 13,60 10,55 10,65 "  />
</g>
<g id="a63_001"  >
<polygon style="stroke:black; stroke-width:1; fill:#810E15; " points="24,60 29,55 43,55 43,65 29,65 24,60 "  />
</g>
<g id="a63_002"  >
<polygon style="stroke:black; stroke-width:1; fill:grey; " points="99,60 102,55 102,65 99,60 "  />
</g>
<g id="a63_003"  >
<polygon style="stroke:black; stroke-width:1; fill:#810E15; " points="117,65 132,65 137,60 132,55 117,55 117,65 "  />
</g>
<g id="a63_004"  >
<polygon style="stroke:black; stroke-width:1; fill:#810E15; " points="153,65 157,65 162,60 157,55 153,55 153,65 "  />
</g>
<g id="a63_005"  >
<polygon style="stroke:black; stroke-width:1; fill:grey; " points="168,60 173,55 222,55 222,65 173,65 168,60 "  />
</g>
<g id="a63_006"  >
<polygon style="stroke:black; stroke-width:1; fill:grey; " points="256,60 261,55 283,55 283,65 261,65 256,60 "  />
</g>
<g id="a63_007"  >
<polygon style="stroke:black; stroke-width:1; fill:grey; " points="305,60 310,55 328,55 328,65 310,65 305,60 "  />
</g>
<g id="a63_008"  >
<polygon style="stroke:black; stroke-width:1; fill:#810E15; " points="385,60 390,55 394,55 394,65 390,65 385,60 "  />
</g>
<g id="a63_009"  >
<polygon style="stroke:black; stroke-width:1; fill:#810E15; " points="407,60 412,55 416,55 416,65 412,65 407,60 "  />
</g>
<g id="a63_0010"  >
<polygon style="stroke:black; stroke-width:1; fill:#810E15; " points="430,60 435,55 439,55 439,65 435,65 430,60 "  />
</g>
<g id="a63_0011"  >
<polygon style="stroke:black; stroke-width:1; fill:grey; " points="452,60 457,55 459,55 459,65 457,65 452,60 "  />
</g>
<g id="a63_0012"  >
<polygon style="stroke:black; stroke-width:1; fill:#810E15; " points="452,60 457,55 461,55 461,65 457,65 452,60 "  />
</g>
<g id="a63_0013"  >
<polygon style="stroke:black; stroke-width:1; fill:grey; " points="474,60 479,55 481,55 481,65 479,65 474,60 "  />
</g>
<g id="a63_0014"  >
<polygon style="stroke:black; stroke-width:1; fill:#810E15; " points="474,60 479,55 483,55 483,65 479,65 474,60 "  />
</g>
<g id="a63_0015"  >
<polygon style="stroke:black; stroke-width:1; fill:grey; " points="499,65 503,65 508,60 503,55 499,55 499,65 "  />
</g>
<g id="a63_0016"  >
<polygon style="stroke:black; stroke-width:1; fill:grey; " points="499,65 504,65 509,60 504,55 499,55 499,65 "  />
</g>
<g id="a63_0017"  >
<polygon style="stroke:black; stroke-width:1; fill:#810E15; " points="499,65 505,65 510,60 505,55 499,55 499,65 "  />
</g>
<g id="a63_0018"  >
<polygon style="stroke:black; stroke-width:1; fill:#810E15; " points="539,65 547,65 552,60 547,55 539,55 539,65 "  />
</g>
<g id="a63_0019"  >
<polygon style="stroke:black; stroke-width:1; fill:#810E15; " points="568,65 578,65 583,60 578,55 568,55 568,65 "  />
</g>
<g id="a63_0020"  >
<polygon style="stroke:black; stroke-width:1; fill:#810E15; " points="594,65 605,65 610,60 605,55 594,55 594,65 "  />
</g>
<g id="a63_0021"  >
<polygon style="stroke:black; stroke-width:1; fill:grey; " points="621,60 625,55 625,65 621,60 "  />
</g>
<g id="a63_0022"  >
<polygon style="stroke:black; stroke-width:1; fill:#810E15; " points="655,65 664,65 669,60 664,55 655,55 655,65 "  />
</g>
<g id="a63_0023"  >
<polygon style="stroke:black; stroke-width:1; fill:#810E15; " points="679,65 689,65 694,60 689,55 679,55 679,65 "  />
</g>
<g id="a63_0024"  >
<polygon style="stroke:black; stroke-width:1; fill:grey; " points="705,65 710,65 715,60 710,55 705,55 705,65 "  />
</g>
<g id="a63_0025"  >
<polygon style="stroke:black; stroke-width:1; fill:#810E15; " points="705,65 714,65 719,60 714,55 705,55 705,65 "  />
</g>
<g id="a63_0026"  >
<polygon style="stroke:black; stroke-width:1; fill:#810E15; " points="723,65 735,65 740,60 735,55 723,55 723,65 "  />
</g>
<g id="a63_0027"  >
<polygon style="stroke:black; stroke-width:1; fill:grey; " points="771,60 776,55 778,55 778,65 776,65 771,60 "  />
</g>
</svg>
