<svg xmlns="http://www.w3.org/2000/svg" height="0" width="768.0" version="1.1" y="0" x="0" preserveAspectRatio="none" xmlns:xlink="http://www.w3.org/1999/xlink" viewBox="0 -30 819.2 0"  >
<g  >
<line y1="60" x2="778.0" style="stroke:grey; stroke-width:2; " x1="10" y2="60"  />
</g>
<g id="a60_000"  >
<polygon style="stroke:black; stroke-width:1; fill:grey; " points="10,60 15,55 34,55 34,65 15,65 10,60 "  />
</g>
<g id="a60_001"  >
<polygon style="stroke:black; stroke-width:1; fill:grey; " points="67,65 67,65 72,60 67,55 67,55 67,65 "  />
</g>
<g id="a60_002"  >
<polygon style="stroke:black; stroke-width:1; fill:#810E15; " points="116,60 121,55 139,55 139,65 121,65 116,60 "  />
</g>
<g id="a60_003"  >
<polygon style="stroke:black; stroke-width:1; fill:grey; " points="340,60 345,55 348,55 348,65 345,65 340,60 "  />
</g>
<g id="a60_004"  >
<polygon style="stroke:black; stroke-width:1; fill:#810E15; " points="416,60 421,55 459,55 459,65 421,65 416,60 "  />
</g>
<g id="a60_005"  >
<polygon style="stroke:black; stroke-width:1; fill:grey; " points="490,60 495,55 497,55 497,65 495,65 490,60 "  />
</g>
<g id="a60_006"  >
<polygon style="stroke:black; stroke-width:1; fill:#810E15; " points="511,60 516,55 573,55 573,65 516,65 511,60 "  />
</g>
<g id="a60_007"  >
<polygon style="stroke:black; stroke-width:1; fill:grey; " points="594,60 599,55 600,55 600,65 599,65 594,60 "  />
</g>
<g id="a60_008"  >
<polygon style="stroke:black; stroke-width:1; fill:grey; " points="611,60 616,55 645,55 645,65 616,65 611,60 "  />
</g>
<g id="a60_009"  >
<polygon style="stroke:black; stroke-width:1; fill:grey; " points="663,60 668,55 719,55 719,65 668,65 663,60 "  />
</g>
<g id="a60_0010"  >
<polygon style="stroke:black; stroke-width:1; fill:grey; " points="663,60 668,55 778,55 778,65 668,65 663,60 "  />
</g>
</svg>
