<svg xmlns="http://www.w3.org/2000/svg" height="0" width="768.0" version="1.1" y="0" x="0" preserveAspectRatio="none" xmlns:xlink="http://www.w3.org/1999/xlink" viewBox="0 -30 819.2 0"  >
<g  >
<line y1="60" x2="778.0" style="stroke:grey; stroke-width:2; " x1="10" y2="60"  />
</g>
<g id="a12_000"  >
<polygon style="stroke:black; stroke-width:1; fill:grey; " points="10,60 15,55 21,55 21,65 15,65 10,60 "  />
</g>
<g id="a12_001"  >
<polygon style="stroke:black; stroke-width:1; fill:grey; " points="10,60 15,55 31,55 31,65 15,65 10,60 "  />
</g>
<g id="a12_002"  >
<polygon style="stroke:black; stroke-width:1; fill:grey; " points="55,65 87,65 92,60 87,55 55,55 55,65 "  />
</g>
<g id="a12_003"  >
<polygon style="stroke:black; stroke-width:1; fill:#810E15; " points="100,60 105,55 121,55 121,65 105,65 100,60 "  />
</g>
<g id="a12_004"  >
<polygon style="stroke:black; stroke-width:1; fill:#810E15; " points="100,60 105,55 121,55 121,65 105,65 100,60 "  />
</g>
<g id="a12_005"  >
<polygon style="stroke:black; stroke-width:1; fill:grey; " points="103,60 108,55 121,55 121,65 108,65 103,60 "  />
</g>
<g id="a12_006"  >
<polygon style="stroke:black; stroke-width:1; fill:grey; " points="103,60 108,55 121,55 121,65 108,65 103,60 "  />
</g>
<g id="a12_007"  >
<polygon style="stroke:black; stroke-width:1; fill:grey; " points="150,65 151,65 156,60 151,55 150,55 150,65 "  />
</g>
<g id="a12_008"  >
<polygon style="stroke:black; stroke-width:1; fill:grey; " points="215,65 216,65 221,60 216,55 215,55 215,65 "  />
</g>
<g id="a12_009"  >
<polygon style="stroke:black; stroke-width:1; fill:#810E15; " points="254,60 259,55 269,55 269,65 259,65 254,60 "  />
</g>
<g id="a12_0010"  >
<polygon style="stroke:black; stroke-width:1; fill:grey; " points="423,65 424,65 429,60 424,55 423,55 423,65 "  />
</g>
<g id="a12_0011"  >
<polygon style="stroke:black; stroke-width:1; fill:#810E15; " points="533,65 538,65 543,60 538,55 533,55 533,65 "  />
</g>
<g id="a12_0012"  >
<polygon style="stroke:black; stroke-width:1; fill:grey; " points="679,60 684,55 685,55 685,65 684,65 679,60 "  />
</g>
<g id="a12_0013"  >
<polygon style="stroke:black; stroke-width:1; fill:#810E15; " points="691,60 696,55 712,55 712,65 696,65 691,60 "  />
</g>
<g id="a12_0014"  >
<polygon style="stroke:black; stroke-width:1; fill:grey; " points="748,60 753,55 769,55 769,65 753,65 748,60 "  />
</g>
<g id="a12_0015"  >
<polygon style="stroke:black; stroke-width:1; fill:grey; " points="748,60 753,55 778,55 778,65 753,65 748,60 "  />
</g>
<g id="a12_0016"  >
<polygon style="stroke:black; stroke-width:1; fill:grey; " points="749,60 754,55 778,55 778,65 754,65 749,60 "  />
</g>
</svg>
