<svg xmlns="http://www.w3.org/2000/svg" height="0" width="768.0" version="1.1" y="0" x="0" preserveAspectRatio="none" xmlns:xlink="http://www.w3.org/1999/xlink" viewBox="0 -30 819.2 0"  >
<g  >
<line y1="60" x2="778.0" style="stroke:grey; stroke-width:2; " x1="10" y2="60"  />
</g>
<g id="a15_000"  >
<polygon style="stroke:black; stroke-width:1; fill:grey; " points="10,65 18,65 23,60 18,55 10,55 10,65 "  />
</g>
<g id="a15_001"  >
<polygon style="stroke:black; stroke-width:1; fill:grey; " points="25,60 26,55 26,65 25,60 "  />
</g>
<g id="a15_002"  >
<polygon style="stroke:black; stroke-width:1; fill:grey; " points="25,60 27,55 27,65 25,60 "  />
</g>
<g id="a15_003"  >
<polygon style="stroke:black; stroke-width:1; fill:grey; " points="31,60 36,55 45,55 45,65 36,65 31,60 "  />
</g>
<g id="a15_004"  >
<polygon style="stroke:black; stroke-width:1; fill:grey; " points="31,60 36,55 45,55 45,65 36,65 31,60 "  />
</g>
<g id="a15_005"  >
<polygon style="stroke:black; stroke-width:1; fill:grey; " points="51,65 51,65 56,60 51,55 51,55 51,65 "  />
</g>
<g id="a15_006"  >
<polygon style="stroke:black; stroke-width:1; fill:grey; " points="57,60 58,55 58,65 57,60 "  />
</g>
<g id="a15_007"  >
<polygon style="stroke:black; stroke-width:1; fill:grey; " points="59,60 64,55 64,55 64,65 64,65 59,60 "  />
</g>
<g id="a15_008"  >
<polygon style="stroke:black; stroke-width:1; fill:grey; " points="74,60 74,55 74,65 74,60 "  />
</g>
<g id="a15_009"  >
<polygon style="stroke:black; stroke-width:1; fill:grey; " points="76,60 77,55 77,65 76,60 "  />
</g>
<g id="a15_0010"  >
<polygon style="stroke:black; stroke-width:1; fill:grey; " points="80,60 81,55 81,65 80,60 "  />
</g>
<g id="a15_0011"  >
<polygon style="stroke:black; stroke-width:1; fill:grey; " points="85,60 88,55 88,65 85,60 "  />
</g>
<g id="a15_0012"  >
<polygon style="stroke:black; stroke-width:1; fill:grey; " points="91,65 94,60 91,55 91,65 "  />
</g>
<g id="a15_0013"  >
<polygon style="stroke:black; stroke-width:1; fill:grey; " points="97,60 102,55 103,55 103,65 102,65 97,60 "  />
</g>
<g id="a15_0014"  >
<polygon style="stroke:black; stroke-width:1; fill:grey; " points="97,60 102,55 105,55 105,65 102,65 97,60 "  />
</g>
<g id="a15_0015"  >
<polygon style="stroke:black; stroke-width:1; fill:grey; " points="97,60 102,55 108,55 108,65 102,65 97,60 "  />
</g>
<g id="a15_0016"  >
<polygon style="stroke:black; stroke-width:1; fill:grey; " points="97,60 102,55 108,55 108,65 102,65 97,60 "  />
</g>
<g id="a15_0017"  >
<polygon style="stroke:black; stroke-width:1; fill:grey; " points="97,60 102,55 108,55 108,65 102,65 97,60 "  />
</g>
<g id="a15_0018"  >
<polygon style="stroke:black; stroke-width:1; fill:grey; " points="112,65 115,60 112,55 112,65 "  />
</g>
<g id="a15_0019"  >
<polygon style="stroke:black; stroke-width:1; fill:grey; " points="133,65 135,60 133,55 133,65 "  />
</g>
<g id="a15_0020"  >
<polygon style="stroke:black; stroke-width:1; fill:grey; " points="138,65 140,60 138,55 138,65 "  />
</g>
<g id="a15_0021"  >
<polygon style="stroke:black; stroke-width:1; fill:grey; " points="141,65 144,65 149,60 144,55 141,55 141,65 "  />
</g>
<g id="a15_0022"  >
<polygon style="stroke:black; stroke-width:1; fill:grey; " points="160,65 162,60 160,55 160,65 "  />
</g>
<g id="a15_0023"  >
<polygon style="stroke:black; stroke-width:1; fill:grey; " points="168,65 168,60 168,55 168,65 "  />
</g>
<g id="a15_0024"  >
<polygon style="stroke:black; stroke-width:1; fill:grey; " points="174,60 175,55 175,65 174,60 "  />
</g>
<g id="a15_0025"  >
<polygon style="stroke:black; stroke-width:1; fill:grey; " points="186,60 186,55 186,65 186,60 "  />
</g>
<g id="a15_0026"  >
<polygon style="stroke:black; stroke-width:1; fill:grey; " points="210,65 210,60 210,55 210,65 "  />
</g>
<g id="a15_0027"  >
<polygon style="stroke:black; stroke-width:1; fill:grey; " points="224,60 224,55 224,65 224,60 "  />
</g>
<g id="a15_0028"  >
<polygon style="stroke:black; stroke-width:1; fill:grey; " points="229,60 229,55 229,65 229,60 "  />
</g>
<g id="a15_0029"  >
<polygon style="stroke:black; stroke-width:1; fill:grey; " points="230,65 231,60 230,55 230,65 "  />
</g>
<g id="a15_0030"  >
<polygon style="stroke:black; stroke-width:1; fill:grey; " points="240,65 240,60 240,55 240,65 "  />
</g>
<g id="a15_0031"  >
<polygon style="stroke:black; stroke-width:1; fill:grey; " points="259,60 260,55 260,65 259,60 "  />
</g>
<g id="a15_0032"  >
<polygon style="stroke:black; stroke-width:1; fill:grey; " points="261,60 262,55 262,65 261,60 "  />
</g>
<g id="a15_0033"  >
<polygon style="stroke:black; stroke-width:1; fill:grey; " points="266,60 266,55 266,65 266,60 "  />
</g>
<g id="a15_0034"  >
<polygon style="stroke:black; stroke-width:1; fill:grey; " points="287,60 291,55 291,65 287,60 "  />
</g>
<g id="a15_0035"  >
<polygon style="stroke:black; stroke-width:1; fill:grey; " points="295,65 296,60 295,55 295,65 "  />
</g>
<g id="a15_0036"  >
<polygon style="stroke:black; stroke-width:1; fill:grey; " points="297,60 299,55 299,65 297,60 "  />
</g>
<g id="a15_0037"  >
<polygon style="stroke:black; stroke-width:1; fill:grey; " points="304,65 304,65 309,60 304,55 304,55 304,65 "  />
</g>
<g id="a15_0038"  >
<polygon style="stroke:black; stroke-width:1; fill:grey; " points="319,65 322,60 319,55 319,65 "  />
</g>
<g id="a15_0039"  >
<polygon style="stroke:black; stroke-width:1; fill:grey; " points="319,65 322,60 319,55 319,65 "  />
</g>
<g id="a15_0040"  >
<polygon style="stroke:black; stroke-width:1; fill:grey; " points="319,65 323,60 319,55 319,65 "  />
</g>
<g id="a15_0041"  >
<polygon style="stroke:black; stroke-width:1; fill:grey; " points="319,65 323,60 319,55 319,65 "  />
</g>
<g id="a15_0042"  >
<polygon style="stroke:black; stroke-width:1; fill:grey; " points="319,65 319,65 324,60 319,55 319,55 319,65 "  />
</g>
<g id="a15_0043"  >
<polygon style="stroke:black; stroke-width:1; fill:grey; " points="319,65 319,65 324,60 319,55 319,55 319,65 "  />
</g>
<g id="a15_0044"  >
<polygon style="stroke:black; stroke-width:1; fill:grey; " points="327,65 327,60 327,55 327,65 "  />
</g>
<g id="a15_0045"  >
<polygon style="stroke:black; stroke-width:1; fill:grey; " points="334,60 334,55 334,65 334,60 "  />
</g>
<g id="a15_0046"  >
<polygon style="stroke:black; stroke-width:1; fill:grey; " points="340,65 341,60 340,55 340,65 "  />
</g>
<g id="a15_0047"  >
<polygon style="stroke:black; stroke-width:1; fill:#810E15; " points="346,65 347,65 352,60 347,55 346,55 346,65 "  />
</g>
<g id="a15_0048"  >
<polygon style="stroke:black; stroke-width:1; fill:grey; " points="354,60 355,55 355,65 354,60 "  />
</g>
<g id="a15_0049"  >
<polygon style="stroke:black; stroke-width:1; fill:#810E15; " points="364,65 365,60 364,55 364,65 "  />
</g>
<g id="a15_0050"  >
<polygon style="stroke:black; stroke-width:1; fill:grey; " points="368,65 370,65 375,60 370,55 368,55 368,65 "  />
</g>
<g id="a15_0051"  >
<polygon style="stroke:black; stroke-width:1; fill:grey; " points="376,60 376,55 376,65 376,60 "  />
</g>
<g id="a15_0052"  >
<polygon style="stroke:black; stroke-width:1; fill:grey; " points="382,60 387,55 387,55 387,65 387,65 382,60 "  />
</g>
<g id="a15_0053"  >
<polygon style="stroke:black; stroke-width:1; fill:#810E15; " points="446,65 449,60 446,55 446,65 "  />
</g>
<g id="a15_0054"  >
<polygon style="stroke:black; stroke-width:1; fill:grey; " points="465,65 467,60 465,55 465,65 "  />
</g>
<g id="a15_0055"  >
<polygon style="stroke:black; stroke-width:1; fill:grey; " points="477,65 477,65 482,60 477,55 477,55 477,65 "  />
</g>
<g id="a15_0056"  >
<polygon style="stroke:black; stroke-width:1; fill:grey; " points="492,60 496,55 496,65 492,60 "  />
</g>
<g id="a15_0057"  >
<polygon style="stroke:black; stroke-width:1; fill:grey; " points="492,60 496,55 496,65 492,60 "  />
</g>
<g id="a15_0058"  >
<polygon style="stroke:black; stroke-width:1; fill:grey; " points="533,65 536,60 533,55 533,65 "  />
</g>
<g id="a15_0059"  >
<polygon style="stroke:black; stroke-width:1; fill:grey; " points="541,60 543,55 543,65 541,60 "  />
</g>
<g id="a15_0060"  >
<polygon style="stroke:black; stroke-width:1; fill:grey; " points="551,65 552,60 551,55 551,65 "  />
</g>
<g id="a15_0061"  >
<polygon style="stroke:black; stroke-width:1; fill:grey; " points="576,60 577,55 577,65 576,60 "  />
</g>
<g id="a15_0062"  >
<polygon style="stroke:black; stroke-width:1; fill:grey; " points="581,60 582,55 582,65 581,60 "  />
</g>
<g id="a15_0063"  >
<polygon style="stroke:black; stroke-width:1; fill:grey; " points="584,60 589,55 590,55 590,65 589,65 584,60 "  />
</g>
<g id="a15_0064"  >
<polygon style="stroke:black; stroke-width:1; fill:grey; " points="600,60 604,55 604,65 600,60 "  />
</g>
<g id="a15_0065"  >
<polygon style="stroke:black; stroke-width:1; fill:grey; " points="611,60 612,55 612,65 611,60 "  />
</g>
<g id="a15_0066"  >
<polygon style="stroke:black; stroke-width:1; fill:grey; " points="619,65 620,60 619,55 619,65 "  />
</g>
<g id="a15_0067"  >
<polygon style="stroke:black; stroke-width:1; fill:grey; " points="623,60 628,55 628,55 628,65 628,65 623,60 "  />
</g>
<g id="a15_0068"  >
<polygon style="stroke:black; stroke-width:1; fill:grey; " points="638,60 642,55 642,65 638,60 "  />
</g>
<g id="a15_0069"  >
<polygon style="stroke:black; stroke-width:1; fill:grey; " points="644,60 647,55 647,65 644,60 "  />
</g>
<g id="a15_0070"  >
<polygon style="stroke:black; stroke-width:1; fill:grey; " points="655,60 655,55 655,65 655,60 "  />
</g>
<g id="a15_0071"  >
<polygon style="stroke:black; stroke-width:1; fill:grey; " points="656,60 659,55 659,65 656,60 "  />
</g>
<g id="a15_0072"  >
<polygon style="stroke:black; stroke-width:1; fill:grey; " points="670,60 675,55 676,55 676,65 675,65 670,60 "  />
</g>
<g id="a15_0073"  >
<polygon style="stroke:black; stroke-width:1; fill:grey; " points="687,60 689,55 689,65 687,60 "  />
</g>
<g id="a15_0074"  >
<polygon style="stroke:black; stroke-width:1; fill:grey; " points="743,60 745,55 745,65 743,60 "  />
</g>
<g id="a15_0075"  >
<polygon style="stroke:black; stroke-width:1; fill:grey; " points="758,65 759,65 764,60 759,55 758,55 758,65 "  />
</g>
<g id="a15_0076"  >
<polygon style="stroke:black; stroke-width:1; fill:grey; " points="767,65 770,60 767,55 767,65 "  />
</g>
<g id="a15_0077"  >
<polygon style="stroke:black; stroke-width:1; fill:grey; " points="773,60 774,55 774,65 773,60 "  />
</g>
<g id="a15_0078"  >
<polygon style="stroke:black; stroke-width:1; fill:grey; " points="777,65 778,60 777,55 777,65 "  />
</g>
</svg>
