<svg xmlns="http://www.w3.org/2000/svg" height="0" width="768.0" version="1.1" y="0" x="0" preserveAspectRatio="none" xmlns:xlink="http://www.w3.org/1999/xlink" viewBox="0 -30 819.2 0"  >
<g  >
<line y1="60" x2="778.0" style="stroke:grey; stroke-width:2; " x1="10" y2="60"  />
</g>
<g id="a31_000"  >
<polygon style="stroke:black; stroke-width:1; fill:grey; " points="10,65 26,65 31,60 26,55 10,55 10,65 "  />
</g>
<g id="a31_001"  >
<polygon style="stroke:black; stroke-width:1; fill:grey; " points="18,65 26,65 31,60 26,55 18,55 18,65 "  />
</g>
<g id="a31_002"  >
<polygon style="stroke:black; stroke-width:1; fill:grey; " points="37,65 39,60 37,55 37,65 "  />
</g>
<g id="a31_003"  >
<polygon style="stroke:black; stroke-width:1; fill:grey; " points="67,65 69,65 74,60 69,55 67,55 67,65 "  />
</g>
<g id="a31_004"  >
<polygon style="stroke:black; stroke-width:1; fill:grey; " points="77,65 80,60 77,55 77,65 "  />
</g>
<g id="a31_005"  >
<polygon style="stroke:black; stroke-width:1; fill:grey; " points="94,65 96,60 94,55 94,65 "  />
</g>
<g id="a31_006"  >
<polygon style="stroke:black; stroke-width:1; fill:grey; " points="100,60 105,55 106,55 106,65 105,65 100,60 "  />
</g>
<g id="a31_007"  >
<polygon style="stroke:black; stroke-width:1; fill:grey; " points="102,60 106,55 106,65 102,60 "  />
</g>
<g id="a31_008"  >
<polygon style="stroke:black; stroke-width:1; fill:grey; " points="131,65 132,60 131,55 131,65 "  />
</g>
<g id="a31_009"  >
<polygon style="stroke:black; stroke-width:1; fill:grey; " points="195,65 196,60 195,55 195,65 "  />
</g>
<g id="a31_0010"  >
<polygon style="stroke:black; stroke-width:1; fill:grey; " points="204,60 207,55 207,65 204,60 "  />
</g>
<g id="a31_0011"  >
<polygon style="stroke:black; stroke-width:1; fill:grey; " points="205,60 207,55 207,65 205,60 "  />
</g>
<g id="a31_0012"  >
<polygon style="stroke:black; stroke-width:1; fill:grey; " points="210,60 215,55 215,55 215,65 215,65 210,60 "  />
</g>
<g id="a31_0013"  >
<polygon style="stroke:black; stroke-width:1; fill:grey; " points="210,60 215,55 217,55 217,65 215,65 210,60 "  />
</g>
<g id="a31_0014"  >
<polygon style="stroke:black; stroke-width:1; fill:grey; " points="210,60 215,55 218,55 218,65 215,65 210,60 "  />
</g>
<g id="a31_0015"  >
<polygon style="stroke:black; stroke-width:1; fill:grey; " points="210,60 215,55 218,55 218,65 215,65 210,60 "  />
</g>
<g id="a31_0016"  >
<polygon style="stroke:black; stroke-width:1; fill:grey; " points="220,60 225,55 227,55 227,65 225,65 220,60 "  />
</g>
<g id="a31_0017"  >
<polygon style="stroke:black; stroke-width:1; fill:grey; " points="220,60 225,55 227,55 227,65 225,65 220,60 "  />
</g>
<g id="a31_0018"  >
<polygon style="stroke:black; stroke-width:1; fill:grey; " points="233,60 237,55 237,65 233,60 "  />
</g>
<g id="a31_0019"  >
<polygon style="stroke:black; stroke-width:1; fill:grey; " points="239,65 240,65 245,60 240,55 239,55 239,65 "  />
</g>
<g id="a31_0020"  >
<polygon style="stroke:black; stroke-width:1; fill:grey; " points="251,60 256,55 265,55 265,65 256,65 251,60 "  />
</g>
<g id="a31_0021"  >
<polygon style="stroke:black; stroke-width:1; fill:grey; " points="273,65 276,60 273,55 273,65 "  />
</g>
<g id="a31_0022"  >
<polygon style="stroke:black; stroke-width:1; fill:grey; " points="286,60 291,55 297,55 297,65 291,65 286,60 "  />
</g>
<g id="a31_0023"  >
<polygon style="stroke:black; stroke-width:1; fill:grey; " points="286,60 291,55 297,55 297,65 291,65 286,60 "  />
</g>
<g id="a31_0024"  >
<polygon style="stroke:black; stroke-width:1; fill:grey; " points="304,60 309,55 311,55 311,65 309,65 304,60 "  />
</g>
<g id="a31_0025"  >
<polygon style="stroke:black; stroke-width:1; fill:grey; " points="324,65 326,60 324,55 324,65 "  />
</g>
<g id="a31_0026"  >
<polygon style="stroke:black; stroke-width:1; fill:grey; " points="328,60 333,55 339,55 339,65 333,65 328,60 "  />
</g>
<g id="a31_0027"  >
<polygon style="stroke:black; stroke-width:1; fill:grey; " points="344,60 347,55 347,65 344,60 "  />
</g>
<g id="a31_0028"  >
<polygon style="stroke:black; stroke-width:1; fill:grey; " points="354,65 364,65 369,60 364,55 354,55 354,65 "  />
</g>
<g id="a31_0029"  >
<polygon style="stroke:black; stroke-width:1; fill:grey; " points="358,65 364,65 369,60 364,55 358,55 358,65 "  />
</g>
<g id="a31_0030"  >
<polygon style="stroke:black; stroke-width:1; fill:grey; " points="377,60 379,55 379,65 377,60 "  />
</g>
<g id="a31_0031"  >
<polygon style="stroke:black; stroke-width:1; fill:grey; " points="383,60 386,55 386,65 383,60 "  />
</g>
<g id="a31_0032"  >
<polygon style="stroke:black; stroke-width:1; fill:grey; " points="406,65 409,65 414,60 409,55 406,55 406,65 "  />
</g>
<g id="a31_0033"  >
<polygon style="stroke:black; stroke-width:1; fill:#810E15; " points="420,60 424,55 424,65 420,60 "  />
</g>
<g id="a31_0034"  >
<polygon style="stroke:black; stroke-width:1; fill:grey; " points="430,60 434,55 434,65 430,60 "  />
</g>
<g id="a31_0035"  >
<polygon style="stroke:black; stroke-width:1; fill:grey; " points="461,65 465,65 470,60 465,55 461,55 461,65 "  />
</g>
<g id="a31_0036"  >
<polygon style="stroke:black; stroke-width:1; fill:grey; " points="472,60 477,55 483,55 483,65 477,65 472,60 "  />
</g>
<g id="a31_0037"  >
<polygon style="stroke:black; stroke-width:1; fill:grey; " points="491,60 496,55 523,55 523,65 496,65 491,60 "  />
</g>
<g id="a31_0038"  >
<polygon style="stroke:black; stroke-width:1; fill:grey; " points="554,60 555,55 555,65 554,60 "  />
</g>
<g id="a31_0039"  >
<polygon style="stroke:black; stroke-width:1; fill:grey; " points="577,65 581,60 577,55 577,65 "  />
</g>
<g id="a31_0040"  >
<polygon style="stroke:black; stroke-width:1; fill:grey; " points="594,60 597,55 597,65 594,60 "  />
</g>
<g id="a31_0041"  >
<polygon style="stroke:black; stroke-width:1; fill:grey; " points="610,65 611,60 610,55 610,65 "  />
</g>
<g id="a31_0042"  >
<polygon style="stroke:black; stroke-width:1; fill:grey; " points="629,65 630,60 629,55 629,65 "  />
</g>
<g id="a31_0043"  >
<polygon style="stroke:black; stroke-width:1; fill:grey; " points="643,65 647,60 643,55 643,65 "  />
</g>
<g id="a31_0044"  >
<polygon style="stroke:black; stroke-width:1; fill:grey; " points="651,65 652,60 651,55 651,65 "  />
</g>
<g id="a31_0045"  >
<polygon style="stroke:black; stroke-width:1; fill:grey; " points="662,60 667,55 674,55 674,65 667,65 662,60 "  />
</g>
<g id="a31_0046"  >
<polygon style="stroke:black; stroke-width:1; fill:grey; " points="679,60 683,55 683,65 679,60 "  />
</g>
<g id="a31_0047"  >
<polygon style="stroke:black; stroke-width:1; fill:grey; " points="695,60 700,55 702,55 702,65 700,65 695,60 "  />
</g>
<g id="a31_0048"  >
<polygon style="stroke:black; stroke-width:1; fill:grey; " points="720,60 725,55 736,55 736,65 725,65 720,60 "  />
</g>
<g id="a31_0049"  >
<polygon style="stroke:black; stroke-width:1; fill:grey; " points="747,60 748,55 748,65 747,60 "  />
</g>
<g id="a31_0050"  >
<polygon style="stroke:black; stroke-width:1; fill:grey; " points="762,60 763,55 763,65 762,60 "  />
</g>
<g id="a31_0051"  >
<polygon style="stroke:black; stroke-width:1; fill:grey; " points="768,60 773,55 778,55 778,65 773,65 768,60 "  />
</g>
</svg>
