<svg xmlns="http://www.w3.org/2000/svg" height="0" width="768.0" version="1.1" y="0" x="0" preserveAspectRatio="none" xmlns:xlink="http://www.w3.org/1999/xlink" viewBox="0 -30 819.2 0"  >
<g  >
<line y1="60" x2="778.0" style="stroke:grey; stroke-width:2; " x1="10" y2="60"  />
</g>
<g id="a14_000"  >
<polygon style="stroke:black; stroke-width:1; fill:grey; " points="10,65 18,65 23,60 18,55 10,55 10,65 "  />
</g>
<g id="a14_001"  >
<polygon style="stroke:black; stroke-width:1; fill:#810E15; " points="58,65 70,65 75,60 70,55 58,55 58,65 "  />
</g>
<g id="a14_002"  >
<polygon style="stroke:black; stroke-width:1; fill:#810E15; " points="101,65 119,65 124,60 119,55 101,55 101,65 "  />
</g>
<g id="a14_003"  >
<polygon style="stroke:black; stroke-width:1; fill:#810E15; " points="146,65 160,65 165,60 160,55 146,55 146,65 "  />
</g>
<g id="a14_004"  >
<polygon style="stroke:black; stroke-width:1; fill:#810E15; " points="253,65 255,65 260,60 255,55 253,55 253,65 "  />
</g>
<g id="a14_005"  >
<polygon style="stroke:black; stroke-width:1; fill:#810E15; " points="271,65 283,65 288,60 283,55 271,55 271,65 "  />
</g>
<g id="a14_006"  >
<polygon style="stroke:black; stroke-width:1; fill:grey; " points="280,65 283,65 288,60 283,55 280,55 280,65 "  />
</g>
<g id="a14_007"  >
<polygon style="stroke:black; stroke-width:1; fill:#810E15; " points="301,65 312,65 317,60 312,55 301,55 301,65 "  />
</g>
<g id="a14_008"  >
<polygon style="stroke:black; stroke-width:1; fill:#810E15; " points="445,65 458,65 463,60 458,55 445,55 445,65 "  />
</g>
<g id="a14_009"  >
<polygon style="stroke:black; stroke-width:1; fill:grey; " points="456,65 458,65 463,60 458,55 456,55 456,65 "  />
</g>
<g id="a14_0010"  >
<polygon style="stroke:black; stroke-width:1; fill:#810E15; " points="477,65 491,65 496,60 491,55 477,55 477,65 "  />
</g>
<g id="a14_0011"  >
<polygon style="stroke:black; stroke-width:1; fill:grey; " points="513,65 516,60 513,55 513,65 "  />
</g>
<g id="a14_0012"  >
<polygon style="stroke:black; stroke-width:1; fill:#810E15; " points="531,65 533,60 531,55 531,65 "  />
</g>
<g id="a14_0013"  >
<polygon style="stroke:black; stroke-width:1; fill:grey; " points="601,60 606,55 621,55 621,65 606,65 601,60 "  />
</g>
<g id="a14_0014"  >
<polygon style="stroke:black; stroke-width:1; fill:#810E15; " points="636,60 641,55 652,55 652,65 641,65 636,60 "  />
</g>
<g id="a14_0015"  >
<polygon style="stroke:black; stroke-width:1; fill:grey; " points="735,60 738,55 738,65 735,60 "  />
</g>
<g id="a14_0016"  >
<polygon style="stroke:black; stroke-width:1; fill:#810E15; " points="751,65 762,65 767,60 762,55 751,55 751,65 "  />
</g>
<g id="a14_0017"  >
<polygon style="stroke:black; stroke-width:1; fill:grey; " points="770,60 775,55 778,55 778,65 775,65 770,60 "  />
</g>
</svg>
