<svg xmlns="http://www.w3.org/2000/svg" height="0" width="768.0" version="1.1" y="0" x="0" preserveAspectRatio="none" xmlns:xlink="http://www.w3.org/1999/xlink" viewBox="0 -30 819.2 0"  >
<g  >
<line y1="60" x2="778.0" style="stroke:grey; stroke-width:2; " x1="10" y2="60"  />
</g>
<g id="a70_000"  >
<polygon style="stroke:black; stroke-width:1; fill:grey; " points="10,60 15,55 33,55 33,65 15,65 10,60 "  />
</g>
<g id="a70_001"  >
<polygon style="stroke:black; stroke-width:1; fill:#810E15; " points="69,60 74,55 77,55 77,65 74,65 69,60 "  />
</g>
<g id="a70_002"  >
<polygon style="stroke:black; stroke-width:1; fill:#810E15; " points="94,60 99,55 102,55 102,65 99,65 94,60 "  />
</g>
<g id="a70_003"  >
<polygon style="stroke:black; stroke-width:1; fill:grey; " points="123,60 125,55 125,65 123,60 "  />
</g>
<g id="a70_004"  >
<polygon style="stroke:black; stroke-width:1; fill:grey; " points="127,60 132,55 134,55 134,65 132,65 127,60 "  />
</g>
<g id="a70_005"  >
<polygon style="stroke:black; stroke-width:1; fill:grey; " points="174,65 184,65 189,60 184,55 174,55 174,65 "  />
</g>
<g id="a70_006"  >
<polygon style="stroke:black; stroke-width:1; fill:grey; " points="202,65 203,65 208,60 203,55 202,55 202,65 "  />
</g>
<g id="a70_007"  >
<polygon style="stroke:black; stroke-width:1; fill:grey; " points="245,65 262,65 267,60 262,55 245,55 245,65 "  />
</g>
<g id="a70_008"  >
<polygon style="stroke:black; stroke-width:1; fill:grey; " points="245,65 262,65 267,60 262,55 245,55 245,65 "  />
</g>
<g id="a70_009"  >
<polygon style="stroke:black; stroke-width:1; fill:#810E15; " points="271,65 278,65 283,60 278,55 271,55 271,65 "  />
</g>
<g id="a70_0010"  >
<polygon style="stroke:black; stroke-width:1; fill:grey; " points="277,65 278,65 283,60 278,55 277,55 277,65 "  />
</g>
<g id="a70_0011"  >
<polygon style="stroke:black; stroke-width:1; fill:#810E15; " points="294,60 299,55 305,55 305,65 299,65 294,60 "  />
</g>
<g id="a70_0012"  >
<polygon style="stroke:black; stroke-width:1; fill:#810E15; " points="321,60 326,55 345,55 345,65 326,65 321,60 "  />
</g>
<g id="a70_0013"  >
<polygon style="stroke:black; stroke-width:1; fill:#810E15; " points="321,60 326,55 345,55 345,65 326,65 321,60 "  />
</g>
<g id="a70_0014"  >
<polygon style="stroke:black; stroke-width:1; fill:grey; " points="373,65 375,60 373,55 373,65 "  />
</g>
<g id="a70_0015"  >
<polygon style="stroke:black; stroke-width:1; fill:#810E15; " points="402,65 404,65 409,60 404,55 402,55 402,65 "  />
</g>
<g id="a70_0016"  >
<polygon style="stroke:black; stroke-width:1; fill:grey; " points="416,60 418,55 418,65 416,60 "  />
</g>
<g id="a70_0017"  >
<polygon style="stroke:black; stroke-width:1; fill:grey; " points="490,60 495,55 499,55 499,65 495,65 490,60 "  />
</g>
<g id="a70_0018"  >
<polygon style="stroke:black; stroke-width:1; fill:#810E15; " points="504,60 509,55 515,55 515,65 509,65 504,60 "  />
</g>
<g id="a70_0019"  >
<polygon style="stroke:black; stroke-width:1; fill:grey; " points="537,65 538,60 537,55 537,65 "  />
</g>
<g id="a70_0020"  >
<polygon style="stroke:black; stroke-width:1; fill:#810E15; " points="558,60 563,55 579,55 579,65 563,65 558,60 "  />
</g>
<g id="a70_0021"  >
<polygon style="stroke:black; stroke-width:1; fill:grey; " points="581,60 583,55 583,65 581,60 "  />
</g>
<g id="a70_0022"  >
<polygon style="stroke:black; stroke-width:1; fill:#810E15; " points="653,60 658,55 669,55 669,65 658,65 653,60 "  />
</g>
<g id="a70_0023"  >
<polygon style="stroke:black; stroke-width:1; fill:grey; " points="686,60 691,55 696,55 696,65 691,65 686,60 "  />
</g>
<g id="a70_0024"  >
<polygon style="stroke:black; stroke-width:1; fill:#810E15; " points="731,60 736,55 739,55 739,65 736,65 731,60 "  />
</g>
<g id="a70_0025"  >
<polygon style="stroke:black; stroke-width:1; fill:grey; " points="765,65 773,65 778,60 773,55 765,55 765,65 "  />
</g>
</svg>
