<svg xmlns="http://www.w3.org/2000/svg" height="0" width="768.0" version="1.1" y="0" x="0" preserveAspectRatio="none" xmlns:xlink="http://www.w3.org/1999/xlink" viewBox="0 -30 819.2 0"  >
<g  >
<line y1="60" x2="778.0" style="stroke:grey; stroke-width:2; " x1="10" y2="60"  />
</g>
<g id="a39_000"  >
<polygon style="stroke:black; stroke-width:1; fill:grey; " points="10,65 13,65 18,60 13,55 10,55 10,65 "  />
</g>
<g id="a39_001"  >
<polygon style="stroke:black; stroke-width:1; fill:#810E15; " points="40,60 45,55 77,55 77,65 45,65 40,60 "  />
</g>
<g id="a39_002"  >
<polygon style="stroke:black; stroke-width:1; fill:#810E15; " points="131,60 136,55 334,55 334,65 136,65 131,60 "  />
</g>
<g id="a39_003"  >
<polygon style="stroke:black; stroke-width:1; fill:#810E15; " points="368,60 373,55 408,55 408,65 373,65 368,60 "  />
</g>
<g id="a39_004"  >
<polygon style="stroke:black; stroke-width:1; fill:grey; " points="566,60 571,55 618,55 618,65 571,65 566,60 "  />
</g>
<g id="a39_005"  >
<polygon style="stroke:black; stroke-width:1; fill:#810E15; " points="632,60 637,55 672,55 672,65 637,65 632,60 "  />
</g>
<g id="a39_006"  >
<polygon style="stroke:black; stroke-width:1; fill:grey; " points="713,65 773,65 778,60 773,55 713,55 713,65 "  />
</g>
</svg>
