<svg xmlns="http://www.w3.org/2000/svg" height="0" width="768.0" version="1.1" y="0" x="0" preserveAspectRatio="none" xmlns:xlink="http://www.w3.org/1999/xlink" viewBox="0 -30 819.2 0"  >
<g  >
<line y1="60" x2="778.0" style="stroke:grey; stroke-width:2; " x1="10" y2="60"  />
</g>
<g id="a25_000"  >
<polygon style="stroke:black; stroke-width:1; fill:grey; " points="10,60 12,55 12,65 10,60 "  />
</g>
<g id="a25_001"  >
<polygon style="stroke:black; stroke-width:1; fill:grey; " points="15,65 24,65 29,60 24,55 15,55 15,65 "  />
</g>
<g id="a25_002"  >
<polygon style="stroke:black; stroke-width:1; fill:grey; " points="32,60 34,55 34,65 32,60 "  />
</g>
<g id="a25_003"  >
<polygon style="stroke:black; stroke-width:1; fill:grey; " points="32,60 34,55 34,65 32,60 "  />
</g>
<g id="a25_004"  >
<polygon style="stroke:black; stroke-width:1; fill:grey; " points="32,60 34,55 34,65 32,60 "  />
</g>
<g id="a25_005"  >
<polygon style="stroke:black; stroke-width:1; fill:grey; " points="32,60 34,55 34,65 32,60 "  />
</g>
<g id="a25_006"  >
<polygon style="stroke:black; stroke-width:1; fill:grey; " points="32,60 34,55 34,65 32,60 "  />
</g>
<g id="a25_007"  >
<polygon style="stroke:black; stroke-width:1; fill:grey; " points="36,65 36,60 36,55 36,65 "  />
</g>
<g id="a25_008"  >
<polygon style="stroke:black; stroke-width:1; fill:grey; " points="43,65 43,65 48,60 43,55 43,55 43,65 "  />
</g>
<g id="a25_009"  >
<polygon style="stroke:black; stroke-width:1; fill:grey; " points="50,65 52,60 50,55 50,65 "  />
</g>
<g id="a25_0010"  >
<polygon style="stroke:black; stroke-width:1; fill:grey; " points="57,60 59,55 59,65 57,60 "  />
</g>
<g id="a25_0011"  >
<polygon style="stroke:black; stroke-width:1; fill:grey; " points="65,65 68,60 65,55 65,65 "  />
</g>
<g id="a25_0012"  >
<polygon style="stroke:black; stroke-width:1; fill:grey; " points="65,65 68,60 65,55 65,65 "  />
</g>
<g id="a25_0013"  >
<polygon style="stroke:black; stroke-width:1; fill:grey; " points="65,65 69,60 65,55 65,65 "  />
</g>
<g id="a25_0014"  >
<polygon style="stroke:black; stroke-width:1; fill:grey; " points="80,60 80,55 80,65 80,60 "  />
</g>
<g id="a25_0015"  >
<polygon style="stroke:black; stroke-width:1; fill:grey; " points="83,65 86,60 83,55 83,65 "  />
</g>
<g id="a25_0016"  >
<polygon style="stroke:black; stroke-width:1; fill:grey; " points="83,65 84,65 89,60 84,55 83,55 83,65 "  />
</g>
<g id="a25_0017"  >
<polygon style="stroke:black; stroke-width:1; fill:grey; " points="84,65 86,60 84,55 84,65 "  />
</g>
<g id="a25_0018"  >
<polygon style="stroke:black; stroke-width:1; fill:grey; " points="84,65 87,60 84,55 84,65 "  />
</g>
<g id="a25_0019"  >
<polygon style="stroke:black; stroke-width:1; fill:grey; " points="84,65 84,65 89,60 84,55 84,55 84,65 "  />
</g>
<g id="a25_0020"  >
<polygon style="stroke:black; stroke-width:1; fill:grey; " points="90,60 93,55 93,65 90,60 "  />
</g>
<g id="a25_0021"  >
<polygon style="stroke:black; stroke-width:1; fill:grey; " points="90,60 95,55 95,55 95,65 95,65 90,60 "  />
</g>
<g id="a25_0022"  >
<polygon style="stroke:black; stroke-width:1; fill:grey; " points="91,60 95,55 95,65 91,60 "  />
</g>
<g id="a25_0023"  >
<polygon style="stroke:black; stroke-width:1; fill:grey; " points="100,60 105,55 109,55 109,65 105,65 100,60 "  />
</g>
<g id="a25_0024"  >
<polygon style="stroke:black; stroke-width:1; fill:grey; " points="114,65 118,60 114,55 114,65 "  />
</g>
<g id="a25_0025"  >
<polygon style="stroke:black; stroke-width:1; fill:grey; " points="114,65 114,65 119,60 114,55 114,55 114,65 "  />
</g>
<g id="a25_0026"  >
<polygon style="stroke:black; stroke-width:1; fill:grey; " points="114,65 114,65 119,60 114,55 114,55 114,65 "  />
</g>
<g id="a25_0027"  >
<polygon style="stroke:black; stroke-width:1; fill:grey; " points="115,65 119,60 115,55 115,65 "  />
</g>
<g id="a25_0028"  >
<polygon style="stroke:black; stroke-width:1; fill:grey; " points="126,65 128,65 133,60 128,55 126,55 126,65 "  />
</g>
<g id="a25_0029"  >
<polygon style="stroke:black; stroke-width:1; fill:grey; " points="127,65 128,65 133,60 128,55 127,55 127,65 "  />
</g>
<g id="a25_0030"  >
<polygon style="stroke:black; stroke-width:1; fill:grey; " points="135,65 135,65 140,60 135,55 135,55 135,65 "  />
</g>
<g id="a25_0031"  >
<polygon style="stroke:black; stroke-width:1; fill:grey; " points="142,65 144,60 142,55 142,65 "  />
</g>
<g id="a25_0032"  >
<polygon style="stroke:black; stroke-width:1; fill:grey; " points="146,65 149,65 154,60 149,55 146,55 146,65 "  />
</g>
<g id="a25_0033"  >
<polygon style="stroke:black; stroke-width:1; fill:grey; " points="156,65 159,60 156,55 156,65 "  />
</g>
<g id="a25_0034"  >
<polygon style="stroke:black; stroke-width:1; fill:grey; " points="156,65 159,60 156,55 156,65 "  />
</g>
<g id="a25_0035"  >
<polygon style="stroke:black; stroke-width:1; fill:grey; " points="163,65 164,60 163,55 163,65 "  />
</g>
<g id="a25_0036"  >
<polygon style="stroke:black; stroke-width:1; fill:grey; " points="169,60 169,55 169,65 169,60 "  />
</g>
<g id="a25_0037"  >
<polygon style="stroke:black; stroke-width:1; fill:grey; " points="174,65 175,60 174,55 174,65 "  />
</g>
<g id="a25_0038"  >
<polygon style="stroke:black; stroke-width:1; fill:grey; " points="176,65 176,60 176,55 176,65 "  />
</g>
<g id="a25_0039"  >
<polygon style="stroke:black; stroke-width:1; fill:grey; " points="179,65 182,60 179,55 179,65 "  />
</g>
<g id="a25_0040"  >
<polygon style="stroke:black; stroke-width:1; fill:grey; " points="186,60 191,55 194,55 194,65 191,65 186,60 "  />
</g>
<g id="a25_0041"  >
<polygon style="stroke:black; stroke-width:1; fill:grey; " points="206,60 209,55 209,65 206,60 "  />
</g>
<g id="a25_0042"  >
<polygon style="stroke:black; stroke-width:1; fill:grey; " points="217,65 219,60 217,55 217,65 "  />
</g>
<g id="a25_0043"  >
<polygon style="stroke:black; stroke-width:1; fill:grey; " points="222,60 227,55 227,55 227,65 227,65 222,60 "  />
</g>
<g id="a25_0044"  >
<polygon style="stroke:black; stroke-width:1; fill:grey; " points="233,65 235,60 233,55 233,65 "  />
</g>
<g id="a25_0045"  >
<polygon style="stroke:black; stroke-width:1; fill:grey; " points="237,60 240,55 240,65 237,60 "  />
</g>
<g id="a25_0046"  >
<polygon style="stroke:black; stroke-width:1; fill:grey; " points="243,60 248,55 249,55 249,65 248,65 243,60 "  />
</g>
<g id="a25_0047"  >
<polygon style="stroke:black; stroke-width:1; fill:grey; " points="245,60 249,55 249,65 245,60 "  />
</g>
<g id="a25_0048"  >
<polygon style="stroke:black; stroke-width:1; fill:grey; " points="253,65 253,60 253,55 253,65 "  />
</g>
<g id="a25_0049"  >
<polygon style="stroke:black; stroke-width:1; fill:grey; " points="256,60 258,55 258,65 256,60 "  />
</g>
<g id="a25_0050"  >
<polygon style="stroke:black; stroke-width:1; fill:grey; " points="270,65 271,60 270,55 270,65 "  />
</g>
<g id="a25_0051"  >
<polygon style="stroke:black; stroke-width:1; fill:grey; " points="280,60 285,55 287,55 287,65 285,65 280,60 "  />
</g>
<g id="a25_0052"  >
<polygon style="stroke:black; stroke-width:1; fill:grey; " points="281,60 286,55 287,55 287,65 286,65 281,60 "  />
</g>
<g id="a25_0053"  >
<polygon style="stroke:black; stroke-width:1; fill:grey; " points="291,60 292,55 292,65 291,60 "  />
</g>
<g id="a25_0054"  >
<polygon style="stroke:black; stroke-width:1; fill:grey; " points="311,65 313,60 311,55 311,65 "  />
</g>
<g id="a25_0055"  >
<polygon style="stroke:black; stroke-width:1; fill:grey; " points="315,60 320,55 349,55 349,65 320,65 315,60 "  />
</g>
<g id="a25_0056"  >
<polygon style="stroke:black; stroke-width:1; fill:grey; " points="353,65 354,60 353,55 353,65 "  />
</g>
<g id="a25_0057"  >
<polygon style="stroke:black; stroke-width:1; fill:#810E15; " points="355,60 357,55 357,65 355,60 "  />
</g>
<g id="a25_0058"  >
<polygon style="stroke:black; stroke-width:1; fill:grey; " points="360,65 360,60 360,55 360,65 "  />
</g>
<g id="a25_0059"  >
<polygon style="stroke:black; stroke-width:1; fill:grey; " points="373,65 373,60 373,55 373,65 "  />
</g>
<g id="a25_0060"  >
<polygon style="stroke:black; stroke-width:1; fill:#810E15; " points="375,60 379,55 379,65 375,60 "  />
</g>
<g id="a25_0061"  >
<polygon style="stroke:black; stroke-width:1; fill:#810E15; " points="415,60 416,55 416,65 415,60 "  />
</g>
<g id="a25_0062"  >
<polygon style="stroke:black; stroke-width:1; fill:grey; " points="426,60 427,55 427,65 426,60 "  />
</g>
<g id="a25_0063"  >
<polygon style="stroke:black; stroke-width:1; fill:#810E15; " points="444,60 445,55 445,65 444,60 "  />
</g>
<g id="a25_0064"  >
<polygon style="stroke:black; stroke-width:1; fill:grey; " points="456,65 459,60 456,55 456,65 "  />
</g>
<g id="a25_0065"  >
<polygon style="stroke:black; stroke-width:1; fill:grey; " points="467,65 471,60 467,55 467,65 "  />
</g>
<g id="a25_0066"  >
<polygon style="stroke:black; stroke-width:1; fill:grey; " points="474,65 474,65 479,60 474,55 474,55 474,65 "  />
</g>
<g id="a25_0067"  >
<polygon style="stroke:black; stroke-width:1; fill:grey; " points="483,60 483,55 483,65 483,60 "  />
</g>
<g id="a25_0068"  >
<polygon style="stroke:black; stroke-width:1; fill:grey; " points="484,65 484,60 484,55 484,65 "  />
</g>
<g id="a25_0069"  >
<polygon style="stroke:black; stroke-width:1; fill:grey; " points="489,65 495,65 500,60 495,55 489,55 489,65 "  />
</g>
<g id="a25_0070"  >
<polygon style="stroke:black; stroke-width:1; fill:grey; " points="507,60 512,55 512,55 512,65 512,65 507,60 "  />
</g>
<g id="a25_0071"  >
<polygon style="stroke:black; stroke-width:1; fill:grey; " points="507,60 512,55 512,55 512,65 512,65 507,60 "  />
</g>
<g id="a25_0072"  >
<polygon style="stroke:black; stroke-width:1; fill:grey; " points="515,60 520,55 520,55 520,65 520,65 515,60 "  />
</g>
<g id="a25_0073"  >
<polygon style="stroke:black; stroke-width:1; fill:grey; " points="515,60 520,55 521,55 521,65 520,65 515,60 "  />
</g>
<g id="a25_0074"  >
<polygon style="stroke:black; stroke-width:1; fill:grey; " points="522,65 523,65 528,60 523,55 522,55 522,65 "  />
</g>
<g id="a25_0075"  >
<polygon style="stroke:black; stroke-width:1; fill:grey; " points="530,60 533,55 533,65 530,60 "  />
</g>
<g id="a25_0076"  >
<polygon style="stroke:black; stroke-width:1; fill:grey; " points="543,60 543,55 543,65 543,60 "  />
</g>
<g id="a25_0077"  >
<polygon style="stroke:black; stroke-width:1; fill:grey; " points="551,60 556,55 558,55 558,65 556,65 551,60 "  />
</g>
<g id="a25_0078"  >
<polygon style="stroke:black; stroke-width:1; fill:grey; " points="551,60 556,55 558,55 558,65 556,65 551,60 "  />
</g>
<g id="a25_0079"  >
<polygon style="stroke:black; stroke-width:1; fill:grey; " points="564,60 565,55 565,65 564,60 "  />
</g>
<g id="a25_0080"  >
<polygon style="stroke:black; stroke-width:1; fill:grey; " points="576,60 576,55 576,65 576,60 "  />
</g>
<g id="a25_0081"  >
<polygon style="stroke:black; stroke-width:1; fill:grey; " points="578,60 583,55 584,55 584,65 583,65 578,60 "  />
</g>
<g id="a25_0082"  >
<polygon style="stroke:black; stroke-width:1; fill:grey; " points="591,65 591,60 591,55 591,65 "  />
</g>
<g id="a25_0083"  >
<polygon style="stroke:black; stroke-width:1; fill:grey; " points="600,65 601,60 600,55 600,65 "  />
</g>
<g id="a25_0084"  >
<polygon style="stroke:black; stroke-width:1; fill:grey; " points="606,65 609,60 606,55 606,65 "  />
</g>
<g id="a25_0085"  >
<polygon style="stroke:black; stroke-width:1; fill:grey; " points="617,65 619,60 617,55 617,65 "  />
</g>
<g id="a25_0086"  >
<polygon style="stroke:black; stroke-width:1; fill:grey; " points="625,65 626,60 625,55 625,65 "  />
</g>
<g id="a25_0087"  >
<polygon style="stroke:black; stroke-width:1; fill:grey; " points="631,60 631,55 631,65 631,60 "  />
</g>
<g id="a25_0088"  >
<polygon style="stroke:black; stroke-width:1; fill:grey; " points="658,65 659,60 658,55 658,65 "  />
</g>
<g id="a25_0089"  >
<polygon style="stroke:black; stroke-width:1; fill:grey; " points="662,65 663,60 662,55 662,65 "  />
</g>
<g id="a25_0090"  >
<polygon style="stroke:black; stroke-width:1; fill:grey; " points="663,65 667,60 663,55 663,65 "  />
</g>
<g id="a25_0091"  >
<polygon style="stroke:black; stroke-width:1; fill:grey; " points="663,65 667,60 663,55 663,65 "  />
</g>
<g id="a25_0092"  >
<polygon style="stroke:black; stroke-width:1; fill:grey; " points="668,60 669,55 669,65 668,60 "  />
</g>
<g id="a25_0093"  >
<polygon style="stroke:black; stroke-width:1; fill:grey; " points="684,65 685,60 684,55 684,65 "  />
</g>
<g id="a25_0094"  >
<polygon style="stroke:black; stroke-width:1; fill:grey; " points="690,60 692,55 692,65 690,60 "  />
</g>
<g id="a25_0095"  >
<polygon style="stroke:black; stroke-width:1; fill:grey; " points="693,65 695,60 693,55 693,65 "  />
</g>
<g id="a25_0096"  >
<polygon style="stroke:black; stroke-width:1; fill:grey; " points="696,60 699,55 699,65 696,60 "  />
</g>
<g id="a25_0097"  >
<polygon style="stroke:black; stroke-width:1; fill:grey; " points="700,60 705,55 705,55 705,65 705,65 700,60 "  />
</g>
<g id="a25_0098"  >
<polygon style="stroke:black; stroke-width:1; fill:grey; " points="713,60 714,55 714,65 713,60 "  />
</g>
<g id="a25_0099"  >
<polygon style="stroke:black; stroke-width:1; fill:grey; " points="737,65 740,60 737,55 737,65 "  />
</g>
<g id="a25_00100"  >
<polygon style="stroke:black; stroke-width:1; fill:grey; " points="747,65 747,60 747,55 747,65 "  />
</g>
<g id="a25_00101"  >
<polygon style="stroke:black; stroke-width:1; fill:grey; " points="759,60 760,55 760,65 759,60 "  />
</g>
<g id="a25_00102"  >
<polygon style="stroke:black; stroke-width:1; fill:grey; " points="760,65 762,60 760,55 760,65 "  />
</g>
<g id="a25_00103"  >
<polygon style="stroke:black; stroke-width:1; fill:grey; " points="765,60 766,55 766,65 765,60 "  />
</g>
<g id="a25_00104"  >
<polygon style="stroke:black; stroke-width:1; fill:grey; " points="775,60 776,55 776,65 775,60 "  />
</g>
<g id="a25_00105"  >
<polygon style="stroke:black; stroke-width:1; fill:grey; " points="777,65 778,60 777,55 777,65 "  />
</g>
</svg>
