<svg xmlns="http://www.w3.org/2000/svg" height="0" width="768.0" version="1.1" y="0" x="0" preserveAspectRatio="none" xmlns:xlink="http://www.w3.org/1999/xlink" viewBox="0 -30 819.2 0"  >
<g  >
<line y1="60" x2="778.0" style="stroke:grey; stroke-width:2; " x1="10" y2="60"  />
</g>
<g id="a8_000"  >
<polygon style="stroke:black; stroke-width:1; fill:grey; " points="10,65 34,65 39,60 34,55 10,55 10,65 "  />
</g>
<g id="a8_001"  >
<polygon style="stroke:black; stroke-width:1; fill:grey; " points="70,65 72,65 77,60 72,55 70,55 70,65 "  />
</g>
<g id="a8_002"  >
<polygon style="stroke:black; stroke-width:1; fill:grey; " points="93,60 98,55 131,55 131,65 98,65 93,60 "  />
</g>
<g id="a8_003"  >
<polygon style="stroke:black; stroke-width:1; fill:#810E15; " points="93,60 98,55 141,55 141,65 98,65 93,60 "  />
</g>
<g id="a8_004"  >
<polygon style="stroke:black; stroke-width:1; fill:grey; " points="163,60 168,55 194,55 194,65 168,65 163,60 "  />
</g>
<g id="a8_005"  >
<polygon style="stroke:black; stroke-width:1; fill:grey; " points="163,60 168,55 212,55 212,65 168,65 163,60 "  />
</g>
<g id="a8_006"  >
<polygon style="stroke:black; stroke-width:1; fill:grey; " points="183,60 188,55 194,55 194,65 188,65 183,60 "  />
</g>
<g id="a8_007"  >
<polygon style="stroke:black; stroke-width:1; fill:grey; " points="185,60 190,55 194,55 194,65 190,65 185,60 "  />
</g>
<g id="a8_008"  >
<polygon style="stroke:black; stroke-width:1; fill:grey; " points="225,65 226,60 225,55 225,65 "  />
</g>
<g id="a8_009"  >
<polygon style="stroke:black; stroke-width:1; fill:grey; " points="268,65 269,60 268,55 268,65 "  />
</g>
<g id="a8_0010"  >
<polygon style="stroke:black; stroke-width:1; fill:grey; " points="276,65 276,65 281,60 276,55 276,55 276,65 "  />
</g>
<g id="a8_0011"  >
<polygon style="stroke:black; stroke-width:1; fill:grey; " points="290,60 295,55 308,55 308,65 295,65 290,60 "  />
</g>
<g id="a8_0012"  >
<polygon style="stroke:black; stroke-width:1; fill:grey; " points="347,65 385,65 390,60 385,55 347,55 347,65 "  />
</g>
<g id="a8_0013"  >
<polygon style="stroke:black; stroke-width:1; fill:#810E15; " points="408,65 419,65 424,60 419,55 408,55 408,65 "  />
</g>
<g id="a8_0014"  >
<polygon style="stroke:black; stroke-width:1; fill:grey; " points="431,65 432,65 437,60 432,55 431,55 431,65 "  />
</g>
<g id="a8_0015"  >
<polygon style="stroke:black; stroke-width:1; fill:grey; " points="431,65 436,65 441,60 436,55 431,55 431,65 "  />
</g>
<g id="a8_0016"  >
<polygon style="stroke:black; stroke-width:1; fill:grey; " points="431,65 440,65 445,60 440,55 431,55 431,65 "  />
</g>
<g id="a8_0017"  >
<polygon style="stroke:black; stroke-width:1; fill:grey; " points="431,65 443,65 448,60 443,55 431,55 431,65 "  />
</g>
<g id="a8_0018"  >
<polygon style="stroke:black; stroke-width:1; fill:#810E15; " points="515,65 515,65 520,60 515,55 515,55 515,65 "  />
</g>
<g id="a8_0019"  >
<polygon style="stroke:black; stroke-width:1; fill:#810E15; " points="530,65 531,65 536,60 531,55 530,55 530,65 "  />
</g>
<g id="a8_0020"  >
<polygon style="stroke:black; stroke-width:1; fill:grey; " points="546,65 548,60 546,55 546,65 "  />
</g>
<g id="a8_0021"  >
<polygon style="stroke:black; stroke-width:1; fill:grey; " points="568,65 570,60 568,55 568,65 "  />
</g>
<g id="a8_0022"  >
<polygon style="stroke:black; stroke-width:1; fill:grey; " points="587,65 588,60 587,55 587,65 "  />
</g>
<g id="a8_0023"  >
<polygon style="stroke:black; stroke-width:1; fill:grey; " points="596,65 599,60 596,55 596,65 "  />
</g>
<g id="a8_0024"  >
<polygon style="stroke:black; stroke-width:1; fill:grey; " points="606,65 608,60 606,55 606,65 "  />
</g>
<g id="a8_0025"  >
<polygon style="stroke:black; stroke-width:1; fill:grey; " points="615,65 618,60 615,55 615,65 "  />
</g>
<g id="a8_0026"  >
<polygon style="stroke:black; stroke-width:1; fill:grey; " points="630,65 631,65 636,60 631,55 630,55 630,65 "  />
</g>
<g id="a8_0027"  >
<polygon style="stroke:black; stroke-width:1; fill:grey; " points="670,60 673,55 673,65 670,60 "  />
</g>
<g id="a8_0028"  >
<polygon style="stroke:black; stroke-width:1; fill:#810E15; " points="685,65 685,65 690,60 685,55 685,55 685,65 "  />
</g>
<g id="a8_0029"  >
<polygon style="stroke:black; stroke-width:1; fill:grey; " points="717,65 720,65 725,60 720,55 717,55 717,65 "  />
</g>
<g id="a8_0030"  >
<polygon style="stroke:black; stroke-width:1; fill:grey; " points="732,60 737,55 778,55 778,65 737,65 732,60 "  />
</g>
</svg>
