<svg xmlns="http://www.w3.org/2000/svg" height="0" width="768.0" version="1.1" y="0" x="0" preserveAspectRatio="none" xmlns:xlink="http://www.w3.org/1999/xlink" viewBox="0 -30 819.2 0"  >
<g  >
<line y1="60" x2="778.0" style="stroke:grey; stroke-width:2; " x1="10" y2="60"  />
</g>
<g id="a5_000"  >
<polygon style="stroke:black; stroke-width:1; fill:grey; " points="10,60 10,55 10,65 10,60 "  />
</g>
<g id="a5_001"  >
<polygon style="stroke:black; stroke-width:1; fill:grey; " points="35,65 36,60 35,55 35,65 "  />
</g>
<g id="a5_002"  >
<polygon style="stroke:black; stroke-width:1; fill:grey; " points="67,60 70,55 70,65 67,60 "  />
</g>
<g id="a5_003"  >
<polygon style="stroke:black; stroke-width:1; fill:grey; " points="115,60 120,55 127,55 127,65 120,65 115,60 "  />
</g>
<g id="a5_004"  >
<polygon style="stroke:black; stroke-width:1; fill:grey; " points="115,60 120,55 127,55 127,65 120,65 115,60 "  />
</g>
<g id="a5_005"  >
<polygon style="stroke:black; stroke-width:1; fill:grey; " points="146,65 148,60 146,55 146,65 "  />
</g>
<g id="a5_006"  >
<polygon style="stroke:black; stroke-width:1; fill:grey; " points="148,60 153,55 181,55 181,65 153,65 148,60 "  />
</g>
<g id="a5_007"  >
<polygon style="stroke:black; stroke-width:1; fill:grey; " points="184,60 185,55 185,65 184,60 "  />
</g>
<g id="a5_008"  >
<polygon style="stroke:black; stroke-width:1; fill:grey; " points="199,60 201,55 201,65 199,60 "  />
</g>
<g id="a5_009"  >
<polygon style="stroke:black; stroke-width:1; fill:grey; " points="222,60 224,55 224,65 222,60 "  />
</g>
<g id="a5_0010"  >
<polygon style="stroke:black; stroke-width:1; fill:grey; " points="245,65 247,60 245,55 245,65 "  />
</g>
<g id="a5_0011"  >
<polygon style="stroke:black; stroke-width:1; fill:grey; " points="266,65 280,65 285,60 280,55 266,55 266,65 "  />
</g>
<g id="a5_0012"  >
<polygon style="stroke:black; stroke-width:1; fill:grey; " points="296,65 297,65 302,60 297,55 296,55 296,65 "  />
</g>
<g id="a5_0013"  >
<polygon style="stroke:black; stroke-width:1; fill:grey; " points="303,65 306,60 303,55 303,65 "  />
</g>
<g id="a5_0014"  >
<polygon style="stroke:black; stroke-width:1; fill:grey; " points="309,60 312,55 312,65 309,60 "  />
</g>
<g id="a5_0015"  >
<polygon style="stroke:black; stroke-width:1; fill:grey; " points="326,60 326,55 326,65 326,60 "  />
</g>
<g id="a5_0016"  >
<polygon style="stroke:black; stroke-width:1; fill:grey; " points="329,60 334,55 340,55 340,65 334,65 329,60 "  />
</g>
<g id="a5_0017"  >
<polygon style="stroke:black; stroke-width:1; fill:grey; " points="355,60 355,55 355,65 355,60 "  />
</g>
<g id="a5_0018"  >
<polygon style="stroke:black; stroke-width:1; fill:grey; " points="373,65 377,60 373,55 373,65 "  />
</g>
<g id="a5_0019"  >
<polygon style="stroke:black; stroke-width:1; fill:#810E15; " points="391,60 393,55 393,65 391,60 "  />
</g>
<g id="a5_0020"  >
<polygon style="stroke:black; stroke-width:1; fill:grey; " points="397,60 402,55 405,55 405,65 402,65 397,60 "  />
</g>
<g id="a5_0021"  >
<polygon style="stroke:black; stroke-width:1; fill:grey; " points="419,60 424,55 424,55 424,65 424,65 419,60 "  />
</g>
<g id="a5_0022"  >
<polygon style="stroke:black; stroke-width:1; fill:grey; " points="429,65 433,60 429,55 429,65 "  />
</g>
<g id="a5_0023"  >
<polygon style="stroke:black; stroke-width:1; fill:grey; " points="429,65 433,60 429,55 429,65 "  />
</g>
<g id="a5_0024"  >
<polygon style="stroke:black; stroke-width:1; fill:grey; " points="439,60 442,55 442,65 439,60 "  />
</g>
<g id="a5_0025"  >
<polygon style="stroke:black; stroke-width:1; fill:grey; " points="456,65 460,60 456,55 456,65 "  />
</g>
<g id="a5_0026"  >
<polygon style="stroke:black; stroke-width:1; fill:grey; " points="463,60 468,55 495,55 495,65 468,65 463,60 "  />
</g>
<g id="a5_0027"  >
<polygon style="stroke:black; stroke-width:1; fill:grey; " points="507,60 509,55 509,65 507,60 "  />
</g>
<g id="a5_0028"  >
<polygon style="stroke:black; stroke-width:1; fill:grey; " points="513,65 517,65 522,60 517,55 513,55 513,65 "  />
</g>
<g id="a5_0029"  >
<polygon style="stroke:black; stroke-width:1; fill:grey; " points="534,60 536,55 536,65 534,60 "  />
</g>
<g id="a5_0030"  >
<polygon style="stroke:black; stroke-width:1; fill:grey; " points="546,60 548,55 548,65 546,60 "  />
</g>
<g id="a5_0031"  >
<polygon style="stroke:black; stroke-width:1; fill:grey; " points="549,60 549,55 549,65 549,60 "  />
</g>
<g id="a5_0032"  >
<polygon style="stroke:black; stroke-width:1; fill:grey; " points="551,60 552,55 552,65 551,60 "  />
</g>
<g id="a5_0033"  >
<polygon style="stroke:black; stroke-width:1; fill:grey; " points="563,65 564,60 563,55 563,65 "  />
</g>
<g id="a5_0034"  >
<polygon style="stroke:black; stroke-width:1; fill:grey; " points="581,60 585,55 585,65 581,60 "  />
</g>
<g id="a5_0035"  >
<polygon style="stroke:black; stroke-width:1; fill:grey; " points="597,60 598,55 598,65 597,60 "  />
</g>
<g id="a5_0036"  >
<polygon style="stroke:black; stroke-width:1; fill:grey; " points="618,60 619,55 619,65 618,60 "  />
</g>
<g id="a5_0037"  >
<polygon style="stroke:black; stroke-width:1; fill:grey; " points="647,65 651,60 647,55 647,65 "  />
</g>
<g id="a5_0038"  >
<polygon style="stroke:black; stroke-width:1; fill:grey; " points="660,65 661,60 660,55 660,65 "  />
</g>
<g id="a5_0039"  >
<polygon style="stroke:black; stroke-width:1; fill:grey; " points="673,60 674,55 674,65 673,60 "  />
</g>
<g id="a5_0040"  >
<polygon style="stroke:black; stroke-width:1; fill:grey; " points="683,65 684,60 683,55 683,65 "  />
</g>
<g id="a5_0041"  >
<polygon style="stroke:black; stroke-width:1; fill:grey; " points="703,60 706,55 706,65 703,60 "  />
</g>
<g id="a5_0042"  >
<polygon style="stroke:black; stroke-width:1; fill:grey; " points="716,60 719,55 719,65 716,60 "  />
</g>
<g id="a5_0043"  >
<polygon style="stroke:black; stroke-width:1; fill:grey; " points="736,65 740,60 736,55 736,65 "  />
</g>
<g id="a5_0044"  >
<polygon style="stroke:black; stroke-width:1; fill:grey; " points="748,65 751,65 756,60 751,55 748,55 748,65 "  />
</g>
<g id="a5_0045"  >
<polygon style="stroke:black; stroke-width:1; fill:grey; " points="760,60 765,55 778,55 778,65 765,65 760,60 "  />
</g>
</svg>
