<svg xmlns="http://www.w3.org/2000/svg" height="0" width="768.0" version="1.1" y="0" x="0" preserveAspectRatio="none" xmlns:xlink="http://www.w3.org/1999/xlink" viewBox="0 -30 819.2 0"  >
<g  >
<line y1="60" x2="778.0" style="stroke:grey; stroke-width:2; " x1="10" y2="60"  />
</g>
<g id="a27_000"  >
<polygon style="stroke:black; stroke-width:1; fill:grey; " points="10,60 15,55 28,55 28,65 15,65 10,60 "  />
</g>
<g id="a27_001"  >
<polygon style="stroke:black; stroke-width:1; fill:#810E15; " points="75,65 155,65 160,60 155,55 75,55 75,65 "  />
</g>
<g id="a27_002"  >
<polygon style="stroke:black; stroke-width:1; fill:grey; " points="272,60 277,55 277,55 277,65 277,65 272,60 "  />
</g>
<g id="a27_003"  >
<polygon style="stroke:black; stroke-width:1; fill:grey; " points="323,65 376,65 381,60 376,55 323,55 323,65 "  />
</g>
<g id="a27_004"  >
<polygon style="stroke:black; stroke-width:1; fill:grey; " points="444,65 446,65 451,60 446,55 444,55 444,65 "  />
</g>
<g id="a27_005"  >
<polygon style="stroke:black; stroke-width:1; fill:grey; " points="491,65 496,65 501,60 496,55 491,55 491,65 "  />
</g>
<g id="a27_006"  >
<polygon style="stroke:black; stroke-width:1; fill:#810E15; " points="582,65 642,65 647,60 642,55 582,55 582,65 "  />
</g>
<g id="a27_007"  >
<polygon style="stroke:black; stroke-width:1; fill:grey; " points="651,60 653,55 653,65 651,60 "  />
</g>
<g id="a27_008"  >
<polygon style="stroke:black; stroke-width:1; fill:#810E15; " points="689,60 694,55 694,55 694,65 694,65 689,60 "  />
</g>
<g id="a27_009"  >
<polygon style="stroke:black; stroke-width:1; fill:grey; " points="714,60 719,55 742,55 742,65 719,65 714,60 "  />
</g>
<g id="a27_0010"  >
<polygon style="stroke:black; stroke-width:1; fill:grey; " points="773,65 773,65 778,60 773,55 773,55 773,65 "  />
</g>
</svg>
