<svg xmlns="http://www.w3.org/2000/svg" height="0" width="768.0" version="1.1" y="0" x="0" preserveAspectRatio="none" xmlns:xlink="http://www.w3.org/1999/xlink" viewBox="0 -30 819.2 0"  >
<g  >
<line y1="60" x2="778.0" style="stroke:grey; stroke-width:2; " x1="10" y2="60"  />
</g>
<g id="a26_000"  >
<polygon style="stroke:black; stroke-width:1; fill:#810E15; " points="10,65 34,65 39,60 34,55 10,55 10,65 "  />
</g>
<g id="a26_001"  >
<polygon style="stroke:black; stroke-width:1; fill:grey; " points="63,60 68,55 111,55 111,65 68,65 63,60 "  />
</g>
<g id="a26_002"  >
<polygon style="stroke:black; stroke-width:1; fill:grey; " points="137,60 142,55 157,55 157,65 142,65 137,60 "  />
</g>
<g id="a26_003"  >
<polygon style="stroke:black; stroke-width:1; fill:grey; " points="174,65 190,65 195,60 190,55 174,55 174,65 "  />
</g>
<g id="a26_004"  >
<polygon style="stroke:black; stroke-width:1; fill:#810E15; " points="240,60 245,55 280,55 280,65 245,65 240,60 "  />
</g>
<g id="a26_005"  >
<polygon style="stroke:black; stroke-width:1; fill:grey; " points="313,65 386,65 391,60 386,55 313,55 313,65 "  />
</g>
<g id="a26_006"  >
<polygon style="stroke:black; stroke-width:1; fill:grey; " points="497,65 533,65 538,60 533,55 497,55 497,65 "  />
</g>
<g id="a26_007"  >
<polygon style="stroke:black; stroke-width:1; fill:grey; " points="567,65 588,65 593,60 588,55 567,55 567,65 "  />
</g>
<g id="a26_008"  >
<polygon style="stroke:black; stroke-width:1; fill:#810E15; " points="640,65 694,65 699,60 694,55 640,55 640,65 "  />
</g>
<g id="a26_009"  >
<polygon style="stroke:black; stroke-width:1; fill:grey; " points="716,60 721,55 737,55 737,65 721,65 716,60 "  />
</g>
<g id="a26_0010"  >
<polygon style="stroke:black; stroke-width:1; fill:grey; " points="774,65 778,60 774,55 774,65 "  />
</g>
</svg>
