<svg xmlns="http://www.w3.org/2000/svg" height="0" width="768.0" version="1.1" y="0" x="0" preserveAspectRatio="none" xmlns:xlink="http://www.w3.org/1999/xlink" viewBox="0 -30 819.2 0"  >
<g  >
<line y1="60" x2="778.0" style="stroke:grey; stroke-width:2; " x1="10" y2="60"  />
</g>
<g id="a64_000"  >
<polygon style="stroke:black; stroke-width:1; fill:grey; " points="10,65 33,65 38,60 33,55 10,55 10,65 "  />
</g>
<g id="a64_001"  >
<polygon style="stroke:black; stroke-width:1; fill:#810E15; " points="91,65 116,65 121,60 116,55 91,55 91,65 "  />
</g>
<g id="a64_002"  >
<polygon style="stroke:black; stroke-width:1; fill:#810E15; " points="139,65 152,65 157,60 152,55 139,55 139,65 "  />
</g>
<g id="a64_003"  >
<polygon style="stroke:black; stroke-width:1; fill:grey; " points="177,65 203,65 208,60 203,55 177,55 177,65 "  />
</g>
<g id="a64_004"  >
<polygon style="stroke:black; stroke-width:1; fill:grey; " points="223,65 253,65 258,60 253,55 223,55 223,65 "  />
</g>
<g id="a64_005"  >
<polygon style="stroke:black; stroke-width:1; fill:grey; " points="310,65 338,65 343,60 338,55 310,55 310,65 "  />
</g>
<g id="a64_006"  >
<polygon style="stroke:black; stroke-width:1; fill:grey; " points="379,65 383,60 379,55 379,65 "  />
</g>
<g id="a64_007"  >
<polygon style="stroke:black; stroke-width:1; fill:grey; " points="399,65 408,65 413,60 408,55 399,55 399,65 "  />
</g>
<g id="a64_008"  >
<polygon style="stroke:black; stroke-width:1; fill:grey; " points="427,65 435,65 440,60 435,55 427,55 427,65 "  />
</g>
<g id="a64_009"  >
<polygon style="stroke:black; stroke-width:1; fill:#810E15; " points="537,65 544,65 549,60 544,55 537,55 537,65 "  />
</g>
<g id="a64_0010"  >
<polygon style="stroke:black; stroke-width:1; fill:#810E15; " points="598,65 607,65 612,60 607,55 598,55 598,65 "  />
</g>
<g id="a64_0011"  >
<polygon style="stroke:black; stroke-width:1; fill:#810E15; " points="705,65 713,65 718,60 713,55 705,55 705,65 "  />
</g>
<g id="a64_0012"  >
<polygon style="stroke:black; stroke-width:1; fill:grey; " points="748,65 773,65 778,60 773,55 748,55 748,65 "  />
</g>
</svg>
