<svg xmlns="http://www.w3.org/2000/svg" height="0" width="768.0" version="1.1" y="0" x="0" preserveAspectRatio="none" xmlns:xlink="http://www.w3.org/1999/xlink" viewBox="0 -30 819.2 0"  >
<g  >
<line y1="60" x2="778.0" style="stroke:grey; stroke-width:2; " x1="10" y2="60"  />
</g>
<g id="a6_000"  >
<polygon style="stroke:black; stroke-width:1; fill:grey; " points="10,60 15,55 150,55 150,65 15,65 10,60 "  />
</g>
<g id="a6_001"  >
<polygon style="stroke:black; stroke-width:1; fill:grey; " points="231,60 236,55 255,55 255,65 236,65 231,60 "  />
</g>
<g id="a6_002"  >
<polygon style="stroke:black; stroke-width:1; fill:#810E15; " points="314,65 315,65 320,60 315,55 314,55 314,65 "  />
</g>
<g id="a6_003"  >
<polygon style="stroke:black; stroke-width:1; fill:#810E15; " points="343,65 356,65 361,60 356,55 343,55 343,65 "  />
</g>
<g id="a6_004"  >
<polygon style="stroke:black; stroke-width:1; fill:grey; " points="566,65 610,65 615,60 610,55 566,55 566,65 "  />
</g>
<g id="a6_005"  >
<polygon style="stroke:black; stroke-width:1; fill:#810E15; " points="639,60 644,55 660,55 660,65 644,65 639,60 "  />
</g>
<g id="a6_006"  >
<polygon style="stroke:black; stroke-width:1; fill:grey; " points="751,65 773,65 778,60 773,55 751,55 751,65 "  />
</g>
</svg>
