<svg xmlns="http://www.w3.org/2000/svg" height="0" width="768.0" version="1.1" y="0" x="0" preserveAspectRatio="none" xmlns:xlink="http://www.w3.org/1999/xlink" viewBox="0 -30 819.2 0"  >
<g  >
<line y1="60" x2="778.0" style="stroke:grey; stroke-width:2; " x1="10" y2="60"  />
</g>
<g id="a66_000"  >
<polygon style="stroke:black; stroke-width:1; fill:grey; " points="10,65 16,65 21,60 16,55 10,55 10,65 "  />
</g>
<g id="a66_001"  >
<polygon style="stroke:black; stroke-width:1; fill:grey; " points="28,65 29,65 34,60 29,55 28,55 28,65 "  />
</g>
<g id="a66_002"  >
<polygon style="stroke:black; stroke-width:1; fill:grey; " points="43,60 48,55 58,55 58,65 48,65 43,60 "  />
</g>
<g id="a66_003"  >
<polygon style="stroke:black; stroke-width:1; fill:#810E15; " points="66,60 71,55 83,55 83,65 71,65 66,60 "  />
</g>
<g id="a66_004"  >
<polygon style="stroke:black; stroke-width:1; fill:grey; " points="91,60 96,55 135,55 135,65 96,65 91,60 "  />
</g>
<g id="a66_005"  >
<polygon style="stroke:black; stroke-width:1; fill:#810E15; " points="149,65 153,65 158,60 153,55 149,55 149,65 "  />
</g>
<g id="a66_006"  >
<polygon style="stroke:black; stroke-width:1; fill:grey; " points="184,60 186,55 186,65 184,60 "  />
</g>
<g id="a66_007"  >
<polygon style="stroke:black; stroke-width:1; fill:grey; " points="193,65 194,60 193,55 193,65 "  />
</g>
<g id="a66_008"  >
<polygon style="stroke:black; stroke-width:1; fill:grey; " points="206,60 207,55 207,65 206,60 "  />
</g>
<g id="a66_009"  >
<polygon style="stroke:black; stroke-width:1; fill:grey; " points="209,65 210,60 209,55 209,65 "  />
</g>
<g id="a66_0010"  >
<polygon style="stroke:black; stroke-width:1; fill:grey; " points="213,65 214,60 213,55 213,65 "  />
</g>
<g id="a66_0011"  >
<polygon style="stroke:black; stroke-width:1; fill:grey; " points="216,60 216,55 216,65 216,60 "  />
</g>
<g id="a66_0012"  >
<polygon style="stroke:black; stroke-width:1; fill:grey; " points="225,60 230,55 230,55 230,65 230,65 225,60 "  />
</g>
<g id="a66_0013"  >
<polygon style="stroke:black; stroke-width:1; fill:grey; " points="227,60 230,55 230,65 227,60 "  />
</g>
<g id="a66_0014"  >
<polygon style="stroke:black; stroke-width:1; fill:grey; " points="232,60 232,55 232,65 232,60 "  />
</g>
<g id="a66_0015"  >
<polygon style="stroke:black; stroke-width:1; fill:grey; " points="235,60 235,55 235,65 235,60 "  />
</g>
<g id="a66_0016"  >
<polygon style="stroke:black; stroke-width:1; fill:grey; " points="246,60 251,55 256,55 256,65 251,65 246,60 "  />
</g>
<g id="a66_0017"  >
<polygon style="stroke:black; stroke-width:1; fill:grey; " points="259,65 260,60 259,55 259,65 "  />
</g>
<g id="a66_0018"  >
<polygon style="stroke:black; stroke-width:1; fill:grey; " points="262,60 264,55 264,65 262,60 "  />
</g>
<g id="a66_0019"  >
<polygon style="stroke:black; stroke-width:1; fill:grey; " points="265,65 267,60 265,55 265,65 "  />
</g>
<g id="a66_0020"  >
<polygon style="stroke:black; stroke-width:1; fill:grey; " points="269,60 271,55 271,65 269,60 "  />
</g>
<g id="a66_0021"  >
<polygon style="stroke:black; stroke-width:1; fill:grey; " points="294,60 299,55 305,55 305,65 299,65 294,60 "  />
</g>
<g id="a66_0022"  >
<polygon style="stroke:black; stroke-width:1; fill:grey; " points="312,60 314,55 314,65 312,60 "  />
</g>
<g id="a66_0023"  >
<polygon style="stroke:black; stroke-width:1; fill:grey; " points="380,65 380,60 380,55 380,65 "  />
</g>
<g id="a66_0024"  >
<polygon style="stroke:black; stroke-width:1; fill:#810E15; " points="392,65 396,60 392,55 392,65 "  />
</g>
<g id="a66_0025"  >
<polygon style="stroke:black; stroke-width:1; fill:grey; " points="400,65 401,60 400,55 400,65 "  />
</g>
<g id="a66_0026"  >
<polygon style="stroke:black; stroke-width:1; fill:grey; " points="404,65 405,65 410,60 405,55 404,55 404,65 "  />
</g>
<g id="a66_0027"  >
<polygon style="stroke:black; stroke-width:1; fill:#810E15; " points="418,60 423,55 428,55 428,65 423,65 418,60 "  />
</g>
<g id="a66_0028"  >
<polygon style="stroke:black; stroke-width:1; fill:grey; " points="440,60 441,55 441,65 440,60 "  />
</g>
<g id="a66_0029"  >
<polygon style="stroke:black; stroke-width:1; fill:grey; " points="682,65 683,60 682,55 682,65 "  />
</g>
<g id="a66_0030"  >
<polygon style="stroke:black; stroke-width:1; fill:grey; " points="694,65 694,60 694,55 694,65 "  />
</g>
<g id="a66_0031"  >
<polygon style="stroke:black; stroke-width:1; fill:grey; " points="702,65 702,60 702,55 702,65 "  />
</g>
<g id="a66_0032"  >
<polygon style="stroke:black; stroke-width:1; fill:grey; " points="724,60 727,55 727,65 724,60 "  />
</g>
<g id="a66_0033"  >
<polygon style="stroke:black; stroke-width:1; fill:grey; " points="732,65 735,60 732,55 732,65 "  />
</g>
<g id="a66_0034"  >
<polygon style="stroke:black; stroke-width:1; fill:grey; " points="742,65 743,60 742,55 742,65 "  />
</g>
<g id="a66_0035"  >
<polygon style="stroke:black; stroke-width:1; fill:grey; " points="774,65 778,60 774,55 774,65 "  />
</g>
</svg>
