<svg xmlns="http://www.w3.org/2000/svg" height="0" width="768.0" version="1.1" y="0" x="0" preserveAspectRatio="none" xmlns:xlink="http://www.w3.org/1999/xlink" viewBox="0 -30 819.2 0"  >
<g  >
<line y1="60" x2="778.0" style="stroke:grey; stroke-width:2; " x1="10" y2="60"  />
</g>
<g id="a28_000"  >
<polygon style="stroke:black; stroke-width:1; fill:grey; " points="10,60 12,55 12,65 10,60 "  />
</g>
<g id="a28_001"  >
<polygon style="stroke:black; stroke-width:1; fill:#810E15; " points="25,65 25,65 30,60 25,55 25,55 25,65 "  />
</g>
<g id="a28_002"  >
<polygon style="stroke:black; stroke-width:1; fill:grey; " points="32,60 33,55 33,65 32,60 "  />
</g>
<g id="a28_003"  >
<polygon style="stroke:black; stroke-width:1; fill:grey; " points="43,65 47,60 43,55 43,65 "  />
</g>
<g id="a28_004"  >
<polygon style="stroke:black; stroke-width:1; fill:grey; " points="57,60 58,55 58,65 57,60 "  />
</g>
<g id="a28_005"  >
<polygon style="stroke:black; stroke-width:1; fill:#810E15; " points="67,60 71,55 71,65 67,60 "  />
</g>
<g id="a28_006"  >
<polygon style="stroke:black; stroke-width:1; fill:grey; " points="85,60 86,55 86,65 85,60 "  />
</g>
<g id="a28_007"  >
<polygon style="stroke:black; stroke-width:1; fill:grey; " points="87,60 89,55 89,65 87,60 "  />
</g>
<g id="a28_008"  >
<polygon style="stroke:black; stroke-width:1; fill:grey; " points="97,65 116,65 121,60 116,55 97,55 97,65 "  />
</g>
<g id="a28_009"  >
<polygon style="stroke:black; stroke-width:1; fill:grey; " points="143,65 145,65 150,60 145,55 143,55 143,65 "  />
</g>
<g id="a28_0010"  >
<polygon style="stroke:black; stroke-width:1; fill:grey; " points="198,60 200,55 200,65 198,60 "  />
</g>
<g id="a28_0011"  >
<polygon style="stroke:black; stroke-width:1; fill:grey; " points="247,65 248,60 247,55 247,65 "  />
</g>
<g id="a28_0012"  >
<polygon style="stroke:black; stroke-width:1; fill:#810E15; " points="261,60 266,55 276,55 276,65 266,65 261,60 "  />
</g>
<g id="a28_0013"  >
<polygon style="stroke:black; stroke-width:1; fill:grey; " points="310,65 314,60 310,55 310,65 "  />
</g>
<g id="a28_0014"  >
<polygon style="stroke:black; stroke-width:1; fill:grey; " points="342,65 343,60 342,55 342,65 "  />
</g>
<g id="a28_0015"  >
<polygon style="stroke:black; stroke-width:1; fill:#810E15; " points="392,65 404,65 409,60 404,55 392,55 392,65 "  />
</g>
<g id="a28_0016"  >
<polygon style="stroke:black; stroke-width:1; fill:grey; " points="484,65 485,60 484,55 484,65 "  />
</g>
<g id="a28_0017"  >
<polygon style="stroke:black; stroke-width:1; fill:grey; " points="523,60 524,55 524,65 523,60 "  />
</g>
<g id="a28_0018"  >
<polygon style="stroke:black; stroke-width:1; fill:grey; " points="525,65 527,60 525,55 525,65 "  />
</g>
<g id="a28_0019"  >
<polygon style="stroke:black; stroke-width:1; fill:grey; " points="561,60 561,55 561,65 561,60 "  />
</g>
<g id="a28_0020"  >
<polygon style="stroke:black; stroke-width:1; fill:grey; " points="568,60 573,55 574,55 574,65 573,65 568,60 "  />
</g>
<g id="a28_0021"  >
<polygon style="stroke:black; stroke-width:1; fill:#810E15; " points="613,65 632,65 637,60 632,55 613,55 613,65 "  />
</g>
<g id="a28_0022"  >
<polygon style="stroke:black; stroke-width:1; fill:grey; " points="662,65 663,60 662,55 662,65 "  />
</g>
<g id="a28_0023"  >
<polygon style="stroke:black; stroke-width:1; fill:grey; " points="667,60 670,55 670,65 667,60 "  />
</g>
<g id="a28_0024"  >
<polygon style="stroke:black; stroke-width:1; fill:grey; " points="675,60 675,55 675,65 675,60 "  />
</g>
<g id="a28_0025"  >
<polygon style="stroke:black; stroke-width:1; fill:grey; " points="708,60 709,55 709,65 708,60 "  />
</g>
<g id="a28_0026"  >
<polygon style="stroke:black; stroke-width:1; fill:grey; " points="735,60 740,55 740,55 740,65 740,65 735,60 "  />
</g>
<g id="a28_0027"  >
<polygon style="stroke:black; stroke-width:1; fill:#810E15; " points="773,65 773,65 778,60 773,55 773,55 773,65 "  />
</g>
</svg>
