<svg xmlns="http://www.w3.org/2000/svg" height="0" width="768.0" version="1.1" y="0" x="0" preserveAspectRatio="none" xmlns:xlink="http://www.w3.org/1999/xlink" viewBox="0 -30 819.2 0"  >
<g  >
<line y1="60" x2="778.0" style="stroke:grey; stroke-width:2; " x1="10" y2="60"  />
</g>
<g id="a50_000"  >
<polygon style="stroke:black; stroke-width:1; fill:grey; " points="10,60 15,55 27,55 27,65 15,65 10,60 "  />
</g>
<g id="a50_001"  >
<polygon style="stroke:black; stroke-width:1; fill:grey; " points="40,60 45,55 60,55 60,65 45,65 40,60 "  />
</g>
<g id="a50_002"  >
<polygon style="stroke:black; stroke-width:1; fill:#810E15; " points="85,60 90,55 108,55 108,65 90,65 85,60 "  />
</g>
<g id="a50_003"  >
<polygon style="stroke:black; stroke-width:1; fill:grey; " points="121,65 165,65 170,60 165,55 121,55 121,65 "  />
</g>
<g id="a50_004"  >
<polygon style="stroke:black; stroke-width:1; fill:grey; " points="206,65 209,65 214,60 209,55 206,55 206,65 "  />
</g>
<g id="a50_005"  >
<polygon style="stroke:black; stroke-width:1; fill:#810E15; " points="249,60 253,55 253,65 249,60 "  />
</g>
<g id="a50_006"  >
<polygon style="stroke:black; stroke-width:1; fill:grey; " points="256,60 260,55 260,65 256,60 "  />
</g>
<g id="a50_007"  >
<polygon style="stroke:black; stroke-width:1; fill:grey; " points="275,60 280,55 290,55 290,65 280,65 275,60 "  />
</g>
<g id="a50_008"  >
<polygon style="stroke:black; stroke-width:1; fill:grey; " points="322,65 340,65 345,60 340,55 322,55 322,65 "  />
</g>
<g id="a50_009"  >
<polygon style="stroke:black; stroke-width:1; fill:#810E15; " points="525,60 530,55 538,55 538,65 530,65 525,60 "  />
</g>
<g id="a50_0010"  >
<polygon style="stroke:black; stroke-width:1; fill:grey; " points="549,60 554,55 570,55 570,65 554,65 549,60 "  />
</g>
<g id="a50_0011"  >
<polygon style="stroke:black; stroke-width:1; fill:grey; " points="619,65 628,65 633,60 628,55 619,55 619,65 "  />
</g>
<g id="a50_0012"  >
<polygon style="stroke:black; stroke-width:1; fill:#810E15; " points="648,60 653,55 675,55 675,65 653,65 648,60 "  />
</g>
<g id="a50_0013"  >
<polygon style="stroke:black; stroke-width:1; fill:grey; " points="712,60 717,55 778,55 778,65 717,65 712,60 "  />
</g>
</svg>
