<svg xmlns="http://www.w3.org/2000/svg" height="0" width="768.0" version="1.1" y="0" x="0" preserveAspectRatio="none" xmlns:xlink="http://www.w3.org/1999/xlink" viewBox="0 -30 819.2 0"  >
<g  >
<line y1="60" x2="778.0" style="stroke:grey; stroke-width:2; " x1="10" y2="60"  />
</g>
<g id="a42_000"  >
<polygon style="stroke:black; stroke-width:1; fill:grey; " points="10,60 15,55 20,55 20,65 15,65 10,60 "  />
</g>
<g id="a42_001"  >
<polygon style="stroke:black; stroke-width:1; fill:grey; " points="24,65 25,60 24,55 24,65 "  />
</g>
<g id="a42_002"  >
<polygon style="stroke:black; stroke-width:1; fill:grey; " points="51,65 52,60 51,55 51,65 "  />
</g>
<g id="a42_003"  >
<polygon style="stroke:black; stroke-width:1; fill:grey; " points="73,65 77,60 73,55 73,65 "  />
</g>
<g id="a42_004"  >
<polygon style="stroke:black; stroke-width:1; fill:grey; " points="81,60 86,55 95,55 95,65 86,65 81,60 "  />
</g>
<g id="a42_005"  >
<polygon style="stroke:black; stroke-width:1; fill:grey; " points="97,60 102,55 103,55 103,65 102,65 97,60 "  />
</g>
<g id="a42_006"  >
<polygon style="stroke:black; stroke-width:1; fill:grey; " points="104,65 104,65 109,60 104,55 104,55 104,65 "  />
</g>
<g id="a42_007"  >
<polygon style="stroke:black; stroke-width:1; fill:grey; " points="122,60 122,55 122,65 122,60 "  />
</g>
<g id="a42_008"  >
<polygon style="stroke:black; stroke-width:1; fill:grey; " points="139,65 141,65 146,60 141,55 139,55 139,65 "  />
</g>
<g id="a42_009"  >
<polygon style="stroke:black; stroke-width:1; fill:grey; " points="139,65 143,65 148,60 143,55 139,55 139,65 "  />
</g>
<g id="a42_0010"  >
<polygon style="stroke:black; stroke-width:1; fill:grey; " points="153,60 156,55 156,65 153,60 "  />
</g>
<g id="a42_0011"  >
<polygon style="stroke:black; stroke-width:1; fill:grey; " points="164,65 179,65 184,60 179,55 164,55 164,65 "  />
</g>
<g id="a42_0012"  >
<polygon style="stroke:black; stroke-width:1; fill:grey; " points="188,65 189,65 194,60 189,55 188,55 188,65 "  />
</g>
<g id="a42_0013"  >
<polygon style="stroke:black; stroke-width:1; fill:grey; " points="200,65 200,65 205,60 200,55 200,55 200,65 "  />
</g>
<g id="a42_0014"  >
<polygon style="stroke:black; stroke-width:1; fill:grey; " points="212,60 217,55 221,55 221,65 217,65 212,60 "  />
</g>
<g id="a42_0015"  >
<polygon style="stroke:black; stroke-width:1; fill:grey; " points="227,65 228,60 227,55 227,65 "  />
</g>
<g id="a42_0016"  >
<polygon style="stroke:black; stroke-width:1; fill:grey; " points="233,60 238,55 245,55 245,65 238,65 233,60 "  />
</g>
<g id="a42_0017"  >
<polygon style="stroke:black; stroke-width:1; fill:grey; " points="257,65 258,60 257,55 257,65 "  />
</g>
<g id="a42_0018"  >
<polygon style="stroke:black; stroke-width:1; fill:grey; " points="261,60 266,55 267,55 267,65 266,65 261,60 "  />
</g>
<g id="a42_0019"  >
<polygon style="stroke:black; stroke-width:1; fill:grey; " points="261,60 266,55 274,55 274,65 266,65 261,60 "  />
</g>
<g id="a42_0020"  >
<polygon style="stroke:black; stroke-width:1; fill:grey; " points="261,60 266,55 275,55 275,65 266,65 261,60 "  />
</g>
<g id="a42_0021"  >
<polygon style="stroke:black; stroke-width:1; fill:grey; " points="291,65 293,60 291,55 291,65 "  />
</g>
<g id="a42_0022"  >
<polygon style="stroke:black; stroke-width:1; fill:grey; " points="297,60 302,55 302,55 302,65 302,65 297,60 "  />
</g>
<g id="a42_0023"  >
<polygon style="stroke:black; stroke-width:1; fill:grey; " points="310,65 320,65 325,60 320,55 310,55 310,65 "  />
</g>
<g id="a42_0024"  >
<polygon style="stroke:black; stroke-width:1; fill:grey; " points="316,65 320,65 325,60 320,55 316,55 316,65 "  />
</g>
<g id="a42_0025"  >
<polygon style="stroke:black; stroke-width:1; fill:grey; " points="328,60 330,55 330,65 328,60 "  />
</g>
<g id="a42_0026"  >
<polygon style="stroke:black; stroke-width:1; fill:grey; " points="334,65 335,60 334,55 334,65 "  />
</g>
<g id="a42_0027"  >
<polygon style="stroke:black; stroke-width:1; fill:grey; " points="338,65 339,60 338,55 338,65 "  />
</g>
<g id="a42_0028"  >
<polygon style="stroke:black; stroke-width:1; fill:grey; " points="345,65 348,65 353,60 348,55 345,55 345,65 "  />
</g>
<g id="a42_0029"  >
<polygon style="stroke:black; stroke-width:1; fill:grey; " points="347,65 348,65 353,60 348,55 347,55 347,65 "  />
</g>
<g id="a42_0030"  >
<polygon style="stroke:black; stroke-width:1; fill:#810E15; " points="395,65 399,60 395,55 395,65 "  />
</g>
<g id="a42_0031"  >
<polygon style="stroke:black; stroke-width:1; fill:grey; " points="412,65 412,60 412,55 412,65 "  />
</g>
<g id="a42_0032"  >
<polygon style="stroke:black; stroke-width:1; fill:grey; " points="448,65 449,60 448,55 448,65 "  />
</g>
<g id="a42_0033"  >
<polygon style="stroke:black; stroke-width:1; fill:grey; " points="448,65 451,60 448,55 448,65 "  />
</g>
<g id="a42_0034"  >
<polygon style="stroke:black; stroke-width:1; fill:grey; " points="448,65 449,65 454,60 449,55 448,55 448,65 "  />
</g>
<g id="a42_0035"  >
<polygon style="stroke:black; stroke-width:1; fill:grey; " points="462,65 463,65 468,60 463,55 462,55 462,65 "  />
</g>
<g id="a42_0036"  >
<polygon style="stroke:black; stroke-width:1; fill:grey; " points="480,65 482,60 480,55 480,65 "  />
</g>
<g id="a42_0037"  >
<polygon style="stroke:black; stroke-width:1; fill:grey; " points="512,65 518,65 523,60 518,55 512,55 512,65 "  />
</g>
<g id="a42_0038"  >
<polygon style="stroke:black; stroke-width:1; fill:grey; " points="527,65 537,65 542,60 537,55 527,55 527,65 "  />
</g>
<g id="a42_0039"  >
<polygon style="stroke:black; stroke-width:1; fill:grey; " points="531,65 537,65 542,60 537,55 531,55 531,65 "  />
</g>
<g id="a42_0040"  >
<polygon style="stroke:black; stroke-width:1; fill:grey; " points="546,65 546,60 546,55 546,65 "  />
</g>
<g id="a42_0041"  >
<polygon style="stroke:black; stroke-width:1; fill:grey; " points="548,60 552,55 552,65 548,60 "  />
</g>
<g id="a42_0042"  >
<polygon style="stroke:black; stroke-width:1; fill:grey; " points="555,60 555,55 555,65 555,60 "  />
</g>
<g id="a42_0043"  >
<polygon style="stroke:black; stroke-width:1; fill:grey; " points="570,65 573,65 578,60 573,55 570,55 570,65 "  />
</g>
<g id="a42_0044"  >
<polygon style="stroke:black; stroke-width:1; fill:grey; " points="570,65 574,65 579,60 574,55 570,55 570,65 "  />
</g>
<g id="a42_0045"  >
<polygon style="stroke:black; stroke-width:1; fill:grey; " points="584,65 587,60 584,55 584,65 "  />
</g>
<g id="a42_0046"  >
<polygon style="stroke:black; stroke-width:1; fill:grey; " points="618,65 624,65 629,60 624,55 618,55 618,65 "  />
</g>
<g id="a42_0047"  >
<polygon style="stroke:black; stroke-width:1; fill:grey; " points="637,65 640,60 637,55 637,65 "  />
</g>
<g id="a42_0048"  >
<polygon style="stroke:black; stroke-width:1; fill:grey; " points="650,60 651,55 651,65 650,60 "  />
</g>
<g id="a42_0049"  >
<polygon style="stroke:black; stroke-width:1; fill:grey; " points="669,65 671,60 669,55 669,65 "  />
</g>
<g id="a42_0050"  >
<polygon style="stroke:black; stroke-width:1; fill:grey; " points="680,65 681,60 680,55 680,65 "  />
</g>
<g id="a42_0051"  >
<polygon style="stroke:black; stroke-width:1; fill:grey; " points="680,65 684,60 680,55 680,65 "  />
</g>
<g id="a42_0052"  >
<polygon style="stroke:black; stroke-width:1; fill:grey; " points="680,65 682,65 687,60 682,55 680,55 680,65 "  />
</g>
<g id="a42_0053"  >
<polygon style="stroke:black; stroke-width:1; fill:grey; " points="680,65 682,65 687,60 682,55 680,55 680,65 "  />
</g>
<g id="a42_0054"  >
<polygon style="stroke:black; stroke-width:1; fill:grey; " points="690,60 695,55 700,55 700,65 695,65 690,60 "  />
</g>
<g id="a42_0055"  >
<polygon style="stroke:black; stroke-width:1; fill:grey; " points="718,65 720,60 718,55 718,65 "  />
</g>
<g id="a42_0056"  >
<polygon style="stroke:black; stroke-width:1; fill:grey; " points="754,60 759,55 762,55 762,65 759,65 754,60 "  />
</g>
<g id="a42_0057"  >
<polygon style="stroke:black; stroke-width:1; fill:grey; " points="771,65 771,60 771,55 771,65 "  />
</g>
<g id="a42_0058"  >
<polygon style="stroke:black; stroke-width:1; fill:grey; " points="772,60 777,55 778,55 778,65 777,65 772,60 "  />
</g>
</svg>
