<svg xmlns="http://www.w3.org/2000/svg" height="0" width="768.0" version="1.1" y="0" x="0" preserveAspectRatio="none" xmlns:xlink="http://www.w3.org/1999/xlink" viewBox="0 -30 819.2 0"  >
<g  >
<line y1="60" x2="778.0" style="stroke:grey; stroke-width:2; " x1="10" y2="60"  />
</g>
<g id="a71_000"  >
<polygon style="stroke:black; stroke-width:1; fill:grey; " points="10,65 12,65 17,60 12,55 10,55 10,65 "  />
</g>
<g id="a71_001"  >
<polygon style="stroke:black; stroke-width:1; fill:grey; " points="18,60 23,55 23,55 23,65 23,65 18,60 "  />
</g>
<g id="a71_002"  >
<polygon style="stroke:black; stroke-width:1; fill:grey; " points="28,60 28,55 28,65 28,60 "  />
</g>
<g id="a71_003"  >
<polygon style="stroke:black; stroke-width:1; fill:grey; " points="29,65 30,60 29,55 29,65 "  />
</g>
<g id="a71_004"  >
<polygon style="stroke:black; stroke-width:1; fill:grey; " points="36,65 39,60 36,55 36,65 "  />
</g>
<g id="a71_005"  >
<polygon style="stroke:black; stroke-width:1; fill:grey; " points="41,65 41,60 41,55 41,65 "  />
</g>
<g id="a71_006"  >
<polygon style="stroke:black; stroke-width:1; fill:grey; " points="41,60 46,55 46,55 46,65 46,65 41,60 "  />
</g>
<g id="a71_007"  >
<polygon style="stroke:black; stroke-width:1; fill:grey; " points="49,60 52,55 52,65 49,60 "  />
</g>
<g id="a71_008"  >
<polygon style="stroke:black; stroke-width:1; fill:grey; " points="56,60 60,55 60,65 56,60 "  />
</g>
<g id="a71_009"  >
<polygon style="stroke:black; stroke-width:1; fill:grey; " points="67,65 67,65 72,60 67,55 67,55 67,65 "  />
</g>
<g id="a71_0010"  >
<polygon style="stroke:black; stroke-width:1; fill:grey; " points="77,65 81,65 86,60 81,55 77,55 77,65 "  />
</g>
<g id="a71_0011"  >
<polygon style="stroke:black; stroke-width:1; fill:grey; " points="80,65 81,65 86,60 81,55 80,55 80,65 "  />
</g>
<g id="a71_0012"  >
<polygon style="stroke:black; stroke-width:1; fill:grey; " points="82,65 86,60 82,55 82,65 "  />
</g>
<g id="a71_0013"  >
<polygon style="stroke:black; stroke-width:1; fill:grey; " points="83,65 86,60 83,55 83,65 "  />
</g>
<g id="a71_0014"  >
<polygon style="stroke:black; stroke-width:1; fill:grey; " points="88,60 91,55 91,65 88,60 "  />
</g>
<g id="a71_0015"  >
<polygon style="stroke:black; stroke-width:1; fill:grey; " points="100,65 102,65 107,60 102,55 100,55 100,65 "  />
</g>
<g id="a71_0016"  >
<polygon style="stroke:black; stroke-width:1; fill:grey; " points="100,65 104,65 109,60 104,55 100,55 100,65 "  />
</g>
<g id="a71_0017"  >
<polygon style="stroke:black; stroke-width:1; fill:grey; " points="114,60 115,55 115,65 114,60 "  />
</g>
<g id="a71_0018"  >
<polygon style="stroke:black; stroke-width:1; fill:grey; " points="117,65 118,60 117,55 117,65 "  />
</g>
<g id="a71_0019"  >
<polygon style="stroke:black; stroke-width:1; fill:grey; " points="119,60 123,55 123,65 119,60 "  />
</g>
<g id="a71_0020"  >
<polygon style="stroke:black; stroke-width:1; fill:grey; " points="124,60 128,55 128,65 124,60 "  />
</g>
<g id="a71_0021"  >
<polygon style="stroke:black; stroke-width:1; fill:grey; " points="135,65 142,65 147,60 142,55 135,55 135,65 "  />
</g>
<g id="a71_0022"  >
<polygon style="stroke:black; stroke-width:1; fill:grey; " points="151,60 156,55 159,55 159,65 156,65 151,60 "  />
</g>
<g id="a71_0023"  >
<polygon style="stroke:black; stroke-width:1; fill:grey; " points="164,60 169,55 169,55 169,65 169,65 164,60 "  />
</g>
<g id="a71_0024"  >
<polygon style="stroke:black; stroke-width:1; fill:grey; " points="174,60 174,55 174,65 174,60 "  />
</g>
<g id="a71_0025"  >
<polygon style="stroke:black; stroke-width:1; fill:grey; " points="176,60 180,55 180,65 176,60 "  />
</g>
<g id="a71_0026"  >
<polygon style="stroke:black; stroke-width:1; fill:grey; " points="182,60 187,55 191,55 191,65 187,65 182,60 "  />
</g>
<g id="a71_0027"  >
<polygon style="stroke:black; stroke-width:1; fill:grey; " points="197,60 199,55 199,65 197,60 "  />
</g>
<g id="a71_0028"  >
<polygon style="stroke:black; stroke-width:1; fill:grey; " points="197,60 199,55 199,65 197,60 "  />
</g>
<g id="a71_0029"  >
<polygon style="stroke:black; stroke-width:1; fill:grey; " points="204,65 205,60 204,55 204,65 "  />
</g>
<g id="a71_0030"  >
<polygon style="stroke:black; stroke-width:1; fill:grey; " points="207,60 209,55 209,65 207,60 "  />
</g>
<g id="a71_0031"  >
<polygon style="stroke:black; stroke-width:1; fill:grey; " points="207,60 209,55 209,65 207,60 "  />
</g>
<g id="a71_0032"  >
<polygon style="stroke:black; stroke-width:1; fill:grey; " points="211,65 211,65 216,60 211,55 211,55 211,65 "  />
</g>
<g id="a71_0033"  >
<polygon style="stroke:black; stroke-width:1; fill:grey; " points="212,65 216,60 212,55 212,65 "  />
</g>
<g id="a71_0034"  >
<polygon style="stroke:black; stroke-width:1; fill:grey; " points="217,65 220,65 225,60 220,55 217,55 217,65 "  />
</g>
<g id="a71_0035"  >
<polygon style="stroke:black; stroke-width:1; fill:grey; " points="226,65 227,60 226,55 226,65 "  />
</g>
<g id="a71_0036"  >
<polygon style="stroke:black; stroke-width:1; fill:grey; " points="229,65 232,60 229,55 229,65 "  />
</g>
<g id="a71_0037"  >
<polygon style="stroke:black; stroke-width:1; fill:grey; " points="232,65 236,60 232,55 232,65 "  />
</g>
<g id="a71_0038"  >
<polygon style="stroke:black; stroke-width:1; fill:grey; " points="240,65 244,65 249,60 244,55 240,55 240,65 "  />
</g>
<g id="a71_0039"  >
<polygon style="stroke:black; stroke-width:1; fill:grey; " points="257,65 257,60 257,55 257,65 "  />
</g>
<g id="a71_0040"  >
<polygon style="stroke:black; stroke-width:1; fill:#810E15; " points="259,65 261,60 259,55 259,65 "  />
</g>
<g id="a71_0041"  >
<polygon style="stroke:black; stroke-width:1; fill:grey; " points="263,60 266,55 266,65 263,60 "  />
</g>
<g id="a71_0042"  >
<polygon style="stroke:black; stroke-width:1; fill:grey; " points="265,60 266,55 266,65 265,60 "  />
</g>
<g id="a71_0043"  >
<polygon style="stroke:black; stroke-width:1; fill:grey; " points="278,60 281,55 281,65 278,60 "  />
</g>
<g id="a71_0044"  >
<polygon style="stroke:black; stroke-width:1; fill:grey; " points="305,65 307,60 305,55 305,65 "  />
</g>
<g id="a71_0045"  >
<polygon style="stroke:black; stroke-width:1; fill:#810E15; " points="308,60 312,55 312,65 308,60 "  />
</g>
<g id="a71_0046"  >
<polygon style="stroke:black; stroke-width:1; fill:grey; " points="326,65 327,60 326,55 326,65 "  />
</g>
<g id="a71_0047"  >
<polygon style="stroke:black; stroke-width:1; fill:grey; " points="328,65 329,60 328,55 328,65 "  />
</g>
<g id="a71_0048"  >
<polygon style="stroke:black; stroke-width:1; fill:grey; " points="333,65 334,60 333,55 333,65 "  />
</g>
<g id="a71_0049"  >
<polygon style="stroke:black; stroke-width:1; fill:grey; " points="344,60 345,55 345,65 344,60 "  />
</g>
<g id="a71_0050"  >
<polygon style="stroke:black; stroke-width:1; fill:grey; " points="349,60 353,55 353,65 349,60 "  />
</g>
<g id="a71_0051"  >
<polygon style="stroke:black; stroke-width:1; fill:#810E15; " points="384,60 387,55 387,65 384,60 "  />
</g>
<g id="a71_0052"  >
<polygon style="stroke:black; stroke-width:1; fill:grey; " points="388,60 389,55 389,65 388,60 "  />
</g>
<g id="a71_0053"  >
<polygon style="stroke:black; stroke-width:1; fill:grey; " points="399,60 399,55 399,65 399,60 "  />
</g>
<g id="a71_0054"  >
<polygon style="stroke:black; stroke-width:1; fill:grey; " points="405,60 408,55 408,65 405,60 "  />
</g>
<g id="a71_0055"  >
<polygon style="stroke:black; stroke-width:1; fill:grey; " points="419,65 419,60 419,55 419,65 "  />
</g>
<g id="a71_0056"  >
<polygon style="stroke:black; stroke-width:1; fill:grey; " points="428,65 429,60 428,55 428,65 "  />
</g>
<g id="a71_0057"  >
<polygon style="stroke:black; stroke-width:1; fill:grey; " points="435,60 440,55 445,55 445,65 440,65 435,60 "  />
</g>
<g id="a71_0058"  >
<polygon style="stroke:black; stroke-width:1; fill:grey; " points="450,65 452,60 450,55 450,65 "  />
</g>
<g id="a71_0059"  >
<polygon style="stroke:black; stroke-width:1; fill:#810E15; " points="460,60 464,55 464,65 460,60 "  />
</g>
<g id="a71_0060"  >
<polygon style="stroke:black; stroke-width:1; fill:#810E15; " points="494,60 498,55 498,65 494,60 "  />
</g>
<g id="a71_0061"  >
<polygon style="stroke:black; stroke-width:1; fill:grey; " points="524,65 528,60 524,55 524,65 "  />
</g>
<g id="a71_0062"  >
<polygon style="stroke:black; stroke-width:1; fill:#810E15; " points="534,65 534,60 534,55 534,65 "  />
</g>
<g id="a71_0063"  >
<polygon style="stroke:black; stroke-width:1; fill:grey; " points="535,60 537,55 537,65 535,60 "  />
</g>
<g id="a71_0064"  >
<polygon style="stroke:black; stroke-width:1; fill:grey; " points="546,65 548,60 546,55 546,65 "  />
</g>
<g id="a71_0065"  >
<polygon style="stroke:black; stroke-width:1; fill:grey; " points="549,65 550,60 549,55 549,65 "  />
</g>
<g id="a71_0066"  >
<polygon style="stroke:black; stroke-width:1; fill:grey; " points="552,60 554,55 554,65 552,60 "  />
</g>
<g id="a71_0067"  >
<polygon style="stroke:black; stroke-width:1; fill:grey; " points="552,60 556,55 556,65 552,60 "  />
</g>
<g id="a71_0068"  >
<polygon style="stroke:black; stroke-width:1; fill:grey; " points="552,60 556,55 556,65 552,60 "  />
</g>
<g id="a71_0069"  >
<polygon style="stroke:black; stroke-width:1; fill:grey; " points="552,60 556,55 556,65 552,60 "  />
</g>
<g id="a71_0070"  >
<polygon style="stroke:black; stroke-width:1; fill:grey; " points="566,60 567,55 567,65 566,60 "  />
</g>
<g id="a71_0071"  >
<polygon style="stroke:black; stroke-width:1; fill:grey; " points="572,65 572,65 577,60 572,55 572,55 572,65 "  />
</g>
<g id="a71_0072"  >
<polygon style="stroke:black; stroke-width:1; fill:grey; " points="584,60 586,55 586,65 584,60 "  />
</g>
<g id="a71_0073"  >
<polygon style="stroke:black; stroke-width:1; fill:grey; " points="591,65 594,60 591,55 591,65 "  />
</g>
<g id="a71_0074"  >
<polygon style="stroke:black; stroke-width:1; fill:grey; " points="610,65 610,60 610,55 610,65 "  />
</g>
<g id="a71_0075"  >
<polygon style="stroke:black; stroke-width:1; fill:grey; " points="628,65 631,60 628,55 628,65 "  />
</g>
<g id="a71_0076"  >
<polygon style="stroke:black; stroke-width:1; fill:grey; " points="628,65 629,65 634,60 629,55 628,55 628,65 "  />
</g>
<g id="a71_0077"  >
<polygon style="stroke:black; stroke-width:1; fill:grey; " points="637,65 640,60 637,55 637,65 "  />
</g>
<g id="a71_0078"  >
<polygon style="stroke:black; stroke-width:1; fill:grey; " points="653,60 653,55 653,65 653,60 "  />
</g>
<g id="a71_0079"  >
<polygon style="stroke:black; stroke-width:1; fill:grey; " points="653,60 658,55 665,55 665,65 658,65 653,60 "  />
</g>
<g id="a71_0080"  >
<polygon style="stroke:black; stroke-width:1; fill:grey; " points="675,65 677,65 682,60 677,55 675,55 675,65 "  />
</g>
<g id="a71_0081"  >
<polygon style="stroke:black; stroke-width:1; fill:grey; " points="675,65 677,65 682,60 677,55 675,55 675,65 "  />
</g>
<g id="a71_0082"  >
<polygon style="stroke:black; stroke-width:1; fill:grey; " points="675,65 677,65 682,60 677,55 675,55 675,65 "  />
</g>
<g id="a71_0083"  >
<polygon style="stroke:black; stroke-width:1; fill:grey; " points="691,60 696,55 696,55 696,65 696,65 691,60 "  />
</g>
<g id="a71_0084"  >
<polygon style="stroke:black; stroke-width:1; fill:grey; " points="705,65 707,60 705,55 705,65 "  />
</g>
<g id="a71_0085"  >
<polygon style="stroke:black; stroke-width:1; fill:grey; " points="725,65 727,60 725,55 725,65 "  />
</g>
<g id="a71_0086"  >
<polygon style="stroke:black; stroke-width:1; fill:grey; " points="729,60 730,55 730,65 729,60 "  />
</g>
<g id="a71_0087"  >
<polygon style="stroke:black; stroke-width:1; fill:grey; " points="736,65 738,60 736,55 736,65 "  />
</g>
<g id="a71_0088"  >
<polygon style="stroke:black; stroke-width:1; fill:grey; " points="745,65 748,65 753,60 748,55 745,55 745,65 "  />
</g>
<g id="a71_0089"  >
<polygon style="stroke:black; stroke-width:1; fill:grey; " points="745,65 749,65 754,60 749,55 745,55 745,65 "  />
</g>
<g id="a71_0090"  >
<polygon style="stroke:black; stroke-width:1; fill:grey; " points="745,65 749,65 754,60 749,55 745,55 745,65 "  />
</g>
<g id="a71_0091"  >
<polygon style="stroke:black; stroke-width:1; fill:grey; " points="763,65 767,65 772,60 767,55 763,55 763,65 "  />
</g>
<g id="a71_0092"  >
<polygon style="stroke:black; stroke-width:1; fill:grey; " points="774,60 778,55 778,65 774,60 "  />
</g>
</svg>
