<svg xmlns="http://www.w3.org/2000/svg" height="0" width="768.0" version="1.1" y="0" x="0" preserveAspectRatio="none" xmlns:xlink="http://www.w3.org/1999/xlink" viewBox="0 -30 819.2 0"  >
<g  >
<line y1="60" x2="778.0" style="stroke:grey; stroke-width:2; " x1="10" y2="60"  />
</g>
<g id="a24_000"  >
<polygon style="stroke:black; stroke-width:1; fill:grey; " points="10,65 11,60 10,55 10,65 "  />
</g>
<g id="a24_001"  >
<polygon style="stroke:black; stroke-width:1; fill:grey; " points="19,60 20,55 20,65 19,60 "  />
</g>
<g id="a24_002"  >
<polygon style="stroke:black; stroke-width:1; fill:grey; " points="41,65 42,60 41,55 41,65 "  />
</g>
<g id="a24_003"  >
<polygon style="stroke:black; stroke-width:1; fill:grey; " points="46,60 50,55 50,65 46,60 "  />
</g>
<g id="a24_004"  >
<polygon style="stroke:black; stroke-width:1; fill:grey; " points="52,60 57,55 59,55 59,65 57,65 52,60 "  />
</g>
<g id="a24_005"  >
<polygon style="stroke:black; stroke-width:1; fill:grey; " points="65,60 66,55 66,65 65,60 "  />
</g>
<g id="a24_006"  >
<polygon style="stroke:black; stroke-width:1; fill:grey; " points="76,60 80,55 80,65 76,60 "  />
</g>
<g id="a24_007"  >
<polygon style="stroke:black; stroke-width:1; fill:grey; " points="86,60 90,55 90,65 86,60 "  />
</g>
<g id="a24_008"  >
<polygon style="stroke:black; stroke-width:1; fill:grey; " points="96,60 97,55 97,65 96,60 "  />
</g>
<g id="a24_009"  >
<polygon style="stroke:black; stroke-width:1; fill:grey; " points="121,65 127,65 132,60 127,55 121,55 121,65 "  />
</g>
<g id="a24_0010"  >
<polygon style="stroke:black; stroke-width:1; fill:grey; " points="144,65 145,60 144,55 144,65 "  />
</g>
<g id="a24_0011"  >
<polygon style="stroke:black; stroke-width:1; fill:grey; " points="149,65 158,65 163,60 158,55 149,55 149,65 "  />
</g>
<g id="a24_0012"  >
<polygon style="stroke:black; stroke-width:1; fill:grey; " points="187,65 191,65 196,60 191,55 187,55 187,65 "  />
</g>
<g id="a24_0013"  >
<polygon style="stroke:black; stroke-width:1; fill:grey; " points="199,60 200,55 200,65 199,60 "  />
</g>
<g id="a24_0014"  >
<polygon style="stroke:black; stroke-width:1; fill:grey; " points="232,65 237,65 242,60 237,55 232,55 232,65 "  />
</g>
<g id="a24_0015"  >
<polygon style="stroke:black; stroke-width:1; fill:grey; " points="232,65 237,65 242,60 237,55 232,55 232,65 "  />
</g>
<g id="a24_0016"  >
<polygon style="stroke:black; stroke-width:1; fill:grey; " points="250,60 253,55 253,65 250,60 "  />
</g>
<g id="a24_0017"  >
<polygon style="stroke:black; stroke-width:1; fill:grey; " points="250,60 253,55 253,65 250,60 "  />
</g>
<g id="a24_0018"  >
<polygon style="stroke:black; stroke-width:1; fill:grey; " points="257,65 261,60 257,55 257,65 "  />
</g>
<g id="a24_0019"  >
<polygon style="stroke:black; stroke-width:1; fill:grey; " points="273,65 275,60 273,55 273,65 "  />
</g>
<g id="a24_0020"  >
<polygon style="stroke:black; stroke-width:1; fill:grey; " points="276,65 277,60 276,55 276,65 "  />
</g>
<g id="a24_0021"  >
<polygon style="stroke:black; stroke-width:1; fill:grey; " points="280,65 281,60 280,55 280,65 "  />
</g>
<g id="a24_0022"  >
<polygon style="stroke:black; stroke-width:1; fill:grey; " points="283,60 286,55 286,65 283,60 "  />
</g>
<g id="a24_0023"  >
<polygon style="stroke:black; stroke-width:1; fill:grey; " points="288,60 293,55 297,55 297,65 293,65 288,60 "  />
</g>
<g id="a24_0024"  >
<polygon style="stroke:black; stroke-width:1; fill:grey; " points="288,60 293,55 297,55 297,65 293,65 288,60 "  />
</g>
<g id="a24_0025"  >
<polygon style="stroke:black; stroke-width:1; fill:grey; " points="288,60 293,55 297,55 297,65 293,65 288,60 "  />
</g>
<g id="a24_0026"  >
<polygon style="stroke:black; stroke-width:1; fill:grey; " points="288,60 293,55 297,55 297,65 293,65 288,60 "  />
</g>
<g id="a24_0027"  >
<polygon style="stroke:black; stroke-width:1; fill:grey; " points="288,60 293,55 297,55 297,65 293,65 288,60 "  />
</g>
<g id="a24_0028"  >
<polygon style="stroke:black; stroke-width:1; fill:grey; " points="289,60 294,55 297,55 297,65 294,65 289,60 "  />
</g>
<g id="a24_0029"  >
<polygon style="stroke:black; stroke-width:1; fill:grey; " points="301,60 301,55 301,65 301,60 "  />
</g>
<g id="a24_0030"  >
<polygon style="stroke:black; stroke-width:1; fill:grey; " points="307,65 309,60 307,55 307,65 "  />
</g>
<g id="a24_0031"  >
<polygon style="stroke:black; stroke-width:1; fill:grey; " points="312,65 315,60 312,55 312,65 "  />
</g>
<g id="a24_0032"  >
<polygon style="stroke:black; stroke-width:1; fill:grey; " points="325,60 326,55 326,65 325,60 "  />
</g>
<g id="a24_0033"  >
<polygon style="stroke:black; stroke-width:1; fill:grey; " points="328,65 329,60 328,55 328,65 "  />
</g>
<g id="a24_0034"  >
<polygon style="stroke:black; stroke-width:1; fill:grey; " points="332,60 337,55 339,55 339,65 337,65 332,60 "  />
</g>
<g id="a24_0035"  >
<polygon style="stroke:black; stroke-width:1; fill:grey; " points="343,60 343,55 343,65 343,60 "  />
</g>
<g id="a24_0036"  >
<polygon style="stroke:black; stroke-width:1; fill:grey; " points="349,60 354,55 373,55 373,65 354,65 349,60 "  />
</g>
<g id="a24_0037"  >
<polygon style="stroke:black; stroke-width:1; fill:grey; " points="349,60 354,55 377,55 377,65 354,65 349,60 "  />
</g>
<g id="a24_0038"  >
<polygon style="stroke:black; stroke-width:1; fill:grey; " points="349,60 354,55 377,55 377,65 354,65 349,60 "  />
</g>
<g id="a24_0039"  >
<polygon style="stroke:black; stroke-width:1; fill:grey; " points="381,65 381,60 381,55 381,65 "  />
</g>
<g id="a24_0040"  >
<polygon style="stroke:black; stroke-width:1; fill:#810E15; " points="384,60 389,55 391,55 391,65 389,65 384,60 "  />
</g>
<g id="a24_0041"  >
<polygon style="stroke:black; stroke-width:1; fill:grey; " points="444,65 447,65 452,60 447,55 444,55 444,65 "  />
</g>
<g id="a24_0042"  >
<polygon style="stroke:black; stroke-width:1; fill:grey; " points="481,60 486,55 487,55 487,65 486,65 481,60 "  />
</g>
<g id="a24_0043"  >
<polygon style="stroke:black; stroke-width:1; fill:grey; " points="494,65 510,65 515,60 510,55 494,55 494,65 "  />
</g>
<g id="a24_0044"  >
<polygon style="stroke:black; stroke-width:1; fill:grey; " points="519,65 522,60 519,55 519,65 "  />
</g>
<g id="a24_0045"  >
<polygon style="stroke:black; stroke-width:1; fill:grey; " points="519,65 522,60 519,55 519,65 "  />
</g>
<g id="a24_0046"  >
<polygon style="stroke:black; stroke-width:1; fill:grey; " points="524,65 528,60 524,55 524,65 "  />
</g>
<g id="a24_0047"  >
<polygon style="stroke:black; stroke-width:1; fill:grey; " points="533,60 534,55 534,65 533,60 "  />
</g>
<g id="a24_0048"  >
<polygon style="stroke:black; stroke-width:1; fill:grey; " points="537,65 540,65 545,60 540,55 537,55 537,65 "  />
</g>
<g id="a24_0049"  >
<polygon style="stroke:black; stroke-width:1; fill:grey; " points="537,65 543,65 548,60 543,55 537,55 537,65 "  />
</g>
<g id="a24_0050"  >
<polygon style="stroke:black; stroke-width:1; fill:grey; " points="537,65 543,65 548,60 543,55 537,55 537,65 "  />
</g>
<g id="a24_0051"  >
<polygon style="stroke:black; stroke-width:1; fill:grey; " points="556,65 559,60 556,55 556,65 "  />
</g>
<g id="a24_0052"  >
<polygon style="stroke:black; stroke-width:1; fill:grey; " points="593,60 595,55 595,65 593,60 "  />
</g>
<g id="a24_0053"  >
<polygon style="stroke:black; stroke-width:1; fill:grey; " points="597,65 599,60 597,55 597,65 "  />
</g>
<g id="a24_0054"  >
<polygon style="stroke:black; stroke-width:1; fill:grey; " points="621,65 623,65 628,60 623,55 621,55 621,65 "  />
</g>
<g id="a24_0055"  >
<polygon style="stroke:black; stroke-width:1; fill:grey; " points="621,65 623,65 628,60 623,55 621,55 621,65 "  />
</g>
<g id="a24_0056"  >
<polygon style="stroke:black; stroke-width:1; fill:grey; " points="621,65 624,65 629,60 624,55 621,55 621,65 "  />
</g>
<g id="a24_0057"  >
<polygon style="stroke:black; stroke-width:1; fill:grey; " points="735,60 740,55 741,55 741,65 740,65 735,60 "  />
</g>
<g id="a24_0058"  >
<polygon style="stroke:black; stroke-width:1; fill:grey; " points="743,65 746,60 743,55 743,65 "  />
</g>
<g id="a24_0059"  >
<polygon style="stroke:black; stroke-width:1; fill:grey; " points="747,60 748,55 748,65 747,60 "  />
</g>
<g id="a24_0060"  >
<polygon style="stroke:black; stroke-width:1; fill:grey; " points="752,65 753,60 752,55 752,65 "  />
</g>
<g id="a24_0061"  >
<polygon style="stroke:black; stroke-width:1; fill:grey; " points="754,60 759,55 761,55 761,65 759,65 754,60 "  />
</g>
<g id="a24_0062"  >
<polygon style="stroke:black; stroke-width:1; fill:grey; " points="766,60 768,55 768,65 766,60 "  />
</g>
<g id="a24_0063"  >
<polygon style="stroke:black; stroke-width:1; fill:grey; " points="769,65 773,65 778,60 773,55 769,55 769,65 "  />
</g>
</svg>
