<svg xmlns="http://www.w3.org/2000/svg" height="0" width="768.0" version="1.1" y="0" x="0" preserveAspectRatio="none" xmlns:xlink="http://www.w3.org/1999/xlink" viewBox="0 -30 819.2 0"  >
<g  >
<line y1="60" x2="778.0" style="stroke:grey; stroke-width:2; " x1="10" y2="60"  />
</g>
<g id="a54_000"  >
<polygon style="stroke:black; stroke-width:1; fill:grey; " points="10,60 13,55 13,65 10,60 "  />
</g>
<g id="a54_001"  >
<polygon style="stroke:black; stroke-width:1; fill:grey; " points="39,65 40,65 45,60 40,55 39,55 39,65 "  />
</g>
<g id="a54_002"  >
<polygon style="stroke:black; stroke-width:1; fill:grey; " points="74,60 79,55 80,55 80,65 79,65 74,60 "  />
</g>
<g id="a54_003"  >
<polygon style="stroke:black; stroke-width:1; fill:grey; " points="100,65 109,65 114,60 109,55 100,55 100,65 "  />
</g>
<g id="a54_004"  >
<polygon style="stroke:black; stroke-width:1; fill:grey; " points="104,65 109,65 114,60 109,55 104,55 104,65 "  />
</g>
<g id="a54_005"  >
<polygon style="stroke:black; stroke-width:1; fill:grey; " points="118,60 123,55 137,55 137,65 123,65 118,60 "  />
</g>
<g id="a54_006"  >
<polygon style="stroke:black; stroke-width:1; fill:grey; " points="145,60 150,55 165,55 165,65 150,65 145,60 "  />
</g>
<g id="a54_007"  >
<polygon style="stroke:black; stroke-width:1; fill:grey; " points="184,60 189,55 193,55 193,65 189,65 184,60 "  />
</g>
<g id="a54_008"  >
<polygon style="stroke:black; stroke-width:1; fill:grey; " points="224,60 226,55 226,65 224,60 "  />
</g>
<g id="a54_009"  >
<polygon style="stroke:black; stroke-width:1; fill:grey; " points="243,65 250,65 255,60 250,55 243,55 243,65 "  />
</g>
<g id="a54_0010"  >
<polygon style="stroke:black; stroke-width:1; fill:grey; " points="269,60 274,55 281,55 281,65 274,65 269,60 "  />
</g>
<g id="a54_0011"  >
<polygon style="stroke:black; stroke-width:1; fill:grey; " points="297,60 302,55 306,55 306,65 302,65 297,60 "  />
</g>
<g id="a54_0012"  >
<polygon style="stroke:black; stroke-width:1; fill:grey; " points="312,60 313,55 313,65 312,60 "  />
</g>
<g id="a54_0013"  >
<polygon style="stroke:black; stroke-width:1; fill:grey; " points="332,65 333,60 332,55 332,65 "  />
</g>
<g id="a54_0014"  >
<polygon style="stroke:black; stroke-width:1; fill:grey; " points="339,60 344,55 351,55 351,65 344,65 339,60 "  />
</g>
<g id="a54_0015"  >
<polygon style="stroke:black; stroke-width:1; fill:grey; " points="339,60 344,55 351,55 351,65 344,65 339,60 "  />
</g>
<g id="a54_0016"  >
<polygon style="stroke:black; stroke-width:1; fill:grey; " points="358,60 358,55 358,65 358,60 "  />
</g>
<g id="a54_0017"  >
<polygon style="stroke:black; stroke-width:1; fill:grey; " points="360,60 365,55 367,55 367,65 365,65 360,60 "  />
</g>
<g id="a54_0018"  >
<polygon style="stroke:black; stroke-width:1; fill:#810E15; " points="390,65 391,60 390,55 390,65 "  />
</g>
<g id="a54_0019"  >
<polygon style="stroke:black; stroke-width:1; fill:grey; " points="398,60 399,55 399,65 398,60 "  />
</g>
<g id="a54_0020"  >
<polygon style="stroke:black; stroke-width:1; fill:grey; " points="404,60 404,55 404,65 404,60 "  />
</g>
<g id="a54_0021"  >
<polygon style="stroke:black; stroke-width:1; fill:grey; " points="431,60 432,55 432,65 431,60 "  />
</g>
<g id="a54_0022"  >
<polygon style="stroke:black; stroke-width:1; fill:grey; " points="435,60 436,55 436,65 435,60 "  />
</g>
<g id="a54_0023"  >
<polygon style="stroke:black; stroke-width:1; fill:grey; " points="441,60 444,55 444,65 441,60 "  />
</g>
<g id="a54_0024"  >
<polygon style="stroke:black; stroke-width:1; fill:grey; " points="450,65 454,60 450,55 450,65 "  />
</g>
<g id="a54_0025"  >
<polygon style="stroke:black; stroke-width:1; fill:grey; " points="458,65 459,60 458,55 458,65 "  />
</g>
<g id="a54_0026"  >
<polygon style="stroke:black; stroke-width:1; fill:grey; " points="471,65 484,65 489,60 484,55 471,55 471,65 "  />
</g>
<g id="a54_0027"  >
<polygon style="stroke:black; stroke-width:1; fill:grey; " points="491,60 496,55 503,55 503,65 496,65 491,60 "  />
</g>
<g id="a54_0028"  >
<polygon style="stroke:black; stroke-width:1; fill:grey; " points="523,60 525,55 525,65 523,60 "  />
</g>
<g id="a54_0029"  >
<polygon style="stroke:black; stroke-width:1; fill:grey; " points="546,60 549,55 549,65 546,60 "  />
</g>
<g id="a54_0030"  >
<polygon style="stroke:black; stroke-width:1; fill:grey; " points="552,65 552,65 557,60 552,55 552,55 552,65 "  />
</g>
<g id="a54_0031"  >
<polygon style="stroke:black; stroke-width:1; fill:grey; " points="571,60 576,55 577,55 577,65 576,65 571,60 "  />
</g>
<g id="a54_0032"  >
<polygon style="stroke:black; stroke-width:1; fill:grey; " points="620,65 621,60 620,55 620,65 "  />
</g>
<g id="a54_0033"  >
<polygon style="stroke:black; stroke-width:1; fill:grey; " points="686,60 691,55 700,55 700,65 691,65 686,60 "  />
</g>
<g id="a54_0034"  >
<polygon style="stroke:black; stroke-width:1; fill:grey; " points="707,65 707,65 712,60 707,55 707,55 707,65 "  />
</g>
<g id="a54_0035"  >
<polygon style="stroke:black; stroke-width:1; fill:grey; " points="714,60 719,55 720,55 720,65 719,65 714,60 "  />
</g>
<g id="a54_0036"  >
<polygon style="stroke:black; stroke-width:1; fill:grey; " points="738,60 739,55 739,65 738,60 "  />
</g>
<g id="a54_0037"  >
<polygon style="stroke:black; stroke-width:1; fill:grey; " points="754,60 758,55 758,65 754,60 "  />
</g>
<g id="a54_0038"  >
<polygon style="stroke:black; stroke-width:1; fill:grey; " points="764,65 767,60 764,55 764,65 "  />
</g>
<g id="a54_0039"  >
<polygon style="stroke:black; stroke-width:1; fill:grey; " points="770,65 773,60 770,55 770,65 "  />
</g>
<g id="a54_0040"  >
<polygon style="stroke:black; stroke-width:1; fill:grey; " points="777,65 778,60 777,55 777,65 "  />
</g>
</svg>
