<svg xmlns="http://www.w3.org/2000/svg" height="0" width="768.0" version="1.1" y="0" x="0" preserveAspectRatio="none" xmlns:xlink="http://www.w3.org/1999/xlink" viewBox="0 -30 819.2 0"  >
<g  >
<line y1="60" x2="778.0" style="stroke:grey; stroke-width:2; " x1="10" y2="60"  />
</g>
<g id="a72_000"  >
<polygon style="stroke:black; stroke-width:1; fill:#810E15; " points="10,60 15,55 18,55 18,65 15,65 10,60 "  />
</g>
<g id="a72_001"  >
<polygon style="stroke:black; stroke-width:1; fill:grey; " points="97,65 144,65 149,60 144,55 97,55 97,65 "  />
</g>
<g id="a72_002"  >
<polygon style="stroke:black; stroke-width:1; fill:#810E15; " points="173,60 178,55 240,55 240,65 178,65 173,60 "  />
</g>
<g id="a72_003"  >
<polygon style="stroke:black; stroke-width:1; fill:grey; " points="188,60 193,55 240,55 240,65 193,65 188,60 "  />
</g>
<g id="a72_004"  >
<polygon style="stroke:black; stroke-width:1; fill:grey; " points="371,65 377,65 382,60 377,55 371,55 371,65 "  />
</g>
<g id="a72_005"  >
<polygon style="stroke:black; stroke-width:1; fill:grey; " points="389,60 394,55 433,55 433,65 394,65 389,60 "  />
</g>
<g id="a72_006"  >
<polygon style="stroke:black; stroke-width:1; fill:grey; " points="534,65 537,60 534,55 534,65 "  />
</g>
<g id="a72_007"  >
<polygon style="stroke:black; stroke-width:1; fill:#810E15; " points="547,60 552,55 598,55 598,65 552,65 547,60 "  />
</g>
<g id="a72_008"  >
<polygon style="stroke:black; stroke-width:1; fill:grey; " points="563,60 568,55 598,55 598,65 568,65 563,60 "  />
</g>
<g id="a72_009"  >
<polygon style="stroke:black; stroke-width:1; fill:grey; " points="636,65 661,65 666,60 661,55 636,55 636,65 "  />
</g>
<g id="a72_0010"  >
<polygon style="stroke:black; stroke-width:1; fill:grey; " points="722,60 727,55 734,55 734,65 727,65 722,60 "  />
</g>
<g id="a72_0011"  >
<polygon style="stroke:black; stroke-width:1; fill:grey; " points="760,60 765,55 778,55 778,65 765,65 760,60 "  />
</g>
</svg>
