<svg xmlns="http://www.w3.org/2000/svg" height="0" width="768.0" version="1.1" y="0" x="0" preserveAspectRatio="none" xmlns:xlink="http://www.w3.org/1999/xlink" viewBox="0 -30 819.2 0"  >
<g  >
<line y1="60" x2="778.0" style="stroke:grey; stroke-width:2; " x1="10" y2="60"  />
</g>
<g id="a4_000"  >
<polygon style="stroke:black; stroke-width:1; fill:#810E15; " points="10,65 19,65 24,60 19,55 10,55 10,65 "  />
</g>
<g id="a4_001"  >
<polygon style="stroke:black; stroke-width:1; fill:#810E15; " points="51,60 56,55 71,55 71,65 56,65 51,60 "  />
</g>
<g id="a4_002"  >
<polygon style="stroke:black; stroke-width:1; fill:#810E15; " points="98,60 103,55 123,55 123,65 103,65 98,60 "  />
</g>
<g id="a4_003"  >
<polygon style="stroke:black; stroke-width:1; fill:grey; " points="139,65 140,65 145,60 140,55 139,55 139,65 "  />
</g>
<g id="a4_004"  >
<polygon style="stroke:black; stroke-width:1; fill:grey; " points="157,60 162,55 162,55 162,65 162,65 157,60 "  />
</g>
<g id="a4_005"  >
<polygon style="stroke:black; stroke-width:1; fill:grey; " points="212,60 217,55 218,55 218,65 217,65 212,60 "  />
</g>
<g id="a4_006"  >
<polygon style="stroke:black; stroke-width:1; fill:grey; " points="466,65 549,65 554,60 549,55 466,55 466,65 "  />
</g>
<g id="a4_007"  >
<polygon style="stroke:black; stroke-width:1; fill:grey; " points="594,65 625,65 630,60 625,55 594,55 594,65 "  />
</g>
<g id="a4_008"  >
<polygon style="stroke:black; stroke-width:1; fill:#810E15; " points="646,65 672,65 677,60 672,55 646,55 646,65 "  />
</g>
<g id="a4_009"  >
<polygon style="stroke:black; stroke-width:1; fill:grey; " points="691,65 695,60 691,55 691,65 "  />
</g>
<g id="a4_0010"  >
<polygon style="stroke:black; stroke-width:1; fill:grey; " points="734,60 738,55 738,65 734,60 "  />
</g>
<g id="a4_0011"  >
<polygon style="stroke:black; stroke-width:1; fill:grey; " points="773,60 778,55 778,55 778,65 778,65 773,60 "  />
</g>
</svg>
