<svg xmlns="http://www.w3.org/2000/svg" height="0" width="768.0" version="1.1" y="0" x="0" preserveAspectRatio="none" xmlns:xlink="http://www.w3.org/1999/xlink" viewBox="0 -30 819.2 0"  >
<g  >
<line y1="60" x2="778.0" style="stroke:grey; stroke-width:2; " x1="10" y2="60"  />
</g>
<g id="a47_000"  >
<polygon style="stroke:black; stroke-width:1; fill:grey; " points="10,65 38,65 43,60 38,55 10,55 10,65 "  />
</g>
<g id="a47_001"  >
<polygon style="stroke:black; stroke-width:1; fill:grey; " points="56,65 58,60 56,55 56,65 "  />
</g>
<g id="a47_002"  >
<polygon style="stroke:black; stroke-width:1; fill:#810E15; " points="78,60 83,55 100,55 100,65 83,65 78,60 "  />
</g>
<g id="a47_003"  >
<polygon style="stroke:black; stroke-width:1; fill:grey; " points="82,60 87,55 100,55 100,65 87,65 82,60 "  />
</g>
<g id="a47_004"  >
<polygon style="stroke:black; stroke-width:1; fill:grey; " points="142,60 143,55 143,65 142,60 "  />
</g>
<g id="a47_005"  >
<polygon style="stroke:black; stroke-width:1; fill:grey; " points="184,65 205,65 210,60 205,55 184,55 184,65 "  />
</g>
<g id="a47_006"  >
<polygon style="stroke:black; stroke-width:1; fill:grey; " points="231,65 238,65 243,60 238,55 231,55 231,65 "  />
</g>
<g id="a47_007"  >
<polygon style="stroke:black; stroke-width:1; fill:grey; " points="297,65 321,65 326,60 321,55 297,55 297,65 "  />
</g>
<g id="a47_008"  >
<polygon style="stroke:black; stroke-width:1; fill:grey; " points="337,65 358,65 363,60 358,55 337,55 337,65 "  />
</g>
<g id="a47_009"  >
<polygon style="stroke:black; stroke-width:1; fill:#810E15; " points="365,65 378,65 383,60 378,55 365,55 365,65 "  />
</g>
<g id="a47_0010"  >
<polygon style="stroke:black; stroke-width:1; fill:grey; " points="417,65 436,65 441,60 436,55 417,55 417,65 "  />
</g>
<g id="a47_0011"  >
<polygon style="stroke:black; stroke-width:1; fill:grey; " points="484,65 487,65 492,60 487,55 484,55 484,65 "  />
</g>
<g id="a47_0012"  >
<polygon style="stroke:black; stroke-width:1; fill:grey; " points="501,65 503,60 501,55 501,65 "  />
</g>
<g id="a47_0013"  >
<polygon style="stroke:black; stroke-width:1; fill:grey; " points="517,65 519,60 517,55 517,65 "  />
</g>
<g id="a47_0014"  >
<polygon style="stroke:black; stroke-width:1; fill:grey; " points="541,65 542,60 541,55 541,65 "  />
</g>
<g id="a47_0015"  >
<polygon style="stroke:black; stroke-width:1; fill:grey; " points="560,60 561,55 561,65 560,60 "  />
</g>
<g id="a47_0016"  >
<polygon style="stroke:black; stroke-width:1; fill:grey; " points="586,65 588,65 593,60 588,55 586,55 586,65 "  />
</g>
<g id="a47_0017"  >
<polygon style="stroke:black; stroke-width:1; fill:grey; " points="606,65 621,65 626,60 621,55 606,55 606,65 "  />
</g>
<g id="a47_0018"  >
<polygon style="stroke:black; stroke-width:1; fill:#810E15; " points="659,65 689,65 694,60 689,55 659,55 659,65 "  />
</g>
<g id="a47_0019"  >
<polygon style="stroke:black; stroke-width:1; fill:grey; " points="718,60 723,55 736,55 736,65 723,65 718,60 "  />
</g>
<g id="a47_0020"  >
<polygon style="stroke:black; stroke-width:1; fill:grey; " points="748,60 753,55 778,55 778,65 753,65 748,60 "  />
</g>
</svg>
