<svg xmlns="http://www.w3.org/2000/svg" height="0" width="768.0" version="1.1" y="0" x="0" preserveAspectRatio="none" xmlns:xlink="http://www.w3.org/1999/xlink" viewBox="0 -30 819.2 0"  >
<g  >
<line y1="60" x2="778.0" style="stroke:grey; stroke-width:2; " x1="10" y2="60"  />
</g>
<g id="a49_000"  >
<polygon style="stroke:black; stroke-width:1; fill:grey; " points="10,60 15,55 21,55 21,65 15,65 10,60 "  />
</g>
<g id="a49_001"  >
<polygon style="stroke:black; stroke-width:1; fill:#810E15; " points="65,65 78,65 83,60 78,55 65,55 65,65 "  />
</g>
<g id="a49_002"  >
<polygon style="stroke:black; stroke-width:1; fill:#810E15; " points="215,65 218,60 215,55 215,65 "  />
</g>
<g id="a49_003"  >
<polygon style="stroke:black; stroke-width:1; fill:#810E15; " points="255,65 258,65 263,60 258,55 255,55 255,65 "  />
</g>
<g id="a49_004"  >
<polygon style="stroke:black; stroke-width:1; fill:#810E15; " points="292,65 301,65 306,60 301,55 292,55 292,65 "  />
</g>
<g id="a49_005"  >
<polygon style="stroke:black; stroke-width:1; fill:grey; " points="294,65 301,65 306,60 301,55 294,55 294,65 "  />
</g>
<g id="a49_006"  >
<polygon style="stroke:black; stroke-width:1; fill:#810E15; " points="309,60 314,55 315,55 315,65 314,65 309,60 "  />
</g>
<g id="a49_007"  >
<polygon style="stroke:black; stroke-width:1; fill:#810E15; " points="338,65 338,65 343,60 338,55 338,55 338,65 "  />
</g>
<g id="a49_008"  >
<polygon style="stroke:black; stroke-width:1; fill:#810E15; " points="353,65 361,65 366,60 361,55 353,55 353,65 "  />
</g>
<g id="a49_009"  >
<polygon style="stroke:black; stroke-width:1; fill:#810E15; " points="382,65 391,65 396,60 391,55 382,55 382,65 "  />
</g>
<g id="a49_0010"  >
<polygon style="stroke:black; stroke-width:1; fill:#810E15; " points="412,65 420,65 425,60 420,55 412,55 412,65 "  />
</g>
<g id="a49_0011"  >
<polygon style="stroke:black; stroke-width:1; fill:#810E15; " points="449,65 456,65 461,60 456,55 449,55 449,65 "  />
</g>
<g id="a49_0012"  >
<polygon style="stroke:black; stroke-width:1; fill:grey; " points="476,65 479,60 476,55 476,65 "  />
</g>
<g id="a49_0013"  >
<polygon style="stroke:black; stroke-width:1; fill:grey; " points="481,65 485,65 490,60 485,55 481,55 481,65 "  />
</g>
<g id="a49_0014"  >
<polygon style="stroke:black; stroke-width:1; fill:grey; " points="497,60 502,55 505,55 505,65 502,65 497,60 "  />
</g>
<g id="a49_0015"  >
<polygon style="stroke:black; stroke-width:1; fill:grey; " points="500,60 505,55 505,55 505,65 505,65 500,60 "  />
</g>
<g id="a49_0016"  >
<polygon style="stroke:black; stroke-width:1; fill:grey; " points="512,65 527,65 532,60 527,55 512,55 512,65 "  />
</g>
<g id="a49_0017"  >
<polygon style="stroke:black; stroke-width:1; fill:#810E15; " points="544,60 549,55 571,55 571,65 549,65 544,60 "  />
</g>
<g id="a49_0018"  >
<polygon style="stroke:black; stroke-width:1; fill:grey; " points="614,65 616,60 614,55 614,65 "  />
</g>
<g id="a49_0019"  >
<polygon style="stroke:black; stroke-width:1; fill:grey; " points="633,60 635,55 635,65 633,60 "  />
</g>
<g id="a49_0020"  >
<polygon style="stroke:black; stroke-width:1; fill:grey; " points="641,60 642,55 642,65 641,60 "  />
</g>
<g id="a49_0021"  >
<polygon style="stroke:black; stroke-width:1; fill:#810E15; " points="668,65 675,65 680,60 675,55 668,55 668,65 "  />
</g>
<g id="a49_0022"  >
<polygon style="stroke:black; stroke-width:1; fill:#810E15; " points="693,65 695,65 700,60 695,55 693,55 693,65 "  />
</g>
<g id="a49_0023"  >
<polygon style="stroke:black; stroke-width:1; fill:grey; " points="709,60 714,55 714,55 714,65 714,65 709,60 "  />
</g>
<g id="a49_0024"  >
<polygon style="stroke:black; stroke-width:1; fill:grey; " points="745,60 750,55 778,55 778,65 750,65 745,60 "  />
</g>
</svg>
