<svg xmlns="http://www.w3.org/2000/svg" height="0" width="768.0" version="1.1" y="0" x="0" preserveAspectRatio="none" xmlns:xlink="http://www.w3.org/1999/xlink" viewBox="0 -30 819.2 0"  >
<g  >
<line y1="60" x2="778.0" style="stroke:grey; stroke-width:2; " x1="10" y2="60"  />
</g>
<g id="a13_000"  >
<polygon style="stroke:black; stroke-width:1; fill:grey; " points="10,65 12,60 10,55 10,65 "  />
</g>
<g id="a13_001"  >
<polygon style="stroke:black; stroke-width:1; fill:#810E15; " points="25,60 30,55 41,55 41,65 30,65 25,60 "  />
</g>
<g id="a13_002"  >
<polygon style="stroke:black; stroke-width:1; fill:#810E15; " points="63,60 68,55 80,55 80,65 68,65 63,60 "  />
</g>
<g id="a13_003"  >
<polygon style="stroke:black; stroke-width:1; fill:grey; " points="92,65 109,65 114,60 109,55 92,55 92,65 "  />
</g>
<g id="a13_004"  >
<polygon style="stroke:black; stroke-width:1; fill:grey; " points="133,65 142,65 147,60 142,55 133,55 133,65 "  />
</g>
<g id="a13_005"  >
<polygon style="stroke:black; stroke-width:1; fill:#810E15; " points="160,60 165,55 166,55 166,65 165,65 160,60 "  />
</g>
<g id="a13_006"  >
<polygon style="stroke:black; stroke-width:1; fill:#810E15; " points="172,60 177,55 184,55 184,65 177,65 172,60 "  />
</g>
<g id="a13_007"  >
<polygon style="stroke:black; stroke-width:1; fill:grey; " points="174,60 179,55 184,55 184,65 179,65 174,60 "  />
</g>
<g id="a13_008"  >
<polygon style="stroke:black; stroke-width:1; fill:grey; " points="188,60 193,55 198,55 198,65 193,65 188,60 "  />
</g>
<g id="a13_009"  >
<polygon style="stroke:black; stroke-width:1; fill:grey; " points="229,65 239,65 244,60 239,55 229,55 229,65 "  />
</g>
<g id="a13_0010"  >
<polygon style="stroke:black; stroke-width:1; fill:#810E15; " points="248,60 253,55 256,55 256,65 253,65 248,60 "  />
</g>
<g id="a13_0011"  >
<polygon style="stroke:black; stroke-width:1; fill:grey; " points="251,60 256,55 256,55 256,65 256,65 251,60 "  />
</g>
<g id="a13_0012"  >
<polygon style="stroke:black; stroke-width:1; fill:#810E15; " points="275,60 278,55 278,65 275,60 "  />
</g>
<g id="a13_0013"  >
<polygon style="stroke:black; stroke-width:1; fill:#810E15; " points="290,60 295,55 353,55 353,65 295,65 290,60 "  />
</g>
<g id="a13_0014"  >
<polygon style="stroke:black; stroke-width:1; fill:#810E15; " points="368,60 370,55 370,65 368,60 "  />
</g>
<g id="a13_0015"  >
<polygon style="stroke:black; stroke-width:1; fill:#810E15; " points="445,60 450,55 455,55 455,65 450,65 445,60 "  />
</g>
<g id="a13_0016"  >
<polygon style="stroke:black; stroke-width:1; fill:#810E15; " points="476,60 481,55 484,55 484,65 481,65 476,60 "  />
</g>
<g id="a13_0017"  >
<polygon style="stroke:black; stroke-width:1; fill:grey; " points="498,60 499,55 499,65 498,60 "  />
</g>
<g id="a13_0018"  >
<polygon style="stroke:black; stroke-width:1; fill:grey; " points="525,60 527,55 527,65 525,60 "  />
</g>
<g id="a13_0019"  >
<polygon style="stroke:black; stroke-width:1; fill:grey; " points="547,65 550,60 547,55 547,65 "  />
</g>
<g id="a13_0020"  >
<polygon style="stroke:black; stroke-width:1; fill:grey; " points="566,60 571,55 573,55 573,65 571,65 566,60 "  />
</g>
<g id="a13_0021"  >
<polygon style="stroke:black; stroke-width:1; fill:grey; " points="566,60 571,55 573,55 573,65 571,65 566,60 "  />
</g>
<g id="a13_0022"  >
<polygon style="stroke:black; stroke-width:1; fill:grey; " points="592,60 594,55 594,65 592,60 "  />
</g>
<g id="a13_0023"  >
<polygon style="stroke:black; stroke-width:1; fill:#810E15; " points="655,60 660,55 672,55 672,65 660,65 655,60 "  />
</g>
<g id="a13_0024"  >
<polygon style="stroke:black; stroke-width:1; fill:grey; " points="693,65 704,65 709,60 704,55 693,55 693,65 "  />
</g>
<g id="a13_0025"  >
<polygon style="stroke:black; stroke-width:1; fill:grey; " points="718,65 726,65 731,60 726,55 718,55 718,65 "  />
</g>
<g id="a13_0026"  >
<polygon style="stroke:black; stroke-width:1; fill:#810E15; " points="735,60 740,55 753,55 753,65 740,65 735,60 "  />
</g>
<g id="a13_0027"  >
<polygon style="stroke:black; stroke-width:1; fill:grey; " points="754,65 773,65 778,60 773,55 754,55 754,65 "  />
</g>
</svg>
