<svg xmlns="http://www.w3.org/2000/svg" height="0" width="768.0" version="1.1" y="0" x="0" preserveAspectRatio="none" xmlns:xlink="http://www.w3.org/1999/xlink" viewBox="0 -30 819.2 0"  >
<g  >
<line y1="60" x2="778.0" style="stroke:grey; stroke-width:2; " x1="10" y2="60"  />
</g>
<g id="a45_000"  >
<polygon style="stroke:black; stroke-width:1; fill:grey; " points="10,65 13,65 18,60 13,55 10,55 10,65 "  />
</g>
<g id="a45_001"  >
<polygon style="stroke:black; stroke-width:1; fill:#810E15; " points="167,60 172,55 198,55 198,65 172,65 167,60 "  />
</g>
<g id="a45_002"  >
<polygon style="stroke:black; stroke-width:1; fill:grey; " points="231,65 262,65 267,60 262,55 231,55 231,65 "  />
</g>
<g id="a45_003"  >
<polygon style="stroke:black; stroke-width:1; fill:#810E15; " points="303,65 385,65 390,60 385,55 303,55 303,65 "  />
</g>
<g id="a45_004"  >
<polygon style="stroke:black; stroke-width:1; fill:grey; " points="402,65 432,65 437,60 432,55 402,55 402,65 "  />
</g>
<g id="a45_005"  >
<polygon style="stroke:black; stroke-width:1; fill:grey; " points="467,65 484,65 489,60 484,55 467,55 467,65 "  />
</g>
<g id="a45_006"  >
<polygon style="stroke:black; stroke-width:1; fill:#810E15; " points="497,60 502,55 542,55 542,65 502,65 497,60 "  />
</g>
<g id="a45_007"  >
<polygon style="stroke:black; stroke-width:1; fill:grey; " points="687,65 688,65 693,60 688,55 687,55 687,65 "  />
</g>
<g id="a45_008"  >
<polygon style="stroke:black; stroke-width:1; fill:#810E15; " points="738,65 773,65 778,60 773,55 738,55 738,65 "  />
</g>
</svg>
