<svg xmlns="http://www.w3.org/2000/svg" height="0" width="768.0" version="1.1" y="0" x="0" preserveAspectRatio="none" xmlns:xlink="http://www.w3.org/1999/xlink" viewBox="0 -30 819.2 0"  >
<g  >
<line y1="60" x2="778.0" style="stroke:grey; stroke-width:2; " x1="10" y2="60"  />
</g>
<g id="a18_000"  >
<polygon style="stroke:black; stroke-width:1; fill:grey; " points="10,65 23,65 28,60 23,55 10,55 10,65 "  />
</g>
<g id="a18_001"  >
<polygon style="stroke:black; stroke-width:1; fill:#810E15; " points="44,60 49,55 74,55 74,65 49,65 44,60 "  />
</g>
<g id="a18_002"  >
<polygon style="stroke:black; stroke-width:1; fill:grey; " points="163,60 168,55 193,55 193,65 168,65 163,60 "  />
</g>
<g id="a18_003"  >
<polygon style="stroke:black; stroke-width:1; fill:grey; " points="214,60 217,55 217,65 214,60 "  />
</g>
<g id="a18_004"  >
<polygon style="stroke:black; stroke-width:1; fill:grey; " points="249,60 251,55 251,65 249,60 "  />
</g>
<g id="a18_005"  >
<polygon style="stroke:black; stroke-width:1; fill:grey; " points="284,60 289,55 306,55 306,65 289,65 284,60 "  />
</g>
<g id="a18_006"  >
<polygon style="stroke:black; stroke-width:1; fill:grey; " points="325,65 328,60 325,55 325,65 "  />
</g>
<g id="a18_007"  >
<polygon style="stroke:black; stroke-width:1; fill:#810E15; " points="339,60 344,55 345,55 345,65 344,65 339,60 "  />
</g>
<g id="a18_008"  >
<polygon style="stroke:black; stroke-width:1; fill:grey; " points="351,60 353,55 353,65 351,60 "  />
</g>
<g id="a18_009"  >
<polygon style="stroke:black; stroke-width:1; fill:grey; " points="496,60 499,55 499,65 496,60 "  />
</g>
<g id="a18_0010"  >
<polygon style="stroke:black; stroke-width:1; fill:grey; " points="507,65 511,60 507,55 507,65 "  />
</g>
<g id="a18_0011"  >
<polygon style="stroke:black; stroke-width:1; fill:#810E15; " points="518,60 523,55 538,55 538,65 523,65 518,60 "  />
</g>
<g id="a18_0012"  >
<polygon style="stroke:black; stroke-width:1; fill:grey; " points="643,60 647,55 647,65 643,60 "  />
</g>
<g id="a18_0013"  >
<polygon style="stroke:black; stroke-width:1; fill:grey; " points="655,65 655,65 660,60 655,55 655,55 655,65 "  />
</g>
<g id="a18_0014"  >
<polygon style="stroke:black; stroke-width:1; fill:#810E15; " points="666,60 671,55 685,55 685,65 671,65 666,60 "  />
</g>
<g id="a18_0015"  >
<polygon style="stroke:black; stroke-width:1; fill:grey; " points="711,60 715,55 715,65 711,60 "  />
</g>
<g id="a18_0016"  >
<polygon style="stroke:black; stroke-width:1; fill:grey; " points="751,60 756,55 756,55 756,65 756,65 751,60 "  />
</g>
<g id="a18_0017"  >
<polygon style="stroke:black; stroke-width:1; fill:#810E15; " points="751,60 756,55 756,55 756,65 756,65 751,60 "  />
</g>
<g id="a18_0018"  >
<polygon style="stroke:black; stroke-width:1; fill:#810E15; " points="772,60 777,55 778,55 778,65 777,65 772,60 "  />
</g>
</svg>
