<svg xmlns="http://www.w3.org/2000/svg" height="0" width="768.0" version="1.1" y="0" x="0" preserveAspectRatio="none" xmlns:xlink="http://www.w3.org/1999/xlink" viewBox="0 -30 819.2 0"  >
<g  >
<line y1="60" x2="778.0" style="stroke:grey; stroke-width:2; " x1="10" y2="60"  />
</g>
<g id="a61_000"  >
<polygon style="stroke:black; stroke-width:1; fill:grey; " points="10,65 11,65 16,60 11,55 10,55 10,65 "  />
</g>
<g id="a61_001"  >
<polygon style="stroke:black; stroke-width:1; fill:#810E15; " points="90,60 95,55 111,55 111,65 95,65 90,60 "  />
</g>
<g id="a61_002"  >
<polygon style="stroke:black; stroke-width:1; fill:#810E15; " points="130,60 135,55 173,55 173,65 135,65 130,60 "  />
</g>
<g id="a61_003"  >
<polygon style="stroke:black; stroke-width:1; fill:#810E15; " points="258,60 263,55 290,55 290,65 263,65 258,60 "  />
</g>
<g id="a61_004"  >
<polygon style="stroke:black; stroke-width:1; fill:#810E15; " points="305,60 310,55 325,55 325,65 310,65 305,60 "  />
</g>
<g id="a61_005"  >
<polygon style="stroke:black; stroke-width:1; fill:grey; " points="343,60 348,55 354,55 354,65 348,65 343,60 "  />
</g>
<g id="a61_006"  >
<polygon style="stroke:black; stroke-width:1; fill:grey; " points="363,65 393,65 398,60 393,55 363,55 363,65 "  />
</g>
<g id="a61_007"  >
<polygon style="stroke:black; stroke-width:1; fill:grey; " points="427,60 432,55 453,55 453,65 432,65 427,60 "  />
</g>
<g id="a61_008"  >
<polygon style="stroke:black; stroke-width:1; fill:#810E15; " points="510,65 552,65 557,60 552,55 510,55 510,65 "  />
</g>
<g id="a61_009"  >
<polygon style="stroke:black; stroke-width:1; fill:grey; " points="568,60 573,55 573,55 573,65 573,65 568,60 "  />
</g>
<g id="a61_0010"  >
<polygon style="stroke:black; stroke-width:1; fill:#810E15; " points="704,60 709,55 723,55 723,65 709,65 704,60 "  />
</g>
<g id="a61_0011"  >
<polygon style="stroke:black; stroke-width:1; fill:grey; " points="746,65 746,65 751,60 746,55 746,55 746,65 "  />
</g>
<g id="a61_0012"  >
<polygon style="stroke:black; stroke-width:1; fill:grey; " points="771,60 776,55 778,55 778,65 776,65 771,60 "  />
</g>
</svg>
