<svg xmlns="http://www.w3.org/2000/svg" height="0" width="768.0" version="1.1" y="0" x="0" preserveAspectRatio="none" xmlns:xlink="http://www.w3.org/1999/xlink" viewBox="0 -30 819.2 0"  >
<g  >
<line y1="60" x2="778.0" style="stroke:grey; stroke-width:2; " x1="10" y2="60"  />
</g>
<g id="a11_000"  >
<polygon style="stroke:black; stroke-width:1; fill:grey; " points="10,60 15,55 22,55 22,65 15,65 10,60 "  />
</g>
<g id="a11_001"  >
<polygon style="stroke:black; stroke-width:1; fill:grey; " points="33,60 35,55 35,65 33,60 "  />
</g>
<g id="a11_002"  >
<polygon style="stroke:black; stroke-width:1; fill:#810E15; " points="59,60 64,55 65,55 65,65 64,65 59,60 "  />
</g>
<g id="a11_003"  >
<polygon style="stroke:black; stroke-width:1; fill:#810E15; " points="93,60 98,55 99,55 99,65 98,65 93,60 "  />
</g>
<g id="a11_004"  >
<polygon style="stroke:black; stroke-width:1; fill:#810E15; " points="120,60 125,55 126,55 126,65 125,65 120,60 "  />
</g>
<g id="a11_005"  >
<polygon style="stroke:black; stroke-width:1; fill:grey; " points="152,60 154,55 154,65 152,60 "  />
</g>
<g id="a11_006"  >
<polygon style="stroke:black; stroke-width:1; fill:grey; " points="176,65 182,65 187,60 182,55 176,55 176,65 "  />
</g>
<g id="a11_007"  >
<polygon style="stroke:black; stroke-width:1; fill:grey; " points="194,60 199,55 213,55 213,65 199,65 194,60 "  />
</g>
<g id="a11_008"  >
<polygon style="stroke:black; stroke-width:1; fill:#810E15; " points="245,65 247,65 252,60 247,55 245,55 245,65 "  />
</g>
<g id="a11_009"  >
<polygon style="stroke:black; stroke-width:1; fill:#810E15; " points="269,65 275,65 280,60 275,55 269,55 269,65 "  />
</g>
<g id="a11_0010"  >
<polygon style="stroke:black; stroke-width:1; fill:grey; " points="297,60 299,55 299,65 297,60 "  />
</g>
<g id="a11_0011"  >
<polygon style="stroke:black; stroke-width:1; fill:#810E15; " points="315,65 319,60 315,55 315,65 "  />
</g>
<g id="a11_0012"  >
<polygon style="stroke:black; stroke-width:1; fill:#810E15; " points="348,65 348,65 353,60 348,55 348,55 348,65 "  />
</g>
<g id="a11_0013"  >
<polygon style="stroke:black; stroke-width:1; fill:grey; " points="356,65 362,65 367,60 362,55 356,55 356,65 "  />
</g>
<g id="a11_0014"  >
<polygon style="stroke:black; stroke-width:1; fill:#810E15; " points="374,65 377,60 374,55 374,65 "  />
</g>
<g id="a11_0015"  >
<polygon style="stroke:black; stroke-width:1; fill:grey; " points="387,65 388,60 387,55 387,65 "  />
</g>
<g id="a11_0016"  >
<polygon style="stroke:black; stroke-width:1; fill:#810E15; " points="396,65 400,60 396,55 396,65 "  />
</g>
<g id="a11_0017"  >
<polygon style="stroke:black; stroke-width:1; fill:#810E15; " points="438,65 438,65 443,60 438,55 438,55 438,65 "  />
</g>
<g id="a11_0018"  >
<polygon style="stroke:black; stroke-width:1; fill:#810E15; " points="465,65 467,65 472,60 467,55 465,55 465,65 "  />
</g>
<g id="a11_0019"  >
<polygon style="stroke:black; stroke-width:1; fill:#810E15; " points="486,65 489,60 486,55 486,65 "  />
</g>
<g id="a11_0020"  >
<polygon style="stroke:black; stroke-width:1; fill:grey; " points="504,65 505,60 504,55 504,65 "  />
</g>
<g id="a11_0021"  >
<polygon style="stroke:black; stroke-width:1; fill:#810E15; " points="538,65 538,65 543,60 538,55 538,55 538,65 "  />
</g>
<g id="a11_0022"  >
<polygon style="stroke:black; stroke-width:1; fill:grey; " points="541,65 543,60 541,55 541,65 "  />
</g>
<g id="a11_0023"  >
<polygon style="stroke:black; stroke-width:1; fill:grey; " points="550,60 555,55 559,55 559,65 555,65 550,60 "  />
</g>
<g id="a11_0024"  >
<polygon style="stroke:black; stroke-width:1; fill:grey; " points="581,65 582,60 581,55 581,65 "  />
</g>
<g id="a11_0025"  >
<polygon style="stroke:black; stroke-width:1; fill:grey; " points="612,65 613,60 612,55 612,65 "  />
</g>
<g id="a11_0026"  >
<polygon style="stroke:black; stroke-width:1; fill:grey; " points="627,65 628,60 627,55 627,65 "  />
</g>
<g id="a11_0027"  >
<polygon style="stroke:black; stroke-width:1; fill:grey; " points="633,65 635,60 633,55 633,65 "  />
</g>
<g id="a11_0028"  >
<polygon style="stroke:black; stroke-width:1; fill:grey; " points="661,65 662,60 661,55 661,65 "  />
</g>
<g id="a11_0029"  >
<polygon style="stroke:black; stroke-width:1; fill:grey; " points="711,60 716,55 716,55 716,65 716,65 711,60 "  />
</g>
<g id="a11_0030"  >
<polygon style="stroke:black; stroke-width:1; fill:#810E15; " points="737,65 741,60 737,55 737,65 "  />
</g>
<g id="a11_0031"  >
<polygon style="stroke:black; stroke-width:1; fill:grey; " points="750,65 752,60 750,55 750,65 "  />
</g>
<g id="a11_0032"  >
<polygon style="stroke:black; stroke-width:1; fill:grey; " points="764,60 769,55 774,55 774,65 769,65 764,60 "  />
</g>
<g id="a11_0033"  >
<polygon style="stroke:black; stroke-width:1; fill:grey; " points="764,60 769,55 778,55 778,65 769,65 764,60 "  />
</g>
</svg>
