<svg xmlns="http://www.w3.org/2000/svg" height="0" width="768.0" version="1.1" y="0" x="0" preserveAspectRatio="none" xmlns:xlink="http://www.w3.org/1999/xlink" viewBox="0 -30 819.2 0"  >
<g  >
<line y1="60" x2="778.0" style="stroke:grey; stroke-width:2; " x1="10" y2="60"  />
</g>
<g id="a22_000"  >
<polygon style="stroke:black; stroke-width:1; fill:grey; " points="10,60 14,55 14,65 10,60 "  />
</g>
<g id="a22_001"  >
<polygon style="stroke:black; stroke-width:1; fill:grey; " points="25,65 27,60 25,55 25,65 "  />
</g>
<g id="a22_002"  >
<polygon style="stroke:black; stroke-width:1; fill:grey; " points="88,60 90,55 90,65 88,60 "  />
</g>
<g id="a22_003"  >
<polygon style="stroke:black; stroke-width:1; fill:#810E15; " points="129,60 134,55 157,55 157,65 134,65 129,60 "  />
</g>
<g id="a22_004"  >
<polygon style="stroke:black; stroke-width:1; fill:grey; " points="138,60 143,55 157,55 157,65 143,65 138,60 "  />
</g>
<g id="a22_005"  >
<polygon style="stroke:black; stroke-width:1; fill:#810E15; " points="245,65 289,65 294,60 289,55 245,55 245,65 "  />
</g>
<g id="a22_006"  >
<polygon style="stroke:black; stroke-width:1; fill:grey; " points="272,65 289,65 294,60 289,55 272,55 272,65 "  />
</g>
<g id="a22_007"  >
<polygon style="stroke:black; stroke-width:1; fill:grey; " points="327,60 332,55 343,55 343,65 332,65 327,60 "  />
</g>
<g id="a22_008"  >
<polygon style="stroke:black; stroke-width:1; fill:grey; " points="384,60 389,55 419,55 419,65 389,65 384,60 "  />
</g>
<g id="a22_009"  >
<polygon style="stroke:black; stroke-width:1; fill:#810E15; " points="627,65 647,65 652,60 647,55 627,55 627,65 "  />
</g>
<g id="a22_0010"  >
<polygon style="stroke:black; stroke-width:1; fill:grey; " points="683,65 773,65 778,60 773,55 683,55 683,65 "  />
</g>
</svg>
