<svg xmlns="http://www.w3.org/2000/svg" height="0" width="768.0" version="1.1" y="0" x="0" preserveAspectRatio="none" xmlns:xlink="http://www.w3.org/1999/xlink" viewBox="0 -30 819.2 0"  >
<g  >
<line y1="60" x2="778.0" style="stroke:grey; stroke-width:2; " x1="10" y2="60"  />
</g>
<g id="a46_000"  >
<polygon style="stroke:black; stroke-width:1; fill:grey; " points="10,65 17,65 22,60 17,55 10,55 10,65 "  />
</g>
<g id="a46_001"  >
<polygon style="stroke:black; stroke-width:1; fill:#810E15; " points="71,65 81,65 86,60 81,55 71,55 71,65 "  />
</g>
<g id="a46_002"  >
<polygon style="stroke:black; stroke-width:1; fill:#810E15; " points="93,65 110,65 115,60 110,55 93,55 93,65 "  />
</g>
<g id="a46_003"  >
<polygon style="stroke:black; stroke-width:1; fill:#810E15; " points="120,65 122,60 120,55 120,65 "  />
</g>
<g id="a46_004"  >
<polygon style="stroke:black; stroke-width:1; fill:#810E15; " points="127,65 130,60 127,55 127,65 "  />
</g>
<g id="a46_005"  >
<polygon style="stroke:black; stroke-width:1; fill:#810E15; " points="135,65 167,65 172,60 167,55 135,55 135,65 "  />
</g>
<g id="a46_006"  >
<polygon style="stroke:black; stroke-width:1; fill:#810E15; " points="185,65 193,65 198,60 193,55 185,55 185,65 "  />
</g>
<g id="a46_007"  >
<polygon style="stroke:black; stroke-width:1; fill:#810E15; " points="209,65 222,65 227,60 222,55 209,55 209,65 "  />
</g>
<g id="a46_008"  >
<polygon style="stroke:black; stroke-width:1; fill:#810E15; " points="249,65 257,65 262,60 257,55 249,55 249,65 "  />
</g>
<g id="a46_009"  >
<polygon style="stroke:black; stroke-width:1; fill:grey; " points="404,65 433,65 438,60 433,55 404,55 404,65 "  />
</g>
<g id="a46_0010"  >
<polygon style="stroke:black; stroke-width:1; fill:grey; " points="443,60 446,55 446,65 443,60 "  />
</g>
<g id="a46_0011"  >
<polygon style="stroke:black; stroke-width:1; fill:#810E15; " points="494,60 499,55 507,55 507,65 499,65 494,60 "  />
</g>
<g id="a46_0012"  >
<polygon style="stroke:black; stroke-width:1; fill:grey; " points="530,60 535,55 547,55 547,65 535,65 530,60 "  />
</g>
<g id="a46_0013"  >
<polygon style="stroke:black; stroke-width:1; fill:grey; " points="569,60 570,55 570,65 569,60 "  />
</g>
<g id="a46_0014"  >
<polygon style="stroke:black; stroke-width:1; fill:grey; " points="574,60 579,55 584,55 584,65 579,65 574,60 "  />
</g>
<g id="a46_0015"  >
<polygon style="stroke:black; stroke-width:1; fill:#810E15; " points="604,60 609,55 617,55 617,65 609,65 604,60 "  />
</g>
<g id="a46_0016"  >
<polygon style="stroke:black; stroke-width:1; fill:grey; " points="636,60 641,55 650,55 650,65 641,65 636,60 "  />
</g>
<g id="a46_0017"  >
<polygon style="stroke:black; stroke-width:1; fill:grey; " points="651,60 656,55 702,55 702,65 656,65 651,60 "  />
</g>
<g id="a46_0018"  >
<polygon style="stroke:black; stroke-width:1; fill:#810E15; " points="758,60 763,55 778,55 778,65 763,65 758,60 "  />
</g>
</svg>
