<svg xmlns="http://www.w3.org/2000/svg" height="0" width="768.0" version="1.1" y="0" x="0" preserveAspectRatio="none" xmlns:xlink="http://www.w3.org/1999/xlink" viewBox="0 -30 819.2 0"  >
<g  >
<line y1="60" x2="778.0" style="stroke:grey; stroke-width:2; " x1="10" y2="60"  />
</g>
<g id="a36_000"  >
<polygon style="stroke:black; stroke-width:1; fill:grey; " points="10,65 16,65 21,60 16,55 10,55 10,65 "  />
</g>
<g id="a36_001"  >
<polygon style="stroke:black; stroke-width:1; fill:#810E15; " points="60,65 100,65 105,60 100,55 60,55 60,65 "  />
</g>
<g id="a36_002"  >
<polygon style="stroke:black; stroke-width:1; fill:grey; " points="84,65 100,65 105,60 100,55 84,55 84,65 "  />
</g>
<g id="a36_003"  >
<polygon style="stroke:black; stroke-width:1; fill:#810E15; " points="134,65 163,65 168,60 163,55 134,55 134,65 "  />
</g>
<g id="a36_004"  >
<polygon style="stroke:black; stroke-width:1; fill:#810E15; " points="181,60 185,55 185,65 181,60 "  />
</g>
<g id="a36_005"  >
<polygon style="stroke:black; stroke-width:1; fill:#810E15; " points="211,60 216,55 239,55 239,65 216,65 211,60 "  />
</g>
<g id="a36_006"  >
<polygon style="stroke:black; stroke-width:1; fill:grey; " points="314,60 319,55 331,55 331,65 319,65 314,60 "  />
</g>
<g id="a36_007"  >
<polygon style="stroke:black; stroke-width:1; fill:grey; " points="510,65 580,65 585,60 580,55 510,55 510,65 "  />
</g>
<g id="a36_008"  >
<polygon style="stroke:black; stroke-width:1; fill:grey; " points="662,65 688,65 693,60 688,55 662,55 662,65 "  />
</g>
<g id="a36_009"  >
<polygon style="stroke:black; stroke-width:1; fill:#810E15; " points="708,60 713,55 727,55 727,65 713,65 708,60 "  />
</g>
<g id="a36_0010"  >
<polygon style="stroke:black; stroke-width:1; fill:grey; " points="742,65 745,60 742,55 742,65 "  />
</g>
<g id="a36_0011"  >
<polygon style="stroke:black; stroke-width:1; fill:grey; " points="754,60 759,55 777,55 777,65 759,65 754,60 "  />
</g>
<g id="a36_0012"  >
<polygon style="stroke:black; stroke-width:1; fill:#810E15; " points="754,60 759,55 778,55 778,65 759,65 754,60 "  />
</g>
</svg>
