<svg xmlns="http://www.w3.org/2000/svg" height="0" width="768.0" version="1.1" y="0" x="0" preserveAspectRatio="none" xmlns:xlink="http://www.w3.org/1999/xlink" viewBox="0 -30 819.2 0"  >
<g  >
<line y1="60" x2="778.0" style="stroke:grey; stroke-width:2; " x1="10" y2="60"  />
</g>
<g id="a20_000"  >
<polygon style="stroke:black; stroke-width:1; fill:grey; " points="10,65 10,65 15,60 10,55 10,55 10,65 "  />
</g>
<g id="a20_001"  >
<polygon style="stroke:black; stroke-width:1; fill:grey; " points="46,65 49,60 46,55 46,65 "  />
</g>
<g id="a20_002"  >
<polygon style="stroke:black; stroke-width:1; fill:grey; " points="91,65 97,65 102,60 97,55 91,55 91,65 "  />
</g>
<g id="a20_003"  >
<polygon style="stroke:black; stroke-width:1; fill:grey; " points="114,65 119,65 124,60 119,55 114,55 114,65 "  />
</g>
<g id="a20_004"  >
<polygon style="stroke:black; stroke-width:1; fill:grey; " points="129,60 130,55 130,65 129,60 "  />
</g>
<g id="a20_005"  >
<polygon style="stroke:black; stroke-width:1; fill:grey; " points="137,65 138,65 143,60 138,55 137,55 137,65 "  />
</g>
<g id="a20_006"  >
<polygon style="stroke:black; stroke-width:1; fill:grey; " points="162,65 162,65 167,60 162,55 162,55 162,65 "  />
</g>
<g id="a20_007"  >
<polygon style="stroke:black; stroke-width:1; fill:grey; " points="163,65 167,60 163,55 163,65 "  />
</g>
<g id="a20_008"  >
<polygon style="stroke:black; stroke-width:1; fill:grey; " points="178,60 183,55 187,55 187,65 183,65 178,60 "  />
</g>
<g id="a20_009"  >
<polygon style="stroke:black; stroke-width:1; fill:grey; " points="178,60 183,55 188,55 188,65 183,65 178,60 "  />
</g>
<g id="a20_0010"  >
<polygon style="stroke:black; stroke-width:1; fill:grey; " points="223,65 226,60 223,55 223,65 "  />
</g>
<g id="a20_0011"  >
<polygon style="stroke:black; stroke-width:1; fill:grey; " points="229,60 234,55 240,55 240,65 234,65 229,60 "  />
</g>
<g id="a20_0012"  >
<polygon style="stroke:black; stroke-width:1; fill:grey; " points="276,60 281,55 284,55 284,65 281,65 276,60 "  />
</g>
<g id="a20_0013"  >
<polygon style="stroke:black; stroke-width:1; fill:grey; " points="290,60 295,55 308,55 308,65 295,65 290,60 "  />
</g>
<g id="a20_0014"  >
<polygon style="stroke:black; stroke-width:1; fill:grey; " points="325,60 330,55 336,55 336,65 330,65 325,60 "  />
</g>
<g id="a20_0015"  >
<polygon style="stroke:black; stroke-width:1; fill:grey; " points="339,60 344,55 345,55 345,65 344,65 339,60 "  />
</g>
<g id="a20_0016"  >
<polygon style="stroke:black; stroke-width:1; fill:grey; " points="352,65 353,65 358,60 353,55 352,55 352,65 "  />
</g>
<g id="a20_0017"  >
<polygon style="stroke:black; stroke-width:1; fill:grey; " points="368,65 372,60 368,55 368,65 "  />
</g>
<g id="a20_0018"  >
<polygon style="stroke:black; stroke-width:1; fill:grey; " points="379,65 381,60 379,55 379,65 "  />
</g>
<g id="a20_0019"  >
<polygon style="stroke:black; stroke-width:1; fill:#810E15; " points="389,65 391,65 396,60 391,55 389,55 389,65 "  />
</g>
<g id="a20_0020"  >
<polygon style="stroke:black; stroke-width:1; fill:grey; " points="426,65 431,65 436,60 431,55 426,55 426,65 "  />
</g>
<g id="a20_0021"  >
<polygon style="stroke:black; stroke-width:1; fill:grey; " points="443,65 444,60 443,55 443,65 "  />
</g>
<g id="a20_0022"  >
<polygon style="stroke:black; stroke-width:1; fill:grey; " points="450,60 454,55 454,65 450,60 "  />
</g>
<g id="a20_0023"  >
<polygon style="stroke:black; stroke-width:1; fill:grey; " points="457,60 462,55 462,55 462,65 462,65 457,60 "  />
</g>
<g id="a20_0024"  >
<polygon style="stroke:black; stroke-width:1; fill:grey; " points="478,60 483,55 486,55 486,65 483,65 478,60 "  />
</g>
<g id="a20_0025"  >
<polygon style="stroke:black; stroke-width:1; fill:grey; " points="479,60 484,55 486,55 486,65 484,65 479,60 "  />
</g>
<g id="a20_0026"  >
<polygon style="stroke:black; stroke-width:1; fill:grey; " points="480,60 485,55 486,55 486,65 485,65 480,60 "  />
</g>
<g id="a20_0027"  >
<polygon style="stroke:black; stroke-width:1; fill:grey; " points="493,60 498,55 505,55 505,65 498,65 493,60 "  />
</g>
<g id="a20_0028"  >
<polygon style="stroke:black; stroke-width:1; fill:grey; " points="494,60 499,55 505,55 505,65 499,65 494,60 "  />
</g>
<g id="a20_0029"  >
<polygon style="stroke:black; stroke-width:1; fill:grey; " points="495,60 500,55 505,55 505,65 500,65 495,60 "  />
</g>
<g id="a20_0030"  >
<polygon style="stroke:black; stroke-width:1; fill:grey; " points="496,60 501,55 505,55 505,65 501,65 496,60 "  />
</g>
<g id="a20_0031"  >
<polygon style="stroke:black; stroke-width:1; fill:grey; " points="518,65 523,65 528,60 523,55 518,55 518,65 "  />
</g>
<g id="a20_0032"  >
<polygon style="stroke:black; stroke-width:1; fill:grey; " points="552,65 558,65 563,60 558,55 552,55 552,65 "  />
</g>
<g id="a20_0033"  >
<polygon style="stroke:black; stroke-width:1; fill:grey; " points="596,65 598,60 596,55 596,65 "  />
</g>
<g id="a20_0034"  >
<polygon style="stroke:black; stroke-width:1; fill:grey; " points="614,60 619,55 621,55 621,65 619,65 614,60 "  />
</g>
<g id="a20_0035"  >
<polygon style="stroke:black; stroke-width:1; fill:grey; " points="637,65 641,60 637,55 637,65 "  />
</g>
<g id="a20_0036"  >
<polygon style="stroke:black; stroke-width:1; fill:grey; " points="637,65 644,65 649,60 644,55 637,55 637,65 "  />
</g>
<g id="a20_0037"  >
<polygon style="stroke:black; stroke-width:1; fill:grey; " points="673,65 685,65 690,60 685,55 673,55 673,65 "  />
</g>
<g id="a20_0038"  >
<polygon style="stroke:black; stroke-width:1; fill:grey; " points="717,65 719,60 717,55 717,65 "  />
</g>
<g id="a20_0039"  >
<polygon style="stroke:black; stroke-width:1; fill:grey; " points="717,65 720,60 717,55 717,65 "  />
</g>
<g id="a20_0040"  >
<polygon style="stroke:black; stroke-width:1; fill:grey; " points="733,60 738,55 743,55 743,65 738,65 733,60 "  />
</g>
<g id="a20_0041"  >
<polygon style="stroke:black; stroke-width:1; fill:grey; " points="752,65 755,65 760,60 755,55 752,55 752,65 "  />
</g>
<g id="a20_0042"  >
<polygon style="stroke:black; stroke-width:1; fill:grey; " points="752,65 757,65 762,60 757,55 752,55 752,65 "  />
</g>
<g id="a20_0043"  >
<polygon style="stroke:black; stroke-width:1; fill:grey; " points="763,60 765,55 765,65 763,60 "  />
</g>
<g id="a20_0044"  >
<polygon style="stroke:black; stroke-width:1; fill:grey; " points="772,60 777,55 778,55 778,65 777,65 772,60 "  />
</g>
</svg>
