<svg xmlns="http://www.w3.org/2000/svg" height="0" width="768.0" version="1.1" y="0" x="0" preserveAspectRatio="none" xmlns:xlink="http://www.w3.org/1999/xlink" viewBox="0 -30 819.2 0"  >
<g  >
<line y1="60" x2="778.0" style="stroke:grey; stroke-width:2; " x1="10" y2="60"  />
</g>
<g id="a30_000"  >
<polygon style="stroke:black; stroke-width:1; fill:grey; " points="10,65 17,65 22,60 17,55 10,55 10,65 "  />
</g>
<g id="a30_001"  >
<polygon style="stroke:black; stroke-width:1; fill:grey; " points="26,60 31,55 34,55 34,65 31,65 26,60 "  />
</g>
<g id="a30_002"  >
<polygon style="stroke:black; stroke-width:1; fill:grey; " points="47,60 52,55 75,55 75,65 52,65 47,60 "  />
</g>
<g id="a30_003"  >
<polygon style="stroke:black; stroke-width:1; fill:grey; " points="47,60 52,55 75,55 75,65 52,65 47,60 "  />
</g>
<g id="a30_004"  >
<polygon style="stroke:black; stroke-width:1; fill:grey; " points="76,60 78,55 78,65 76,60 "  />
</g>
<g id="a30_005"  >
<polygon style="stroke:black; stroke-width:1; fill:grey; " points="100,65 111,65 116,60 111,55 100,55 100,65 "  />
</g>
<g id="a30_006"  >
<polygon style="stroke:black; stroke-width:1; fill:grey; " points="118,60 123,55 127,55 127,65 123,65 118,60 "  />
</g>
<g id="a30_007"  >
<polygon style="stroke:black; stroke-width:1; fill:grey; " points="128,65 131,65 136,60 131,55 128,55 128,65 "  />
</g>
<g id="a30_008"  >
<polygon style="stroke:black; stroke-width:1; fill:grey; " points="140,65 153,65 158,60 153,55 140,55 140,65 "  />
</g>
<g id="a30_009"  >
<polygon style="stroke:black; stroke-width:1; fill:grey; " points="142,65 153,65 158,60 153,55 142,55 142,65 "  />
</g>
<g id="a30_0010"  >
<polygon style="stroke:black; stroke-width:1; fill:grey; " points="169,65 170,60 169,55 169,65 "  />
</g>
<g id="a30_0011"  >
<polygon style="stroke:black; stroke-width:1; fill:grey; " points="179,65 182,65 187,60 182,55 179,55 179,65 "  />
</g>
<g id="a30_0012"  >
<polygon style="stroke:black; stroke-width:1; fill:grey; " points="191,65 197,65 202,60 197,55 191,55 191,65 "  />
</g>
<g id="a30_0013"  >
<polygon style="stroke:black; stroke-width:1; fill:grey; " points="222,65 227,65 232,60 227,55 222,55 222,65 "  />
</g>
<g id="a30_0014"  >
<polygon style="stroke:black; stroke-width:1; fill:grey; " points="236,65 240,65 245,60 240,55 236,55 236,65 "  />
</g>
<g id="a30_0015"  >
<polygon style="stroke:black; stroke-width:1; fill:grey; " points="246,60 251,55 251,55 251,65 251,65 246,60 "  />
</g>
<g id="a30_0016"  >
<polygon style="stroke:black; stroke-width:1; fill:grey; " points="261,65 265,60 261,55 261,65 "  />
</g>
<g id="a30_0017"  >
<polygon style="stroke:black; stroke-width:1; fill:grey; " points="278,65 281,60 278,55 278,65 "  />
</g>
<g id="a30_0018"  >
<polygon style="stroke:black; stroke-width:1; fill:grey; " points="291,65 294,65 299,60 294,55 291,55 291,65 "  />
</g>
<g id="a30_0019"  >
<polygon style="stroke:black; stroke-width:1; fill:grey; " points="304,65 305,60 304,55 304,65 "  />
</g>
<g id="a30_0020"  >
<polygon style="stroke:black; stroke-width:1; fill:grey; " points="310,60 313,55 313,65 310,60 "  />
</g>
<g id="a30_0021"  >
<polygon style="stroke:black; stroke-width:1; fill:grey; " points="327,60 332,55 332,55 332,65 332,65 327,60 "  />
</g>
<g id="a30_0022"  >
<polygon style="stroke:black; stroke-width:1; fill:grey; " points="339,65 343,60 339,55 339,65 "  />
</g>
<g id="a30_0023"  >
<polygon style="stroke:black; stroke-width:1; fill:grey; " points="346,60 347,55 347,65 346,60 "  />
</g>
<g id="a30_0024"  >
<polygon style="stroke:black; stroke-width:1; fill:grey; " points="349,60 354,55 359,55 359,65 354,65 349,60 "  />
</g>
<g id="a30_0025"  >
<polygon style="stroke:black; stroke-width:1; fill:grey; " points="370,60 370,55 370,65 370,60 "  />
</g>
<g id="a30_0026"  >
<polygon style="stroke:black; stroke-width:1; fill:#810E15; " points="380,65 382,60 380,55 380,65 "  />
</g>
<g id="a30_0027"  >
<polygon style="stroke:black; stroke-width:1; fill:grey; " points="408,60 412,55 412,65 408,60 "  />
</g>
<g id="a30_0028"  >
<polygon style="stroke:black; stroke-width:1; fill:grey; " points="414,65 460,65 465,60 460,55 414,55 414,65 "  />
</g>
<g id="a30_0029"  >
<polygon style="stroke:black; stroke-width:1; fill:grey; " points="471,65 471,65 476,60 471,55 471,55 471,65 "  />
</g>
<g id="a30_0030"  >
<polygon style="stroke:black; stroke-width:1; fill:grey; " points="481,65 482,60 481,55 481,65 "  />
</g>
<g id="a30_0031"  >
<polygon style="stroke:black; stroke-width:1; fill:grey; " points="532,65 533,60 532,55 532,65 "  />
</g>
<g id="a30_0032"  >
<polygon style="stroke:black; stroke-width:1; fill:grey; " points="545,60 550,55 550,55 550,65 550,65 545,60 "  />
</g>
<g id="a30_0033"  >
<polygon style="stroke:black; stroke-width:1; fill:grey; " points="590,65 591,65 596,60 591,55 590,55 590,65 "  />
</g>
<g id="a30_0034"  >
<polygon style="stroke:black; stroke-width:1; fill:grey; " points="590,65 595,65 600,60 595,55 590,55 590,65 "  />
</g>
<g id="a30_0035"  >
<polygon style="stroke:black; stroke-width:1; fill:grey; " points="590,65 598,65 603,60 598,55 590,55 590,65 "  />
</g>
<g id="a30_0036"  >
<polygon style="stroke:black; stroke-width:1; fill:grey; " points="637,65 637,65 642,60 637,55 637,55 637,65 "  />
</g>
<g id="a30_0037"  >
<polygon style="stroke:black; stroke-width:1; fill:grey; " points="659,65 660,65 665,60 660,55 659,55 659,65 "  />
</g>
<g id="a30_0038"  >
<polygon style="stroke:black; stroke-width:1; fill:grey; " points="670,65 671,65 676,60 671,55 670,55 670,65 "  />
</g>
<g id="a30_0039"  >
<polygon style="stroke:black; stroke-width:1; fill:grey; " points="679,60 684,55 695,55 695,65 684,65 679,60 "  />
</g>
<g id="a30_0040"  >
<polygon style="stroke:black; stroke-width:1; fill:grey; " points="706,65 711,65 716,60 711,55 706,55 706,65 "  />
</g>
<g id="a30_0041"  >
<polygon style="stroke:black; stroke-width:1; fill:grey; " points="728,60 728,55 728,65 728,60 "  />
</g>
<g id="a30_0042"  >
<polygon style="stroke:black; stroke-width:1; fill:grey; " points="745,65 745,65 750,60 745,55 745,55 745,65 "  />
</g>
<g id="a30_0043"  >
<polygon style="stroke:black; stroke-width:1; fill:grey; " points="751,65 773,65 778,60 773,55 751,55 751,65 "  />
</g>
<g id="a30_0044"  >
<polygon style="stroke:black; stroke-width:1; fill:grey; " points="761,65 773,65 778,60 773,55 761,55 761,65 "  />
</g>
</svg>
