<svg xmlns="http://www.w3.org/2000/svg" height="0" width="768.0" version="1.1" y="0" x="0" preserveAspectRatio="none" xmlns:xlink="http://www.w3.org/1999/xlink" viewBox="0 -30 819.2 0"  >
<g  >
<line y1="60" x2="778.0" style="stroke:grey; stroke-width:2; " x1="10" y2="60"  />
</g>
<g id="a23_000"  >
<polygon style="stroke:black; stroke-width:1; fill:grey; " points="10,65 14,60 10,55 10,65 "  />
</g>
<g id="a23_001"  >
<polygon style="stroke:black; stroke-width:1; fill:grey; " points="17,60 19,55 19,65 17,60 "  />
</g>
<g id="a23_002"  >
<polygon style="stroke:black; stroke-width:1; fill:grey; " points="29,65 33,60 29,55 29,65 "  />
</g>
<g id="a23_003"  >
<polygon style="stroke:black; stroke-width:1; fill:grey; " points="39,65 43,65 48,60 43,55 39,55 39,65 "  />
</g>
<g id="a23_004"  >
<polygon style="stroke:black; stroke-width:1; fill:grey; " points="60,60 62,55 62,65 60,60 "  />
</g>
<g id="a23_005"  >
<polygon style="stroke:black; stroke-width:1; fill:grey; " points="61,60 62,55 62,65 61,60 "  />
</g>
<g id="a23_006"  >
<polygon style="stroke:black; stroke-width:1; fill:grey; " points="70,65 70,65 75,60 70,55 70,55 70,65 "  />
</g>
<g id="a23_007"  >
<polygon style="stroke:black; stroke-width:1; fill:grey; " points="82,60 87,55 93,55 93,65 87,65 82,60 "  />
</g>
<g id="a23_008"  >
<polygon style="stroke:black; stroke-width:1; fill:grey; " points="117,60 119,55 119,65 117,60 "  />
</g>
<g id="a23_009"  >
<polygon style="stroke:black; stroke-width:1; fill:grey; " points="122,60 127,55 137,55 137,65 127,65 122,60 "  />
</g>
<g id="a23_0010"  >
<polygon style="stroke:black; stroke-width:1; fill:grey; " points="143,65 144,60 143,55 143,65 "  />
</g>
<g id="a23_0011"  >
<polygon style="stroke:black; stroke-width:1; fill:grey; " points="150,65 154,60 150,55 150,65 "  />
</g>
<g id="a23_0012"  >
<polygon style="stroke:black; stroke-width:1; fill:grey; " points="150,65 151,65 156,60 151,55 150,55 150,65 "  />
</g>
<g id="a23_0013"  >
<polygon style="stroke:black; stroke-width:1; fill:grey; " points="192,65 196,60 192,55 192,65 "  />
</g>
<g id="a23_0014"  >
<polygon style="stroke:black; stroke-width:1; fill:grey; " points="200,65 201,65 206,60 201,55 200,55 200,65 "  />
</g>
<g id="a23_0015"  >
<polygon style="stroke:black; stroke-width:1; fill:grey; " points="212,60 217,55 218,55 218,65 217,65 212,60 "  />
</g>
<g id="a23_0016"  >
<polygon style="stroke:black; stroke-width:1; fill:grey; " points="226,60 231,55 233,55 233,65 231,65 226,60 "  />
</g>
<g id="a23_0017"  >
<polygon style="stroke:black; stroke-width:1; fill:grey; " points="239,60 244,55 246,55 246,65 244,65 239,60 "  />
</g>
<g id="a23_0018"  >
<polygon style="stroke:black; stroke-width:1; fill:grey; " points="249,65 258,65 263,60 258,55 249,55 249,65 "  />
</g>
<g id="a23_0019"  >
<polygon style="stroke:black; stroke-width:1; fill:grey; " points="267,60 272,55 275,55 275,65 272,65 267,60 "  />
</g>
<g id="a23_0020"  >
<polygon style="stroke:black; stroke-width:1; fill:grey; " points="269,60 274,55 275,55 275,65 274,65 269,60 "  />
</g>
<g id="a23_0021"  >
<polygon style="stroke:black; stroke-width:1; fill:grey; " points="284,60 289,55 298,55 298,65 289,65 284,60 "  />
</g>
<g id="a23_0022"  >
<polygon style="stroke:black; stroke-width:1; fill:grey; " points="286,60 291,55 298,55 298,65 291,65 286,60 "  />
</g>
<g id="a23_0023"  >
<polygon style="stroke:black; stroke-width:1; fill:grey; " points="299,60 302,55 302,65 299,60 "  />
</g>
<g id="a23_0024"  >
<polygon style="stroke:black; stroke-width:1; fill:grey; " points="310,65 311,60 310,55 310,65 "  />
</g>
<g id="a23_0025"  >
<polygon style="stroke:black; stroke-width:1; fill:grey; " points="328,65 330,60 328,55 328,65 "  />
</g>
<g id="a23_0026"  >
<polygon style="stroke:black; stroke-width:1; fill:grey; " points="339,60 344,55 353,55 353,65 344,65 339,60 "  />
</g>
<g id="a23_0027"  >
<polygon style="stroke:black; stroke-width:1; fill:grey; " points="365,60 370,55 374,55 374,65 370,65 365,60 "  />
</g>
<g id="a23_0028"  >
<polygon style="stroke:black; stroke-width:1; fill:grey; " points="376,60 380,55 380,65 376,60 "  />
</g>
<g id="a23_0029"  >
<polygon style="stroke:black; stroke-width:1; fill:#810E15; " points="390,65 390,65 395,60 390,55 390,55 390,65 "  />
</g>
<g id="a23_0030"  >
<polygon style="stroke:black; stroke-width:1; fill:grey; " points="411,65 416,65 421,60 416,55 411,55 411,65 "  />
</g>
<g id="a23_0031"  >
<polygon style="stroke:black; stroke-width:1; fill:grey; " points="427,65 441,65 446,60 441,55 427,55 427,65 "  />
</g>
<g id="a23_0032"  >
<polygon style="stroke:black; stroke-width:1; fill:grey; " points="447,60 451,55 451,65 447,60 "  />
</g>
<g id="a23_0033"  >
<polygon style="stroke:black; stroke-width:1; fill:grey; " points="447,60 452,55 453,55 453,65 452,65 447,60 "  />
</g>
<g id="a23_0034"  >
<polygon style="stroke:black; stroke-width:1; fill:grey; " points="447,60 452,55 453,55 453,65 452,65 447,60 "  />
</g>
<g id="a23_0035"  >
<polygon style="stroke:black; stroke-width:1; fill:grey; " points="465,65 466,60 465,55 465,65 "  />
</g>
<g id="a23_0036"  >
<polygon style="stroke:black; stroke-width:1; fill:grey; " points="481,60 482,55 482,65 481,60 "  />
</g>
<g id="a23_0037"  >
<polygon style="stroke:black; stroke-width:1; fill:grey; " points="498,65 512,65 517,60 512,55 498,55 498,65 "  />
</g>
<g id="a23_0038"  >
<polygon style="stroke:black; stroke-width:1; fill:grey; " points="498,65 512,65 517,60 512,55 498,55 498,65 "  />
</g>
<g id="a23_0039"  >
<polygon style="stroke:black; stroke-width:1; fill:grey; " points="528,65 545,65 550,60 545,55 528,55 528,65 "  />
</g>
<g id="a23_0040"  >
<polygon style="stroke:black; stroke-width:1; fill:grey; " points="567,65 567,60 567,55 567,65 "  />
</g>
<g id="a23_0041"  >
<polygon style="stroke:black; stroke-width:1; fill:grey; " points="570,60 574,55 574,65 570,60 "  />
</g>
<g id="a23_0042"  >
<polygon style="stroke:black; stroke-width:1; fill:grey; " points="575,65 576,60 575,55 575,65 "  />
</g>
<g id="a23_0043"  >
<polygon style="stroke:black; stroke-width:1; fill:grey; " points="589,65 590,65 595,60 590,55 589,55 589,65 "  />
</g>
<g id="a23_0044"  >
<polygon style="stroke:black; stroke-width:1; fill:grey; " points="612,65 621,65 626,60 621,55 612,55 612,65 "  />
</g>
<g id="a23_0045"  >
<polygon style="stroke:black; stroke-width:1; fill:grey; " points="646,60 648,55 648,65 646,60 "  />
</g>
<g id="a23_0046"  >
<polygon style="stroke:black; stroke-width:1; fill:grey; " points="653,60 657,55 657,65 653,60 "  />
</g>
<g id="a23_0047"  >
<polygon style="stroke:black; stroke-width:1; fill:grey; " points="654,60 657,55 657,65 654,60 "  />
</g>
<g id="a23_0048"  >
<polygon style="stroke:black; stroke-width:1; fill:grey; " points="662,65 667,65 672,60 667,55 662,55 662,65 "  />
</g>
<g id="a23_0049"  >
<polygon style="stroke:black; stroke-width:1; fill:grey; " points="666,65 667,65 672,60 667,55 666,55 666,65 "  />
</g>
<g id="a23_0050"  >
<polygon style="stroke:black; stroke-width:1; fill:grey; " points="680,60 685,55 685,55 685,65 685,65 680,60 "  />
</g>
<g id="a23_0051"  >
<polygon style="stroke:black; stroke-width:1; fill:grey; " points="688,60 693,55 700,55 700,65 693,65 688,60 "  />
</g>
<g id="a23_0052"  >
<polygon style="stroke:black; stroke-width:1; fill:grey; " points="708,65 719,65 724,60 719,55 708,55 708,65 "  />
</g>
<g id="a23_0053"  >
<polygon style="stroke:black; stroke-width:1; fill:grey; " points="734,65 740,65 745,60 740,55 734,55 734,65 "  />
</g>
<g id="a23_0054"  >
<polygon style="stroke:black; stroke-width:1; fill:grey; " points="752,60 757,55 758,55 758,65 757,65 752,60 "  />
</g>
<g id="a23_0055"  >
<polygon style="stroke:black; stroke-width:1; fill:grey; " points="771,65 773,65 778,60 773,55 771,55 771,65 "  />
</g>
</svg>
