<svg xmlns="http://www.w3.org/2000/svg" height="0" width="768.0" version="1.1" y="0" x="0" preserveAspectRatio="none" xmlns:xlink="http://www.w3.org/1999/xlink" viewBox="0 -30 819.2 0"  >
<g  >
<line y1="60" x2="778.0" style="stroke:grey; stroke-width:2; " x1="10" y2="60"  />
</g>
<g id="a2_000"  >
<polygon style="stroke:black; stroke-width:1; fill:grey; " points="10,60 11,55 11,65 10,60 "  />
</g>
<g id="a2_001"  >
<polygon style="stroke:black; stroke-width:1; fill:grey; " points="29,65 32,65 37,60 32,55 29,55 29,65 "  />
</g>
<g id="a2_002"  >
<polygon style="stroke:black; stroke-width:1; fill:grey; " points="50,60 55,55 56,55 56,65 55,65 50,60 "  />
</g>
<g id="a2_003"  >
<polygon style="stroke:black; stroke-width:1; fill:grey; " points="86,65 86,65 91,60 86,55 86,55 86,65 "  />
</g>
<g id="a2_004"  >
<polygon style="stroke:black; stroke-width:1; fill:grey; " points="86,65 87,65 92,60 87,55 86,55 86,65 "  />
</g>
<g id="a2_005"  >
<polygon style="stroke:black; stroke-width:1; fill:grey; " points="86,65 88,65 93,60 88,55 86,55 86,65 "  />
</g>
<g id="a2_006"  >
<polygon style="stroke:black; stroke-width:1; fill:grey; " points="86,65 88,65 93,60 88,55 86,55 86,65 "  />
</g>
<g id="a2_007"  >
<polygon style="stroke:black; stroke-width:1; fill:grey; " points="87,65 87,65 92,60 87,55 87,55 87,65 "  />
</g>
<g id="a2_008"  >
<polygon style="stroke:black; stroke-width:1; fill:grey; " points="87,65 88,65 93,60 88,55 87,55 87,65 "  />
</g>
<g id="a2_009"  >
<polygon style="stroke:black; stroke-width:1; fill:grey; " points="95,60 99,55 99,65 95,60 "  />
</g>
<g id="a2_0010"  >
<polygon style="stroke:black; stroke-width:1; fill:grey; " points="104,60 105,55 105,65 104,60 "  />
</g>
<g id="a2_0011"  >
<polygon style="stroke:black; stroke-width:1; fill:grey; " points="112,65 115,60 112,55 112,65 "  />
</g>
<g id="a2_0012"  >
<polygon style="stroke:black; stroke-width:1; fill:grey; " points="119,65 119,65 124,60 119,55 119,55 119,65 "  />
</g>
<g id="a2_0013"  >
<polygon style="stroke:black; stroke-width:1; fill:grey; " points="157,65 158,65 163,60 158,55 157,55 157,65 "  />
</g>
<g id="a2_0014"  >
<polygon style="stroke:black; stroke-width:1; fill:grey; " points="157,65 159,65 164,60 159,55 157,55 157,65 "  />
</g>
<g id="a2_0015"  >
<polygon style="stroke:black; stroke-width:1; fill:grey; " points="174,65 187,65 192,60 187,55 174,55 174,65 "  />
</g>
<g id="a2_0016"  >
<polygon style="stroke:black; stroke-width:1; fill:grey; " points="176,65 187,65 192,60 187,55 176,55 176,65 "  />
</g>
<g id="a2_0017"  >
<polygon style="stroke:black; stroke-width:1; fill:grey; " points="194,65 196,65 201,60 196,55 194,55 194,65 "  />
</g>
<g id="a2_0018"  >
<polygon style="stroke:black; stroke-width:1; fill:grey; " points="203,65 204,60 203,55 203,65 "  />
</g>
<g id="a2_0019"  >
<polygon style="stroke:black; stroke-width:1; fill:grey; " points="215,60 220,55 224,55 224,65 220,65 215,60 "  />
</g>
<g id="a2_0020"  >
<polygon style="stroke:black; stroke-width:1; fill:grey; " points="215,60 220,55 224,55 224,65 220,65 215,60 "  />
</g>
<g id="a2_0021"  >
<polygon style="stroke:black; stroke-width:1; fill:grey; " points="217,60 222,55 224,55 224,65 222,65 217,60 "  />
</g>
<g id="a2_0022"  >
<polygon style="stroke:black; stroke-width:1; fill:grey; " points="230,60 231,55 231,65 230,60 "  />
</g>
<g id="a2_0023"  >
<polygon style="stroke:black; stroke-width:1; fill:grey; " points="232,65 232,65 237,60 232,55 232,55 232,65 "  />
</g>
<g id="a2_0024"  >
<polygon style="stroke:black; stroke-width:1; fill:grey; " points="240,60 245,55 246,55 246,65 245,65 240,60 "  />
</g>
<g id="a2_0025"  >
<polygon style="stroke:black; stroke-width:1; fill:grey; " points="253,60 254,55 254,65 253,60 "  />
</g>
<g id="a2_0026"  >
<polygon style="stroke:black; stroke-width:1; fill:grey; " points="256,65 257,60 256,55 256,65 "  />
</g>
<g id="a2_0027"  >
<polygon style="stroke:black; stroke-width:1; fill:grey; " points="259,65 261,65 266,60 261,55 259,55 259,65 "  />
</g>
<g id="a2_0028"  >
<polygon style="stroke:black; stroke-width:1; fill:grey; " points="268,60 272,55 272,65 268,60 "  />
</g>
<g id="a2_0029"  >
<polygon style="stroke:black; stroke-width:1; fill:grey; " points="273,65 285,65 290,60 285,55 273,55 273,65 "  />
</g>
<g id="a2_0030"  >
<polygon style="stroke:black; stroke-width:1; fill:grey; " points="300,60 305,55 308,55 308,65 305,65 300,60 "  />
</g>
<g id="a2_0031"  >
<polygon style="stroke:black; stroke-width:1; fill:grey; " points="320,60 321,55 321,65 320,60 "  />
</g>
<g id="a2_0032"  >
<polygon style="stroke:black; stroke-width:1; fill:#810E15; " points="329,65 332,60 329,55 329,65 "  />
</g>
<g id="a2_0033"  >
<polygon style="stroke:black; stroke-width:1; fill:#810E15; " points="344,65 346,60 344,55 344,65 "  />
</g>
<g id="a2_0034"  >
<polygon style="stroke:black; stroke-width:1; fill:#810E15; " points="355,65 358,60 355,55 355,65 "  />
</g>
<g id="a2_0035"  >
<polygon style="stroke:black; stroke-width:1; fill:#810E15; " points="370,65 372,60 370,55 370,65 "  />
</g>
<g id="a2_0036"  >
<polygon style="stroke:black; stroke-width:1; fill:#810E15; " points="390,65 394,60 390,55 390,65 "  />
</g>
<g id="a2_0037"  >
<polygon style="stroke:black; stroke-width:1; fill:#810E15; " points="401,65 405,60 401,55 401,65 "  />
</g>
<g id="a2_0038"  >
<polygon style="stroke:black; stroke-width:1; fill:#810E15; " points="416,65 417,60 416,55 416,65 "  />
</g>
<g id="a2_0039"  >
<polygon style="stroke:black; stroke-width:1; fill:#810E15; " points="434,65 437,60 434,55 434,65 "  />
</g>
<g id="a2_0040"  >
<polygon style="stroke:black; stroke-width:1; fill:grey; " points="441,65 442,60 441,55 441,65 "  />
</g>
<g id="a2_0041"  >
<polygon style="stroke:black; stroke-width:1; fill:#810E15; " points="456,65 457,60 456,55 456,65 "  />
</g>
<g id="a2_0042"  >
<polygon style="stroke:black; stroke-width:1; fill:#810E15; " points="460,65 463,60 460,55 460,65 "  />
</g>
<g id="a2_0043"  >
<polygon style="stroke:black; stroke-width:1; fill:grey; " points="465,60 470,55 492,55 492,65 470,65 465,60 "  />
</g>
<g id="a2_0044"  >
<polygon style="stroke:black; stroke-width:1; fill:grey; " points="496,65 500,60 496,55 496,65 "  />
</g>
<g id="a2_0045"  >
<polygon style="stroke:black; stroke-width:1; fill:grey; " points="503,60 504,55 504,65 503,60 "  />
</g>
<g id="a2_0046"  >
<polygon style="stroke:black; stroke-width:1; fill:grey; " points="507,60 508,55 508,65 507,60 "  />
</g>
<g id="a2_0047"  >
<polygon style="stroke:black; stroke-width:1; fill:grey; " points="515,60 516,55 516,65 515,60 "  />
</g>
<g id="a2_0048"  >
<polygon style="stroke:black; stroke-width:1; fill:grey; " points="539,65 542,60 539,55 539,65 "  />
</g>
<g id="a2_0049"  >
<polygon style="stroke:black; stroke-width:1; fill:grey; " points="539,65 543,60 539,55 539,65 "  />
</g>
<g id="a2_0050"  >
<polygon style="stroke:black; stroke-width:1; fill:grey; " points="539,65 540,65 545,60 540,55 539,55 539,65 "  />
</g>
<g id="a2_0051"  >
<polygon style="stroke:black; stroke-width:1; fill:grey; " points="546,60 547,55 547,65 546,60 "  />
</g>
<g id="a2_0052"  >
<polygon style="stroke:black; stroke-width:1; fill:grey; " points="556,65 556,65 561,60 556,55 556,55 556,65 "  />
</g>
<g id="a2_0053"  >
<polygon style="stroke:black; stroke-width:1; fill:grey; " points="567,65 568,60 567,55 567,65 "  />
</g>
<g id="a2_0054"  >
<polygon style="stroke:black; stroke-width:1; fill:grey; " points="611,65 611,65 616,60 611,55 611,55 611,65 "  />
</g>
<g id="a2_0055"  >
<polygon style="stroke:black; stroke-width:1; fill:grey; " points="611,65 611,65 616,60 611,55 611,55 611,65 "  />
</g>
<g id="a2_0056"  >
<polygon style="stroke:black; stroke-width:1; fill:grey; " points="630,65 631,60 630,55 630,65 "  />
</g>
<g id="a2_0057"  >
<polygon style="stroke:black; stroke-width:1; fill:grey; " points="647,60 649,55 649,65 647,60 "  />
</g>
<g id="a2_0058"  >
<polygon style="stroke:black; stroke-width:1; fill:grey; " points="662,65 663,60 662,55 662,65 "  />
</g>
<g id="a2_0059"  >
<polygon style="stroke:black; stroke-width:1; fill:grey; " points="665,65 666,60 665,55 665,65 "  />
</g>
<g id="a2_0060"  >
<polygon style="stroke:black; stroke-width:1; fill:grey; " points="672,65 672,60 672,55 672,65 "  />
</g>
<g id="a2_0061"  >
<polygon style="stroke:black; stroke-width:1; fill:grey; " points="694,65 698,60 694,55 694,65 "  />
</g>
<g id="a2_0062"  >
<polygon style="stroke:black; stroke-width:1; fill:grey; " points="708,65 709,65 714,60 709,55 708,55 708,65 "  />
</g>
<g id="a2_0063"  >
<polygon style="stroke:black; stroke-width:1; fill:grey; " points="721,65 732,65 737,60 732,55 721,55 721,65 "  />
</g>
<g id="a2_0064"  >
<polygon style="stroke:black; stroke-width:1; fill:grey; " points="740,60 745,55 749,55 749,65 745,65 740,60 "  />
</g>
<g id="a2_0065"  >
<polygon style="stroke:black; stroke-width:1; fill:grey; " points="741,60 746,55 749,55 749,65 746,65 741,60 "  />
</g>
<g id="a2_0066"  >
<polygon style="stroke:black; stroke-width:1; fill:grey; " points="754,65 755,60 754,55 754,65 "  />
</g>
<g id="a2_0067"  >
<polygon style="stroke:black; stroke-width:1; fill:grey; " points="762,60 764,55 764,65 762,60 "  />
</g>
<g id="a2_0068"  >
<polygon style="stroke:black; stroke-width:1; fill:grey; " points="775,60 778,55 778,65 775,60 "  />
</g>
</svg>
