<svg xmlns="http://www.w3.org/2000/svg" height="0" width="768.0" version="1.1" y="0" x="0" preserveAspectRatio="none" xmlns:xlink="http://www.w3.org/1999/xlink" viewBox="0 -30 819.2 0"  >
<g  >
<line y1="60" x2="778.0" style="stroke:grey; stroke-width:2; " x1="10" y2="60"  />
</g>
<g id="a44_000"  >
<polygon style="stroke:black; stroke-width:1; fill:grey; " points="10,65 12,65 17,60 12,55 10,55 10,65 "  />
</g>
<g id="a44_001"  >
<polygon style="stroke:black; stroke-width:1; fill:grey; " points="80,65 83,60 80,55 80,65 "  />
</g>
<g id="a44_002"  >
<polygon style="stroke:black; stroke-width:1; fill:#810E15; " points="93,60 98,55 105,55 105,65 98,65 93,60 "  />
</g>
<g id="a44_003"  >
<polygon style="stroke:black; stroke-width:1; fill:grey; " points="199,60 204,55 206,55 206,65 204,65 199,60 "  />
</g>
<g id="a44_004"  >
<polygon style="stroke:black; stroke-width:1; fill:grey; " points="222,65 231,65 236,60 231,55 222,55 222,65 "  />
</g>
<g id="a44_005"  >
<polygon style="stroke:black; stroke-width:1; fill:grey; " points="222,65 237,65 242,60 237,55 222,55 222,65 "  />
</g>
<g id="a44_006"  >
<polygon style="stroke:black; stroke-width:1; fill:grey; " points="222,65 246,65 251,60 246,55 222,55 222,65 "  />
</g>
<g id="a44_007"  >
<polygon style="stroke:black; stroke-width:1; fill:grey; " points="222,65 246,65 251,60 246,55 222,55 222,65 "  />
</g>
<g id="a44_008"  >
<polygon style="stroke:black; stroke-width:1; fill:grey; " points="269,65 293,65 298,60 293,55 269,55 269,65 "  />
</g>
<g id="a44_009"  >
<polygon style="stroke:black; stroke-width:1; fill:#810E15; " points="400,60 405,55 420,55 420,65 405,65 400,60 "  />
</g>
<g id="a44_0010"  >
<polygon style="stroke:black; stroke-width:1; fill:grey; " points="472,60 476,55 476,65 472,60 "  />
</g>
<g id="a44_0011"  >
<polygon style="stroke:black; stroke-width:1; fill:grey; " points="503,65 530,65 535,60 530,55 503,55 503,65 "  />
</g>
<g id="a44_0012"  >
<polygon style="stroke:black; stroke-width:1; fill:grey; " points="546,65 547,65 552,60 547,55 546,55 546,65 "  />
</g>
<g id="a44_0013"  >
<polygon style="stroke:black; stroke-width:1; fill:grey; " points="605,60 608,55 608,65 605,60 "  />
</g>
<g id="a44_0014"  >
<polygon style="stroke:black; stroke-width:1; fill:grey; " points="634,65 649,65 654,60 649,55 634,55 634,65 "  />
</g>
<g id="a44_0015"  >
<polygon style="stroke:black; stroke-width:1; fill:grey; " points="657,60 660,55 660,65 657,60 "  />
</g>
<g id="a44_0016"  >
<polygon style="stroke:black; stroke-width:1; fill:#810E15; " points="682,65 713,65 718,60 713,55 682,55 682,65 "  />
</g>
<g id="a44_0017"  >
<polygon style="stroke:black; stroke-width:1; fill:grey; " points="775,65 778,60 775,55 775,65 "  />
</g>
</svg>
