<svg xmlns="http://www.w3.org/2000/svg" height="0" width="768.0" version="1.1" y="0" x="0" preserveAspectRatio="none" xmlns:xlink="http://www.w3.org/1999/xlink" viewBox="0 -30 819.2 0"  >
<g  >
<line y1="60" x2="778.0" style="stroke:grey; stroke-width:2; " x1="10" y2="60"  />
</g>
<g id="a29_000"  >
<polygon style="stroke:black; stroke-width:1; fill:grey; " points="10,65 27,65 32,60 27,55 10,55 10,65 "  />
</g>
<g id="a29_001"  >
<polygon style="stroke:black; stroke-width:1; fill:#810E15; " points="76,65 84,65 89,60 84,55 76,55 76,65 "  />
</g>
<g id="a29_002"  >
<polygon style="stroke:black; stroke-width:1; fill:#810E15; " points="113,60 118,55 128,55 128,65 118,65 113,60 "  />
</g>
<g id="a29_003"  >
<polygon style="stroke:black; stroke-width:1; fill:grey; " points="142,60 147,55 165,55 165,65 147,65 142,60 "  />
</g>
<g id="a29_004"  >
<polygon style="stroke:black; stroke-width:1; fill:#810E15; " points="259,60 264,55 295,55 295,65 264,65 259,60 "  />
</g>
<g id="a29_005"  >
<polygon style="stroke:black; stroke-width:1; fill:#810E15; " points="388,60 393,55 418,55 418,65 393,65 388,60 "  />
</g>
<g id="a29_006"  >
<polygon style="stroke:black; stroke-width:1; fill:#810E15; " points="512,65 522,65 527,60 522,55 512,55 512,65 "  />
</g>
<g id="a29_007"  >
<polygon style="stroke:black; stroke-width:1; fill:#810E15; " points="595,65 621,65 626,60 621,55 595,55 595,65 "  />
</g>
<g id="a29_008"  >
<polygon style="stroke:black; stroke-width:1; fill:grey; " points="649,60 654,55 778,55 778,65 654,65 649,60 "  />
</g>
<g id="a29_009"  >
<polygon style="stroke:black; stroke-width:1; fill:grey; " points="649,60 654,55 778,55 778,65 654,65 649,60 "  />
</g>
<g id="a29_0010"  >
<polygon style="stroke:black; stroke-width:1; fill:grey; " points="649,60 654,55 778,55 778,65 654,65 649,60 "  />
</g>
<g id="a29_0011"  >
<polygon style="stroke:black; stroke-width:1; fill:grey; " points="697,60 702,55 778,55 778,65 702,65 697,60 "  />
</g>
<g id="a29_0012"  >
<polygon style="stroke:black; stroke-width:1; fill:grey; " points="728,60 733,55 778,55 778,65 733,65 728,60 "  />
</g>
<g id="a29_0013"  >
<polygon style="stroke:black; stroke-width:1; fill:grey; " points="728,60 733,55 778,55 778,65 733,65 728,60 "  />
</g>
<g id="a29_0014"  >
<polygon style="stroke:black; stroke-width:1; fill:grey; " points="732,60 737,55 778,55 778,65 737,65 732,60 "  />
</g>
<g id="a29_0015"  >
<polygon style="stroke:black; stroke-width:1; fill:grey; " points="735,60 740,55 778,55 778,65 740,65 735,60 "  />
</g>
</svg>
