<svg xmlns="http://www.w3.org/2000/svg" height="0" width="768.0" version="1.1" y="0" x="0" preserveAspectRatio="none" xmlns:xlink="http://www.w3.org/1999/xlink" viewBox="0 -30 819.2 0"  >
<g  >
<line y1="60" x2="778.0" style="stroke:grey; stroke-width:2; " x1="10" y2="60"  />
</g>
<g id="a51_000"  >
<polygon style="stroke:black; stroke-width:1; fill:grey; " points="10,60 15,55 72,55 72,65 15,65 10,60 "  />
</g>
<g id="a51_001"  >
<polygon style="stroke:black; stroke-width:1; fill:grey; " points="88,60 89,55 89,65 88,60 "  />
</g>
<g id="a51_002"  >
<polygon style="stroke:black; stroke-width:1; fill:#810E15; " points="97,60 102,55 115,55 115,65 102,65 97,60 "  />
</g>
<g id="a51_003"  >
<polygon style="stroke:black; stroke-width:1; fill:grey; " points="222,60 227,55 233,55 233,65 227,65 222,60 "  />
</g>
<g id="a51_004"  >
<polygon style="stroke:black; stroke-width:1; fill:grey; " points="249,60 254,55 268,55 268,65 254,65 249,60 "  />
</g>
<g id="a51_005"  >
<polygon style="stroke:black; stroke-width:1; fill:grey; " points="282,60 286,55 286,65 282,60 "  />
</g>
<g id="a51_006"  >
<polygon style="stroke:black; stroke-width:1; fill:#810E15; " points="294,65 305,65 310,60 305,55 294,55 294,65 "  />
</g>
<g id="a51_007"  >
<polygon style="stroke:black; stroke-width:1; fill:grey; " points="351,65 352,60 351,55 351,65 "  />
</g>
<g id="a51_008"  >
<polygon style="stroke:black; stroke-width:1; fill:#810E15; " points="356,65 364,65 369,60 364,55 356,55 356,65 "  />
</g>
<g id="a51_009"  >
<polygon style="stroke:black; stroke-width:1; fill:#810E15; " points="473,65 487,65 492,60 487,55 473,55 473,65 "  />
</g>
<g id="a51_0010"  >
<polygon style="stroke:black; stroke-width:1; fill:grey; " points="479,65 487,65 492,60 487,55 479,55 479,65 "  />
</g>
<g id="a51_0011"  >
<polygon style="stroke:black; stroke-width:1; fill:grey; " points="540,65 543,60 540,55 540,65 "  />
</g>
<g id="a51_0012"  >
<polygon style="stroke:black; stroke-width:1; fill:#810E15; " points="545,65 554,65 559,60 554,55 545,55 545,65 "  />
</g>
<g id="a51_0013"  >
<polygon style="stroke:black; stroke-width:1; fill:#810E15; " points="609,65 621,65 626,60 621,55 609,55 609,65 "  />
</g>
<g id="a51_0014"  >
<polygon style="stroke:black; stroke-width:1; fill:#810E15; " points="648,65 658,65 663,60 658,55 648,55 648,65 "  />
</g>
<g id="a51_0015"  >
<polygon style="stroke:black; stroke-width:1; fill:#810E15; " points="681,65 689,65 694,60 689,55 681,55 681,65 "  />
</g>
<g id="a51_0016"  >
<polygon style="stroke:black; stroke-width:1; fill:#810E15; " points="708,65 723,65 728,60 723,55 708,55 708,65 "  />
</g>
<g id="a51_0017"  >
<polygon style="stroke:black; stroke-width:1; fill:grey; " points="753,60 758,55 759,55 759,65 758,65 753,60 "  />
</g>
<g id="a51_0018"  >
<polygon style="stroke:black; stroke-width:1; fill:grey; " points="776,60 778,55 778,65 776,60 "  />
</g>
</svg>
