<svg xmlns="http://www.w3.org/2000/svg" height="0" width="768.0" version="1.1" y="0" x="0" preserveAspectRatio="none" xmlns:xlink="http://www.w3.org/1999/xlink" viewBox="0 -30 819.2 0"  >
<g  >
<line y1="60" x2="778.0" style="stroke:grey; stroke-width:2; " x1="10" y2="60"  />
</g>
<g id="a58_000"  >
<polygon style="stroke:black; stroke-width:1; fill:grey; " points="10,60 15,55 17,55 17,65 15,65 10,60 "  />
</g>
<g id="a58_001"  >
<polygon style="stroke:black; stroke-width:1; fill:#810E15; " points="46,60 51,55 51,55 51,65 51,65 46,60 "  />
</g>
<g id="a58_002"  >
<polygon style="stroke:black; stroke-width:1; fill:#810E15; " points="150,65 151,60 150,55 150,65 "  />
</g>
<g id="a58_003"  >
<polygon style="stroke:black; stroke-width:1; fill:#810E15; " points="166,65 168,60 166,55 166,65 "  />
</g>
<g id="a58_004"  >
<polygon style="stroke:black; stroke-width:1; fill:grey; " points="196,65 196,60 196,55 196,65 "  />
</g>
<g id="a58_005"  >
<polygon style="stroke:black; stroke-width:1; fill:#810E15; " points="218,65 219,60 218,55 218,65 "  />
</g>
<g id="a58_006"  >
<polygon style="stroke:black; stroke-width:1; fill:#810E15; " points="233,65 236,60 233,55 233,65 "  />
</g>
<g id="a58_007"  >
<polygon style="stroke:black; stroke-width:1; fill:grey; " points="261,65 262,60 261,55 261,65 "  />
</g>
<g id="a58_008"  >
<polygon style="stroke:black; stroke-width:1; fill:#810E15; " points="281,65 285,60 281,55 281,65 "  />
</g>
<g id="a58_009"  >
<polygon style="stroke:black; stroke-width:1; fill:grey; " points="309,60 312,55 312,65 309,60 "  />
</g>
<g id="a58_0010"  >
<polygon style="stroke:black; stroke-width:1; fill:grey; " points="330,65 333,60 330,55 330,65 "  />
</g>
<g id="a58_0011"  >
<polygon style="stroke:black; stroke-width:1; fill:grey; " points="336,65 337,60 336,55 336,65 "  />
</g>
<g id="a58_0012"  >
<polygon style="stroke:black; stroke-width:1; fill:grey; " points="342,60 343,55 343,65 342,60 "  />
</g>
<g id="a58_0013"  >
<polygon style="stroke:black; stroke-width:1; fill:#810E15; " points="356,65 356,65 361,60 356,55 356,55 356,65 "  />
</g>
<g id="a58_0014"  >
<polygon style="stroke:black; stroke-width:1; fill:grey; " points="365,65 368,60 365,55 365,65 "  />
</g>
<g id="a58_0015"  >
<polygon style="stroke:black; stroke-width:1; fill:grey; " points="374,60 375,55 375,65 374,60 "  />
</g>
<g id="a58_0016"  >
<polygon style="stroke:black; stroke-width:1; fill:grey; " points="384,65 387,65 392,60 387,55 384,55 384,65 "  />
</g>
<g id="a58_0017"  >
<polygon style="stroke:black; stroke-width:1; fill:grey; " points="393,65 397,60 393,55 393,65 "  />
</g>
<g id="a58_0018"  >
<polygon style="stroke:black; stroke-width:1; fill:#810E15; " points="424,65 424,65 429,60 424,55 424,55 424,65 "  />
</g>
<g id="a58_0019"  >
<polygon style="stroke:black; stroke-width:1; fill:grey; " points="437,65 440,60 437,55 437,65 "  />
</g>
<g id="a58_0020"  >
<polygon style="stroke:black; stroke-width:1; fill:#810E15; " points="446,65 448,60 446,55 446,65 "  />
</g>
<g id="a58_0021"  >
<polygon style="stroke:black; stroke-width:1; fill:#810E15; " points="459,65 463,60 459,55 459,65 "  />
</g>
<g id="a58_0022"  >
<polygon style="stroke:black; stroke-width:1; fill:grey; " points="483,65 484,60 483,55 483,65 "  />
</g>
<g id="a58_0023"  >
<polygon style="stroke:black; stroke-width:1; fill:#810E15; " points="495,65 499,60 495,55 495,65 "  />
</g>
<g id="a58_0024"  >
<polygon style="stroke:black; stroke-width:1; fill:#810E15; " points="505,65 509,60 505,55 505,65 "  />
</g>
<g id="a58_0025"  >
<polygon style="stroke:black; stroke-width:1; fill:grey; " points="533,65 537,60 533,55 533,65 "  />
</g>
<g id="a58_0026"  >
<polygon style="stroke:black; stroke-width:1; fill:#810E15; " points="551,65 555,60 551,55 551,65 "  />
</g>
<g id="a58_0027"  >
<polygon style="stroke:black; stroke-width:1; fill:#810E15; " points="560,65 560,65 565,60 560,55 560,55 560,65 "  />
</g>
<g id="a58_0028"  >
<polygon style="stroke:black; stroke-width:1; fill:grey; " points="568,65 572,60 568,55 568,65 "  />
</g>
<g id="a58_0029"  >
<polygon style="stroke:black; stroke-width:1; fill:grey; " points="587,65 591,65 596,60 591,55 587,55 587,65 "  />
</g>
<g id="a58_0030"  >
<polygon style="stroke:black; stroke-width:1; fill:grey; " points="598,60 599,55 599,65 598,60 "  />
</g>
<g id="a58_0031"  >
<polygon style="stroke:black; stroke-width:1; fill:#810E15; " points="604,65 604,65 609,60 604,55 604,55 604,65 "  />
</g>
<g id="a58_0032"  >
<polygon style="stroke:black; stroke-width:1; fill:#810E15; " points="628,65 628,65 633,60 628,55 628,55 628,65 "  />
</g>
<g id="a58_0033"  >
<polygon style="stroke:black; stroke-width:1; fill:grey; " points="634,60 635,55 635,65 634,60 "  />
</g>
<g id="a58_0034"  >
<polygon style="stroke:black; stroke-width:1; fill:grey; " points="643,65 644,65 649,60 644,55 643,55 643,65 "  />
</g>
<g id="a58_0035"  >
<polygon style="stroke:black; stroke-width:1; fill:#810E15; " points="654,65 658,60 654,55 654,65 "  />
</g>
<g id="a58_0036"  >
<polygon style="stroke:black; stroke-width:1; fill:grey; " points="704,60 706,55 706,65 704,60 "  />
</g>
<g id="a58_0037"  >
<polygon style="stroke:black; stroke-width:1; fill:#810E15; " points="708,65 709,60 708,55 708,65 "  />
</g>
<g id="a58_0038"  >
<polygon style="stroke:black; stroke-width:1; fill:grey; " points="718,60 723,55 723,55 723,65 723,65 718,60 "  />
</g>
<g id="a58_0039"  >
<polygon style="stroke:black; stroke-width:1; fill:grey; " points="738,65 742,60 738,55 738,65 "  />
</g>
<g id="a58_0040"  >
<polygon style="stroke:black; stroke-width:1; fill:grey; " points="754,60 755,55 755,65 754,60 "  />
</g>
<g id="a58_0041"  >
<polygon style="stroke:black; stroke-width:1; fill:#810E15; " points="761,65 765,60 761,55 761,65 "  />
</g>
<g id="a58_0042"  >
<polygon style="stroke:black; stroke-width:1; fill:#810E15; " points="773,65 773,65 778,60 773,55 773,55 773,65 "  />
</g>
</svg>
