<svg xmlns="http://www.w3.org/2000/svg" height="0" width="768.0" version="1.1" y="0" x="0" preserveAspectRatio="none" xmlns:xlink="http://www.w3.org/1999/xlink" viewBox="0 -30 819.2 0"  >
<g  >
<line y1="60" x2="778.0" style="stroke:grey; stroke-width:2; " x1="10" y2="60"  />
</g>
<g id="a32_000"  >
<polygon style="stroke:black; stroke-width:1; fill:grey; " points="10,65 10,65 15,60 10,55 10,55 10,65 "  />
</g>
<g id="a32_001"  >
<polygon style="stroke:black; stroke-width:1; fill:grey; " points="17,60 22,55 23,55 23,65 22,65 17,60 "  />
</g>
<g id="a32_002"  >
<polygon style="stroke:black; stroke-width:1; fill:grey; " points="29,60 34,55 48,55 48,65 34,65 29,60 "  />
</g>
<g id="a32_003"  >
<polygon style="stroke:black; stroke-width:1; fill:grey; " points="68,60 69,55 69,65 68,60 "  />
</g>
<g id="a32_004"  >
<polygon style="stroke:black; stroke-width:1; fill:grey; " points="82,65 85,60 82,55 82,65 "  />
</g>
<g id="a32_005"  >
<polygon style="stroke:black; stroke-width:1; fill:grey; " points="93,60 95,55 95,65 93,60 "  />
</g>
<g id="a32_006"  >
<polygon style="stroke:black; stroke-width:1; fill:grey; " points="103,65 104,60 103,55 103,65 "  />
</g>
<g id="a32_007"  >
<polygon style="stroke:black; stroke-width:1; fill:grey; " points="115,65 116,60 115,55 115,65 "  />
</g>
<g id="a32_008"  >
<polygon style="stroke:black; stroke-width:1; fill:grey; " points="124,65 126,60 124,55 124,65 "  />
</g>
<g id="a32_009"  >
<polygon style="stroke:black; stroke-width:1; fill:grey; " points="129,65 129,60 129,55 129,65 "  />
</g>
<g id="a32_0010"  >
<polygon style="stroke:black; stroke-width:1; fill:grey; " points="136,60 141,55 143,55 143,65 141,65 136,60 "  />
</g>
<g id="a32_0011"  >
<polygon style="stroke:black; stroke-width:1; fill:grey; " points="146,60 149,55 149,65 146,60 "  />
</g>
<g id="a32_0012"  >
<polygon style="stroke:black; stroke-width:1; fill:grey; " points="156,60 161,55 161,55 161,65 161,65 156,60 "  />
</g>
<g id="a32_0013"  >
<polygon style="stroke:black; stroke-width:1; fill:grey; " points="172,60 177,55 182,55 182,65 177,65 172,60 "  />
</g>
<g id="a32_0014"  >
<polygon style="stroke:black; stroke-width:1; fill:grey; " points="189,60 189,55 189,65 189,60 "  />
</g>
<g id="a32_0015"  >
<polygon style="stroke:black; stroke-width:1; fill:grey; " points="198,60 199,55 199,65 198,60 "  />
</g>
<g id="a32_0016"  >
<polygon style="stroke:black; stroke-width:1; fill:grey; " points="202,60 207,55 208,55 208,65 207,65 202,60 "  />
</g>
<g id="a32_0017"  >
<polygon style="stroke:black; stroke-width:1; fill:grey; " points="234,60 236,55 236,65 234,60 "  />
</g>
<g id="a32_0018"  >
<polygon style="stroke:black; stroke-width:1; fill:grey; " points="248,65 248,60 248,55 248,65 "  />
</g>
<g id="a32_0019"  >
<polygon style="stroke:black; stroke-width:1; fill:grey; " points="254,60 256,55 256,65 254,60 "  />
</g>
<g id="a32_0020"  >
<polygon style="stroke:black; stroke-width:1; fill:grey; " points="277,65 277,60 277,55 277,65 "  />
</g>
<g id="a32_0021"  >
<polygon style="stroke:black; stroke-width:1; fill:grey; " points="278,60 279,55 279,65 278,60 "  />
</g>
<g id="a32_0022"  >
<polygon style="stroke:black; stroke-width:1; fill:grey; " points="291,60 294,55 294,65 291,60 "  />
</g>
<g id="a32_0023"  >
<polygon style="stroke:black; stroke-width:1; fill:grey; " points="302,60 306,55 306,65 302,60 "  />
</g>
<g id="a32_0024"  >
<polygon style="stroke:black; stroke-width:1; fill:grey; " points="315,60 319,55 319,65 315,60 "  />
</g>
<g id="a32_0025"  >
<polygon style="stroke:black; stroke-width:1; fill:grey; " points="332,60 333,55 333,65 332,60 "  />
</g>
<g id="a32_0026"  >
<polygon style="stroke:black; stroke-width:1; fill:grey; " points="344,65 348,60 344,55 344,65 "  />
</g>
<g id="a32_0027"  >
<polygon style="stroke:black; stroke-width:1; fill:grey; " points="345,65 348,60 345,55 345,65 "  />
</g>
<g id="a32_0028"  >
<polygon style="stroke:black; stroke-width:1; fill:grey; " points="346,65 348,60 346,55 346,65 "  />
</g>
<g id="a32_0029"  >
<polygon style="stroke:black; stroke-width:1; fill:#810E15; " points="359,60 364,55 364,55 364,65 364,65 359,60 "  />
</g>
<g id="a32_0030"  >
<polygon style="stroke:black; stroke-width:1; fill:#810E15; " points="359,60 364,55 364,55 364,65 364,65 359,60 "  />
</g>
<g id="a32_0031"  >
<polygon style="stroke:black; stroke-width:1; fill:grey; " points="378,60 379,55 379,65 378,60 "  />
</g>
<g id="a32_0032"  >
<polygon style="stroke:black; stroke-width:1; fill:#810E15; " points="382,60 383,55 383,65 382,60 "  />
</g>
<g id="a32_0033"  >
<polygon style="stroke:black; stroke-width:1; fill:#810E15; " points="388,60 393,55 393,55 393,65 393,65 388,60 "  />
</g>
<g id="a32_0034"  >
<polygon style="stroke:black; stroke-width:1; fill:grey; " points="405,60 406,55 406,65 405,60 "  />
</g>
<g id="a32_0035"  >
<polygon style="stroke:black; stroke-width:1; fill:#810E15; " points="408,60 410,55 410,65 408,60 "  />
</g>
<g id="a32_0036"  >
<polygon style="stroke:black; stroke-width:1; fill:grey; " points="413,60 414,55 414,65 413,60 "  />
</g>
<g id="a32_0037"  >
<polygon style="stroke:black; stroke-width:1; fill:#810E15; " points="434,65 435,60 434,55 434,65 "  />
</g>
<g id="a32_0038"  >
<polygon style="stroke:black; stroke-width:1; fill:grey; " points="440,65 441,60 440,55 440,65 "  />
</g>
<g id="a32_0039"  >
<polygon style="stroke:black; stroke-width:1; fill:grey; " points="454,65 455,60 454,55 454,65 "  />
</g>
<g id="a32_0040"  >
<polygon style="stroke:black; stroke-width:1; fill:grey; " points="470,65 470,60 470,55 470,65 "  />
</g>
<g id="a32_0041"  >
<polygon style="stroke:black; stroke-width:1; fill:grey; " points="473,65 473,60 473,55 473,65 "  />
</g>
<g id="a32_0042"  >
<polygon style="stroke:black; stroke-width:1; fill:grey; " points="478,60 479,55 479,65 478,60 "  />
</g>
<g id="a32_0043"  >
<polygon style="stroke:black; stroke-width:1; fill:grey; " points="494,65 494,65 499,60 494,55 494,55 494,65 "  />
</g>
<g id="a32_0044"  >
<polygon style="stroke:black; stroke-width:1; fill:grey; " points="494,65 497,65 502,60 497,55 494,55 494,65 "  />
</g>
<g id="a32_0045"  >
<polygon style="stroke:black; stroke-width:1; fill:grey; " points="494,65 497,65 502,60 497,55 494,55 494,65 "  />
</g>
<g id="a32_0046"  >
<polygon style="stroke:black; stroke-width:1; fill:grey; " points="509,65 512,60 509,55 509,65 "  />
</g>
<g id="a32_0047"  >
<polygon style="stroke:black; stroke-width:1; fill:grey; " points="513,65 514,60 513,55 513,65 "  />
</g>
<g id="a32_0048"  >
<polygon style="stroke:black; stroke-width:1; fill:grey; " points="515,65 522,65 527,60 522,55 515,55 515,65 "  />
</g>
<g id="a32_0049"  >
<polygon style="stroke:black; stroke-width:1; fill:grey; " points="515,65 522,65 527,60 522,55 515,55 515,65 "  />
</g>
<g id="a32_0050"  >
<polygon style="stroke:black; stroke-width:1; fill:grey; " points="532,65 536,60 532,55 532,65 "  />
</g>
<g id="a32_0051"  >
<polygon style="stroke:black; stroke-width:1; fill:grey; " points="539,60 544,55 544,55 544,65 544,65 539,60 "  />
</g>
<g id="a32_0052"  >
<polygon style="stroke:black; stroke-width:1; fill:grey; " points="554,60 554,55 554,65 554,60 "  />
</g>
<g id="a32_0053"  >
<polygon style="stroke:black; stroke-width:1; fill:grey; " points="579,65 585,65 590,60 585,55 579,55 579,65 "  />
</g>
<g id="a32_0054"  >
<polygon style="stroke:black; stroke-width:1; fill:grey; " points="592,65 593,60 592,55 592,65 "  />
</g>
<g id="a32_0055"  >
<polygon style="stroke:black; stroke-width:1; fill:grey; " points="596,60 601,55 603,55 603,65 601,65 596,60 "  />
</g>
<g id="a32_0056"  >
<polygon style="stroke:black; stroke-width:1; fill:grey; " points="610,65 610,60 610,55 610,65 "  />
</g>
<g id="a32_0057"  >
<polygon style="stroke:black; stroke-width:1; fill:grey; " points="612,60 617,55 618,55 618,65 617,65 612,60 "  />
</g>
<g id="a32_0058"  >
<polygon style="stroke:black; stroke-width:1; fill:grey; " points="622,60 627,55 627,55 627,65 627,65 622,60 "  />
</g>
<g id="a32_0059"  >
<polygon style="stroke:black; stroke-width:1; fill:grey; " points="622,60 627,55 627,55 627,65 627,65 622,60 "  />
</g>
<g id="a32_0060"  >
<polygon style="stroke:black; stroke-width:1; fill:grey; " points="623,60 627,55 627,65 623,60 "  />
</g>
<g id="a32_0061"  >
<polygon style="stroke:black; stroke-width:1; fill:grey; " points="642,60 647,55 648,55 648,65 647,65 642,60 "  />
</g>
<g id="a32_0062"  >
<polygon style="stroke:black; stroke-width:1; fill:grey; " points="651,65 651,65 656,60 651,55 651,55 651,65 "  />
</g>
<g id="a32_0063"  >
<polygon style="stroke:black; stroke-width:1; fill:grey; " points="660,60 663,55 663,65 660,60 "  />
</g>
<g id="a32_0064"  >
<polygon style="stroke:black; stroke-width:1; fill:grey; " points="662,60 663,55 663,65 662,60 "  />
</g>
<g id="a32_0065"  >
<polygon style="stroke:black; stroke-width:1; fill:grey; " points="667,60 671,55 671,65 667,60 "  />
</g>
<g id="a32_0066"  >
<polygon style="stroke:black; stroke-width:1; fill:grey; " points="668,60 671,55 671,65 668,60 "  />
</g>
<g id="a32_0067"  >
<polygon style="stroke:black; stroke-width:1; fill:grey; " points="672,65 678,65 683,60 678,55 672,55 672,65 "  />
</g>
<g id="a32_0068"  >
<polygon style="stroke:black; stroke-width:1; fill:grey; " points="690,60 695,55 695,55 695,65 695,65 690,60 "  />
</g>
<g id="a32_0069"  >
<polygon style="stroke:black; stroke-width:1; fill:grey; " points="702,65 704,60 702,55 702,65 "  />
</g>
<g id="a32_0070"  >
<polygon style="stroke:black; stroke-width:1; fill:grey; " points="702,65 704,60 702,55 702,65 "  />
</g>
<g id="a32_0071"  >
<polygon style="stroke:black; stroke-width:1; fill:grey; " points="707,65 711,60 707,55 707,65 "  />
</g>
<g id="a32_0072"  >
<polygon style="stroke:black; stroke-width:1; fill:grey; " points="734,60 737,55 737,65 734,60 "  />
</g>
<g id="a32_0073"  >
<polygon style="stroke:black; stroke-width:1; fill:grey; " points="741,60 742,55 742,65 741,60 "  />
</g>
<g id="a32_0074"  >
<polygon style="stroke:black; stroke-width:1; fill:grey; " points="746,65 747,60 746,55 746,65 "  />
</g>
<g id="a32_0075"  >
<polygon style="stroke:black; stroke-width:1; fill:grey; " points="759,65 761,60 759,55 759,65 "  />
</g>
<g id="a32_0076"  >
<polygon style="stroke:black; stroke-width:1; fill:grey; " points="765,60 768,55 768,65 765,60 "  />
</g>
<g id="a32_0077"  >
<polygon style="stroke:black; stroke-width:1; fill:grey; " points="774,65 775,60 774,55 774,65 "  />
</g>
<g id="a32_0078"  >
<polygon style="stroke:black; stroke-width:1; fill:grey; " points="777,60 778,55 778,65 777,60 "  />
</g>
</svg>
