<svg xmlns="http://www.w3.org/2000/svg" height="0" width="768.0" version="1.1" y="0" x="0" preserveAspectRatio="none" xmlns:xlink="http://www.w3.org/1999/xlink" viewBox="0 -30 819.2 0"  >
<g  >
<line y1="60" x2="778.0" style="stroke:grey; stroke-width:2; " x1="10" y2="60"  />
</g>
<g id="a56_000"  >
<polygon style="stroke:black; stroke-width:1; fill:grey; " points="10,65 15,65 20,60 15,55 10,55 10,65 "  />
</g>
<g id="a56_001"  >
<polygon style="stroke:black; stroke-width:1; fill:#810E15; " points="99,60 104,55 126,55 126,65 104,65 99,60 "  />
</g>
<g id="a56_002"  >
<polygon style="stroke:black; stroke-width:1; fill:grey; " points="139,65 141,65 146,60 141,55 139,55 139,65 "  />
</g>
<g id="a56_003"  >
<polygon style="stroke:black; stroke-width:1; fill:grey; " points="178,60 183,55 192,55 192,65 183,65 178,60 "  />
</g>
<g id="a56_004"  >
<polygon style="stroke:black; stroke-width:1; fill:#810E15; " points="207,60 212,55 236,55 236,65 212,65 207,60 "  />
</g>
<g id="a56_005"  >
<polygon style="stroke:black; stroke-width:1; fill:grey; " points="210,60 215,55 236,55 236,65 215,65 210,60 "  />
</g>
<g id="a56_006"  >
<polygon style="stroke:black; stroke-width:1; fill:grey; " points="217,60 222,55 236,55 236,65 222,65 217,60 "  />
</g>
<g id="a56_007"  >
<polygon style="stroke:black; stroke-width:1; fill:#810E15; " points="270,60 275,55 280,55 280,65 275,65 270,60 "  />
</g>
<g id="a56_008"  >
<polygon style="stroke:black; stroke-width:1; fill:#810E15; " points="306,60 311,55 340,55 340,65 311,65 306,60 "  />
</g>
<g id="a56_009"  >
<polygon style="stroke:black; stroke-width:1; fill:grey; " points="415,60 419,55 419,65 415,60 "  />
</g>
<g id="a56_0010"  >
<polygon style="stroke:black; stroke-width:1; fill:#810E15; " points="453,60 458,55 483,55 483,65 458,65 453,60 "  />
</g>
<g id="a56_0011"  >
<polygon style="stroke:black; stroke-width:1; fill:#810E15; " points="499,60 504,55 516,55 516,65 504,65 499,60 "  />
</g>
<g id="a56_0012"  >
<polygon style="stroke:black; stroke-width:1; fill:grey; " points="570,65 570,65 575,60 570,55 570,55 570,65 "  />
</g>
<g id="a56_0013"  >
<polygon style="stroke:black; stroke-width:1; fill:grey; " points="577,65 577,65 582,60 577,55 577,55 577,65 "  />
</g>
<g id="a56_0014"  >
<polygon style="stroke:black; stroke-width:1; fill:#810E15; " points="627,60 632,55 655,55 655,65 632,65 627,60 "  />
</g>
<g id="a56_0015"  >
<polygon style="stroke:black; stroke-width:1; fill:#810E15; " points="763,65 773,65 778,60 773,55 763,55 763,65 "  />
</g>
</svg>
