<svg xmlns="http://www.w3.org/2000/svg" height="0" width="768.0" version="1.1" y="0" x="0" preserveAspectRatio="none" xmlns:xlink="http://www.w3.org/1999/xlink" viewBox="0 -30 819.2 0"  >
<g  >
<line y1="60" x2="778.0" style="stroke:grey; stroke-width:2; " x1="10" y2="60"  />
</g>
<g id="a7_000"  >
<polygon style="stroke:black; stroke-width:1; fill:#810E15; " points="10,65 26,65 31,60 26,55 10,55 10,65 "  />
</g>
<g id="a7_001"  >
<polygon style="stroke:black; stroke-width:1; fill:grey; " points="43,65 43,65 48,60 43,55 43,55 43,65 "  />
</g>
<g id="a7_002"  >
<polygon style="stroke:black; stroke-width:1; fill:grey; " points="51,65 54,60 51,55 51,65 "  />
</g>
<g id="a7_003"  >
<polygon style="stroke:black; stroke-width:1; fill:grey; " points="132,60 137,55 140,55 140,65 137,65 132,60 "  />
</g>
<g id="a7_004"  >
<polygon style="stroke:black; stroke-width:1; fill:#810E15; " points="282,65 329,65 334,60 329,55 282,55 282,65 "  />
</g>
<g id="a7_005"  >
<polygon style="stroke:black; stroke-width:1; fill:grey; " points="339,60 344,55 354,55 354,65 344,65 339,60 "  />
</g>
<g id="a7_006"  >
<polygon style="stroke:black; stroke-width:1; fill:#810E15; " points="385,60 390,55 396,55 396,65 390,65 385,60 "  />
</g>
<g id="a7_007"  >
<polygon style="stroke:black; stroke-width:1; fill:#810E15; " points="405,60 410,55 416,55 416,65 410,65 405,60 "  />
</g>
<g id="a7_008"  >
<polygon style="stroke:black; stroke-width:1; fill:grey; " points="460,60 465,55 479,55 479,65 465,65 460,60 "  />
</g>
<g id="a7_009"  >
<polygon style="stroke:black; stroke-width:1; fill:grey; " points="533,65 536,65 541,60 536,55 533,55 533,65 "  />
</g>
<g id="a7_0010"  >
<polygon style="stroke:black; stroke-width:1; fill:#810E15; " points="592,65 616,65 621,60 616,55 592,55 592,65 "  />
</g>
<g id="a7_0011"  >
<polygon style="stroke:black; stroke-width:1; fill:#810E15; " points="659,65 684,65 689,60 684,55 659,55 659,65 "  />
</g>
<g id="a7_0012"  >
<polygon style="stroke:black; stroke-width:1; fill:grey; " points="708,60 713,55 736,55 736,65 713,65 708,60 "  />
</g>
<g id="a7_0013"  >
<polygon style="stroke:black; stroke-width:1; fill:grey; " points="769,60 774,55 778,55 778,65 774,65 769,60 "  />
</g>
</svg>
