<svg xmlns="http://www.w3.org/2000/svg" height="0" width="768.0" version="1.1" y="0" x="0" preserveAspectRatio="none" xmlns:xlink="http://www.w3.org/1999/xlink" viewBox="0 -30 819.2 0"  >
<g  >
<line y1="60" x2="778.0" style="stroke:grey; stroke-width:2; " x1="10" y2="60"  />
</g>
<g id="a34_000"  >
<polygon style="stroke:black; stroke-width:1; fill:#810E15; " points="10,60 15,55 51,55 51,65 15,65 10,60 "  />
</g>
<g id="a34_001"  >
<polygon style="stroke:black; stroke-width:1; fill:#810E15; " points="220,60 225,55 264,55 264,65 225,65 220,60 "  />
</g>
<g id="a34_002"  >
<polygon style="stroke:black; stroke-width:1; fill:grey; " points="287,60 292,55 336,55 336,65 292,65 287,60 "  />
</g>
<g id="a34_003"  >
<polygon style="stroke:black; stroke-width:1; fill:grey; " points="287,60 292,55 365,55 365,65 292,65 287,60 "  />
</g>
<g id="a34_004"  >
<polygon style="stroke:black; stroke-width:1; fill:grey; " points="397,60 402,55 463,55 463,65 402,65 397,60 "  />
</g>
<g id="a34_005"  >
<polygon style="stroke:black; stroke-width:1; fill:grey; " points="580,65 624,65 629,60 624,55 580,55 580,65 "  />
</g>
<g id="a34_006"  >
<polygon style="stroke:black; stroke-width:1; fill:#810E15; " points="639,60 644,55 677,55 677,65 644,65 639,60 "  />
</g>
<g id="a34_007"  >
<polygon style="stroke:black; stroke-width:1; fill:grey; " points="715,60 720,55 777,55 777,65 720,65 715,60 "  />
</g>
<g id="a34_008"  >
<polygon style="stroke:black; stroke-width:1; fill:grey; " points="715,60 720,55 778,55 778,65 720,65 715,60 "  />
</g>
</svg>
