<svg xmlns="http://www.w3.org/2000/svg" height="0" width="768.0" version="1.1" y="0" x="0" preserveAspectRatio="none" xmlns:xlink="http://www.w3.org/1999/xlink" viewBox="0 -30 819.2 0"  >
<g  >
<line y1="60" x2="778.0" style="stroke:grey; stroke-width:2; " x1="10" y2="60"  />
</g>
<g id="a19_000"  >
<polygon style="stroke:black; stroke-width:1; fill:grey; " points="10,65 11,60 10,55 10,65 "  />
</g>
<g id="a19_001"  >
<polygon style="stroke:black; stroke-width:1; fill:grey; " points="23,60 24,55 24,65 23,60 "  />
</g>
<g id="a19_002"  >
<polygon style="stroke:black; stroke-width:1; fill:#810E15; " points="35,60 37,55 37,65 35,60 "  />
</g>
<g id="a19_003"  >
<polygon style="stroke:black; stroke-width:1; fill:grey; " points="48,60 53,55 59,55 59,65 53,65 48,60 "  />
</g>
<g id="a19_004"  >
<polygon style="stroke:black; stroke-width:1; fill:grey; " points="70,65 73,65 78,60 73,55 70,55 70,65 "  />
</g>
<g id="a19_005"  >
<polygon style="stroke:black; stroke-width:1; fill:grey; " points="88,60 91,55 91,65 88,60 "  />
</g>
<g id="a19_006"  >
<polygon style="stroke:black; stroke-width:1; fill:grey; " points="94,60 95,55 95,65 94,60 "  />
</g>
<g id="a19_007"  >
<polygon style="stroke:black; stroke-width:1; fill:grey; " points="105,60 107,55 107,65 105,60 "  />
</g>
<g id="a19_008"  >
<polygon style="stroke:black; stroke-width:1; fill:#810E15; " points="114,60 119,55 126,55 126,65 119,65 114,60 "  />
</g>
<g id="a19_009"  >
<polygon style="stroke:black; stroke-width:1; fill:grey; " points="173,60 178,55 178,55 178,65 178,65 173,60 "  />
</g>
<g id="a19_0010"  >
<polygon style="stroke:black; stroke-width:1; fill:#810E15; " points="270,65 274,65 279,60 274,55 270,55 270,65 "  />
</g>
<g id="a19_0011"  >
<polygon style="stroke:black; stroke-width:1; fill:#810E15; " points="285,60 287,55 287,65 285,60 "  />
</g>
<g id="a19_0012"  >
<polygon style="stroke:black; stroke-width:1; fill:#810E15; " points="288,60 292,55 292,65 288,60 "  />
</g>
<g id="a19_0013"  >
<polygon style="stroke:black; stroke-width:1; fill:#810E15; " points="311,65 317,65 322,60 317,55 311,55 311,65 "  />
</g>
<g id="a19_0014"  >
<polygon style="stroke:black; stroke-width:1; fill:#810E15; " points="328,60 333,55 334,55 334,65 333,65 328,60 "  />
</g>
<g id="a19_0015"  >
<polygon style="stroke:black; stroke-width:1; fill:grey; " points="351,60 355,55 355,65 351,60 "  />
</g>
<g id="a19_0016"  >
<polygon style="stroke:black; stroke-width:1; fill:grey; " points="355,65 356,60 355,55 355,65 "  />
</g>
<g id="a19_0017"  >
<polygon style="stroke:black; stroke-width:1; fill:#810E15; " points="372,60 377,55 379,55 379,65 377,65 372,60 "  />
</g>
<g id="a19_0018"  >
<polygon style="stroke:black; stroke-width:1; fill:#810E15; " points="397,65 400,65 405,60 400,55 397,55 397,65 "  />
</g>
<g id="a19_0019"  >
<polygon style="stroke:black; stroke-width:1; fill:grey; " points="408,60 410,55 410,65 408,60 "  />
</g>
<g id="a19_0020"  >
<polygon style="stroke:black; stroke-width:1; fill:#810E15; " points="420,60 425,55 426,55 426,65 425,65 420,60 "  />
</g>
<g id="a19_0021"  >
<polygon style="stroke:black; stroke-width:1; fill:grey; " points="442,65 442,65 447,60 442,55 442,55 442,65 "  />
</g>
<g id="a19_0022"  >
<polygon style="stroke:black; stroke-width:1; fill:#810E15; " points="503,60 508,55 513,55 513,65 508,65 503,60 "  />
</g>
<g id="a19_0023"  >
<polygon style="stroke:black; stroke-width:1; fill:grey; " points="539,65 540,60 539,55 539,65 "  />
</g>
<g id="a19_0024"  >
<polygon style="stroke:black; stroke-width:1; fill:#810E15; " points="554,60 559,55 559,55 559,65 559,65 554,60 "  />
</g>
<g id="a19_0025"  >
<polygon style="stroke:black; stroke-width:1; fill:grey; " points="568,60 573,55 575,55 575,65 573,65 568,60 "  />
</g>
<g id="a19_0026"  >
<polygon style="stroke:black; stroke-width:1; fill:grey; " points="592,60 593,55 593,65 592,60 "  />
</g>
<g id="a19_0027"  >
<polygon style="stroke:black; stroke-width:1; fill:grey; " points="596,60 601,55 607,55 607,65 601,65 596,60 "  />
</g>
<g id="a19_0028"  >
<polygon style="stroke:black; stroke-width:1; fill:grey; " points="596,60 601,55 611,55 611,65 601,65 596,60 "  />
</g>
<g id="a19_0029"  >
<polygon style="stroke:black; stroke-width:1; fill:#810E15; " points="596,60 601,55 613,55 613,65 601,65 596,60 "  />
</g>
<g id="a19_0030"  >
<polygon style="stroke:black; stroke-width:1; fill:grey; " points="596,60 601,55 613,55 613,65 601,65 596,60 "  />
</g>
<g id="a19_0031"  >
<polygon style="stroke:black; stroke-width:1; fill:grey; " points="596,60 601,55 613,55 613,65 601,65 596,60 "  />
</g>
<g id="a19_0032"  >
<polygon style="stroke:black; stroke-width:1; fill:#810E15; " points="657,60 662,55 664,55 664,65 662,65 657,60 "  />
</g>
<g id="a19_0033"  >
<polygon style="stroke:black; stroke-width:1; fill:#810E15; " points="681,60 686,55 687,55 687,65 686,65 681,60 "  />
</g>
<g id="a19_0034"  >
<polygon style="stroke:black; stroke-width:1; fill:#810E15; " points="710,60 715,55 715,55 715,65 715,65 710,60 "  />
</g>
<g id="a19_0035"  >
<polygon style="stroke:black; stroke-width:1; fill:#810E15; " points="721,60 726,55 727,55 727,65 726,65 721,60 "  />
</g>
<g id="a19_0036"  >
<polygon style="stroke:black; stroke-width:1; fill:#810E15; " points="731,60 736,55 737,55 737,65 736,65 731,60 "  />
</g>
<g id="a19_0037"  >
<polygon style="stroke:black; stroke-width:1; fill:grey; " points="743,60 744,55 744,65 743,60 "  />
</g>
<g id="a19_0038"  >
<polygon style="stroke:black; stroke-width:1; fill:grey; " points="757,60 759,55 759,65 757,60 "  />
</g>
<g id="a19_0039"  >
<polygon style="stroke:black; stroke-width:1; fill:grey; " points="773,65 773,65 778,60 773,55 773,55 773,65 "  />
</g>
</svg>
