<svg xmlns="http://www.w3.org/2000/svg" height="0" width="768.0" version="1.1" y="0" x="0" preserveAspectRatio="none" xmlns:xlink="http://www.w3.org/1999/xlink" viewBox="0 -30 819.2 0"  >
<g  >
<line y1="60" x2="778.0" style="stroke:grey; stroke-width:2; " x1="10" y2="60"  />
</g>
<g id="a62_000"  >
<polygon style="stroke:black; stroke-width:1; fill:grey; " points="10,65 12,60 10,55 10,65 "  />
</g>
<g id="a62_001"  >
<polygon style="stroke:black; stroke-width:1; fill:grey; " points="26,60 31,55 53,55 53,65 31,65 26,60 "  />
</g>
<g id="a62_002"  >
<polygon style="stroke:black; stroke-width:1; fill:grey; " points="84,65 86,60 84,55 84,65 "  />
</g>
<g id="a62_003"  >
<polygon style="stroke:black; stroke-width:1; fill:#810E15; " points="95,60 100,55 117,55 117,65 100,65 95,60 "  />
</g>
<g id="a62_004"  >
<polygon style="stroke:black; stroke-width:1; fill:#810E15; " points="160,60 165,55 203,55 203,65 165,65 160,60 "  />
</g>
<g id="a62_005"  >
<polygon style="stroke:black; stroke-width:1; fill:grey; " points="450,65 450,65 455,60 450,55 450,55 450,65 "  />
</g>
<g id="a62_006"  >
<polygon style="stroke:black; stroke-width:1; fill:grey; " points="477,65 479,60 477,55 477,65 "  />
</g>
<g id="a62_007"  >
<polygon style="stroke:black; stroke-width:1; fill:grey; " points="533,65 533,65 538,60 533,55 533,55 533,65 "  />
</g>
<g id="a62_008"  >
<polygon style="stroke:black; stroke-width:1; fill:#810E15; " points="559,65 565,65 570,60 565,55 559,55 559,65 "  />
</g>
<g id="a62_009"  >
<polygon style="stroke:black; stroke-width:1; fill:grey; " points="633,65 639,65 644,60 639,55 633,55 633,65 "  />
</g>
<g id="a62_0010"  >
<polygon style="stroke:black; stroke-width:1; fill:grey; " points="648,60 650,55 650,65 648,60 "  />
</g>
<g id="a62_0011"  >
<polygon style="stroke:black; stroke-width:1; fill:grey; " points="669,60 674,55 709,55 709,65 674,65 669,60 "  />
</g>
<g id="a62_0012"  >
<polygon style="stroke:black; stroke-width:1; fill:#810E15; " points="729,60 734,55 744,55 744,65 734,65 729,60 "  />
</g>
<g id="a62_0013"  >
<polygon style="stroke:black; stroke-width:1; fill:grey; " points="748,65 765,65 770,60 765,55 748,55 748,65 "  />
</g>
<g id="a62_0014"  >
<polygon style="stroke:black; stroke-width:1; fill:grey; " points="775,65 778,60 775,55 775,65 "  />
</g>
</svg>
