<svg xmlns="http://www.w3.org/2000/svg" height="0" width="768.0" version="1.1" y="0" x="0" preserveAspectRatio="none" xmlns:xlink="http://www.w3.org/1999/xlink" viewBox="0 -30 819.2 0"  >
<g  >
<line y1="60" x2="778.0" style="stroke:grey; stroke-width:2; " x1="10" y2="60"  />
</g>
<g id="a1_000"  >
<polygon style="stroke:black; stroke-width:1; fill:grey; " points="10,60 15,55 19,55 19,65 15,65 10,60 "  />
</g>
<g id="a1_001"  >
<polygon style="stroke:black; stroke-width:1; fill:grey; " points="26,65 28,60 26,55 26,65 "  />
</g>
<g id="a1_002"  >
<polygon style="stroke:black; stroke-width:1; fill:grey; " points="30,65 40,65 45,60 40,55 30,55 30,65 "  />
</g>
<g id="a1_003"  >
<polygon style="stroke:black; stroke-width:1; fill:grey; " points="30,65 40,65 45,60 40,55 30,55 30,65 "  />
</g>
<g id="a1_004"  >
<polygon style="stroke:black; stroke-width:1; fill:grey; " points="51,60 56,55 57,55 57,65 56,65 51,60 "  />
</g>
<g id="a1_005"  >
<polygon style="stroke:black; stroke-width:1; fill:grey; " points="58,60 63,55 71,55 71,65 63,65 58,60 "  />
</g>
<g id="a1_006"  >
<polygon style="stroke:black; stroke-width:1; fill:grey; " points="80,60 82,55 82,65 80,60 "  />
</g>
<g id="a1_007"  >
<polygon style="stroke:black; stroke-width:1; fill:grey; " points="100,60 105,55 108,55 108,65 105,65 100,60 "  />
</g>
<g id="a1_008"  >
<polygon style="stroke:black; stroke-width:1; fill:grey; " points="112,60 117,55 122,55 122,65 117,65 112,60 "  />
</g>
<g id="a1_009"  >
<polygon style="stroke:black; stroke-width:1; fill:grey; " points="114,60 119,55 122,55 122,65 119,65 114,60 "  />
</g>
<g id="a1_0010"  >
<polygon style="stroke:black; stroke-width:1; fill:grey; " points="126,60 131,55 134,55 134,65 131,65 126,60 "  />
</g>
<g id="a1_0011"  >
<polygon style="stroke:black; stroke-width:1; fill:grey; " points="156,60 156,55 156,65 156,60 "  />
</g>
<g id="a1_0012"  >
<polygon style="stroke:black; stroke-width:1; fill:grey; " points="160,65 174,65 179,60 174,55 160,55 160,65 "  />
</g>
<g id="a1_0013"  >
<polygon style="stroke:black; stroke-width:1; fill:grey; " points="186,65 189,65 194,60 189,55 186,55 186,65 "  />
</g>
<g id="a1_0014"  >
<polygon style="stroke:black; stroke-width:1; fill:grey; " points="205,65 207,60 205,55 205,65 "  />
</g>
<g id="a1_0015"  >
<polygon style="stroke:black; stroke-width:1; fill:grey; " points="211,65 236,65 241,60 236,55 211,55 211,65 "  />
</g>
<g id="a1_0016"  >
<polygon style="stroke:black; stroke-width:1; fill:grey; " points="246,65 249,60 246,55 246,65 "  />
</g>
<g id="a1_0017"  >
<polygon style="stroke:black; stroke-width:1; fill:grey; " points="258,60 259,55 259,65 258,60 "  />
</g>
<g id="a1_0018"  >
<polygon style="stroke:black; stroke-width:1; fill:grey; " points="263,65 263,65 268,60 263,55 263,55 263,65 "  />
</g>
<g id="a1_0019"  >
<polygon style="stroke:black; stroke-width:1; fill:grey; " points="283,60 288,55 297,55 297,65 288,65 283,60 "  />
</g>
<g id="a1_0020"  >
<polygon style="stroke:black; stroke-width:1; fill:grey; " points="319,65 321,65 326,60 321,55 319,55 319,65 "  />
</g>
<g id="a1_0021"  >
<polygon style="stroke:black; stroke-width:1; fill:grey; " points="331,65 335,65 340,60 335,55 331,55 331,65 "  />
</g>
<g id="a1_0022"  >
<polygon style="stroke:black; stroke-width:1; fill:grey; " points="374,65 381,65 386,60 381,55 374,55 374,65 "  />
</g>
<g id="a1_0023"  >
<polygon style="stroke:black; stroke-width:1; fill:#810E15; " points="390,60 394,55 394,65 390,60 "  />
</g>
<g id="a1_0024"  >
<polygon style="stroke:black; stroke-width:1; fill:grey; " points="401,60 404,55 404,65 401,60 "  />
</g>
<g id="a1_0025"  >
<polygon style="stroke:black; stroke-width:1; fill:grey; " points="405,60 410,55 413,55 413,65 410,65 405,60 "  />
</g>
<g id="a1_0026"  >
<polygon style="stroke:black; stroke-width:1; fill:grey; " points="435,60 440,55 444,55 444,65 440,65 435,60 "  />
</g>
<g id="a1_0027"  >
<polygon style="stroke:black; stroke-width:1; fill:grey; " points="452,60 457,55 457,55 457,65 457,65 452,60 "  />
</g>
<g id="a1_0028"  >
<polygon style="stroke:black; stroke-width:1; fill:grey; " points="452,60 457,55 461,55 461,65 457,65 452,60 "  />
</g>
<g id="a1_0029"  >
<polygon style="stroke:black; stroke-width:1; fill:grey; " points="464,60 469,55 470,55 470,65 469,65 464,60 "  />
</g>
<g id="a1_0030"  >
<polygon style="stroke:black; stroke-width:1; fill:grey; " points="474,65 474,65 479,60 474,55 474,55 474,65 "  />
</g>
<g id="a1_0031"  >
<polygon style="stroke:black; stroke-width:1; fill:grey; " points="480,65 481,60 480,55 480,65 "  />
</g>
<g id="a1_0032"  >
<polygon style="stroke:black; stroke-width:1; fill:grey; " points="493,60 498,55 514,55 514,65 498,65 493,60 "  />
</g>
<g id="a1_0033"  >
<polygon style="stroke:black; stroke-width:1; fill:grey; " points="493,60 498,55 514,55 514,65 498,65 493,60 "  />
</g>
<g id="a1_0034"  >
<polygon style="stroke:black; stroke-width:1; fill:grey; " points="493,60 498,55 514,55 514,65 498,65 493,60 "  />
</g>
<g id="a1_0035"  >
<polygon style="stroke:black; stroke-width:1; fill:grey; " points="496,60 501,55 514,55 514,65 501,65 496,60 "  />
</g>
<g id="a1_0036"  >
<polygon style="stroke:black; stroke-width:1; fill:grey; " points="496,60 501,55 514,55 514,65 501,65 496,60 "  />
</g>
<g id="a1_0037"  >
<polygon style="stroke:black; stroke-width:1; fill:grey; " points="500,60 505,55 514,55 514,65 505,65 500,60 "  />
</g>
<g id="a1_0038"  >
<polygon style="stroke:black; stroke-width:1; fill:grey; " points="520,65 525,65 530,60 525,55 520,55 520,65 "  />
</g>
<g id="a1_0039"  >
<polygon style="stroke:black; stroke-width:1; fill:grey; " points="532,65 533,65 538,60 533,55 532,55 532,65 "  />
</g>
<g id="a1_0040"  >
<polygon style="stroke:black; stroke-width:1; fill:grey; " points="560,65 562,65 567,60 562,55 560,55 560,65 "  />
</g>
<g id="a1_0041"  >
<polygon style="stroke:black; stroke-width:1; fill:grey; " points="572,65 574,65 579,60 574,55 572,55 572,65 "  />
</g>
<g id="a1_0042"  >
<polygon style="stroke:black; stroke-width:1; fill:grey; " points="584,65 592,65 597,60 592,55 584,55 584,65 "  />
</g>
<g id="a1_0043"  >
<polygon style="stroke:black; stroke-width:1; fill:grey; " points="616,60 618,55 618,65 616,60 "  />
</g>
<g id="a1_0044"  >
<polygon style="stroke:black; stroke-width:1; fill:grey; " points="662,65 665,65 670,60 665,55 662,55 662,65 "  />
</g>
<g id="a1_0045"  >
<polygon style="stroke:black; stroke-width:1; fill:grey; " points="747,60 752,55 757,55 757,65 752,65 747,60 "  />
</g>
<g id="a1_0046"  >
<polygon style="stroke:black; stroke-width:1; fill:grey; " points="775,65 778,60 775,55 775,65 "  />
</g>
</svg>
