<svg xmlns="http://www.w3.org/2000/svg" height="0" width="768.0" version="1.1" y="0" x="0" preserveAspectRatio="none" xmlns:xlink="http://www.w3.org/1999/xlink" viewBox="0 -30 819.2 0"  >
<g  >
<line y1="60" x2="778.0" style="stroke:grey; stroke-width:2; " x1="10" y2="60"  />
</g>
<g id="a38_000"  >
<polygon style="stroke:black; stroke-width:1; fill:grey; " points="10,60 15,55 54,55 54,65 15,65 10,60 "  />
</g>
<g id="a38_001"  >
<polygon style="stroke:black; stroke-width:1; fill:grey; " points="58,65 59,60 58,55 58,65 "  />
</g>
<g id="a38_002"  >
<polygon style="stroke:black; stroke-width:1; fill:#810E15; " points="66,60 71,55 76,55 76,65 71,65 66,60 "  />
</g>
<g id="a38_003"  >
<polygon style="stroke:black; stroke-width:1; fill:grey; " points="91,60 96,55 100,55 100,65 96,65 91,60 "  />
</g>
<g id="a38_004"  >
<polygon style="stroke:black; stroke-width:1; fill:grey; " points="107,65 108,60 107,55 107,65 "  />
</g>
<g id="a38_005"  >
<polygon style="stroke:black; stroke-width:1; fill:grey; " points="124,65 125,65 130,60 125,55 124,55 124,65 "  />
</g>
<g id="a38_006"  >
<polygon style="stroke:black; stroke-width:1; fill:#810E15; " points="153,65 155,65 160,60 155,55 153,55 153,65 "  />
</g>
<g id="a38_007"  >
<polygon style="stroke:black; stroke-width:1; fill:#810E15; " points="174,65 176,65 181,60 176,55 174,55 174,65 "  />
</g>
<g id="a38_008"  >
<polygon style="stroke:black; stroke-width:1; fill:grey; " points="183,60 188,55 188,55 188,65 188,65 183,60 "  />
</g>
<g id="a38_009"  >
<polygon style="stroke:black; stroke-width:1; fill:grey; " points="189,60 194,55 203,55 203,65 194,65 189,60 "  />
</g>
<g id="a38_0010"  >
<polygon style="stroke:black; stroke-width:1; fill:grey; " points="242,60 243,55 243,65 242,60 "  />
</g>
<g id="a38_0011"  >
<polygon style="stroke:black; stroke-width:1; fill:grey; " points="245,60 250,55 269,55 269,65 250,65 245,60 "  />
</g>
<g id="a38_0012"  >
<polygon style="stroke:black; stroke-width:1; fill:grey; " points="302,65 306,60 302,55 302,65 "  />
</g>
<g id="a38_0013"  >
<polygon style="stroke:black; stroke-width:1; fill:#810E15; " points="314,60 319,55 321,55 321,65 319,65 314,60 "  />
</g>
<g id="a38_0014"  >
<polygon style="stroke:black; stroke-width:1; fill:grey; " points="322,65 332,65 337,60 332,55 322,55 322,65 "  />
</g>
<g id="a38_0015"  >
<polygon style="stroke:black; stroke-width:1; fill:grey; " points="337,60 339,55 339,65 337,60 "  />
</g>
<g id="a38_0016"  >
<polygon style="stroke:black; stroke-width:1; fill:grey; " points="346,65 347,60 346,55 346,65 "  />
</g>
<g id="a38_0017"  >
<polygon style="stroke:black; stroke-width:1; fill:grey; " points="347,60 352,55 358,55 358,65 352,65 347,60 "  />
</g>
<g id="a38_0018"  >
<polygon style="stroke:black; stroke-width:1; fill:grey; " points="377,65 378,65 383,60 378,55 377,55 377,65 "  />
</g>
<g id="a38_0019"  >
<polygon style="stroke:black; stroke-width:1; fill:grey; " points="393,60 398,55 398,55 398,65 398,65 393,60 "  />
</g>
<g id="a38_0020"  >
<polygon style="stroke:black; stroke-width:1; fill:grey; " points="420,65 436,65 441,60 436,55 420,55 420,65 "  />
</g>
<g id="a38_0021"  >
<polygon style="stroke:black; stroke-width:1; fill:grey; " points="447,65 449,60 447,55 447,65 "  />
</g>
<g id="a38_0022"  >
<polygon style="stroke:black; stroke-width:1; fill:#810E15; " points="455,65 472,65 477,60 472,55 455,55 455,65 "  />
</g>
<g id="a38_0023"  >
<polygon style="stroke:black; stroke-width:1; fill:grey; " points="479,65 480,60 479,55 479,65 "  />
</g>
<g id="a38_0024"  >
<polygon style="stroke:black; stroke-width:1; fill:grey; " points="482,60 485,55 485,65 482,60 "  />
</g>
<g id="a38_0025"  >
<polygon style="stroke:black; stroke-width:1; fill:grey; " points="496,60 499,55 499,65 496,60 "  />
</g>
<g id="a38_0026"  >
<polygon style="stroke:black; stroke-width:1; fill:grey; " points="531,65 538,65 543,60 538,55 531,55 531,65 "  />
</g>
<g id="a38_0027"  >
<polygon style="stroke:black; stroke-width:1; fill:grey; " points="531,65 539,65 544,60 539,55 531,55 531,65 "  />
</g>
<g id="a38_0028"  >
<polygon style="stroke:black; stroke-width:1; fill:grey; " points="546,60 551,55 553,55 553,65 551,65 546,60 "  />
</g>
<g id="a38_0029"  >
<polygon style="stroke:black; stroke-width:1; fill:grey; " points="556,65 559,65 564,60 559,55 556,55 556,65 "  />
</g>
<g id="a38_0030"  >
<polygon style="stroke:black; stroke-width:1; fill:grey; " points="556,65 564,65 569,60 564,55 556,55 556,65 "  />
</g>
<g id="a38_0031"  >
<polygon style="stroke:black; stroke-width:1; fill:#810E15; " points="580,65 580,65 585,60 580,55 580,55 580,65 "  />
</g>
<g id="a38_0032"  >
<polygon style="stroke:black; stroke-width:1; fill:#810E15; " points="595,65 596,65 601,60 596,55 595,55 595,65 "  />
</g>
<g id="a38_0033"  >
<polygon style="stroke:black; stroke-width:1; fill:#810E15; " points="609,65 612,65 617,60 612,55 609,55 609,65 "  />
</g>
<g id="a38_0034"  >
<polygon style="stroke:black; stroke-width:1; fill:#810E15; " points="632,65 633,65 638,60 633,55 632,55 632,65 "  />
</g>
<g id="a38_0035"  >
<polygon style="stroke:black; stroke-width:1; fill:#810E15; " points="661,65 664,60 661,55 661,65 "  />
</g>
<g id="a38_0036"  >
<polygon style="stroke:black; stroke-width:1; fill:grey; " points="667,65 668,65 673,60 668,55 667,55 667,65 "  />
</g>
<g id="a38_0037"  >
<polygon style="stroke:black; stroke-width:1; fill:#810E15; " points="680,65 681,65 686,60 681,55 680,55 680,65 "  />
</g>
<g id="a38_0038"  >
<polygon style="stroke:black; stroke-width:1; fill:#810E15; " points="698,65 701,60 698,55 698,65 "  />
</g>
<g id="a38_0039"  >
<polygon style="stroke:black; stroke-width:1; fill:grey; " points="720,60 723,55 723,65 720,60 "  />
</g>
<g id="a38_0040"  >
<polygon style="stroke:black; stroke-width:1; fill:grey; " points="725,65 773,65 778,60 773,55 725,55 725,65 "  />
</g>
</svg>
