<svg xmlns="http://www.w3.org/2000/svg" height="0" width="768.0" version="1.1" y="0" x="0" preserveAspectRatio="none" xmlns:xlink="http://www.w3.org/1999/xlink" viewBox="0 -30 819.2 0"  >
<g  >
<line y1="60" x2="778.0" style="stroke:grey; stroke-width:2; " x1="10" y2="60"  />
</g>
<g id="a3_000"  >
<polygon style="stroke:black; stroke-width:1; fill:grey; " points="10,60 14,55 14,65 10,60 "  />
</g>
<g id="a3_001"  >
<polygon style="stroke:black; stroke-width:1; fill:#810E15; " points="51,65 51,65 56,60 51,55 51,55 51,65 "  />
</g>
<g id="a3_002"  >
<polygon style="stroke:black; stroke-width:1; fill:#810E15; " points="68,65 68,65 73,60 68,55 68,55 68,65 "  />
</g>
<g id="a3_003"  >
<polygon style="stroke:black; stroke-width:1; fill:grey; " points="78,60 80,55 80,65 78,60 "  />
</g>
<g id="a3_004"  >
<polygon style="stroke:black; stroke-width:1; fill:#810E15; " points="104,65 104,65 109,60 104,55 104,55 104,65 "  />
</g>
<g id="a3_005"  >
<polygon style="stroke:black; stroke-width:1; fill:#810E15; " points="125,60 130,55 130,55 130,65 130,65 125,60 "  />
</g>
<g id="a3_006"  >
<polygon style="stroke:black; stroke-width:1; fill:#810E15; " points="152,60 157,55 158,55 158,65 157,65 152,60 "  />
</g>
<g id="a3_007"  >
<polygon style="stroke:black; stroke-width:1; fill:grey; " points="159,65 161,60 159,55 159,65 "  />
</g>
<g id="a3_008"  >
<polygon style="stroke:black; stroke-width:1; fill:grey; " points="167,65 169,60 167,55 167,65 "  />
</g>
<g id="a3_009"  >
<polygon style="stroke:black; stroke-width:1; fill:#810E15; " points="173,60 178,55 181,55 181,65 178,65 173,60 "  />
</g>
<g id="a3_0010"  >
<polygon style="stroke:black; stroke-width:1; fill:#810E15; " points="219,65 223,65 228,60 223,55 219,55 219,65 "  />
</g>
<g id="a3_0011"  >
<polygon style="stroke:black; stroke-width:1; fill:#810E15; " points="272,60 277,55 277,55 277,65 277,65 272,60 "  />
</g>
<g id="a3_0012"  >
<polygon style="stroke:black; stroke-width:1; fill:grey; " points="342,60 345,55 345,65 342,60 "  />
</g>
<g id="a3_0013"  >
<polygon style="stroke:black; stroke-width:1; fill:#810E15; " points="378,60 383,55 383,55 383,65 383,65 378,60 "  />
</g>
<g id="a3_0014"  >
<polygon style="stroke:black; stroke-width:1; fill:grey; " points="396,60 399,55 399,65 396,60 "  />
</g>
<g id="a3_0015"  >
<polygon style="stroke:black; stroke-width:1; fill:grey; " points="433,65 434,60 433,55 433,65 "  />
</g>
<g id="a3_0016"  >
<polygon style="stroke:black; stroke-width:1; fill:grey; " points="489,60 494,55 509,55 509,65 494,65 489,60 "  />
</g>
<g id="a3_0017"  >
<polygon style="stroke:black; stroke-width:1; fill:grey; " points="516,65 518,60 516,55 516,65 "  />
</g>
<g id="a3_0018"  >
<polygon style="stroke:black; stroke-width:1; fill:#810E15; " points="522,60 527,55 527,55 527,65 527,65 522,60 "  />
</g>
<g id="a3_0019"  >
<polygon style="stroke:black; stroke-width:1; fill:#810E15; " points="555,60 558,55 558,65 555,60 "  />
</g>
<g id="a3_0020"  >
<polygon style="stroke:black; stroke-width:1; fill:grey; " points="601,65 605,60 601,55 601,65 "  />
</g>
<g id="a3_0021"  >
<polygon style="stroke:black; stroke-width:1; fill:grey; " points="627,65 631,60 627,55 627,65 "  />
</g>
<g id="a3_0022"  >
<polygon style="stroke:black; stroke-width:1; fill:#810E15; " points="654,65 654,65 659,60 654,55 654,55 654,65 "  />
</g>
<g id="a3_0023"  >
<polygon style="stroke:black; stroke-width:1; fill:grey; " points="668,65 670,60 668,55 668,65 "  />
</g>
<g id="a3_0024"  >
<polygon style="stroke:black; stroke-width:1; fill:grey; " points="742,65 745,60 742,55 742,65 "  />
</g>
<g id="a3_0025"  >
<polygon style="stroke:black; stroke-width:1; fill:#810E15; " points="748,60 753,55 753,55 753,65 753,65 748,60 "  />
</g>
<g id="a3_0026"  >
<polygon style="stroke:black; stroke-width:1; fill:grey; " points="760,60 765,55 778,55 778,65 765,65 760,60 "  />
</g>
<g id="a3_0027"  >
<polygon style="stroke:black; stroke-width:1; fill:grey; " points="768,60 773,55 778,55 778,65 773,65 768,60 "  />
</g>
</svg>
