<svg xmlns="http://www.w3.org/2000/svg" height="0" width="768.0" version="1.1" y="0" x="0" preserveAspectRatio="none" xmlns:xlink="http://www.w3.org/1999/xlink" viewBox="0 -30 819.2 0"  >
<g  >
<line y1="60" x2="778.0" style="stroke:grey; stroke-width:2; " x1="10" y2="60"  />
</g>
<g id="a65_000"  >
<polygon style="stroke:black; stroke-width:1; fill:grey; " points="10,60 13,55 13,65 10,60 "  />
</g>
<g id="a65_001"  >
<polygon style="stroke:black; stroke-width:1; fill:grey; " points="64,60 66,55 66,65 64,60 "  />
</g>
<g id="a65_002"  >
<polygon style="stroke:black; stroke-width:1; fill:grey; " points="79,60 80,55 80,65 79,60 "  />
</g>
<g id="a65_003"  >
<polygon style="stroke:black; stroke-width:1; fill:grey; " points="93,65 94,60 93,55 93,65 "  />
</g>
<g id="a65_004"  >
<polygon style="stroke:black; stroke-width:1; fill:grey; " points="96,65 96,60 96,55 96,65 "  />
</g>
<g id="a65_005"  >
<polygon style="stroke:black; stroke-width:1; fill:grey; " points="105,65 106,60 105,55 105,65 "  />
</g>
<g id="a65_006"  >
<polygon style="stroke:black; stroke-width:1; fill:grey; " points="107,65 108,60 107,55 107,65 "  />
</g>
<g id="a65_007"  >
<polygon style="stroke:black; stroke-width:1; fill:grey; " points="135,65 139,60 135,55 135,65 "  />
</g>
<g id="a65_008"  >
<polygon style="stroke:black; stroke-width:1; fill:grey; " points="143,65 145,65 150,60 145,55 143,55 143,65 "  />
</g>
<g id="a65_009"  >
<polygon style="stroke:black; stroke-width:1; fill:grey; " points="161,65 171,65 176,60 171,55 161,55 161,65 "  />
</g>
<g id="a65_0010"  >
<polygon style="stroke:black; stroke-width:1; fill:grey; " points="199,65 202,60 199,55 199,65 "  />
</g>
<g id="a65_0011"  >
<polygon style="stroke:black; stroke-width:1; fill:grey; " points="215,65 216,60 215,55 215,65 "  />
</g>
<g id="a65_0012"  >
<polygon style="stroke:black; stroke-width:1; fill:grey; " points="220,65 223,60 220,55 220,65 "  />
</g>
<g id="a65_0013"  >
<polygon style="stroke:black; stroke-width:1; fill:grey; " points="226,60 231,55 232,55 232,65 231,65 226,60 "  />
</g>
<g id="a65_0014"  >
<polygon style="stroke:black; stroke-width:1; fill:grey; " points="245,60 250,55 256,55 256,65 250,65 245,60 "  />
</g>
<g id="a65_0015"  >
<polygon style="stroke:black; stroke-width:1; fill:grey; " points="312,60 317,55 324,55 324,65 317,65 312,60 "  />
</g>
<g id="a65_0016"  >
<polygon style="stroke:black; stroke-width:1; fill:#810E15; " points="333,60 336,55 336,65 333,60 "  />
</g>
<g id="a65_0017"  >
<polygon style="stroke:black; stroke-width:1; fill:grey; " points="349,65 357,65 362,60 357,55 349,55 349,65 "  />
</g>
<g id="a65_0018"  >
<polygon style="stroke:black; stroke-width:1; fill:#810E15; " points="363,60 368,55 369,55 369,65 368,65 363,60 "  />
</g>
<g id="a65_0019"  >
<polygon style="stroke:black; stroke-width:1; fill:grey; " points="372,65 376,60 372,55 372,65 "  />
</g>
<g id="a65_0020"  >
<polygon style="stroke:black; stroke-width:1; fill:grey; " points="400,65 405,65 410,60 405,55 400,55 400,65 "  />
</g>
<g id="a65_0021"  >
<polygon style="stroke:black; stroke-width:1; fill:grey; " points="416,65 416,65 421,60 416,55 416,55 416,65 "  />
</g>
<g id="a65_0022"  >
<polygon style="stroke:black; stroke-width:1; fill:grey; " points="429,60 434,55 442,55 442,65 434,65 429,60 "  />
</g>
<g id="a65_0023"  >
<polygon style="stroke:black; stroke-width:1; fill:#810E15; " points="449,60 454,55 464,55 464,65 454,65 449,60 "  />
</g>
<g id="a65_0024"  >
<polygon style="stroke:black; stroke-width:1; fill:grey; " points="471,60 476,55 510,55 510,65 476,65 471,60 "  />
</g>
<g id="a65_0025"  >
<polygon style="stroke:black; stroke-width:1; fill:#810E15; " points="522,65 525,65 530,60 525,55 522,55 522,65 "  />
</g>
<g id="a65_0026"  >
<polygon style="stroke:black; stroke-width:1; fill:grey; " points="552,60 554,55 554,65 552,60 "  />
</g>
<g id="a65_0027"  >
<polygon style="stroke:black; stroke-width:1; fill:grey; " points="560,65 561,60 560,55 560,65 "  />
</g>
<g id="a65_0028"  >
<polygon style="stroke:black; stroke-width:1; fill:grey; " points="572,60 573,55 573,65 572,60 "  />
</g>
<g id="a65_0029"  >
<polygon style="stroke:black; stroke-width:1; fill:grey; " points="575,65 576,60 575,55 575,65 "  />
</g>
<g id="a65_0030"  >
<polygon style="stroke:black; stroke-width:1; fill:grey; " points="578,65 579,60 578,55 578,65 "  />
</g>
<g id="a65_0031"  >
<polygon style="stroke:black; stroke-width:1; fill:grey; " points="580,60 581,55 581,65 580,60 "  />
</g>
<g id="a65_0032"  >
<polygon style="stroke:black; stroke-width:1; fill:grey; " points="589,60 593,55 593,65 589,60 "  />
</g>
<g id="a65_0033"  >
<polygon style="stroke:black; stroke-width:1; fill:grey; " points="590,60 593,55 593,65 590,60 "  />
</g>
<g id="a65_0034"  >
<polygon style="stroke:black; stroke-width:1; fill:grey; " points="595,60 595,55 595,65 595,60 "  />
</g>
<g id="a65_0035"  >
<polygon style="stroke:black; stroke-width:1; fill:grey; " points="597,60 598,55 598,65 597,60 "  />
</g>
<g id="a65_0036"  >
<polygon style="stroke:black; stroke-width:1; fill:grey; " points="607,60 612,55 616,55 616,65 612,65 607,60 "  />
</g>
<g id="a65_0037"  >
<polygon style="stroke:black; stroke-width:1; fill:grey; " points="618,65 619,60 618,55 618,65 "  />
</g>
<g id="a65_0038"  >
<polygon style="stroke:black; stroke-width:1; fill:grey; " points="621,60 622,55 622,65 621,60 "  />
</g>
<g id="a65_0039"  >
<polygon style="stroke:black; stroke-width:1; fill:grey; " points="624,65 625,60 624,55 624,65 "  />
</g>
<g id="a65_0040"  >
<polygon style="stroke:black; stroke-width:1; fill:grey; " points="627,60 629,55 629,65 627,60 "  />
</g>
<g id="a65_0041"  >
<polygon style="stroke:black; stroke-width:1; fill:grey; " points="649,60 654,55 658,55 658,65 654,65 649,60 "  />
</g>
<g id="a65_0042"  >
<polygon style="stroke:black; stroke-width:1; fill:grey; " points="665,60 666,55 666,65 665,60 "  />
</g>
<g id="a65_0043"  >
<polygon style="stroke:black; stroke-width:1; fill:grey; " points="724,65 725,60 724,55 724,65 "  />
</g>
<g id="a65_0044"  >
<polygon style="stroke:black; stroke-width:1; fill:#810E15; " points="735,65 738,60 735,55 735,65 "  />
</g>
<g id="a65_0045"  >
<polygon style="stroke:black; stroke-width:1; fill:grey; " points="742,65 743,60 742,55 742,65 "  />
</g>
<g id="a65_0046"  >
<polygon style="stroke:black; stroke-width:1; fill:grey; " points="745,65 746,65 751,60 746,55 745,55 745,65 "  />
</g>
<g id="a65_0047"  >
<polygon style="stroke:black; stroke-width:1; fill:#810E15; " points="757,60 762,55 766,55 766,65 762,65 757,60 "  />
</g>
<g id="a65_0048"  >
<polygon style="stroke:black; stroke-width:1; fill:grey; " points="777,60 778,55 778,65 777,60 "  />
</g>
</svg>
