<svg xmlns="http://www.w3.org/2000/svg" height="0" width="768.0" version="1.1" y="0" x="0" preserveAspectRatio="none" xmlns:xlink="http://www.w3.org/1999/xlink" viewBox="0 -30 819.2 0"  >
<g  >
<line y1="60" x2="778.0" style="stroke:grey; stroke-width:2; " x1="10" y2="60"  />
</g>
<g id="a48_000"  >
<polygon style="stroke:black; stroke-width:1; fill:grey; " points="10,60 12,55 12,65 10,60 "  />
</g>
<g id="a48_001"  >
<polygon style="stroke:black; stroke-width:1; fill:grey; " points="13,60 18,55 27,55 27,65 18,65 13,60 "  />
</g>
<g id="a48_002"  >
<polygon style="stroke:black; stroke-width:1; fill:#810E15; " points="38,65 41,65 46,60 41,55 38,55 38,65 "  />
</g>
<g id="a48_003"  >
<polygon style="stroke:black; stroke-width:1; fill:grey; " points="48,60 53,55 55,55 55,65 53,65 48,60 "  />
</g>
<g id="a48_004"  >
<polygon style="stroke:black; stroke-width:1; fill:#810E15; " points="57,65 59,65 64,60 59,55 57,55 57,65 "  />
</g>
<g id="a48_005"  >
<polygon style="stroke:black; stroke-width:1; fill:#810E15; " points="69,60 74,55 77,55 77,65 74,65 69,60 "  />
</g>
<g id="a48_006"  >
<polygon style="stroke:black; stroke-width:1; fill:#810E15; " points="85,65 87,65 92,60 87,55 85,55 85,65 "  />
</g>
<g id="a48_007"  >
<polygon style="stroke:black; stroke-width:1; fill:#810E15; " points="101,60 106,55 108,55 108,65 106,65 101,60 "  />
</g>
<g id="a48_008"  >
<polygon style="stroke:black; stroke-width:1; fill:#810E15; " points="134,60 139,55 139,55 139,65 139,65 134,60 "  />
</g>
<g id="a48_009"  >
<polygon style="stroke:black; stroke-width:1; fill:#810E15; " points="144,65 152,65 157,60 152,55 144,55 144,65 "  />
</g>
<g id="a48_0010"  >
<polygon style="stroke:black; stroke-width:1; fill:#810E15; " points="162,65 164,65 169,60 164,55 162,55 162,65 "  />
</g>
<g id="a48_0011"  >
<polygon style="stroke:black; stroke-width:1; fill:grey; " points="187,65 191,60 187,55 187,65 "  />
</g>
<g id="a48_0012"  >
<polygon style="stroke:black; stroke-width:1; fill:#810E15; " points="198,65 204,65 209,60 204,55 198,55 198,65 "  />
</g>
<g id="a48_0013"  >
<polygon style="stroke:black; stroke-width:1; fill:#810E15; " points="217,65 220,65 225,60 220,55 217,55 217,65 "  />
</g>
<g id="a48_0014"  >
<polygon style="stroke:black; stroke-width:1; fill:grey; " points="305,65 308,60 305,55 305,65 "  />
</g>
<g id="a48_0015"  >
<polygon style="stroke:black; stroke-width:1; fill:grey; " points="315,65 316,60 315,55 315,65 "  />
</g>
<g id="a48_0016"  >
<polygon style="stroke:black; stroke-width:1; fill:grey; " points="317,65 322,65 327,60 322,55 317,55 317,65 "  />
</g>
<g id="a48_0017"  >
<polygon style="stroke:black; stroke-width:1; fill:grey; " points="350,65 355,65 360,60 355,55 350,55 350,65 "  />
</g>
<g id="a48_0018"  >
<polygon style="stroke:black; stroke-width:1; fill:grey; " points="350,65 360,65 365,60 360,55 350,55 350,65 "  />
</g>
<g id="a48_0019"  >
<polygon style="stroke:black; stroke-width:1; fill:#810E15; " points="371,60 376,55 419,55 419,65 376,65 371,60 "  />
</g>
<g id="a48_0020"  >
<polygon style="stroke:black; stroke-width:1; fill:grey; " points="451,60 456,55 460,55 460,65 456,65 451,60 "  />
</g>
<g id="a48_0021"  >
<polygon style="stroke:black; stroke-width:1; fill:#810E15; " points="503,60 508,55 514,55 514,65 508,65 503,60 "  />
</g>
<g id="a48_0022"  >
<polygon style="stroke:black; stroke-width:1; fill:#810E15; " points="553,60 558,55 561,55 561,65 558,65 553,60 "  />
</g>
<g id="a48_0023"  >
<polygon style="stroke:black; stroke-width:1; fill:grey; " points="624,60 626,55 626,65 624,60 "  />
</g>
<g id="a48_0024"  >
<polygon style="stroke:black; stroke-width:1; fill:grey; " points="646,65 646,65 651,60 646,55 646,55 646,65 "  />
</g>
<g id="a48_0025"  >
<polygon style="stroke:black; stroke-width:1; fill:grey; " points="666,65 667,65 672,60 667,55 666,55 666,65 "  />
</g>
<g id="a48_0026"  >
<polygon style="stroke:black; stroke-width:1; fill:grey; " points="679,60 684,55 708,55 708,65 684,65 679,60 "  />
</g>
<g id="a48_0027"  >
<polygon style="stroke:black; stroke-width:1; fill:#810E15; " points="720,60 725,55 728,55 728,65 725,65 720,60 "  />
</g>
<g id="a48_0028"  >
<polygon style="stroke:black; stroke-width:1; fill:grey; " points="760,65 773,65 778,60 773,55 760,55 760,65 "  />
</g>
</svg>
